%TF.GenerationSoftware,KiCad,Pcbnew,9.0.2-9.0.2-0~ubuntu24.04.1*%
%TF.CreationDate,2025-05-28T15:03:19-07:00*%
%TF.ProjectId,LoRa-BLE-Sensor,4c6f5261-2d42-44c4-952d-53656e736f72,1*%
%TF.SameCoordinates,Original*%
%TF.FileFunction,Paste,Top*%
%TF.FilePolarity,Positive*%
%FSLAX46Y46*%
G04 Gerber Fmt 4.6, Leading zero omitted, Abs format (unit mm)*
G04 Created by KiCad (PCBNEW 9.0.2-9.0.2-0~ubuntu24.04.1) date 2025-05-28 15:03:19*
%MOMM*%
%LPD*%
G01*
G04 APERTURE LIST*
G04 Aperture macros list*
%AMRoundRect*
0 Rectangle with rounded corners*
0 $1 Rounding radius*
0 $2 $3 $4 $5 $6 $7 $8 $9 X,Y pos of 4 corners*
0 Add a 4 corners polygon primitive as box body*
4,1,4,$2,$3,$4,$5,$6,$7,$8,$9,$2,$3,0*
0 Add four circle primitives for the rounded corners*
1,1,$1+$1,$2,$3*
1,1,$1+$1,$4,$5*
1,1,$1+$1,$6,$7*
1,1,$1+$1,$8,$9*
0 Add four rect primitives between the rounded corners*
20,1,$1+$1,$2,$3,$4,$5,0*
20,1,$1+$1,$4,$5,$6,$7,0*
20,1,$1+$1,$6,$7,$8,$9,0*
20,1,$1+$1,$8,$9,$2,$3,0*%
G04 Aperture macros list end*
%ADD10RoundRect,0.140000X-0.170000X0.140000X-0.170000X-0.140000X0.170000X-0.140000X0.170000X0.140000X0*%
%ADD11RoundRect,0.150000X-0.150000X0.587500X-0.150000X-0.587500X0.150000X-0.587500X0.150000X0.587500X0*%
%ADD12RoundRect,0.140000X-0.140000X-0.170000X0.140000X-0.170000X0.140000X0.170000X-0.140000X0.170000X0*%
%ADD13R,1.100000X0.500000*%
%ADD14RoundRect,0.225000X0.250000X-0.225000X0.250000X0.225000X-0.250000X0.225000X-0.250000X-0.225000X0*%
%ADD15R,1.000000X0.700000*%
%ADD16RoundRect,0.225000X-0.250000X0.225000X-0.250000X-0.225000X0.250000X-0.225000X0.250000X0.225000X0*%
%ADD17RoundRect,0.250000X0.450000X-0.262500X0.450000X0.262500X-0.450000X0.262500X-0.450000X-0.262500X0*%
%ADD18RoundRect,0.135000X0.135000X0.185000X-0.135000X0.185000X-0.135000X-0.185000X0.135000X-0.185000X0*%
%ADD19RoundRect,0.150000X0.150000X-0.512500X0.150000X0.512500X-0.150000X0.512500X-0.150000X-0.512500X0*%
%ADD20RoundRect,0.250000X0.375000X0.850000X-0.375000X0.850000X-0.375000X-0.850000X0.375000X-0.850000X0*%
%ADD21R,0.600000X0.700000*%
%ADD22RoundRect,0.040600X-0.564400X-0.249400X0.564400X-0.249400X0.564400X0.249400X-0.564400X0.249400X0*%
%ADD23R,0.500000X1.100000*%
%ADD24RoundRect,0.250000X-0.250000X-2.500000X0.250000X-2.500000X0.250000X2.500000X-0.250000X2.500000X0*%
%ADD25RoundRect,0.250000X-0.550000X-1.250000X0.550000X-1.250000X0.550000X1.250000X-0.550000X1.250000X0*%
%ADD26RoundRect,0.225000X-0.225000X-0.250000X0.225000X-0.250000X0.225000X0.250000X-0.225000X0.250000X0*%
%ADD27RoundRect,0.135000X0.185000X-0.135000X0.185000X0.135000X-0.185000X0.135000X-0.185000X-0.135000X0*%
%ADD28R,1.250000X0.750000*%
%ADD29R,0.750000X1.250000*%
%ADD30RoundRect,0.250000X0.475000X-0.250000X0.475000X0.250000X-0.475000X0.250000X-0.475000X-0.250000X0*%
%ADD31RoundRect,0.225000X0.225000X0.250000X-0.225000X0.250000X-0.225000X-0.250000X0.225000X-0.250000X0*%
%ADD32RoundRect,0.150000X-0.275000X0.150000X-0.275000X-0.150000X0.275000X-0.150000X0.275000X0.150000X0*%
%ADD33RoundRect,0.175000X-0.225000X0.175000X-0.225000X-0.175000X0.225000X-0.175000X0.225000X0.175000X0*%
%ADD34RoundRect,0.135000X-0.135000X-0.185000X0.135000X-0.185000X0.135000X0.185000X-0.135000X0.185000X0*%
%ADD35RoundRect,0.250000X0.650000X-1.000000X0.650000X1.000000X-0.650000X1.000000X-0.650000X-1.000000X0*%
%ADD36RoundRect,0.140000X0.170000X-0.140000X0.170000X0.140000X-0.170000X0.140000X-0.170000X-0.140000X0*%
%ADD37RoundRect,0.135000X-0.185000X0.135000X-0.185000X-0.135000X0.185000X-0.135000X0.185000X0.135000X0*%
%ADD38R,0.450000X1.100000*%
%ADD39R,0.700000X1.000000*%
%ADD40R,0.700000X0.600000*%
%ADD41R,0.740000X2.795000*%
%ADD42RoundRect,0.250000X1.075000X-0.375000X1.075000X0.375000X-1.075000X0.375000X-1.075000X-0.375000X0*%
%ADD43RoundRect,0.040600X0.249400X-0.564400X0.249400X0.564400X-0.249400X0.564400X-0.249400X-0.564400X0*%
%ADD44RoundRect,0.218750X-0.218750X-0.381250X0.218750X-0.381250X0.218750X0.381250X-0.218750X0.381250X0*%
%ADD45R,1.100000X0.450000*%
%ADD46RoundRect,0.150000X-0.625000X0.150000X-0.625000X-0.150000X0.625000X-0.150000X0.625000X0.150000X0*%
%ADD47RoundRect,0.250000X-0.650000X0.350000X-0.650000X-0.350000X0.650000X-0.350000X0.650000X0.350000X0*%
%ADD48R,1.300000X0.900000*%
%ADD49R,0.900000X1.300000*%
%ADD50RoundRect,0.147500X0.147500X0.172500X-0.147500X0.172500X-0.147500X-0.172500X0.147500X-0.172500X0*%
%ADD51RoundRect,0.147500X-0.147500X-0.172500X0.147500X-0.172500X0.147500X0.172500X-0.147500X0.172500X0*%
%ADD52R,1.600000X0.700000*%
%ADD53RoundRect,0.250000X-0.250000X-0.475000X0.250000X-0.475000X0.250000X0.475000X-0.250000X0.475000X0*%
%ADD54RoundRect,0.250000X2.500000X-0.250000X2.500000X0.250000X-2.500000X0.250000X-2.500000X-0.250000X0*%
%ADD55RoundRect,0.250000X1.250000X-0.550000X1.250000X0.550000X-1.250000X0.550000X-1.250000X-0.550000X0*%
%ADD56RoundRect,0.250000X-0.850000X0.375000X-0.850000X-0.375000X0.850000X-0.375000X0.850000X0.375000X0*%
%ADD57R,0.800000X0.300000*%
%ADD58R,0.300000X0.800000*%
%ADD59R,3.600000X3.600000*%
%ADD60RoundRect,0.150000X-0.150000X-0.625000X0.150000X-0.625000X0.150000X0.625000X-0.150000X0.625000X0*%
%ADD61RoundRect,0.250000X-0.350000X-0.650000X0.350000X-0.650000X0.350000X0.650000X-0.350000X0.650000X0*%
%ADD62RoundRect,0.218750X-0.381250X0.218750X-0.381250X-0.218750X0.381250X-0.218750X0.381250X0.218750X0*%
%ADD63RoundRect,0.150000X-0.512500X-0.150000X0.512500X-0.150000X0.512500X0.150000X-0.512500X0.150000X0*%
G04 APERTURE END LIST*
D10*
%TO.C,C9*%
X75815000Y-70585000D03*
X75815000Y-71545000D03*
%TD*%
D11*
%TO.C,Q5*%
X132270000Y-84505000D03*
X130370000Y-84505000D03*
X131320000Y-86380000D03*
%TD*%
D12*
%TO.C,C2*%
X104420000Y-53500000D03*
X105380000Y-53500000D03*
%TD*%
D13*
%TO.C,D6*%
X124800000Y-92500000D03*
X127200000Y-92500000D03*
%TD*%
D12*
%TO.C,C3*%
X112320000Y-79300000D03*
X113280000Y-79300000D03*
%TD*%
%TO.C,C22*%
X96200000Y-90700000D03*
X97160000Y-90700000D03*
%TD*%
D13*
%TO.C,D4*%
X84710000Y-92500000D03*
X87110000Y-92500000D03*
%TD*%
D14*
%TO.C,C19*%
X74015000Y-60740000D03*
X74015000Y-59190000D03*
%TD*%
D15*
%TO.C,SW1*%
X66150000Y-96925000D03*
X70650000Y-96925000D03*
X66150000Y-99075000D03*
X70650000Y-99075000D03*
%TD*%
D16*
%TO.C,C12*%
X71415000Y-66890000D03*
X71415000Y-68440000D03*
%TD*%
D17*
%TO.C,R13*%
X104190000Y-89112500D03*
X104190000Y-87287500D03*
%TD*%
D18*
%TO.C,R28*%
X111555000Y-92500000D03*
X110535000Y-92500000D03*
%TD*%
D10*
%TO.C,C4*%
X72700000Y-96900000D03*
X72700000Y-97860000D03*
%TD*%
D13*
%TO.C,D5*%
X129500000Y-92500000D03*
X131900000Y-92500000D03*
%TD*%
D19*
%TO.C,Q11*%
X134900000Y-56000000D03*
X136800000Y-56000000D03*
X135850000Y-53725000D03*
%TD*%
D20*
%TO.C,L3*%
X112865000Y-87250000D03*
X110715000Y-87250000D03*
%TD*%
D15*
%TO.C,D2*%
X86365000Y-69065000D03*
D21*
X88065000Y-69065000D03*
X88065000Y-67065000D03*
X86165000Y-67065000D03*
%TD*%
D11*
%TO.C,Q4*%
X86850000Y-88462500D03*
X84950000Y-88462500D03*
X85900000Y-90337500D03*
%TD*%
D22*
%TO.C,U3*%
X110590000Y-89350000D03*
X110590000Y-90300000D03*
X110590000Y-91250000D03*
X113100000Y-91250000D03*
X113100000Y-90300000D03*
X113100000Y-89350000D03*
%TD*%
D23*
%TO.C,D10*%
X134600000Y-91957500D03*
X134600000Y-89557500D03*
%TD*%
D18*
%TO.C,R12*%
X125810000Y-94200000D03*
X124790000Y-94200000D03*
%TD*%
D24*
%TO.C,J10*%
X73700000Y-54250000D03*
X75700000Y-54250000D03*
X77700000Y-54250000D03*
D25*
X71300000Y-52000000D03*
X80100000Y-52000000D03*
%TD*%
D26*
%TO.C,C15*%
X68140000Y-69965000D03*
X69690000Y-69965000D03*
%TD*%
D27*
%TO.C,R29*%
X109200000Y-91360000D03*
X109200000Y-90340000D03*
%TD*%
D26*
%TO.C,C24*%
X115515000Y-88850000D03*
X117065000Y-88850000D03*
%TD*%
D28*
%TO.C,D13*%
X139622500Y-80626250D03*
X136322500Y-80626250D03*
%TD*%
D29*
%TO.C,D11*%
X110000000Y-101150000D03*
X110000000Y-97850000D03*
%TD*%
D30*
%TO.C,C29*%
X127850000Y-54305000D03*
X127850000Y-52405000D03*
%TD*%
D12*
%TO.C,C21*%
X144625000Y-84307500D03*
X145585000Y-84307500D03*
%TD*%
D14*
%TO.C,C28*%
X125850000Y-54330000D03*
X125850000Y-52780000D03*
%TD*%
D31*
%TO.C,C14*%
X72890000Y-62365000D03*
X71340000Y-62365000D03*
%TD*%
D18*
%TO.C,R8*%
X85720000Y-94200000D03*
X84700000Y-94200000D03*
%TD*%
D32*
%TO.C,J2*%
X71875000Y-84100000D03*
X71875000Y-85300000D03*
D33*
X68100000Y-82950000D03*
X68100000Y-86450000D03*
%TD*%
D11*
%TO.C,Q1*%
X92050000Y-84562500D03*
X90150000Y-84562500D03*
X91100000Y-86437500D03*
%TD*%
D34*
%TO.C,R20*%
X136400000Y-89557500D03*
X137420000Y-89557500D03*
%TD*%
D35*
%TO.C,D7*%
X100790000Y-93000000D03*
X100790000Y-89000000D03*
%TD*%
D36*
%TO.C,C5*%
X85803198Y-76115000D03*
X85803198Y-75155000D03*
%TD*%
D15*
%TO.C,SW2*%
X66200000Y-78250000D03*
X70700000Y-78250000D03*
X66200000Y-80400000D03*
X70700000Y-80400000D03*
%TD*%
D27*
%TO.C,R25*%
X138150000Y-55997500D03*
X138150000Y-54977500D03*
%TD*%
D37*
%TO.C,R30*%
X114245000Y-93340000D03*
X114245000Y-94360000D03*
%TD*%
D38*
%TO.C,Q13*%
X132717500Y-78917500D03*
X133367500Y-78917500D03*
X134017500Y-78917500D03*
X134017500Y-76917500D03*
X133367500Y-76917500D03*
X132717500Y-76917500D03*
%TD*%
D39*
%TO.C,D16*%
X138900000Y-60350000D03*
D40*
X138900000Y-62050000D03*
X140900000Y-62050000D03*
X140900000Y-60150000D03*
%TD*%
D18*
%TO.C,R34*%
X130212500Y-78962500D03*
X129192500Y-78962500D03*
%TD*%
D41*
%TO.C,J1*%
X73840000Y-89567500D03*
X73840000Y-93632500D03*
X72570000Y-89567500D03*
X72570000Y-93632500D03*
X71300000Y-89567500D03*
X71300000Y-93632500D03*
X70030000Y-89567500D03*
X70030000Y-93632500D03*
X68760000Y-89567500D03*
X68760000Y-93632500D03*
%TD*%
D27*
%TO.C,R19*%
X136400000Y-92867500D03*
X136400000Y-91847500D03*
%TD*%
D42*
%TO.C,F2*%
X144625000Y-91907500D03*
X144625000Y-89107500D03*
%TD*%
D27*
%TO.C,R9*%
X129020000Y-84952500D03*
X129020000Y-83932500D03*
%TD*%
D14*
%TO.C,C16*%
X78615000Y-60740000D03*
X78615000Y-59190000D03*
%TD*%
D27*
%TO.C,R17*%
X96200000Y-92910000D03*
X96200000Y-91890000D03*
%TD*%
D13*
%TO.C,D3*%
X89310000Y-92500000D03*
X91710000Y-92500000D03*
%TD*%
D27*
%TO.C,R7*%
X83550000Y-85020000D03*
X83550000Y-84000000D03*
%TD*%
D43*
%TO.C,U4*%
X128242500Y-77572500D03*
X129192500Y-77572500D03*
X130142500Y-77572500D03*
X130142500Y-75062500D03*
X129192500Y-75062500D03*
X128242500Y-75062500D03*
%TD*%
D34*
%TO.C,R18*%
X96200000Y-89600000D03*
X97220000Y-89600000D03*
%TD*%
D44*
%TO.C,L2*%
X67590000Y-67665000D03*
X69715000Y-67665000D03*
%TD*%
D26*
%TO.C,C1*%
X104425000Y-52000000D03*
X105975000Y-52000000D03*
%TD*%
D43*
%TO.C,U5*%
X126400000Y-59110000D03*
X127350000Y-59110000D03*
X128300000Y-59110000D03*
X128300000Y-56600000D03*
X127350000Y-56600000D03*
X126400000Y-56600000D03*
%TD*%
D45*
%TO.C,Q12*%
X109190000Y-93750000D03*
X109190000Y-94400000D03*
X109190000Y-95050000D03*
X111190000Y-95050000D03*
X111190000Y-94400000D03*
X111190000Y-93750000D03*
%TD*%
D28*
%TO.C,D15*%
X136950000Y-58662500D03*
X133650000Y-58662500D03*
%TD*%
D30*
%TO.C,C27*%
X129617500Y-72667500D03*
X129617500Y-70767500D03*
%TD*%
D34*
%TO.C,R21*%
X113790000Y-102650000D03*
X114810000Y-102650000D03*
%TD*%
D23*
%TO.C,D14*%
X141772500Y-80626250D03*
X141772500Y-78226250D03*
%TD*%
D14*
%TO.C,C11*%
X71415000Y-65440000D03*
X71415000Y-63890000D03*
%TD*%
D46*
%TO.C,J12*%
X73575000Y-78200000D03*
X73575000Y-79200000D03*
D47*
X76100000Y-76900000D03*
X76100000Y-80500000D03*
%TD*%
D27*
%TO.C,R5*%
X88800000Y-85020000D03*
X88800000Y-84000000D03*
%TD*%
D37*
%TO.C,R33*%
X131417500Y-76552500D03*
X131417500Y-77572500D03*
%TD*%
%TO.C,R24*%
X142472500Y-75816250D03*
X142472500Y-76836250D03*
%TD*%
D48*
%TO.C,U1*%
X101094853Y-58300000D03*
X101094853Y-59500000D03*
X101094853Y-60700000D03*
X101094853Y-61900000D03*
X101094853Y-63100000D03*
X101094853Y-64300000D03*
X101094853Y-65500000D03*
X101094853Y-66700000D03*
X101094853Y-67900000D03*
X101094853Y-69100000D03*
X101094853Y-70300000D03*
X101094853Y-71500000D03*
X101094853Y-72700000D03*
D49*
X103054853Y-77870000D03*
X104254853Y-77870000D03*
X106654853Y-77870000D03*
X107854853Y-77870000D03*
X109054853Y-77870000D03*
X110254853Y-77870000D03*
X111454853Y-77870000D03*
X112654853Y-77870000D03*
X113854853Y-77870000D03*
D48*
X115834853Y-75200000D03*
X115834853Y-74000000D03*
X115834853Y-72800000D03*
X115834853Y-71600000D03*
X115834853Y-70400000D03*
X115834853Y-69200000D03*
X115834853Y-68000000D03*
X115834853Y-66800000D03*
X115834853Y-65600000D03*
X115834853Y-64400000D03*
X115834853Y-63200000D03*
X115834853Y-62000000D03*
X115834853Y-60800000D03*
D49*
X113914853Y-55130000D03*
X112714853Y-55130000D03*
X110314853Y-55130000D03*
X109114853Y-55130000D03*
X107914853Y-55130000D03*
X106714853Y-55130000D03*
X105514853Y-55130000D03*
X104314853Y-55130000D03*
X103114853Y-55130000D03*
%TD*%
D50*
%TO.C,R1*%
X87888198Y-76115000D03*
X86918198Y-76115000D03*
%TD*%
D46*
%TO.C,J11*%
X92375000Y-79700000D03*
X92375000Y-80700000D03*
D47*
X94900000Y-78400000D03*
X94900000Y-82000000D03*
%TD*%
D11*
%TO.C,Q7*%
X127170000Y-84505000D03*
X125270000Y-84505000D03*
X126220000Y-86380000D03*
%TD*%
D51*
%TO.C,R14*%
X104205000Y-84900000D03*
X105175000Y-84900000D03*
%TD*%
D14*
%TO.C,C18*%
X75515000Y-60740000D03*
X75515000Y-59190000D03*
%TD*%
D12*
%TO.C,C23*%
X136400000Y-90657500D03*
X137360000Y-90657500D03*
%TD*%
D37*
%TO.C,R26*%
X139500000Y-54977500D03*
X139500000Y-55997500D03*
%TD*%
D52*
%TO.C,D1*%
X86115000Y-61415000D03*
X83115000Y-61415000D03*
X86115000Y-60365000D03*
X83115000Y-60365000D03*
X86115000Y-59315000D03*
X83115000Y-59315000D03*
%TD*%
D18*
%TO.C,R6*%
X90320000Y-94200000D03*
X89300000Y-94200000D03*
%TD*%
D12*
%TO.C,C8*%
X80735000Y-69265000D03*
X81695000Y-69265000D03*
%TD*%
D35*
%TO.C,D8*%
X141225000Y-91307500D03*
X141225000Y-87307500D03*
%TD*%
D34*
%TO.C,R27*%
X113645000Y-92350000D03*
X114665000Y-92350000D03*
%TD*%
D50*
%TO.C,R2*%
X87888198Y-77135000D03*
X86918198Y-77135000D03*
%TD*%
D27*
%TO.C,R11*%
X123920000Y-84952500D03*
X123920000Y-83932500D03*
%TD*%
D15*
%TO.C,SW3*%
X70700000Y-75200000D03*
X66200000Y-75200000D03*
X70700000Y-73050000D03*
X66200000Y-73050000D03*
%TD*%
D51*
%TO.C,R16*%
X144640000Y-83295000D03*
X145610000Y-83295000D03*
%TD*%
D17*
%TO.C,R15*%
X144625000Y-87420000D03*
X144625000Y-85595000D03*
%TD*%
D53*
%TO.C,C25*%
X115540000Y-90650000D03*
X117440000Y-90650000D03*
%TD*%
D11*
%TO.C,Q3*%
X86800000Y-84562500D03*
X84900000Y-84562500D03*
X85850000Y-86437500D03*
%TD*%
D13*
%TO.C,D12*%
X110000000Y-103300000D03*
X112400000Y-103300000D03*
%TD*%
D26*
%TO.C,C13*%
X81040000Y-67165000D03*
X82590000Y-67165000D03*
%TD*%
D11*
%TO.C,Q8*%
X127170000Y-88405000D03*
X125270000Y-88405000D03*
X126220000Y-90280000D03*
%TD*%
D18*
%TO.C,R22*%
X114810000Y-104000000D03*
X113790000Y-104000000D03*
%TD*%
D54*
%TO.C,J4*%
X94300000Y-67000000D03*
X94300000Y-65000000D03*
X94300000Y-63000000D03*
X94300000Y-61000000D03*
X94300000Y-59000000D03*
X94300000Y-57000000D03*
D55*
X92050000Y-69400000D03*
X92050000Y-54600000D03*
%TD*%
D27*
%TO.C,R23*%
X141122500Y-76836250D03*
X141122500Y-75816250D03*
%TD*%
D56*
%TO.C,L5*%
X124250000Y-56835000D03*
X124250000Y-58985000D03*
%TD*%
D37*
%TO.C,R37*%
X129700000Y-56590000D03*
X129700000Y-57610000D03*
%TD*%
D18*
%TO.C,R38*%
X130810000Y-60600000D03*
X129790000Y-60600000D03*
%TD*%
D23*
%TO.C,D9*%
X94400000Y-92000000D03*
X94400000Y-89600000D03*
%TD*%
D27*
%TO.C,R3*%
X73900000Y-97890000D03*
X73900000Y-96870000D03*
%TD*%
D57*
%TO.C,U2*%
X73765000Y-64715000D03*
X73765000Y-65215000D03*
X73765000Y-65715000D03*
X73765000Y-66215000D03*
X73765000Y-66715000D03*
X73765000Y-67215000D03*
X73765000Y-67715000D03*
X73765000Y-68215000D03*
D58*
X74465000Y-68915000D03*
X74965000Y-68915000D03*
X75465000Y-68915000D03*
X75965000Y-68915000D03*
X76465000Y-68915000D03*
X76965000Y-68915000D03*
X77465000Y-68915000D03*
X77965000Y-68915000D03*
D57*
X78665000Y-68215000D03*
X78665000Y-67715000D03*
X78665000Y-67215000D03*
X78665000Y-66715000D03*
X78665000Y-66215000D03*
X78665000Y-65715000D03*
X78665000Y-65215000D03*
X78665000Y-64715000D03*
D58*
X77965000Y-64015000D03*
X77465000Y-64015000D03*
X76965000Y-64015000D03*
X76465000Y-64015000D03*
X75965000Y-64015000D03*
X75465000Y-64015000D03*
X74965000Y-64015000D03*
X74465000Y-64015000D03*
D59*
X76215000Y-66465000D03*
%TD*%
D60*
%TO.C,J3*%
X83815000Y-54655000D03*
X84815000Y-54655000D03*
X85815000Y-54655000D03*
D61*
X82515000Y-52130000D03*
X87115000Y-52130000D03*
%TD*%
D42*
%TO.C,F1*%
X104190000Y-93600000D03*
X104190000Y-90800000D03*
%TD*%
D11*
%TO.C,Q2*%
X92100000Y-88462500D03*
X90200000Y-88462500D03*
X91150000Y-90337500D03*
%TD*%
D18*
%TO.C,R10*%
X130510000Y-94200000D03*
X129490000Y-94200000D03*
%TD*%
D14*
%TO.C,C26*%
X127792500Y-72747500D03*
X127792500Y-71197500D03*
%TD*%
D62*
%TO.C,L1*%
X69215000Y-62802500D03*
X69215000Y-64927500D03*
%TD*%
D37*
%TO.C,R31*%
X113190000Y-93340000D03*
X113190000Y-94360000D03*
%TD*%
D27*
%TO.C,R32*%
X131317500Y-74627500D03*
X131317500Y-73607500D03*
%TD*%
D14*
%TO.C,C17*%
X77015000Y-60740000D03*
X77015000Y-59190000D03*
%TD*%
D12*
%TO.C,C7*%
X80835000Y-65965000D03*
X81795000Y-65965000D03*
%TD*%
D34*
%TO.C,R36*%
X132382500Y-74917500D03*
X133402500Y-74917500D03*
%TD*%
D11*
%TO.C,Q6*%
X132270000Y-88405000D03*
X130370000Y-88405000D03*
X131320000Y-90280000D03*
%TD*%
D56*
%TO.C,L4*%
X126092500Y-75342500D03*
X126092500Y-77492500D03*
%TD*%
D18*
%TO.C,R39*%
X128310000Y-60600000D03*
X127290000Y-60600000D03*
%TD*%
D12*
%TO.C,C20*%
X104210000Y-86000000D03*
X105170000Y-86000000D03*
%TD*%
D63*
%TO.C,Q9*%
X112662500Y-99300000D03*
X112662500Y-101200000D03*
X114937500Y-100250000D03*
%TD*%
D37*
%TO.C,R4*%
X78165000Y-70255000D03*
X78165000Y-71275000D03*
%TD*%
D19*
%TO.C,Q10*%
X137672500Y-77963750D03*
X139572500Y-77963750D03*
X138622500Y-75688750D03*
%TD*%
D34*
%TO.C,R35*%
X132382500Y-73817500D03*
X133402500Y-73817500D03*
%TD*%
D10*
%TO.C,C6*%
X85803198Y-77135000D03*
X85803198Y-78095000D03*
%TD*%
D12*
%TO.C,C10*%
X80835000Y-64365000D03*
X81795000Y-64365000D03*
%TD*%
M02*
