%TF.GenerationSoftware,KiCad,Pcbnew,9.0.2-9.0.2-0~ubuntu24.04.1*%
%TF.CreationDate,2025-05-28T15:03:19-07:00*%
%TF.ProjectId,LoRa-BLE-Sensor,4c6f5261-2d42-44c4-952d-53656e736f72,1*%
%TF.SameCoordinates,Original*%
%TF.FileFunction,Copper,L2,Inr*%
%TF.FilePolarity,Positive*%
%FSLAX46Y46*%
G04 Gerber Fmt 4.6, Leading zero omitted, Abs format (unit mm)*
G04 Created by KiCad (PCBNEW 9.0.2-9.0.2-0~ubuntu24.04.1) date 2025-05-28 15:03:19*
%MOMM*%
%LPD*%
G01*
G04 APERTURE LIST*
G04 Aperture macros list*
%AMRoundRect*
0 Rectangle with rounded corners*
0 $1 Rounding radius*
0 $2 $3 $4 $5 $6 $7 $8 $9 X,Y pos of 4 corners*
0 Add a 4 corners polygon primitive as box body*
4,1,4,$2,$3,$4,$5,$6,$7,$8,$9,$2,$3,0*
0 Add four circle primitives for the rounded corners*
1,1,$1+$1,$2,$3*
1,1,$1+$1,$4,$5*
1,1,$1+$1,$6,$7*
1,1,$1+$1,$8,$9*
0 Add four rect primitives between the rounded corners*
20,1,$1+$1,$2,$3,$4,$5,0*
20,1,$1+$1,$4,$5,$6,$7,0*
20,1,$1+$1,$6,$7,$8,$9,0*
20,1,$1+$1,$8,$9,$2,$3,0*%
G04 Aperture macros list end*
%TA.AperFunction,ComponentPad*%
%ADD10RoundRect,0.250000X0.650000X1.550000X-0.650000X1.550000X-0.650000X-1.550000X0.650000X-1.550000X0*%
%TD*%
%TA.AperFunction,ComponentPad*%
%ADD11O,1.800000X3.600000*%
%TD*%
%TA.AperFunction,ComponentPad*%
%ADD12R,1.700000X1.700000*%
%TD*%
%TA.AperFunction,ComponentPad*%
%ADD13C,1.700000*%
%TD*%
%TA.AperFunction,ComponentPad*%
%ADD14RoundRect,0.250000X-1.550000X0.650000X-1.550000X-0.650000X1.550000X-0.650000X1.550000X0.650000X0*%
%TD*%
%TA.AperFunction,ComponentPad*%
%ADD15O,3.600000X1.800000*%
%TD*%
%TA.AperFunction,ViaPad*%
%ADD16C,0.600000*%
%TD*%
%TA.AperFunction,ViaPad*%
%ADD17C,0.700000*%
%TD*%
G04 APERTURE END LIST*
D10*
%TO.N,SENSOR2_PWR*%
%TO.C,J6*%
X143450000Y-99500000D03*
D11*
%TO.N,SENSOR2_IIN*%
X139640000Y-99500000D03*
%TO.N,SENSOR2_VIN*%
X135830000Y-99500000D03*
%TO.N,SENSOR2_D1*%
X132020000Y-99500000D03*
%TO.N,SENSOR2_D2*%
X128210000Y-99500000D03*
%TO.N,GND*%
X124400000Y-99500000D03*
%TD*%
D12*
%TO.N,VDD*%
%TO.C,J9*%
X150300000Y-84820000D03*
D13*
%TO.N,SENSOR2_D1_NRF*%
X150300000Y-87360000D03*
%TO.N,SENSOR2_D2_NRF*%
X150300000Y-89900000D03*
%TO.N,GND*%
X150300000Y-92440000D03*
%TD*%
D12*
%TO.N,VDD*%
%TO.C,J8*%
X77700000Y-98280000D03*
D13*
%TO.N,SENSOR1_D2_NRF*%
X77700000Y-100820000D03*
%TO.N,SENSOR1_D1_NRF*%
X77700000Y-103360000D03*
%TO.N,GND*%
X77700000Y-105900000D03*
%TD*%
D10*
%TO.N,SENSOR1_PWR*%
%TO.C,J5*%
X102610000Y-99500000D03*
D11*
%TO.N,SENSOR1_IIN*%
X98800000Y-99500000D03*
%TO.N,SENSOR1_VIN*%
X94990000Y-99500000D03*
%TO.N,SENSOR1_D1*%
X91180000Y-99500000D03*
%TO.N,SENSOR1_D2*%
X87370000Y-99500000D03*
%TO.N,GND*%
X83560000Y-99500000D03*
%TD*%
D14*
%TO.N,SENSOR3_PWR*%
%TO.C,J7*%
X145475000Y-60190000D03*
D15*
%TO.N,SENSOR3_D1_NRF*%
X145475000Y-64000000D03*
%TO.N,SENSOR3_D2_NRF*%
X145475000Y-67810000D03*
%TO.N,GND*%
X145475000Y-71620000D03*
%TD*%
D16*
%TO.N,VDD*%
X74215000Y-62565000D03*
X127200000Y-83300000D03*
X92000000Y-85700000D03*
X88800000Y-85610000D03*
X74700000Y-89600000D03*
X132300000Y-83300000D03*
X112300000Y-80000000D03*
X86800000Y-85700000D03*
X129000000Y-85600000D03*
X74600000Y-97900000D03*
X123900000Y-85600000D03*
X68015000Y-68765000D03*
X75115000Y-70665000D03*
X104425000Y-52800000D03*
X83500000Y-85700000D03*
%TO.N,GND*%
X72600000Y-87800000D03*
X76015000Y-66465000D03*
X86415000Y-68365000D03*
X85803198Y-74515000D03*
X105800000Y-86000000D03*
X125900000Y-51900000D03*
X75515000Y-58365000D03*
X128127500Y-92500000D03*
X127892500Y-70417500D03*
X129617500Y-69942500D03*
X97800000Y-89600000D03*
X92700000Y-92500000D03*
X82515000Y-69265000D03*
X114500000Y-91650000D03*
X72700000Y-54200000D03*
X105800000Y-84900000D03*
X74700000Y-79200000D03*
X70650000Y-79725000D03*
D17*
X128517500Y-79047500D03*
D16*
X91000000Y-67000000D03*
X76015000Y-67465000D03*
X68700000Y-87700000D03*
X77015000Y-67465000D03*
X109190000Y-89750000D03*
X146267500Y-84257500D03*
X75015000Y-67465000D03*
X78615000Y-58365000D03*
X105380000Y-52800000D03*
X88000000Y-92500000D03*
X112400000Y-103900000D03*
X138100000Y-90657500D03*
X72000000Y-97900000D03*
X73700000Y-51000000D03*
X70750000Y-75925000D03*
X83200000Y-54700000D03*
X113800000Y-104700000D03*
X130692500Y-73717500D03*
X66200000Y-99800000D03*
X143155000Y-76846250D03*
X76015000Y-65465000D03*
X95000000Y-89600000D03*
X82715000Y-65965000D03*
X142372500Y-78163750D03*
X113300000Y-80000000D03*
X127900000Y-51500000D03*
X70816650Y-69843672D03*
X77015000Y-58365000D03*
X77015000Y-66465000D03*
X100800000Y-87200000D03*
X113900000Y-53800000D03*
X118700000Y-90650000D03*
X85803198Y-78815000D03*
X130500000Y-57545000D03*
X138000000Y-89557500D03*
X141167500Y-85657500D03*
X72315000Y-63665000D03*
X82715000Y-64355000D03*
X106600000Y-79000000D03*
X103000000Y-78900000D03*
X118300000Y-88850000D03*
X126700000Y-60700000D03*
X134600000Y-88557500D03*
X140150000Y-56000000D03*
X117000000Y-60800000D03*
X97800000Y-90700000D03*
X93500000Y-80700000D03*
X110300000Y-53800000D03*
X132800000Y-92500000D03*
X74015000Y-58365000D03*
X77015000Y-65465000D03*
X70600000Y-99800000D03*
X71300000Y-87700000D03*
X79315000Y-70565000D03*
D17*
X75715000Y-72365000D03*
D16*
X75015000Y-66465000D03*
X66250000Y-75925000D03*
X66150000Y-79725000D03*
X138200000Y-60300000D03*
X75015000Y-65465000D03*
X146267500Y-83257500D03*
%TO.N,RESET*%
X68800000Y-91600000D03*
X75600000Y-90700000D03*
%TO.N,CC2*%
X88600000Y-65065000D03*
X86215000Y-62440000D03*
%TO.N,CC1*%
X87782500Y-62297500D03*
X91000000Y-59000000D03*
%TO.N,VBAT*%
X84300000Y-56300000D03*
X81715000Y-70265000D03*
X81015000Y-70165000D03*
%TO.N,VBUS_NRF*%
X87015000Y-63834669D03*
X90000000Y-60400000D03*
%TO.N,VSYS*%
X82215000Y-68265000D03*
X77415000Y-61965000D03*
X70815000Y-66165000D03*
X72015000Y-66165000D03*
X124400000Y-54900000D03*
X82915000Y-68265000D03*
X126392500Y-73300000D03*
X113875000Y-87325000D03*
X81515000Y-68265000D03*
X75715000Y-61865000D03*
D17*
X87615000Y-70565000D03*
D16*
X83015000Y-58265000D03*
X96800000Y-74400000D03*
X98400000Y-78600000D03*
%TO.N,BOOST1_FB_CTRL1*%
X117000000Y-75200000D03*
X112290000Y-94450000D03*
%TO.N,LDO2_OUT*%
X136400000Y-66200000D03*
X72015000Y-58630000D03*
X116250000Y-53750000D03*
X136400000Y-63200000D03*
%TO.N,LDO1_OUT*%
X97000000Y-75700000D03*
X98400000Y-57800000D03*
X113900000Y-100200000D03*
X97000000Y-78500000D03*
%TO.N,BOOST1_FB_CTRL2*%
X108100000Y-94400000D03*
X117000000Y-74000000D03*
%TO.N,/SHPHLD*%
X78100000Y-72100000D03*
X71750000Y-73025000D03*
%TO.N,BOOST2_FB_CTRL2*%
X99900000Y-65500000D03*
X133392500Y-79917500D03*
%TO.N,BOOST2_FB_CTRL1*%
X133392500Y-76017500D03*
X99900000Y-64300000D03*
%TO.N,BOOST1_EN*%
X113100000Y-91900000D03*
X99900000Y-76000000D03*
X99900000Y-78200000D03*
X99900000Y-66700000D03*
%TO.N,BOOST2_EN*%
X99900000Y-63100000D03*
X130792500Y-75062500D03*
%TO.N,V_SENSOR1_READ*%
X115200000Y-101900000D03*
X117800000Y-79300000D03*
%TO.N,V_SENSOR2_READ*%
X141755000Y-75846250D03*
X131800000Y-63200000D03*
%TO.N,V_BUCK1*%
X135100000Y-53600000D03*
X70500000Y-58100000D03*
%TO.N,SENSOR1_D1_NRF*%
X117000000Y-72800000D03*
X90100000Y-83400000D03*
%TO.N,SENSOR1_D2_NRF*%
X117000000Y-71600000D03*
X84900000Y-83400000D03*
%TO.N,SENSOR2_D1_NRF*%
X117000000Y-69200000D03*
X128400000Y-83500000D03*
%TO.N,SENSOR2_D2_NRF*%
X123300000Y-83500000D03*
X117000000Y-70400000D03*
%TO.N,SENSOR3_D2_NRF*%
X140900000Y-65400000D03*
X140900000Y-63500000D03*
%TO.N,BOOST3_EN*%
X128300000Y-57700000D03*
X99900000Y-61900000D03*
%TO.N,SENSOR1_PWR*%
X86900000Y-89600000D03*
X91600000Y-94200000D03*
X92100000Y-89700000D03*
X86600000Y-94200000D03*
%TO.N,SENSOR2_PWR*%
X131400000Y-94200000D03*
X132300000Y-89600000D03*
X127200000Y-89500000D03*
X126837500Y-94200000D03*
%TO.N,NTC*%
X84800000Y-53400000D03*
X76600000Y-54200000D03*
X84415000Y-71665000D03*
X78800000Y-53900000D03*
%TD*%
%TA.AperFunction,Conductor*%
%TO.N,GND*%
G36*
X152003736Y-49500726D02*
G01*
X152293796Y-49518271D01*
X152308659Y-49520076D01*
X152590798Y-49571780D01*
X152605335Y-49575363D01*
X152879172Y-49660695D01*
X152893163Y-49666000D01*
X153154743Y-49783727D01*
X153167989Y-49790680D01*
X153413465Y-49939075D01*
X153425776Y-49947573D01*
X153651573Y-50124473D01*
X153662781Y-50134403D01*
X153865596Y-50337218D01*
X153875526Y-50348426D01*
X153995481Y-50501538D01*
X154052422Y-50574217D01*
X154060928Y-50586540D01*
X154209316Y-50832004D01*
X154216275Y-50845263D01*
X154333997Y-51106831D01*
X154339306Y-51120832D01*
X154424635Y-51394663D01*
X154428219Y-51409201D01*
X154479923Y-51691340D01*
X154481728Y-51706205D01*
X154499274Y-51996263D01*
X154499500Y-52003750D01*
X154499500Y-105996249D01*
X154499274Y-106003736D01*
X154481728Y-106293794D01*
X154479923Y-106308659D01*
X154428219Y-106590798D01*
X154424635Y-106605336D01*
X154339306Y-106879167D01*
X154333997Y-106893168D01*
X154216275Y-107154736D01*
X154209316Y-107167995D01*
X154060928Y-107413459D01*
X154052422Y-107425782D01*
X153875526Y-107651573D01*
X153865596Y-107662781D01*
X153662781Y-107865596D01*
X153651573Y-107875526D01*
X153425782Y-108052422D01*
X153413459Y-108060928D01*
X153167995Y-108209316D01*
X153154736Y-108216275D01*
X152893168Y-108333997D01*
X152879167Y-108339306D01*
X152605336Y-108424635D01*
X152590798Y-108428219D01*
X152308659Y-108479923D01*
X152293794Y-108481728D01*
X152003736Y-108499274D01*
X151996249Y-108499500D01*
X67003751Y-108499500D01*
X66996264Y-108499274D01*
X66706205Y-108481728D01*
X66691340Y-108479923D01*
X66409201Y-108428219D01*
X66394663Y-108424635D01*
X66120832Y-108339306D01*
X66106831Y-108333997D01*
X65845263Y-108216275D01*
X65832004Y-108209316D01*
X65586540Y-108060928D01*
X65574217Y-108052422D01*
X65348426Y-107875526D01*
X65337218Y-107865596D01*
X65134403Y-107662781D01*
X65124473Y-107651573D01*
X64947573Y-107425776D01*
X64939075Y-107413465D01*
X64790680Y-107167989D01*
X64783727Y-107154743D01*
X64666000Y-106893163D01*
X64660693Y-106879167D01*
X64575364Y-106605336D01*
X64571780Y-106590798D01*
X64520076Y-106308659D01*
X64518271Y-106293794D01*
X64500726Y-106003736D01*
X64500500Y-105996249D01*
X64500500Y-103893713D01*
X66149500Y-103893713D01*
X66149500Y-104106287D01*
X66182754Y-104316243D01*
X66220821Y-104433402D01*
X66248444Y-104518414D01*
X66344951Y-104707820D01*
X66469890Y-104879786D01*
X66620213Y-105030109D01*
X66792179Y-105155048D01*
X66792181Y-105155049D01*
X66792184Y-105155051D01*
X66981588Y-105251557D01*
X67183757Y-105317246D01*
X67393713Y-105350500D01*
X67393714Y-105350500D01*
X67606286Y-105350500D01*
X67606287Y-105350500D01*
X67816243Y-105317246D01*
X68018412Y-105251557D01*
X68207816Y-105155051D01*
X68229789Y-105139086D01*
X68379786Y-105030109D01*
X68379788Y-105030106D01*
X68379792Y-105030104D01*
X68530104Y-104879792D01*
X68530106Y-104879788D01*
X68530109Y-104879786D01*
X68655048Y-104707820D01*
X68655047Y-104707820D01*
X68655051Y-104707816D01*
X68751557Y-104518412D01*
X68817246Y-104316243D01*
X68850500Y-104106287D01*
X68850500Y-103893713D01*
X68817246Y-103683757D01*
X68751557Y-103481588D01*
X68655051Y-103292184D01*
X68655050Y-103292182D01*
X68641396Y-103273389D01*
X76599500Y-103273389D01*
X76599500Y-103446610D01*
X76626597Y-103617697D01*
X76680128Y-103782447D01*
X76736820Y-103893713D01*
X76758768Y-103936788D01*
X76860586Y-104076928D01*
X76983072Y-104199414D01*
X77123212Y-104301232D01*
X77277555Y-104379873D01*
X77442299Y-104433402D01*
X77613389Y-104460500D01*
X77613390Y-104460500D01*
X77786610Y-104460500D01*
X77786611Y-104460500D01*
X77957701Y-104433402D01*
X78122445Y-104379873D01*
X78276788Y-104301232D01*
X78416928Y-104199414D01*
X78539414Y-104076928D01*
X78641232Y-103936788D01*
X78663179Y-103893713D01*
X150149500Y-103893713D01*
X150149500Y-104106287D01*
X150182754Y-104316243D01*
X150220821Y-104433402D01*
X150248444Y-104518414D01*
X150344951Y-104707820D01*
X150469890Y-104879786D01*
X150620213Y-105030109D01*
X150792179Y-105155048D01*
X150792181Y-105155049D01*
X150792184Y-105155051D01*
X150981588Y-105251557D01*
X151183757Y-105317246D01*
X151393713Y-105350500D01*
X151393714Y-105350500D01*
X151606286Y-105350500D01*
X151606287Y-105350500D01*
X151816243Y-105317246D01*
X152018412Y-105251557D01*
X152207816Y-105155051D01*
X152229789Y-105139086D01*
X152379786Y-105030109D01*
X152379788Y-105030106D01*
X152379792Y-105030104D01*
X152530104Y-104879792D01*
X152530106Y-104879788D01*
X152530109Y-104879786D01*
X152655048Y-104707820D01*
X152655047Y-104707820D01*
X152655051Y-104707816D01*
X152751557Y-104518412D01*
X152817246Y-104316243D01*
X152850500Y-104106287D01*
X152850500Y-103893713D01*
X152817246Y-103683757D01*
X152751557Y-103481588D01*
X152655051Y-103292184D01*
X152655049Y-103292181D01*
X152655048Y-103292179D01*
X152530109Y-103120213D01*
X152379786Y-102969890D01*
X152207820Y-102844951D01*
X152018414Y-102748444D01*
X152018413Y-102748443D01*
X152018412Y-102748443D01*
X151816243Y-102682754D01*
X151816241Y-102682753D01*
X151816240Y-102682753D01*
X151654957Y-102657208D01*
X151606287Y-102649500D01*
X151393713Y-102649500D01*
X151345042Y-102657208D01*
X151183760Y-102682753D01*
X150981585Y-102748444D01*
X150792179Y-102844951D01*
X150620213Y-102969890D01*
X150469890Y-103120213D01*
X150344951Y-103292179D01*
X150248444Y-103481585D01*
X150182753Y-103683760D01*
X150167123Y-103782445D01*
X150149500Y-103893713D01*
X78663179Y-103893713D01*
X78676366Y-103867831D01*
X78694346Y-103832546D01*
X78694347Y-103832544D01*
X78719870Y-103782450D01*
X78719873Y-103782445D01*
X78773402Y-103617701D01*
X78800500Y-103446611D01*
X78800500Y-103273389D01*
X78773402Y-103102299D01*
X78719873Y-102937555D01*
X78641232Y-102783212D01*
X78539414Y-102643072D01*
X78416928Y-102520586D01*
X78276788Y-102418768D01*
X78122445Y-102340127D01*
X77957701Y-102286598D01*
X77957699Y-102286597D01*
X77957698Y-102286597D01*
X77826271Y-102265781D01*
X77786611Y-102259500D01*
X77613389Y-102259500D01*
X77573728Y-102265781D01*
X77442302Y-102286597D01*
X77277552Y-102340128D01*
X77123211Y-102418768D01*
X77043256Y-102476859D01*
X76983072Y-102520586D01*
X76983070Y-102520588D01*
X76983069Y-102520588D01*
X76860588Y-102643069D01*
X76860588Y-102643070D01*
X76860586Y-102643072D01*
X76855916Y-102649500D01*
X76758768Y-102783211D01*
X76680128Y-102937552D01*
X76626597Y-103102302D01*
X76599500Y-103273389D01*
X68641396Y-103273389D01*
X68530109Y-103120213D01*
X68379786Y-102969890D01*
X68207820Y-102844951D01*
X68018414Y-102748444D01*
X68018413Y-102748443D01*
X68018412Y-102748443D01*
X67816243Y-102682754D01*
X67816241Y-102682753D01*
X67816240Y-102682753D01*
X67654957Y-102657208D01*
X67606287Y-102649500D01*
X67393713Y-102649500D01*
X67345042Y-102657208D01*
X67183760Y-102682753D01*
X66981585Y-102748444D01*
X66792179Y-102844951D01*
X66620213Y-102969890D01*
X66469890Y-103120213D01*
X66344951Y-103292179D01*
X66248444Y-103481585D01*
X66182753Y-103683760D01*
X66167123Y-103782445D01*
X66149500Y-103893713D01*
X64500500Y-103893713D01*
X64500500Y-100733389D01*
X76599500Y-100733389D01*
X76599500Y-100906610D01*
X76614765Y-101002994D01*
X76626598Y-101077701D01*
X76680127Y-101242445D01*
X76758768Y-101396788D01*
X76860586Y-101536928D01*
X76983072Y-101659414D01*
X77123212Y-101761232D01*
X77277555Y-101839873D01*
X77442299Y-101893402D01*
X77613389Y-101920500D01*
X77613390Y-101920500D01*
X77786610Y-101920500D01*
X77786611Y-101920500D01*
X77957701Y-101893402D01*
X78122445Y-101839873D01*
X78146680Y-101827525D01*
X114649500Y-101827525D01*
X114649500Y-101972475D01*
X114687016Y-102112485D01*
X114687017Y-102112488D01*
X114759488Y-102238011D01*
X114759490Y-102238013D01*
X114759491Y-102238015D01*
X114861985Y-102340509D01*
X114861986Y-102340510D01*
X114861988Y-102340511D01*
X114987511Y-102412982D01*
X114987512Y-102412982D01*
X114987515Y-102412984D01*
X115127525Y-102450500D01*
X115127528Y-102450500D01*
X115272472Y-102450500D01*
X115272475Y-102450500D01*
X115412485Y-102412984D01*
X115538015Y-102340509D01*
X115640509Y-102238015D01*
X115712984Y-102112485D01*
X115750500Y-101972475D01*
X115750500Y-101827525D01*
X115712984Y-101687515D01*
X115640509Y-101561985D01*
X115538015Y-101459491D01*
X115538013Y-101459490D01*
X115538011Y-101459488D01*
X115412488Y-101387017D01*
X115412489Y-101387017D01*
X115401006Y-101383940D01*
X115272475Y-101349500D01*
X115127525Y-101349500D01*
X114998993Y-101383940D01*
X114987511Y-101387017D01*
X114861988Y-101459488D01*
X114861982Y-101459493D01*
X114759493Y-101561982D01*
X114759488Y-101561988D01*
X114687017Y-101687511D01*
X114687016Y-101687515D01*
X114649500Y-101827525D01*
X78146680Y-101827525D01*
X78276788Y-101761232D01*
X78416928Y-101659414D01*
X78539414Y-101536928D01*
X78641232Y-101396788D01*
X78719873Y-101242445D01*
X78773402Y-101077701D01*
X78800500Y-100906611D01*
X78800500Y-100733389D01*
X78773402Y-100562299D01*
X78719873Y-100397555D01*
X78641232Y-100243212D01*
X78539414Y-100103072D01*
X78416928Y-99980586D01*
X78276788Y-99878768D01*
X78122445Y-99800127D01*
X77957701Y-99746598D01*
X77957699Y-99746597D01*
X77957698Y-99746597D01*
X77826271Y-99725781D01*
X77786611Y-99719500D01*
X77613389Y-99719500D01*
X77573728Y-99725781D01*
X77442302Y-99746597D01*
X77277552Y-99800128D01*
X77123211Y-99878768D01*
X77043256Y-99936859D01*
X76983072Y-99980586D01*
X76983070Y-99980588D01*
X76983069Y-99980588D01*
X76860588Y-100103069D01*
X76860588Y-100103070D01*
X76860586Y-100103072D01*
X76816859Y-100163256D01*
X76758768Y-100243211D01*
X76680128Y-100397552D01*
X76626597Y-100562302D01*
X76599500Y-100733389D01*
X64500500Y-100733389D01*
X64500500Y-97827525D01*
X74049500Y-97827525D01*
X74049500Y-97972475D01*
X74087016Y-98112485D01*
X74087017Y-98112488D01*
X74159488Y-98238011D01*
X74159490Y-98238013D01*
X74159491Y-98238015D01*
X74261985Y-98340509D01*
X74261986Y-98340510D01*
X74261988Y-98340511D01*
X74387511Y-98412982D01*
X74387512Y-98412982D01*
X74387515Y-98412984D01*
X74527525Y-98450500D01*
X74527528Y-98450500D01*
X74672472Y-98450500D01*
X74672475Y-98450500D01*
X74812485Y-98412984D01*
X74938015Y-98340509D01*
X75040509Y-98238015D01*
X75112984Y-98112485D01*
X75150500Y-97972475D01*
X75150500Y-97827525D01*
X75112984Y-97687515D01*
X75058100Y-97592454D01*
X75040511Y-97561988D01*
X75040506Y-97561982D01*
X74938017Y-97459493D01*
X74938011Y-97459488D01*
X74844191Y-97405321D01*
X76599500Y-97405321D01*
X76599500Y-99154678D01*
X76614032Y-99227735D01*
X76614033Y-99227739D01*
X76614034Y-99227740D01*
X76669399Y-99310601D01*
X76752260Y-99365966D01*
X76752264Y-99365967D01*
X76825321Y-99380499D01*
X76825324Y-99380500D01*
X76825326Y-99380500D01*
X78574676Y-99380500D01*
X78574677Y-99380499D01*
X78647740Y-99365966D01*
X78730601Y-99310601D01*
X78785966Y-99227740D01*
X78800500Y-99154674D01*
X78800500Y-98509448D01*
X86219500Y-98509448D01*
X86219500Y-100490551D01*
X86247829Y-100669410D01*
X86303787Y-100841636D01*
X86303788Y-100841639D01*
X86386006Y-101002997D01*
X86492441Y-101149494D01*
X86492445Y-101149499D01*
X86620500Y-101277554D01*
X86620505Y-101277558D01*
X86719526Y-101349500D01*
X86767006Y-101383996D01*
X86872484Y-101437740D01*
X86928360Y-101466211D01*
X86928363Y-101466212D01*
X87013251Y-101493793D01*
X87100591Y-101522171D01*
X87183429Y-101535291D01*
X87279449Y-101550500D01*
X87279454Y-101550500D01*
X87460551Y-101550500D01*
X87547259Y-101536765D01*
X87639409Y-101522171D01*
X87811639Y-101466211D01*
X87972994Y-101383996D01*
X88119501Y-101277553D01*
X88247553Y-101149501D01*
X88353996Y-101002994D01*
X88436211Y-100841639D01*
X88492171Y-100669409D01*
X88509135Y-100562302D01*
X88520500Y-100490551D01*
X88520500Y-98509448D01*
X90029500Y-98509448D01*
X90029500Y-100490551D01*
X90057829Y-100669410D01*
X90113787Y-100841636D01*
X90113788Y-100841639D01*
X90196006Y-101002997D01*
X90302441Y-101149494D01*
X90302445Y-101149499D01*
X90430500Y-101277554D01*
X90430505Y-101277558D01*
X90529526Y-101349500D01*
X90577006Y-101383996D01*
X90682484Y-101437740D01*
X90738360Y-101466211D01*
X90738363Y-101466212D01*
X90823251Y-101493793D01*
X90910591Y-101522171D01*
X90993429Y-101535291D01*
X91089449Y-101550500D01*
X91089454Y-101550500D01*
X91270551Y-101550500D01*
X91357259Y-101536765D01*
X91449409Y-101522171D01*
X91621639Y-101466211D01*
X91782994Y-101383996D01*
X91929501Y-101277553D01*
X92057553Y-101149501D01*
X92163996Y-101002994D01*
X92246211Y-100841639D01*
X92302171Y-100669409D01*
X92319135Y-100562302D01*
X92330500Y-100490551D01*
X92330500Y-98509448D01*
X93839500Y-98509448D01*
X93839500Y-100490551D01*
X93867829Y-100669410D01*
X93923787Y-100841636D01*
X93923788Y-100841639D01*
X94006006Y-101002997D01*
X94112441Y-101149494D01*
X94112445Y-101149499D01*
X94240500Y-101277554D01*
X94240505Y-101277558D01*
X94339526Y-101349500D01*
X94387006Y-101383996D01*
X94492484Y-101437740D01*
X94548360Y-101466211D01*
X94548363Y-101466212D01*
X94633251Y-101493793D01*
X94720591Y-101522171D01*
X94803429Y-101535291D01*
X94899449Y-101550500D01*
X94899454Y-101550500D01*
X95080551Y-101550500D01*
X95167259Y-101536765D01*
X95259409Y-101522171D01*
X95431639Y-101466211D01*
X95592994Y-101383996D01*
X95739501Y-101277553D01*
X95867553Y-101149501D01*
X95973996Y-101002994D01*
X96056211Y-100841639D01*
X96112171Y-100669409D01*
X96129135Y-100562302D01*
X96140500Y-100490551D01*
X96140500Y-98509448D01*
X97649500Y-98509448D01*
X97649500Y-100490551D01*
X97677829Y-100669410D01*
X97733787Y-100841636D01*
X97733788Y-100841639D01*
X97816006Y-101002997D01*
X97922441Y-101149494D01*
X97922445Y-101149499D01*
X98050500Y-101277554D01*
X98050505Y-101277558D01*
X98149526Y-101349500D01*
X98197006Y-101383996D01*
X98302484Y-101437740D01*
X98358360Y-101466211D01*
X98358363Y-101466212D01*
X98443251Y-101493793D01*
X98530591Y-101522171D01*
X98613429Y-101535291D01*
X98709449Y-101550500D01*
X98709454Y-101550500D01*
X98890551Y-101550500D01*
X98977259Y-101536765D01*
X99069409Y-101522171D01*
X99241639Y-101466211D01*
X99402994Y-101383996D01*
X99549501Y-101277553D01*
X99677553Y-101149501D01*
X99783996Y-101002994D01*
X99866211Y-100841639D01*
X99922171Y-100669409D01*
X99939135Y-100562302D01*
X99950500Y-100490551D01*
X99950500Y-98509448D01*
X99923742Y-98340511D01*
X99922171Y-98330591D01*
X99866211Y-98158361D01*
X99866211Y-98158360D01*
X99783995Y-97997005D01*
X99765604Y-97971692D01*
X99715068Y-97902135D01*
X101459500Y-97902135D01*
X101459500Y-101097870D01*
X101459501Y-101097876D01*
X101465908Y-101157483D01*
X101516202Y-101292328D01*
X101516206Y-101292335D01*
X101602452Y-101407544D01*
X101602455Y-101407547D01*
X101717664Y-101493793D01*
X101717671Y-101493797D01*
X101852517Y-101544091D01*
X101852516Y-101544091D01*
X101859444Y-101544835D01*
X101912127Y-101550500D01*
X103307872Y-101550499D01*
X103367483Y-101544091D01*
X103502331Y-101493796D01*
X103617546Y-101407546D01*
X103703796Y-101292331D01*
X103754091Y-101157483D01*
X103760500Y-101097873D01*
X103760499Y-100127525D01*
X113349500Y-100127525D01*
X113349500Y-100272475D01*
X113387016Y-100412485D01*
X113387017Y-100412488D01*
X113459488Y-100538011D01*
X113459490Y-100538013D01*
X113459491Y-100538015D01*
X113561985Y-100640509D01*
X113561986Y-100640510D01*
X113561988Y-100640511D01*
X113687511Y-100712982D01*
X113687512Y-100712982D01*
X113687515Y-100712984D01*
X113827525Y-100750500D01*
X113827528Y-100750500D01*
X113972472Y-100750500D01*
X113972475Y-100750500D01*
X114112485Y-100712984D01*
X114238015Y-100640509D01*
X114340509Y-100538015D01*
X114412984Y-100412485D01*
X114450500Y-100272475D01*
X114450500Y-100127525D01*
X114412984Y-99987515D01*
X114340509Y-99861985D01*
X114238015Y-99759491D01*
X114238013Y-99759490D01*
X114238011Y-99759488D01*
X114112488Y-99687017D01*
X114112489Y-99687017D01*
X114101006Y-99683940D01*
X113972475Y-99649500D01*
X113827525Y-99649500D01*
X113698993Y-99683940D01*
X113687511Y-99687017D01*
X113561988Y-99759488D01*
X113561982Y-99759493D01*
X113459493Y-99861982D01*
X113459488Y-99861988D01*
X113387017Y-99987511D01*
X113387016Y-99987515D01*
X113349500Y-100127525D01*
X103760499Y-100127525D01*
X103760499Y-99380500D01*
X103760499Y-98509448D01*
X127059500Y-98509448D01*
X127059500Y-100490551D01*
X127087829Y-100669410D01*
X127143787Y-100841636D01*
X127143788Y-100841639D01*
X127226006Y-101002997D01*
X127332441Y-101149494D01*
X127332445Y-101149499D01*
X127460500Y-101277554D01*
X127460505Y-101277558D01*
X127559526Y-101349500D01*
X127607006Y-101383996D01*
X127712484Y-101437740D01*
X127768360Y-101466211D01*
X127768363Y-101466212D01*
X127853251Y-101493793D01*
X127940591Y-101522171D01*
X128023429Y-101535291D01*
X128119449Y-101550500D01*
X128119454Y-101550500D01*
X128300551Y-101550500D01*
X128387259Y-101536765D01*
X128479409Y-101522171D01*
X128651639Y-101466211D01*
X128812994Y-101383996D01*
X128959501Y-101277553D01*
X129087553Y-101149501D01*
X129193996Y-101002994D01*
X129276211Y-100841639D01*
X129332171Y-100669409D01*
X129349135Y-100562302D01*
X129360500Y-100490551D01*
X129360500Y-98509448D01*
X130869500Y-98509448D01*
X130869500Y-100490551D01*
X130897829Y-100669410D01*
X130953787Y-100841636D01*
X130953788Y-100841639D01*
X131036006Y-101002997D01*
X131142441Y-101149494D01*
X131142445Y-101149499D01*
X131270500Y-101277554D01*
X131270505Y-101277558D01*
X131369526Y-101349500D01*
X131417006Y-101383996D01*
X131522484Y-101437740D01*
X131578360Y-101466211D01*
X131578363Y-101466212D01*
X131663251Y-101493793D01*
X131750591Y-101522171D01*
X131833429Y-101535291D01*
X131929449Y-101550500D01*
X131929454Y-101550500D01*
X132110551Y-101550500D01*
X132197259Y-101536765D01*
X132289409Y-101522171D01*
X132461639Y-101466211D01*
X132622994Y-101383996D01*
X132769501Y-101277553D01*
X132897553Y-101149501D01*
X133003996Y-101002994D01*
X133086211Y-100841639D01*
X133142171Y-100669409D01*
X133159135Y-100562302D01*
X133170500Y-100490551D01*
X133170500Y-98509448D01*
X134679500Y-98509448D01*
X134679500Y-100490551D01*
X134707829Y-100669410D01*
X134763787Y-100841636D01*
X134763788Y-100841639D01*
X134846006Y-101002997D01*
X134952441Y-101149494D01*
X134952445Y-101149499D01*
X135080500Y-101277554D01*
X135080505Y-101277558D01*
X135179526Y-101349500D01*
X135227006Y-101383996D01*
X135332484Y-101437740D01*
X135388360Y-101466211D01*
X135388363Y-101466212D01*
X135473251Y-101493793D01*
X135560591Y-101522171D01*
X135643429Y-101535291D01*
X135739449Y-101550500D01*
X135739454Y-101550500D01*
X135920551Y-101550500D01*
X136007259Y-101536765D01*
X136099409Y-101522171D01*
X136271639Y-101466211D01*
X136432994Y-101383996D01*
X136579501Y-101277553D01*
X136707553Y-101149501D01*
X136813996Y-101002994D01*
X136896211Y-100841639D01*
X136952171Y-100669409D01*
X136969135Y-100562302D01*
X136980500Y-100490551D01*
X136980500Y-98509448D01*
X138489500Y-98509448D01*
X138489500Y-100490551D01*
X138517829Y-100669410D01*
X138573787Y-100841636D01*
X138573788Y-100841639D01*
X138656006Y-101002997D01*
X138762441Y-101149494D01*
X138762445Y-101149499D01*
X138890500Y-101277554D01*
X138890505Y-101277558D01*
X138989526Y-101349500D01*
X139037006Y-101383996D01*
X139142484Y-101437740D01*
X139198360Y-101466211D01*
X139198363Y-101466212D01*
X139283251Y-101493793D01*
X139370591Y-101522171D01*
X139453429Y-101535291D01*
X139549449Y-101550500D01*
X139549454Y-101550500D01*
X139730551Y-101550500D01*
X139817259Y-101536765D01*
X139909409Y-101522171D01*
X140081639Y-101466211D01*
X140242994Y-101383996D01*
X140389501Y-101277553D01*
X140517553Y-101149501D01*
X140623996Y-101002994D01*
X140706211Y-100841639D01*
X140762171Y-100669409D01*
X140779135Y-100562302D01*
X140790500Y-100490551D01*
X140790500Y-98509448D01*
X140763742Y-98340511D01*
X140762171Y-98330591D01*
X140706211Y-98158361D01*
X140706211Y-98158360D01*
X140623995Y-97997005D01*
X140605604Y-97971692D01*
X140555068Y-97902135D01*
X142299500Y-97902135D01*
X142299500Y-101097870D01*
X142299501Y-101097876D01*
X142305908Y-101157483D01*
X142356202Y-101292328D01*
X142356206Y-101292335D01*
X142442452Y-101407544D01*
X142442455Y-101407547D01*
X142557664Y-101493793D01*
X142557671Y-101493797D01*
X142692517Y-101544091D01*
X142692516Y-101544091D01*
X142699444Y-101544835D01*
X142752127Y-101550500D01*
X144147872Y-101550499D01*
X144207483Y-101544091D01*
X144342331Y-101493796D01*
X144457546Y-101407546D01*
X144543796Y-101292331D01*
X144594091Y-101157483D01*
X144600500Y-101097873D01*
X144600499Y-97902128D01*
X144594091Y-97842517D01*
X144588499Y-97827525D01*
X144543797Y-97707671D01*
X144543793Y-97707664D01*
X144457547Y-97592455D01*
X144457544Y-97592452D01*
X144342335Y-97506206D01*
X144342328Y-97506202D01*
X144207482Y-97455908D01*
X144207483Y-97455908D01*
X144147883Y-97449501D01*
X144147881Y-97449500D01*
X144147873Y-97449500D01*
X144147864Y-97449500D01*
X142752129Y-97449500D01*
X142752123Y-97449501D01*
X142692516Y-97455908D01*
X142557671Y-97506202D01*
X142557664Y-97506206D01*
X142442455Y-97592452D01*
X142442452Y-97592455D01*
X142356206Y-97707664D01*
X142356202Y-97707671D01*
X142305908Y-97842517D01*
X142299501Y-97902116D01*
X142299501Y-97902123D01*
X142299500Y-97902135D01*
X140555068Y-97902135D01*
X140517553Y-97850499D01*
X140389501Y-97722447D01*
X140389499Y-97722445D01*
X140389494Y-97722441D01*
X140242997Y-97616006D01*
X140242996Y-97616005D01*
X140242994Y-97616004D01*
X140191300Y-97589664D01*
X140081639Y-97533788D01*
X140081636Y-97533787D01*
X139909410Y-97477829D01*
X139730551Y-97449500D01*
X139730546Y-97449500D01*
X139549454Y-97449500D01*
X139549449Y-97449500D01*
X139370589Y-97477829D01*
X139198363Y-97533787D01*
X139198360Y-97533788D01*
X139037002Y-97616006D01*
X138890505Y-97722441D01*
X138890500Y-97722445D01*
X138762445Y-97850500D01*
X138762441Y-97850505D01*
X138656006Y-97997002D01*
X138573788Y-98158360D01*
X138573787Y-98158363D01*
X138517829Y-98330589D01*
X138489500Y-98509448D01*
X136980500Y-98509448D01*
X136953742Y-98340511D01*
X136952171Y-98330591D01*
X136896211Y-98158361D01*
X136896211Y-98158360D01*
X136867740Y-98102484D01*
X136813996Y-97997006D01*
X136745069Y-97902135D01*
X136707558Y-97850505D01*
X136707554Y-97850500D01*
X136579499Y-97722445D01*
X136579494Y-97722441D01*
X136432997Y-97616006D01*
X136432996Y-97616005D01*
X136432994Y-97616004D01*
X136381300Y-97589664D01*
X136271639Y-97533788D01*
X136271636Y-97533787D01*
X136099410Y-97477829D01*
X135920551Y-97449500D01*
X135920546Y-97449500D01*
X135739454Y-97449500D01*
X135739449Y-97449500D01*
X135560589Y-97477829D01*
X135388363Y-97533787D01*
X135388360Y-97533788D01*
X135227002Y-97616006D01*
X135080505Y-97722441D01*
X135080500Y-97722445D01*
X134952445Y-97850500D01*
X134952441Y-97850505D01*
X134846006Y-97997002D01*
X134763788Y-98158360D01*
X134763787Y-98158363D01*
X134707829Y-98330589D01*
X134679500Y-98509448D01*
X133170500Y-98509448D01*
X133143742Y-98340511D01*
X133142171Y-98330591D01*
X133086211Y-98158361D01*
X133086211Y-98158360D01*
X133057740Y-98102484D01*
X133003996Y-97997006D01*
X132935069Y-97902135D01*
X132897558Y-97850505D01*
X132897554Y-97850500D01*
X132769499Y-97722445D01*
X132769494Y-97722441D01*
X132622997Y-97616006D01*
X132622996Y-97616005D01*
X132622994Y-97616004D01*
X132571300Y-97589664D01*
X132461639Y-97533788D01*
X132461636Y-97533787D01*
X132289410Y-97477829D01*
X132110551Y-97449500D01*
X132110546Y-97449500D01*
X131929454Y-97449500D01*
X131929449Y-97449500D01*
X131750589Y-97477829D01*
X131578363Y-97533787D01*
X131578360Y-97533788D01*
X131417002Y-97616006D01*
X131270505Y-97722441D01*
X131270500Y-97722445D01*
X131142445Y-97850500D01*
X131142441Y-97850505D01*
X131036006Y-97997002D01*
X130953788Y-98158360D01*
X130953787Y-98158363D01*
X130897829Y-98330589D01*
X130869500Y-98509448D01*
X129360500Y-98509448D01*
X129333742Y-98340511D01*
X129332171Y-98330591D01*
X129276211Y-98158361D01*
X129276211Y-98158360D01*
X129247740Y-98102484D01*
X129193996Y-97997006D01*
X129125069Y-97902135D01*
X129087558Y-97850505D01*
X129087554Y-97850500D01*
X128959499Y-97722445D01*
X128959494Y-97722441D01*
X128812997Y-97616006D01*
X128812996Y-97616005D01*
X128812994Y-97616004D01*
X128761300Y-97589664D01*
X128651639Y-97533788D01*
X128651636Y-97533787D01*
X128479410Y-97477829D01*
X128300551Y-97449500D01*
X128300546Y-97449500D01*
X128119454Y-97449500D01*
X128119449Y-97449500D01*
X127940589Y-97477829D01*
X127768363Y-97533787D01*
X127768360Y-97533788D01*
X127607002Y-97616006D01*
X127460505Y-97722441D01*
X127460500Y-97722445D01*
X127332445Y-97850500D01*
X127332441Y-97850505D01*
X127226006Y-97997002D01*
X127143788Y-98158360D01*
X127143787Y-98158363D01*
X127087829Y-98330589D01*
X127059500Y-98509448D01*
X103760499Y-98509448D01*
X103760499Y-98504582D01*
X103760499Y-97902129D01*
X103760498Y-97902123D01*
X103760497Y-97902116D01*
X103754091Y-97842517D01*
X103748499Y-97827525D01*
X103703797Y-97707671D01*
X103703793Y-97707664D01*
X103617547Y-97592455D01*
X103617544Y-97592452D01*
X103502335Y-97506206D01*
X103502328Y-97506202D01*
X103367482Y-97455908D01*
X103367483Y-97455908D01*
X103307883Y-97449501D01*
X103307881Y-97449500D01*
X103307873Y-97449500D01*
X103307864Y-97449500D01*
X101912129Y-97449500D01*
X101912123Y-97449501D01*
X101852516Y-97455908D01*
X101717671Y-97506202D01*
X101717664Y-97506206D01*
X101602455Y-97592452D01*
X101602452Y-97592455D01*
X101516206Y-97707664D01*
X101516202Y-97707671D01*
X101465908Y-97842517D01*
X101459501Y-97902116D01*
X101459501Y-97902123D01*
X101459500Y-97902135D01*
X99715068Y-97902135D01*
X99677553Y-97850499D01*
X99549501Y-97722447D01*
X99549499Y-97722445D01*
X99549494Y-97722441D01*
X99402997Y-97616006D01*
X99402996Y-97616005D01*
X99402994Y-97616004D01*
X99351300Y-97589664D01*
X99241639Y-97533788D01*
X99241636Y-97533787D01*
X99069410Y-97477829D01*
X98890551Y-97449500D01*
X98890546Y-97449500D01*
X98709454Y-97449500D01*
X98709449Y-97449500D01*
X98530589Y-97477829D01*
X98358363Y-97533787D01*
X98358360Y-97533788D01*
X98197002Y-97616006D01*
X98050505Y-97722441D01*
X98050500Y-97722445D01*
X97922445Y-97850500D01*
X97922441Y-97850505D01*
X97816006Y-97997002D01*
X97733788Y-98158360D01*
X97733787Y-98158363D01*
X97677829Y-98330589D01*
X97649500Y-98509448D01*
X96140500Y-98509448D01*
X96113742Y-98340511D01*
X96112171Y-98330591D01*
X96056211Y-98158361D01*
X96056211Y-98158360D01*
X96027740Y-98102484D01*
X95973996Y-97997006D01*
X95905069Y-97902135D01*
X95867558Y-97850505D01*
X95867554Y-97850500D01*
X95739499Y-97722445D01*
X95739494Y-97722441D01*
X95592997Y-97616006D01*
X95592996Y-97616005D01*
X95592994Y-97616004D01*
X95541300Y-97589664D01*
X95431639Y-97533788D01*
X95431636Y-97533787D01*
X95259410Y-97477829D01*
X95080551Y-97449500D01*
X95080546Y-97449500D01*
X94899454Y-97449500D01*
X94899449Y-97449500D01*
X94720589Y-97477829D01*
X94548363Y-97533787D01*
X94548360Y-97533788D01*
X94387002Y-97616006D01*
X94240505Y-97722441D01*
X94240500Y-97722445D01*
X94112445Y-97850500D01*
X94112441Y-97850505D01*
X94006006Y-97997002D01*
X93923788Y-98158360D01*
X93923787Y-98158363D01*
X93867829Y-98330589D01*
X93839500Y-98509448D01*
X92330500Y-98509448D01*
X92303742Y-98340511D01*
X92302171Y-98330591D01*
X92246211Y-98158361D01*
X92246211Y-98158360D01*
X92217740Y-98102484D01*
X92163996Y-97997006D01*
X92095069Y-97902135D01*
X92057558Y-97850505D01*
X92057554Y-97850500D01*
X91929499Y-97722445D01*
X91929494Y-97722441D01*
X91782997Y-97616006D01*
X91782996Y-97616005D01*
X91782994Y-97616004D01*
X91731300Y-97589664D01*
X91621639Y-97533788D01*
X91621636Y-97533787D01*
X91449410Y-97477829D01*
X91270551Y-97449500D01*
X91270546Y-97449500D01*
X91089454Y-97449500D01*
X91089449Y-97449500D01*
X90910589Y-97477829D01*
X90738363Y-97533787D01*
X90738360Y-97533788D01*
X90577002Y-97616006D01*
X90430505Y-97722441D01*
X90430500Y-97722445D01*
X90302445Y-97850500D01*
X90302441Y-97850505D01*
X90196006Y-97997002D01*
X90113788Y-98158360D01*
X90113787Y-98158363D01*
X90057829Y-98330589D01*
X90029500Y-98509448D01*
X88520500Y-98509448D01*
X88493742Y-98340511D01*
X88492171Y-98330591D01*
X88436211Y-98158361D01*
X88436211Y-98158360D01*
X88407740Y-98102484D01*
X88353996Y-97997006D01*
X88285069Y-97902135D01*
X88247558Y-97850505D01*
X88247554Y-97850500D01*
X88119499Y-97722445D01*
X88119494Y-97722441D01*
X87972997Y-97616006D01*
X87972996Y-97616005D01*
X87972994Y-97616004D01*
X87921300Y-97589664D01*
X87811639Y-97533788D01*
X87811636Y-97533787D01*
X87639410Y-97477829D01*
X87460551Y-97449500D01*
X87460546Y-97449500D01*
X87279454Y-97449500D01*
X87279449Y-97449500D01*
X87100589Y-97477829D01*
X86928363Y-97533787D01*
X86928360Y-97533788D01*
X86767002Y-97616006D01*
X86620505Y-97722441D01*
X86620500Y-97722445D01*
X86492445Y-97850500D01*
X86492441Y-97850505D01*
X86386006Y-97997002D01*
X86303788Y-98158360D01*
X86303787Y-98158363D01*
X86247829Y-98330589D01*
X86219500Y-98509448D01*
X78800500Y-98509448D01*
X78800500Y-97405326D01*
X78800500Y-97405323D01*
X78800499Y-97405321D01*
X78785967Y-97332264D01*
X78785966Y-97332260D01*
X78730601Y-97249399D01*
X78647740Y-97194034D01*
X78647739Y-97194033D01*
X78647735Y-97194032D01*
X78574677Y-97179500D01*
X78574674Y-97179500D01*
X76825326Y-97179500D01*
X76825323Y-97179500D01*
X76752264Y-97194032D01*
X76752260Y-97194033D01*
X76669399Y-97249399D01*
X76614033Y-97332260D01*
X76614032Y-97332264D01*
X76599500Y-97405321D01*
X74844191Y-97405321D01*
X74812488Y-97387017D01*
X74812489Y-97387017D01*
X74801006Y-97383940D01*
X74672475Y-97349500D01*
X74527525Y-97349500D01*
X74398993Y-97383940D01*
X74387511Y-97387017D01*
X74261988Y-97459488D01*
X74261982Y-97459493D01*
X74159493Y-97561982D01*
X74159488Y-97561988D01*
X74087017Y-97687511D01*
X74087016Y-97687515D01*
X74049500Y-97827525D01*
X64500500Y-97827525D01*
X64500500Y-94127525D01*
X86049500Y-94127525D01*
X86049500Y-94272475D01*
X86077649Y-94377527D01*
X86087017Y-94412488D01*
X86159488Y-94538011D01*
X86159490Y-94538013D01*
X86159491Y-94538015D01*
X86261985Y-94640509D01*
X86261986Y-94640510D01*
X86261988Y-94640511D01*
X86387511Y-94712982D01*
X86387512Y-94712982D01*
X86387515Y-94712984D01*
X86527525Y-94750500D01*
X86527528Y-94750500D01*
X86672472Y-94750500D01*
X86672475Y-94750500D01*
X86812485Y-94712984D01*
X86938015Y-94640509D01*
X87040509Y-94538015D01*
X87112984Y-94412485D01*
X87150500Y-94272475D01*
X87150500Y-94127525D01*
X91049500Y-94127525D01*
X91049500Y-94272475D01*
X91077649Y-94377527D01*
X91087017Y-94412488D01*
X91159488Y-94538011D01*
X91159490Y-94538013D01*
X91159491Y-94538015D01*
X91261985Y-94640509D01*
X91261986Y-94640510D01*
X91261988Y-94640511D01*
X91387511Y-94712982D01*
X91387512Y-94712982D01*
X91387515Y-94712984D01*
X91527525Y-94750500D01*
X91527528Y-94750500D01*
X91672472Y-94750500D01*
X91672475Y-94750500D01*
X91812485Y-94712984D01*
X91938015Y-94640509D01*
X92040509Y-94538015D01*
X92112984Y-94412485D01*
X92135749Y-94327525D01*
X107549500Y-94327525D01*
X107549500Y-94472475D01*
X107587016Y-94612485D01*
X107587017Y-94612488D01*
X107659488Y-94738011D01*
X107659490Y-94738013D01*
X107659491Y-94738015D01*
X107761985Y-94840509D01*
X107761986Y-94840510D01*
X107761988Y-94840511D01*
X107887511Y-94912982D01*
X107887512Y-94912982D01*
X107887515Y-94912984D01*
X108027525Y-94950500D01*
X108027528Y-94950500D01*
X108172472Y-94950500D01*
X108172475Y-94950500D01*
X108312485Y-94912984D01*
X108438015Y-94840509D01*
X108540509Y-94738015D01*
X108612984Y-94612485D01*
X108650500Y-94472475D01*
X108650500Y-94377525D01*
X111739500Y-94377525D01*
X111739500Y-94522475D01*
X111771128Y-94640511D01*
X111777017Y-94662488D01*
X111849488Y-94788011D01*
X111849490Y-94788013D01*
X111849491Y-94788015D01*
X111951985Y-94890509D01*
X111951986Y-94890510D01*
X111951988Y-94890511D01*
X112077511Y-94962982D01*
X112077512Y-94962982D01*
X112077515Y-94962984D01*
X112217525Y-95000500D01*
X112217528Y-95000500D01*
X112362472Y-95000500D01*
X112362475Y-95000500D01*
X112502485Y-94962984D01*
X112628015Y-94890509D01*
X112730509Y-94788015D01*
X112802984Y-94662485D01*
X112840500Y-94522475D01*
X112840500Y-94377525D01*
X112802984Y-94237515D01*
X112739481Y-94127525D01*
X126287000Y-94127525D01*
X126287000Y-94272475D01*
X126315149Y-94377527D01*
X126324517Y-94412488D01*
X126396988Y-94538011D01*
X126396990Y-94538013D01*
X126396991Y-94538015D01*
X126499485Y-94640509D01*
X126499486Y-94640510D01*
X126499488Y-94640511D01*
X126625011Y-94712982D01*
X126625012Y-94712982D01*
X126625015Y-94712984D01*
X126765025Y-94750500D01*
X126765028Y-94750500D01*
X126909972Y-94750500D01*
X126909975Y-94750500D01*
X127049985Y-94712984D01*
X127175515Y-94640509D01*
X127278009Y-94538015D01*
X127350484Y-94412485D01*
X127388000Y-94272475D01*
X127388000Y-94127525D01*
X130849500Y-94127525D01*
X130849500Y-94272475D01*
X130877649Y-94377527D01*
X130887017Y-94412488D01*
X130959488Y-94538011D01*
X130959490Y-94538013D01*
X130959491Y-94538015D01*
X131061985Y-94640509D01*
X131061986Y-94640510D01*
X131061988Y-94640511D01*
X131187511Y-94712982D01*
X131187512Y-94712982D01*
X131187515Y-94712984D01*
X131327525Y-94750500D01*
X131327528Y-94750500D01*
X131472472Y-94750500D01*
X131472475Y-94750500D01*
X131612485Y-94712984D01*
X131738015Y-94640509D01*
X131840509Y-94538015D01*
X131912984Y-94412485D01*
X131950500Y-94272475D01*
X131950500Y-94127525D01*
X131912984Y-93987515D01*
X131896805Y-93959493D01*
X131840511Y-93861988D01*
X131840506Y-93861982D01*
X131738017Y-93759493D01*
X131738011Y-93759488D01*
X131612488Y-93687017D01*
X131612489Y-93687017D01*
X131601006Y-93683940D01*
X131472475Y-93649500D01*
X131327525Y-93649500D01*
X131198993Y-93683940D01*
X131187511Y-93687017D01*
X131061988Y-93759488D01*
X131061982Y-93759493D01*
X130959493Y-93861982D01*
X130959488Y-93861988D01*
X130887017Y-93987511D01*
X130887016Y-93987515D01*
X130849500Y-94127525D01*
X127388000Y-94127525D01*
X127350484Y-93987515D01*
X127334305Y-93959493D01*
X127278011Y-93861988D01*
X127278006Y-93861982D01*
X127175517Y-93759493D01*
X127175511Y-93759488D01*
X127049988Y-93687017D01*
X127049989Y-93687017D01*
X127038506Y-93683940D01*
X126909975Y-93649500D01*
X126765025Y-93649500D01*
X126636493Y-93683940D01*
X126625011Y-93687017D01*
X126499488Y-93759488D01*
X126499482Y-93759493D01*
X126396993Y-93861982D01*
X126396988Y-93861988D01*
X126324517Y-93987511D01*
X126324516Y-93987515D01*
X126287000Y-94127525D01*
X112739481Y-94127525D01*
X112730509Y-94111985D01*
X112628015Y-94009491D01*
X112628013Y-94009490D01*
X112628011Y-94009488D01*
X112502488Y-93937017D01*
X112502489Y-93937017D01*
X112491006Y-93933940D01*
X112362475Y-93899500D01*
X112217525Y-93899500D01*
X112088993Y-93933940D01*
X112077511Y-93937017D01*
X111951988Y-94009488D01*
X111951982Y-94009493D01*
X111849493Y-94111982D01*
X111849488Y-94111988D01*
X111777017Y-94237511D01*
X111777016Y-94237515D01*
X111739500Y-94377525D01*
X108650500Y-94377525D01*
X108650500Y-94327525D01*
X108612984Y-94187515D01*
X108569378Y-94111988D01*
X108540511Y-94061988D01*
X108540506Y-94061982D01*
X108438017Y-93959493D01*
X108438011Y-93959488D01*
X108312488Y-93887017D01*
X108312489Y-93887017D01*
X108301006Y-93883940D01*
X108172475Y-93849500D01*
X108027525Y-93849500D01*
X107898993Y-93883940D01*
X107887511Y-93887017D01*
X107761988Y-93959488D01*
X107761982Y-93959493D01*
X107659493Y-94061982D01*
X107659488Y-94061988D01*
X107587017Y-94187511D01*
X107587016Y-94187515D01*
X107549500Y-94327525D01*
X92135749Y-94327525D01*
X92150500Y-94272475D01*
X92150500Y-94127525D01*
X92112984Y-93987515D01*
X92096805Y-93959493D01*
X92040511Y-93861988D01*
X92040506Y-93861982D01*
X91938017Y-93759493D01*
X91938011Y-93759488D01*
X91812488Y-93687017D01*
X91812489Y-93687017D01*
X91801006Y-93683940D01*
X91672475Y-93649500D01*
X91527525Y-93649500D01*
X91398993Y-93683940D01*
X91387511Y-93687017D01*
X91261988Y-93759488D01*
X91261982Y-93759493D01*
X91159493Y-93861982D01*
X91159488Y-93861988D01*
X91087017Y-93987511D01*
X91087016Y-93987515D01*
X91049500Y-94127525D01*
X87150500Y-94127525D01*
X87112984Y-93987515D01*
X87096805Y-93959493D01*
X87040511Y-93861988D01*
X87040506Y-93861982D01*
X86938017Y-93759493D01*
X86938011Y-93759488D01*
X86812488Y-93687017D01*
X86812489Y-93687017D01*
X86801006Y-93683940D01*
X86672475Y-93649500D01*
X86527525Y-93649500D01*
X86398993Y-93683940D01*
X86387511Y-93687017D01*
X86261988Y-93759488D01*
X86261982Y-93759493D01*
X86159493Y-93861982D01*
X86159488Y-93861988D01*
X86087017Y-93987511D01*
X86087016Y-93987515D01*
X86049500Y-94127525D01*
X64500500Y-94127525D01*
X64500500Y-91527525D01*
X68249500Y-91527525D01*
X68249500Y-91672475D01*
X68287016Y-91812485D01*
X68287017Y-91812488D01*
X68359488Y-91938011D01*
X68359490Y-91938013D01*
X68359491Y-91938015D01*
X68461985Y-92040509D01*
X68461986Y-92040510D01*
X68461988Y-92040511D01*
X68587511Y-92112982D01*
X68587512Y-92112982D01*
X68587515Y-92112984D01*
X68727525Y-92150500D01*
X68727528Y-92150500D01*
X68872472Y-92150500D01*
X68872475Y-92150500D01*
X69012485Y-92112984D01*
X69138015Y-92040509D01*
X69240509Y-91938015D01*
X69304301Y-91827525D01*
X112549500Y-91827525D01*
X112549500Y-91972475D01*
X112587016Y-92112485D01*
X112587017Y-92112488D01*
X112659488Y-92238011D01*
X112659490Y-92238013D01*
X112659491Y-92238015D01*
X112761985Y-92340509D01*
X112761986Y-92340510D01*
X112761988Y-92340511D01*
X112887511Y-92412982D01*
X112887512Y-92412982D01*
X112887515Y-92412984D01*
X113027525Y-92450500D01*
X113027528Y-92450500D01*
X113172472Y-92450500D01*
X113172475Y-92450500D01*
X113312485Y-92412984D01*
X113438015Y-92340509D01*
X113540509Y-92238015D01*
X113612984Y-92112485D01*
X113650500Y-91972475D01*
X113650500Y-91827525D01*
X113612984Y-91687515D01*
X113540509Y-91561985D01*
X113438015Y-91459491D01*
X113438013Y-91459490D01*
X113438011Y-91459488D01*
X113312488Y-91387017D01*
X113312489Y-91387017D01*
X113301006Y-91383940D01*
X113172475Y-91349500D01*
X113027525Y-91349500D01*
X112898993Y-91383940D01*
X112887511Y-91387017D01*
X112761988Y-91459488D01*
X112761982Y-91459493D01*
X112659493Y-91561982D01*
X112659488Y-91561988D01*
X112587017Y-91687511D01*
X112587016Y-91687515D01*
X112549500Y-91827525D01*
X69304301Y-91827525D01*
X69312984Y-91812485D01*
X69350500Y-91672475D01*
X69350500Y-91527525D01*
X69312984Y-91387515D01*
X69312696Y-91387017D01*
X69240511Y-91261988D01*
X69240506Y-91261982D01*
X69138017Y-91159493D01*
X69138011Y-91159488D01*
X69012488Y-91087017D01*
X69012489Y-91087017D01*
X69001006Y-91083940D01*
X68872475Y-91049500D01*
X68727525Y-91049500D01*
X68598993Y-91083940D01*
X68587511Y-91087017D01*
X68461988Y-91159488D01*
X68461982Y-91159493D01*
X68359493Y-91261982D01*
X68359488Y-91261988D01*
X68287017Y-91387511D01*
X68287016Y-91387515D01*
X68249500Y-91527525D01*
X64500500Y-91527525D01*
X64500500Y-90627525D01*
X75049500Y-90627525D01*
X75049500Y-90772475D01*
X75067924Y-90841232D01*
X75087017Y-90912488D01*
X75159488Y-91038011D01*
X75159490Y-91038013D01*
X75159491Y-91038015D01*
X75261985Y-91140509D01*
X75261986Y-91140510D01*
X75261988Y-91140511D01*
X75387511Y-91212982D01*
X75387512Y-91212982D01*
X75387515Y-91212984D01*
X75527525Y-91250500D01*
X75527528Y-91250500D01*
X75672472Y-91250500D01*
X75672475Y-91250500D01*
X75812485Y-91212984D01*
X75938015Y-91140509D01*
X76040509Y-91038015D01*
X76112984Y-90912485D01*
X76150500Y-90772475D01*
X76150500Y-90627525D01*
X76112984Y-90487515D01*
X76040509Y-90361985D01*
X75938015Y-90259491D01*
X75938013Y-90259490D01*
X75938011Y-90259488D01*
X75812488Y-90187017D01*
X75812489Y-90187017D01*
X75801006Y-90183940D01*
X75672475Y-90149500D01*
X75527525Y-90149500D01*
X75398993Y-90183940D01*
X75387511Y-90187017D01*
X75261988Y-90259488D01*
X75261982Y-90259493D01*
X75159493Y-90361982D01*
X75159488Y-90361988D01*
X75087017Y-90487511D01*
X75087016Y-90487515D01*
X75049500Y-90627525D01*
X64500500Y-90627525D01*
X64500500Y-89527525D01*
X74149500Y-89527525D01*
X74149500Y-89672475D01*
X74187016Y-89812485D01*
X74187017Y-89812488D01*
X74259488Y-89938011D01*
X74259490Y-89938013D01*
X74259491Y-89938015D01*
X74361985Y-90040509D01*
X74361986Y-90040510D01*
X74361988Y-90040511D01*
X74487511Y-90112982D01*
X74487512Y-90112982D01*
X74487515Y-90112984D01*
X74627525Y-90150500D01*
X74627528Y-90150500D01*
X74772472Y-90150500D01*
X74772475Y-90150500D01*
X74912485Y-90112984D01*
X75038015Y-90040509D01*
X75140509Y-89938015D01*
X75212984Y-89812485D01*
X75250500Y-89672475D01*
X75250500Y-89527525D01*
X86349500Y-89527525D01*
X86349500Y-89672475D01*
X86387016Y-89812485D01*
X86387017Y-89812488D01*
X86459488Y-89938011D01*
X86459490Y-89938013D01*
X86459491Y-89938015D01*
X86561985Y-90040509D01*
X86561986Y-90040510D01*
X86561988Y-90040511D01*
X86687511Y-90112982D01*
X86687512Y-90112982D01*
X86687515Y-90112984D01*
X86827525Y-90150500D01*
X86827528Y-90150500D01*
X86972472Y-90150500D01*
X86972475Y-90150500D01*
X87112485Y-90112984D01*
X87238015Y-90040509D01*
X87340509Y-89938015D01*
X87412984Y-89812485D01*
X87450500Y-89672475D01*
X87450500Y-89627525D01*
X91549500Y-89627525D01*
X91549500Y-89772475D01*
X91587016Y-89912485D01*
X91587017Y-89912488D01*
X91659488Y-90038011D01*
X91659490Y-90038013D01*
X91659491Y-90038015D01*
X91761985Y-90140509D01*
X91761986Y-90140510D01*
X91761988Y-90140511D01*
X91887511Y-90212982D01*
X91887512Y-90212982D01*
X91887515Y-90212984D01*
X92027525Y-90250500D01*
X92027528Y-90250500D01*
X92172472Y-90250500D01*
X92172475Y-90250500D01*
X92312485Y-90212984D01*
X92438015Y-90140509D01*
X92540509Y-90038015D01*
X92612984Y-89912485D01*
X92650500Y-89772475D01*
X92650500Y-89627525D01*
X92612984Y-89487515D01*
X92612982Y-89487511D01*
X92609454Y-89481400D01*
X92609453Y-89481399D01*
X92604051Y-89472044D01*
X92578348Y-89427525D01*
X126649500Y-89427525D01*
X126649500Y-89572475D01*
X126687016Y-89712485D01*
X126687017Y-89712488D01*
X126759488Y-89838011D01*
X126759490Y-89838013D01*
X126759491Y-89838015D01*
X126861985Y-89940509D01*
X126861986Y-89940510D01*
X126861988Y-89940511D01*
X126987511Y-90012982D01*
X126987512Y-90012982D01*
X126987515Y-90012984D01*
X127127525Y-90050500D01*
X127127528Y-90050500D01*
X127272472Y-90050500D01*
X127272475Y-90050500D01*
X127412485Y-90012984D01*
X127538015Y-89940509D01*
X127640509Y-89838015D01*
X127712984Y-89712485D01*
X127750500Y-89572475D01*
X127750500Y-89527525D01*
X131749500Y-89527525D01*
X131749500Y-89672475D01*
X131787016Y-89812485D01*
X131787017Y-89812488D01*
X131859488Y-89938011D01*
X131859490Y-89938013D01*
X131859491Y-89938015D01*
X131961985Y-90040509D01*
X131961986Y-90040510D01*
X131961988Y-90040511D01*
X132087511Y-90112982D01*
X132087512Y-90112982D01*
X132087515Y-90112984D01*
X132227525Y-90150500D01*
X132227528Y-90150500D01*
X132372472Y-90150500D01*
X132372475Y-90150500D01*
X132512485Y-90112984D01*
X132638015Y-90040509D01*
X132740509Y-89938015D01*
X132812462Y-89813389D01*
X149199500Y-89813389D01*
X149199500Y-89986610D01*
X149223874Y-90140506D01*
X149226598Y-90157701D01*
X149280127Y-90322445D01*
X149358768Y-90476788D01*
X149460586Y-90616928D01*
X149583072Y-90739414D01*
X149723212Y-90841232D01*
X149877555Y-90919873D01*
X150042299Y-90973402D01*
X150213389Y-91000500D01*
X150213390Y-91000500D01*
X150386610Y-91000500D01*
X150386611Y-91000500D01*
X150557701Y-90973402D01*
X150722445Y-90919873D01*
X150876788Y-90841232D01*
X151016928Y-90739414D01*
X151139414Y-90616928D01*
X151241232Y-90476788D01*
X151319873Y-90322445D01*
X151373402Y-90157701D01*
X151400500Y-89986611D01*
X151400500Y-89813389D01*
X151373402Y-89642299D01*
X151319873Y-89477555D01*
X151241232Y-89323212D01*
X151139414Y-89183072D01*
X151016928Y-89060586D01*
X150876788Y-88958768D01*
X150722445Y-88880127D01*
X150557701Y-88826598D01*
X150557699Y-88826597D01*
X150557698Y-88826597D01*
X150426271Y-88805781D01*
X150386611Y-88799500D01*
X150213389Y-88799500D01*
X150173728Y-88805781D01*
X150042302Y-88826597D01*
X149877552Y-88880128D01*
X149723211Y-88958768D01*
X149643256Y-89016859D01*
X149583072Y-89060586D01*
X149583070Y-89060588D01*
X149583069Y-89060588D01*
X149460588Y-89183069D01*
X149460588Y-89183070D01*
X149460586Y-89183072D01*
X149457721Y-89187016D01*
X149358768Y-89323211D01*
X149280128Y-89477552D01*
X149226597Y-89642302D01*
X149199500Y-89813389D01*
X132812462Y-89813389D01*
X132812984Y-89812485D01*
X132850500Y-89672475D01*
X132850500Y-89527525D01*
X132812984Y-89387515D01*
X132798244Y-89361985D01*
X132740511Y-89261988D01*
X132740506Y-89261982D01*
X132638017Y-89159493D01*
X132638011Y-89159488D01*
X132512488Y-89087017D01*
X132512489Y-89087017D01*
X132501006Y-89083940D01*
X132372475Y-89049500D01*
X132227525Y-89049500D01*
X132098993Y-89083940D01*
X132087511Y-89087017D01*
X131961988Y-89159488D01*
X131961982Y-89159493D01*
X131859493Y-89261982D01*
X131859488Y-89261988D01*
X131787017Y-89387511D01*
X131787016Y-89387515D01*
X131749500Y-89527525D01*
X127750500Y-89527525D01*
X127750500Y-89427525D01*
X127712984Y-89287515D01*
X127698244Y-89261985D01*
X127640511Y-89161988D01*
X127640506Y-89161982D01*
X127538017Y-89059493D01*
X127538011Y-89059488D01*
X127412488Y-88987017D01*
X127412489Y-88987017D01*
X127401006Y-88983940D01*
X127272475Y-88949500D01*
X127127525Y-88949500D01*
X126998993Y-88983940D01*
X126987511Y-88987017D01*
X126861988Y-89059488D01*
X126861982Y-89059493D01*
X126759493Y-89161982D01*
X126759488Y-89161988D01*
X126687017Y-89287511D01*
X126687016Y-89287515D01*
X126649500Y-89427525D01*
X92578348Y-89427525D01*
X92540509Y-89361985D01*
X92438015Y-89259491D01*
X92438013Y-89259490D01*
X92438011Y-89259488D01*
X92312488Y-89187017D01*
X92312489Y-89187017D01*
X92297755Y-89183069D01*
X92172475Y-89149500D01*
X92027525Y-89149500D01*
X91902245Y-89183069D01*
X91887511Y-89187017D01*
X91761988Y-89259488D01*
X91761982Y-89259493D01*
X91659493Y-89361982D01*
X91659488Y-89361988D01*
X91587017Y-89487511D01*
X91587016Y-89487515D01*
X91549500Y-89627525D01*
X87450500Y-89627525D01*
X87450500Y-89527525D01*
X87412984Y-89387515D01*
X87398244Y-89361985D01*
X87340511Y-89261988D01*
X87340506Y-89261982D01*
X87238017Y-89159493D01*
X87238011Y-89159488D01*
X87112488Y-89087017D01*
X87112489Y-89087017D01*
X87101006Y-89083940D01*
X86972475Y-89049500D01*
X86827525Y-89049500D01*
X86698993Y-89083940D01*
X86687511Y-89087017D01*
X86561988Y-89159488D01*
X86561982Y-89159493D01*
X86459493Y-89261982D01*
X86459488Y-89261988D01*
X86387017Y-89387511D01*
X86387016Y-89387515D01*
X86349500Y-89527525D01*
X75250500Y-89527525D01*
X75212984Y-89387515D01*
X75198244Y-89361985D01*
X75140511Y-89261988D01*
X75140506Y-89261982D01*
X75038017Y-89159493D01*
X75038011Y-89159488D01*
X74912488Y-89087017D01*
X74912489Y-89087017D01*
X74901006Y-89083940D01*
X74772475Y-89049500D01*
X74627525Y-89049500D01*
X74498993Y-89083940D01*
X74487511Y-89087017D01*
X74361988Y-89159488D01*
X74361982Y-89159493D01*
X74259493Y-89261982D01*
X74259488Y-89261988D01*
X74187017Y-89387511D01*
X74187016Y-89387515D01*
X74149500Y-89527525D01*
X64500500Y-89527525D01*
X64500500Y-87252525D01*
X113324500Y-87252525D01*
X113324500Y-87397475D01*
X113362016Y-87537485D01*
X113362017Y-87537488D01*
X113434488Y-87663011D01*
X113434490Y-87663013D01*
X113434491Y-87663015D01*
X113536985Y-87765509D01*
X113536986Y-87765510D01*
X113536988Y-87765511D01*
X113662511Y-87837982D01*
X113662512Y-87837982D01*
X113662515Y-87837984D01*
X113802525Y-87875500D01*
X113802528Y-87875500D01*
X113947472Y-87875500D01*
X113947475Y-87875500D01*
X114087485Y-87837984D01*
X114213015Y-87765509D01*
X114315509Y-87663015D01*
X114387984Y-87537485D01*
X114425500Y-87397475D01*
X114425500Y-87273389D01*
X149199500Y-87273389D01*
X149199500Y-87446610D01*
X149213893Y-87537488D01*
X149226598Y-87617701D01*
X149280127Y-87782445D01*
X149358768Y-87936788D01*
X149460586Y-88076928D01*
X149583072Y-88199414D01*
X149723212Y-88301232D01*
X149877555Y-88379873D01*
X150042299Y-88433402D01*
X150213389Y-88460500D01*
X150213390Y-88460500D01*
X150386610Y-88460500D01*
X150386611Y-88460500D01*
X150557701Y-88433402D01*
X150722445Y-88379873D01*
X150876788Y-88301232D01*
X151016928Y-88199414D01*
X151139414Y-88076928D01*
X151241232Y-87936788D01*
X151319873Y-87782445D01*
X151373402Y-87617701D01*
X151400500Y-87446611D01*
X151400500Y-87273389D01*
X151373402Y-87102299D01*
X151319873Y-86937555D01*
X151241232Y-86783212D01*
X151139414Y-86643072D01*
X151016928Y-86520586D01*
X150876788Y-86418768D01*
X150722445Y-86340127D01*
X150557701Y-86286598D01*
X150557699Y-86286597D01*
X150557698Y-86286597D01*
X150426271Y-86265781D01*
X150386611Y-86259500D01*
X150213389Y-86259500D01*
X150173728Y-86265781D01*
X150042302Y-86286597D01*
X149877552Y-86340128D01*
X149723211Y-86418768D01*
X149643256Y-86476859D01*
X149583072Y-86520586D01*
X149583070Y-86520588D01*
X149583069Y-86520588D01*
X149460588Y-86643069D01*
X149460588Y-86643070D01*
X149460586Y-86643072D01*
X149416859Y-86703256D01*
X149358768Y-86783211D01*
X149280128Y-86937552D01*
X149226597Y-87102302D01*
X149199500Y-87273389D01*
X114425500Y-87273389D01*
X114425500Y-87252525D01*
X114387984Y-87112515D01*
X114315509Y-86986985D01*
X114213015Y-86884491D01*
X114213013Y-86884490D01*
X114213011Y-86884488D01*
X114087488Y-86812017D01*
X114087489Y-86812017D01*
X114076006Y-86808940D01*
X113947475Y-86774500D01*
X113802525Y-86774500D01*
X113673993Y-86808940D01*
X113662511Y-86812017D01*
X113536988Y-86884488D01*
X113536982Y-86884493D01*
X113434493Y-86986982D01*
X113434488Y-86986988D01*
X113362017Y-87112511D01*
X113362016Y-87112515D01*
X113324500Y-87252525D01*
X64500500Y-87252525D01*
X64500500Y-85627525D01*
X82949500Y-85627525D01*
X82949500Y-85772475D01*
X82987016Y-85912485D01*
X82987017Y-85912488D01*
X83059488Y-86038011D01*
X83059490Y-86038013D01*
X83059491Y-86038015D01*
X83161985Y-86140509D01*
X83161986Y-86140510D01*
X83161988Y-86140511D01*
X83287511Y-86212982D01*
X83287512Y-86212982D01*
X83287515Y-86212984D01*
X83427525Y-86250500D01*
X83427528Y-86250500D01*
X83572472Y-86250500D01*
X83572475Y-86250500D01*
X83712485Y-86212984D01*
X83838015Y-86140509D01*
X83940509Y-86038015D01*
X84012984Y-85912485D01*
X84050500Y-85772475D01*
X84050500Y-85627525D01*
X86249500Y-85627525D01*
X86249500Y-85772475D01*
X86287016Y-85912485D01*
X86287017Y-85912488D01*
X86359488Y-86038011D01*
X86359490Y-86038013D01*
X86359491Y-86038015D01*
X86461985Y-86140509D01*
X86461986Y-86140510D01*
X86461988Y-86140511D01*
X86587511Y-86212982D01*
X86587512Y-86212982D01*
X86587515Y-86212984D01*
X86727525Y-86250500D01*
X86727528Y-86250500D01*
X86872472Y-86250500D01*
X86872475Y-86250500D01*
X87012485Y-86212984D01*
X87138015Y-86140509D01*
X87240509Y-86038015D01*
X87312984Y-85912485D01*
X87350500Y-85772475D01*
X87350500Y-85627525D01*
X87326384Y-85537525D01*
X88249500Y-85537525D01*
X88249500Y-85682475D01*
X88287016Y-85822485D01*
X88287017Y-85822488D01*
X88359488Y-85948011D01*
X88359490Y-85948013D01*
X88359491Y-85948015D01*
X88461985Y-86050509D01*
X88461986Y-86050510D01*
X88461988Y-86050511D01*
X88587511Y-86122982D01*
X88587512Y-86122982D01*
X88587515Y-86122984D01*
X88727525Y-86160500D01*
X88727528Y-86160500D01*
X88872472Y-86160500D01*
X88872475Y-86160500D01*
X89012485Y-86122984D01*
X89138015Y-86050509D01*
X89240509Y-85948015D01*
X89312984Y-85822485D01*
X89350500Y-85682475D01*
X89350500Y-85627525D01*
X91449500Y-85627525D01*
X91449500Y-85772475D01*
X91487016Y-85912485D01*
X91487017Y-85912488D01*
X91559488Y-86038011D01*
X91559490Y-86038013D01*
X91559491Y-86038015D01*
X91661985Y-86140509D01*
X91661986Y-86140510D01*
X91661988Y-86140511D01*
X91787511Y-86212982D01*
X91787512Y-86212982D01*
X91787515Y-86212984D01*
X91927525Y-86250500D01*
X91927528Y-86250500D01*
X92072472Y-86250500D01*
X92072475Y-86250500D01*
X92212485Y-86212984D01*
X92338015Y-86140509D01*
X92440509Y-86038015D01*
X92512984Y-85912485D01*
X92550500Y-85772475D01*
X92550500Y-85627525D01*
X92523705Y-85527525D01*
X123349500Y-85527525D01*
X123349500Y-85672475D01*
X123387016Y-85812485D01*
X123387017Y-85812488D01*
X123459488Y-85938011D01*
X123459490Y-85938013D01*
X123459491Y-85938015D01*
X123561985Y-86040509D01*
X123561986Y-86040510D01*
X123561988Y-86040511D01*
X123687511Y-86112982D01*
X123687512Y-86112982D01*
X123687515Y-86112984D01*
X123827525Y-86150500D01*
X123827528Y-86150500D01*
X123972472Y-86150500D01*
X123972475Y-86150500D01*
X124112485Y-86112984D01*
X124238015Y-86040509D01*
X124340509Y-85938015D01*
X124412984Y-85812485D01*
X124450500Y-85672475D01*
X124450500Y-85527525D01*
X128449500Y-85527525D01*
X128449500Y-85672475D01*
X128487016Y-85812485D01*
X128487017Y-85812488D01*
X128559488Y-85938011D01*
X128559490Y-85938013D01*
X128559491Y-85938015D01*
X128661985Y-86040509D01*
X128661986Y-86040510D01*
X128661988Y-86040511D01*
X128787511Y-86112982D01*
X128787512Y-86112982D01*
X128787515Y-86112984D01*
X128927525Y-86150500D01*
X128927528Y-86150500D01*
X129072472Y-86150500D01*
X129072475Y-86150500D01*
X129212485Y-86112984D01*
X129338015Y-86040509D01*
X129440509Y-85938015D01*
X129512984Y-85812485D01*
X129550500Y-85672475D01*
X129550500Y-85527525D01*
X129512984Y-85387515D01*
X129498244Y-85361985D01*
X129440511Y-85261988D01*
X129440506Y-85261982D01*
X129338017Y-85159493D01*
X129338011Y-85159488D01*
X129212488Y-85087017D01*
X129212489Y-85087017D01*
X129201006Y-85083940D01*
X129072475Y-85049500D01*
X128927525Y-85049500D01*
X128798993Y-85083940D01*
X128787511Y-85087017D01*
X128661988Y-85159488D01*
X128661982Y-85159493D01*
X128559493Y-85261982D01*
X128559488Y-85261988D01*
X128487017Y-85387511D01*
X128487016Y-85387515D01*
X128449500Y-85527525D01*
X124450500Y-85527525D01*
X124412984Y-85387515D01*
X124398244Y-85361985D01*
X124340511Y-85261988D01*
X124340506Y-85261982D01*
X124238017Y-85159493D01*
X124238011Y-85159488D01*
X124112488Y-85087017D01*
X124112489Y-85087017D01*
X124101006Y-85083940D01*
X123972475Y-85049500D01*
X123827525Y-85049500D01*
X123698993Y-85083940D01*
X123687511Y-85087017D01*
X123561988Y-85159488D01*
X123561982Y-85159493D01*
X123459493Y-85261982D01*
X123459488Y-85261988D01*
X123387017Y-85387511D01*
X123387016Y-85387515D01*
X123349500Y-85527525D01*
X92523705Y-85527525D01*
X92512984Y-85487515D01*
X92461022Y-85397515D01*
X92440511Y-85361988D01*
X92440506Y-85361982D01*
X92338017Y-85259493D01*
X92338011Y-85259488D01*
X92212488Y-85187017D01*
X92212489Y-85187017D01*
X92201006Y-85183940D01*
X92072475Y-85149500D01*
X91927525Y-85149500D01*
X91798993Y-85183940D01*
X91787511Y-85187017D01*
X91661988Y-85259488D01*
X91661982Y-85259493D01*
X91559493Y-85361982D01*
X91559488Y-85361988D01*
X91487017Y-85487511D01*
X91487016Y-85487515D01*
X91449500Y-85627525D01*
X89350500Y-85627525D01*
X89350500Y-85537525D01*
X89312984Y-85397515D01*
X89307210Y-85387515D01*
X89240511Y-85271988D01*
X89240506Y-85271982D01*
X89138017Y-85169493D01*
X89138011Y-85169488D01*
X89012488Y-85097017D01*
X89012489Y-85097017D01*
X89001006Y-85093940D01*
X88872475Y-85059500D01*
X88727525Y-85059500D01*
X88598993Y-85093940D01*
X88587511Y-85097017D01*
X88461988Y-85169488D01*
X88461982Y-85169493D01*
X88359493Y-85271982D01*
X88359488Y-85271988D01*
X88287017Y-85397511D01*
X88287016Y-85397515D01*
X88249500Y-85537525D01*
X87326384Y-85537525D01*
X87312984Y-85487515D01*
X87261022Y-85397515D01*
X87240511Y-85361988D01*
X87240506Y-85361982D01*
X87138017Y-85259493D01*
X87138011Y-85259488D01*
X87012488Y-85187017D01*
X87012489Y-85187017D01*
X87001006Y-85183940D01*
X86872475Y-85149500D01*
X86727525Y-85149500D01*
X86598993Y-85183940D01*
X86587511Y-85187017D01*
X86461988Y-85259488D01*
X86461982Y-85259493D01*
X86359493Y-85361982D01*
X86359488Y-85361988D01*
X86287017Y-85487511D01*
X86287016Y-85487515D01*
X86249500Y-85627525D01*
X84050500Y-85627525D01*
X84012984Y-85487515D01*
X83961022Y-85397515D01*
X83940511Y-85361988D01*
X83940506Y-85361982D01*
X83838017Y-85259493D01*
X83838011Y-85259488D01*
X83712488Y-85187017D01*
X83712489Y-85187017D01*
X83701006Y-85183940D01*
X83572475Y-85149500D01*
X83427525Y-85149500D01*
X83298993Y-85183940D01*
X83287511Y-85187017D01*
X83161988Y-85259488D01*
X83161982Y-85259493D01*
X83059493Y-85361982D01*
X83059488Y-85361988D01*
X82987017Y-85487511D01*
X82987016Y-85487515D01*
X82949500Y-85627525D01*
X64500500Y-85627525D01*
X64500500Y-83327525D01*
X84349500Y-83327525D01*
X84349500Y-83472475D01*
X84387016Y-83612485D01*
X84387017Y-83612488D01*
X84459488Y-83738011D01*
X84459490Y-83738013D01*
X84459491Y-83738015D01*
X84561985Y-83840509D01*
X84561986Y-83840510D01*
X84561988Y-83840511D01*
X84687511Y-83912982D01*
X84687512Y-83912982D01*
X84687515Y-83912984D01*
X84827525Y-83950500D01*
X84827528Y-83950500D01*
X84972472Y-83950500D01*
X84972475Y-83950500D01*
X85112485Y-83912984D01*
X85238015Y-83840509D01*
X85340509Y-83738015D01*
X85412984Y-83612485D01*
X85450500Y-83472475D01*
X85450500Y-83327525D01*
X89549500Y-83327525D01*
X89549500Y-83472475D01*
X89587016Y-83612485D01*
X89587017Y-83612488D01*
X89659488Y-83738011D01*
X89659490Y-83738013D01*
X89659491Y-83738015D01*
X89761985Y-83840509D01*
X89761986Y-83840510D01*
X89761988Y-83840511D01*
X89887511Y-83912982D01*
X89887512Y-83912982D01*
X89887515Y-83912984D01*
X90027525Y-83950500D01*
X90027528Y-83950500D01*
X90172472Y-83950500D01*
X90172475Y-83950500D01*
X90312485Y-83912984D01*
X90438015Y-83840509D01*
X90540509Y-83738015D01*
X90612984Y-83612485D01*
X90650500Y-83472475D01*
X90650500Y-83427525D01*
X122749500Y-83427525D01*
X122749500Y-83572475D01*
X122772728Y-83659161D01*
X122787017Y-83712488D01*
X122859488Y-83838011D01*
X122859490Y-83838013D01*
X122859491Y-83838015D01*
X122961985Y-83940509D01*
X122961986Y-83940510D01*
X122961988Y-83940511D01*
X123087511Y-84012982D01*
X123087512Y-84012982D01*
X123087515Y-84012984D01*
X123227525Y-84050500D01*
X123227528Y-84050500D01*
X123372472Y-84050500D01*
X123372475Y-84050500D01*
X123512485Y-84012984D01*
X123638015Y-83940509D01*
X123740509Y-83838015D01*
X123812984Y-83712485D01*
X123850500Y-83572475D01*
X123850500Y-83427525D01*
X123812984Y-83287515D01*
X123812982Y-83287511D01*
X123809454Y-83281400D01*
X123809453Y-83281399D01*
X123781037Y-83232182D01*
X123778348Y-83227525D01*
X126649500Y-83227525D01*
X126649500Y-83372475D01*
X126687016Y-83512485D01*
X126687017Y-83512488D01*
X126759488Y-83638011D01*
X126759490Y-83638013D01*
X126759491Y-83638015D01*
X126861985Y-83740509D01*
X126861986Y-83740510D01*
X126861988Y-83740511D01*
X126987511Y-83812982D01*
X126987512Y-83812982D01*
X126987515Y-83812984D01*
X127127525Y-83850500D01*
X127127528Y-83850500D01*
X127272472Y-83850500D01*
X127272475Y-83850500D01*
X127412485Y-83812984D01*
X127538015Y-83740509D01*
X127640509Y-83638015D01*
X127645565Y-83629256D01*
X127696130Y-83581041D01*
X127764737Y-83567816D01*
X127829602Y-83593782D01*
X127870132Y-83650695D01*
X127872728Y-83659161D01*
X127887017Y-83712488D01*
X127959488Y-83838011D01*
X127959490Y-83838013D01*
X127959491Y-83838015D01*
X128061985Y-83940509D01*
X128061986Y-83940510D01*
X128061988Y-83940511D01*
X128187511Y-84012982D01*
X128187512Y-84012982D01*
X128187515Y-84012984D01*
X128327525Y-84050500D01*
X128327528Y-84050500D01*
X128472472Y-84050500D01*
X128472475Y-84050500D01*
X128612485Y-84012984D01*
X128729680Y-83945321D01*
X149199500Y-83945321D01*
X149199500Y-85694678D01*
X149214032Y-85767735D01*
X149214033Y-85767739D01*
X149232405Y-85795235D01*
X149269399Y-85850601D01*
X149352260Y-85905966D01*
X149352264Y-85905967D01*
X149425321Y-85920499D01*
X149425324Y-85920500D01*
X149425326Y-85920500D01*
X151174676Y-85920500D01*
X151174677Y-85920499D01*
X151247740Y-85905966D01*
X151330601Y-85850601D01*
X151385966Y-85767740D01*
X151400500Y-85694674D01*
X151400500Y-83945326D01*
X151400500Y-83945323D01*
X151400499Y-83945321D01*
X151385967Y-83872264D01*
X151385966Y-83872260D01*
X151330601Y-83789399D01*
X151257431Y-83740509D01*
X151247739Y-83734033D01*
X151247735Y-83734032D01*
X151174677Y-83719500D01*
X151174674Y-83719500D01*
X149425326Y-83719500D01*
X149425323Y-83719500D01*
X149352264Y-83734032D01*
X149352260Y-83734033D01*
X149269399Y-83789399D01*
X149214033Y-83872260D01*
X149214032Y-83872264D01*
X149199500Y-83945321D01*
X128729680Y-83945321D01*
X128738015Y-83940509D01*
X128840509Y-83838015D01*
X128912984Y-83712485D01*
X128950500Y-83572475D01*
X128950500Y-83427525D01*
X128912984Y-83287515D01*
X128912982Y-83287511D01*
X128909454Y-83281400D01*
X128909453Y-83281399D01*
X128881037Y-83232182D01*
X128878348Y-83227525D01*
X131749500Y-83227525D01*
X131749500Y-83372475D01*
X131787016Y-83512485D01*
X131787017Y-83512488D01*
X131859488Y-83638011D01*
X131859490Y-83638013D01*
X131859491Y-83638015D01*
X131961985Y-83740509D01*
X131961986Y-83740510D01*
X131961988Y-83740511D01*
X132087511Y-83812982D01*
X132087512Y-83812982D01*
X132087515Y-83812984D01*
X132227525Y-83850500D01*
X132227528Y-83850500D01*
X132372472Y-83850500D01*
X132372475Y-83850500D01*
X132512485Y-83812984D01*
X132638015Y-83740509D01*
X132740509Y-83638015D01*
X132812984Y-83512485D01*
X132850500Y-83372475D01*
X132850500Y-83227525D01*
X132812984Y-83087515D01*
X132798244Y-83061985D01*
X132740511Y-82961988D01*
X132740506Y-82961982D01*
X132638017Y-82859493D01*
X132638011Y-82859488D01*
X132512488Y-82787017D01*
X132512489Y-82787017D01*
X132501006Y-82783940D01*
X132372475Y-82749500D01*
X132227525Y-82749500D01*
X132098993Y-82783940D01*
X132087511Y-82787017D01*
X131961988Y-82859488D01*
X131961982Y-82859493D01*
X131859493Y-82961982D01*
X131859488Y-82961988D01*
X131787017Y-83087511D01*
X131787016Y-83087515D01*
X131749500Y-83227525D01*
X128878348Y-83227525D01*
X128840509Y-83161985D01*
X128738015Y-83059491D01*
X128738013Y-83059490D01*
X128738011Y-83059488D01*
X128612488Y-82987017D01*
X128612489Y-82987017D01*
X128601006Y-82983940D01*
X128472475Y-82949500D01*
X128327525Y-82949500D01*
X128198993Y-82983940D01*
X128187511Y-82987017D01*
X128061988Y-83059488D01*
X128061982Y-83059493D01*
X127959493Y-83161982D01*
X127959486Y-83161991D01*
X127954430Y-83170749D01*
X127903861Y-83218962D01*
X127835253Y-83232182D01*
X127770390Y-83206211D01*
X127729864Y-83149295D01*
X127727276Y-83140856D01*
X127712984Y-83087515D01*
X127698244Y-83061985D01*
X127640511Y-82961988D01*
X127640506Y-82961982D01*
X127538017Y-82859493D01*
X127538011Y-82859488D01*
X127412488Y-82787017D01*
X127412489Y-82787017D01*
X127401006Y-82783940D01*
X127272475Y-82749500D01*
X127127525Y-82749500D01*
X126998993Y-82783940D01*
X126987511Y-82787017D01*
X126861988Y-82859488D01*
X126861982Y-82859493D01*
X126759493Y-82961982D01*
X126759488Y-82961988D01*
X126687017Y-83087511D01*
X126687016Y-83087515D01*
X126649500Y-83227525D01*
X123778348Y-83227525D01*
X123740509Y-83161985D01*
X123638015Y-83059491D01*
X123638013Y-83059490D01*
X123638011Y-83059488D01*
X123512488Y-82987017D01*
X123512489Y-82987017D01*
X123501006Y-82983940D01*
X123372475Y-82949500D01*
X123227525Y-82949500D01*
X123098993Y-82983940D01*
X123087511Y-82987017D01*
X122961988Y-83059488D01*
X122961982Y-83059493D01*
X122859493Y-83161982D01*
X122859488Y-83161988D01*
X122787017Y-83287511D01*
X122787016Y-83287515D01*
X122749500Y-83427525D01*
X90650500Y-83427525D01*
X90650500Y-83327525D01*
X90612984Y-83187515D01*
X90598244Y-83161985D01*
X90540511Y-83061988D01*
X90540506Y-83061982D01*
X90438017Y-82959493D01*
X90438011Y-82959488D01*
X90312488Y-82887017D01*
X90312489Y-82887017D01*
X90301006Y-82883940D01*
X90172475Y-82849500D01*
X90027525Y-82849500D01*
X89898993Y-82883940D01*
X89887511Y-82887017D01*
X89761988Y-82959488D01*
X89761982Y-82959493D01*
X89659493Y-83061982D01*
X89659488Y-83061988D01*
X89587017Y-83187511D01*
X89587016Y-83187515D01*
X89549500Y-83327525D01*
X85450500Y-83327525D01*
X85412984Y-83187515D01*
X85398244Y-83161985D01*
X85340511Y-83061988D01*
X85340506Y-83061982D01*
X85238017Y-82959493D01*
X85238011Y-82959488D01*
X85112488Y-82887017D01*
X85112489Y-82887017D01*
X85101006Y-82883940D01*
X84972475Y-82849500D01*
X84827525Y-82849500D01*
X84698993Y-82883940D01*
X84687511Y-82887017D01*
X84561988Y-82959488D01*
X84561982Y-82959493D01*
X84459493Y-83061982D01*
X84459488Y-83061988D01*
X84387017Y-83187511D01*
X84387016Y-83187515D01*
X84349500Y-83327525D01*
X64500500Y-83327525D01*
X64500500Y-79927525D01*
X111749500Y-79927525D01*
X111749500Y-80072475D01*
X111764910Y-80129985D01*
X111787017Y-80212488D01*
X111859488Y-80338011D01*
X111859490Y-80338013D01*
X111859491Y-80338015D01*
X111961985Y-80440509D01*
X111961986Y-80440510D01*
X111961988Y-80440511D01*
X112087511Y-80512982D01*
X112087512Y-80512982D01*
X112087515Y-80512984D01*
X112227525Y-80550500D01*
X112227528Y-80550500D01*
X112372472Y-80550500D01*
X112372475Y-80550500D01*
X112512485Y-80512984D01*
X112638015Y-80440509D01*
X112740509Y-80338015D01*
X112812984Y-80212485D01*
X112850500Y-80072475D01*
X112850500Y-79927525D01*
X112812984Y-79787515D01*
X112785843Y-79740506D01*
X112740511Y-79661988D01*
X112740506Y-79661982D01*
X112638017Y-79559493D01*
X112638011Y-79559488D01*
X112512488Y-79487017D01*
X112512489Y-79487017D01*
X112501006Y-79483940D01*
X112372475Y-79449500D01*
X112227525Y-79449500D01*
X112098993Y-79483940D01*
X112087511Y-79487017D01*
X111961988Y-79559488D01*
X111961982Y-79559493D01*
X111859493Y-79661982D01*
X111859488Y-79661988D01*
X111787017Y-79787511D01*
X111787016Y-79787515D01*
X111749500Y-79927525D01*
X64500500Y-79927525D01*
X64500500Y-79227525D01*
X117249500Y-79227525D01*
X117249500Y-79372475D01*
X117277506Y-79476993D01*
X117287017Y-79512488D01*
X117359488Y-79638011D01*
X117359490Y-79638013D01*
X117359491Y-79638015D01*
X117461985Y-79740509D01*
X117461986Y-79740510D01*
X117461988Y-79740511D01*
X117587511Y-79812982D01*
X117587512Y-79812982D01*
X117587515Y-79812984D01*
X117727525Y-79850500D01*
X117727528Y-79850500D01*
X117872472Y-79850500D01*
X117872475Y-79850500D01*
X117892908Y-79845025D01*
X132842000Y-79845025D01*
X132842000Y-79989975D01*
X132879516Y-80129985D01*
X132879517Y-80129988D01*
X132951988Y-80255511D01*
X132951990Y-80255513D01*
X132951991Y-80255515D01*
X133054485Y-80358009D01*
X133054486Y-80358010D01*
X133054488Y-80358011D01*
X133180011Y-80430482D01*
X133180012Y-80430482D01*
X133180015Y-80430484D01*
X133320025Y-80468000D01*
X133320028Y-80468000D01*
X133464972Y-80468000D01*
X133464975Y-80468000D01*
X133604985Y-80430484D01*
X133730515Y-80358009D01*
X133833009Y-80255515D01*
X133905484Y-80129985D01*
X133943000Y-79989975D01*
X133943000Y-79845025D01*
X133905484Y-79705015D01*
X133880642Y-79661988D01*
X133833011Y-79579488D01*
X133833006Y-79579482D01*
X133730517Y-79476993D01*
X133730511Y-79476988D01*
X133604988Y-79404517D01*
X133604989Y-79404517D01*
X133593506Y-79401440D01*
X133464975Y-79367000D01*
X133320025Y-79367000D01*
X133191493Y-79401440D01*
X133180011Y-79404517D01*
X133054488Y-79476988D01*
X133054482Y-79476993D01*
X132951993Y-79579482D01*
X132951988Y-79579488D01*
X132879517Y-79705011D01*
X132879516Y-79705015D01*
X132842000Y-79845025D01*
X117892908Y-79845025D01*
X118012485Y-79812984D01*
X118138015Y-79740509D01*
X118240509Y-79638015D01*
X118312984Y-79512485D01*
X118350500Y-79372475D01*
X118350500Y-79227525D01*
X118312984Y-79087515D01*
X118291613Y-79050500D01*
X118240511Y-78961988D01*
X118240506Y-78961982D01*
X118138017Y-78859493D01*
X118138011Y-78859488D01*
X118012488Y-78787017D01*
X118012489Y-78787017D01*
X118001006Y-78783940D01*
X117872475Y-78749500D01*
X117727525Y-78749500D01*
X117598993Y-78783940D01*
X117587511Y-78787017D01*
X117461988Y-78859488D01*
X117461982Y-78859493D01*
X117359493Y-78961982D01*
X117359488Y-78961988D01*
X117287017Y-79087511D01*
X117287016Y-79087515D01*
X117249500Y-79227525D01*
X64500500Y-79227525D01*
X64500500Y-78427525D01*
X96449500Y-78427525D01*
X96449500Y-78572475D01*
X96487016Y-78712485D01*
X96487017Y-78712488D01*
X96559488Y-78838011D01*
X96559490Y-78838013D01*
X96559491Y-78838015D01*
X96661985Y-78940509D01*
X96661986Y-78940510D01*
X96661988Y-78940511D01*
X96787511Y-79012982D01*
X96787512Y-79012982D01*
X96787515Y-79012984D01*
X96927525Y-79050500D01*
X96927528Y-79050500D01*
X97072472Y-79050500D01*
X97072475Y-79050500D01*
X97212485Y-79012984D01*
X97338015Y-78940509D01*
X97440509Y-78838015D01*
X97512984Y-78712485D01*
X97550500Y-78572475D01*
X97550500Y-78527525D01*
X97849500Y-78527525D01*
X97849500Y-78672475D01*
X97870139Y-78749500D01*
X97887017Y-78812488D01*
X97959488Y-78938011D01*
X97959490Y-78938013D01*
X97959491Y-78938015D01*
X98061985Y-79040509D01*
X98061986Y-79040510D01*
X98061988Y-79040511D01*
X98187511Y-79112982D01*
X98187512Y-79112982D01*
X98187515Y-79112984D01*
X98327525Y-79150500D01*
X98327528Y-79150500D01*
X98472472Y-79150500D01*
X98472475Y-79150500D01*
X98612485Y-79112984D01*
X98614170Y-79112011D01*
X98614171Y-79112011D01*
X98656605Y-79087511D01*
X98738015Y-79040509D01*
X98840509Y-78938015D01*
X98912984Y-78812485D01*
X98950500Y-78672475D01*
X98950500Y-78527525D01*
X98912984Y-78387515D01*
X98855246Y-78287511D01*
X98840511Y-78261988D01*
X98840506Y-78261982D01*
X98738017Y-78159493D01*
X98738011Y-78159488D01*
X98682650Y-78127525D01*
X99349500Y-78127525D01*
X99349500Y-78272475D01*
X99387016Y-78412485D01*
X99387017Y-78412488D01*
X99459488Y-78538011D01*
X99459490Y-78538013D01*
X99459491Y-78538015D01*
X99561985Y-78640509D01*
X99561986Y-78640510D01*
X99561988Y-78640511D01*
X99687511Y-78712982D01*
X99687512Y-78712982D01*
X99687515Y-78712984D01*
X99827525Y-78750500D01*
X99827528Y-78750500D01*
X99972472Y-78750500D01*
X99972475Y-78750500D01*
X100112485Y-78712984D01*
X100238015Y-78640509D01*
X100340509Y-78538015D01*
X100412984Y-78412485D01*
X100450500Y-78272475D01*
X100450500Y-78127525D01*
X100412984Y-77987515D01*
X100412696Y-77987017D01*
X100340511Y-77861988D01*
X100340506Y-77861982D01*
X100238017Y-77759493D01*
X100238011Y-77759488D01*
X100112488Y-77687017D01*
X100112489Y-77687017D01*
X100101006Y-77683940D01*
X99972475Y-77649500D01*
X99827525Y-77649500D01*
X99698993Y-77683940D01*
X99687511Y-77687017D01*
X99561988Y-77759488D01*
X99561982Y-77759493D01*
X99459493Y-77861982D01*
X99459488Y-77861988D01*
X99387017Y-77987511D01*
X99387016Y-77987515D01*
X99349500Y-78127525D01*
X98682650Y-78127525D01*
X98612488Y-78087017D01*
X98612489Y-78087017D01*
X98601006Y-78083940D01*
X98472475Y-78049500D01*
X98327525Y-78049500D01*
X98198993Y-78083940D01*
X98187511Y-78087017D01*
X98061988Y-78159488D01*
X98061982Y-78159493D01*
X97959493Y-78261982D01*
X97959488Y-78261988D01*
X97887017Y-78387511D01*
X97887016Y-78387515D01*
X97849500Y-78527525D01*
X97550500Y-78527525D01*
X97550500Y-78427525D01*
X97512984Y-78287515D01*
X97498244Y-78261985D01*
X97440511Y-78161988D01*
X97440506Y-78161982D01*
X97338017Y-78059493D01*
X97338011Y-78059488D01*
X97212488Y-77987017D01*
X97212489Y-77987017D01*
X97201006Y-77983940D01*
X97072475Y-77949500D01*
X96927525Y-77949500D01*
X96798993Y-77983940D01*
X96787511Y-77987017D01*
X96661988Y-78059488D01*
X96661982Y-78059493D01*
X96559493Y-78161982D01*
X96559488Y-78161988D01*
X96487017Y-78287511D01*
X96487016Y-78287515D01*
X96449500Y-78427525D01*
X64500500Y-78427525D01*
X64500500Y-74327525D01*
X96249500Y-74327525D01*
X96249500Y-74472475D01*
X96286829Y-74611788D01*
X96287017Y-74612488D01*
X96359488Y-74738011D01*
X96359490Y-74738013D01*
X96359491Y-74738015D01*
X96461985Y-74840509D01*
X96461986Y-74840510D01*
X96461988Y-74840511D01*
X96587511Y-74912982D01*
X96587512Y-74912982D01*
X96587515Y-74912984D01*
X96727525Y-74950500D01*
X96727528Y-74950500D01*
X96735124Y-74950500D01*
X96802163Y-74970185D01*
X96847918Y-75022989D01*
X96857862Y-75092147D01*
X96828837Y-75155703D01*
X96793523Y-75181168D01*
X96794553Y-75182952D01*
X96661988Y-75259488D01*
X96661982Y-75259493D01*
X96559493Y-75361982D01*
X96559488Y-75361988D01*
X96487017Y-75487511D01*
X96487016Y-75487515D01*
X96449500Y-75627525D01*
X96449500Y-75772475D01*
X96487016Y-75912485D01*
X96487017Y-75912488D01*
X96559488Y-76038011D01*
X96559490Y-76038013D01*
X96559491Y-76038015D01*
X96661985Y-76140509D01*
X96661986Y-76140510D01*
X96661988Y-76140511D01*
X96787511Y-76212982D01*
X96787512Y-76212982D01*
X96787515Y-76212984D01*
X96927525Y-76250500D01*
X96927528Y-76250500D01*
X97072472Y-76250500D01*
X97072475Y-76250500D01*
X97212485Y-76212984D01*
X97338015Y-76140509D01*
X97440509Y-76038015D01*
X97504301Y-75927525D01*
X99349500Y-75927525D01*
X99349500Y-76072475D01*
X99379455Y-76184267D01*
X99387017Y-76212488D01*
X99459488Y-76338011D01*
X99459490Y-76338013D01*
X99459491Y-76338015D01*
X99561985Y-76440509D01*
X99561986Y-76440510D01*
X99561988Y-76440511D01*
X99687511Y-76512982D01*
X99687512Y-76512982D01*
X99687515Y-76512984D01*
X99827525Y-76550500D01*
X99827528Y-76550500D01*
X99972472Y-76550500D01*
X99972475Y-76550500D01*
X100112485Y-76512984D01*
X100238015Y-76440509D01*
X100340509Y-76338015D01*
X100412984Y-76212485D01*
X100450500Y-76072475D01*
X100450500Y-75945025D01*
X132842000Y-75945025D01*
X132842000Y-76089975D01*
X132867266Y-76184267D01*
X132879517Y-76229988D01*
X132951988Y-76355511D01*
X132951990Y-76355513D01*
X132951991Y-76355515D01*
X133054485Y-76458009D01*
X133054486Y-76458010D01*
X133054488Y-76458011D01*
X133180011Y-76530482D01*
X133180012Y-76530482D01*
X133180015Y-76530484D01*
X133320025Y-76568000D01*
X133320028Y-76568000D01*
X133464972Y-76568000D01*
X133464975Y-76568000D01*
X133604985Y-76530484D01*
X133730515Y-76458009D01*
X133833009Y-76355515D01*
X133905484Y-76229985D01*
X133943000Y-76089975D01*
X133943000Y-75945025D01*
X133905484Y-75805015D01*
X133895380Y-75787515D01*
X133887447Y-75773775D01*
X141204500Y-75773775D01*
X141204500Y-75918725D01*
X141211548Y-75945027D01*
X141242017Y-76058738D01*
X141314488Y-76184261D01*
X141314490Y-76184263D01*
X141314491Y-76184265D01*
X141416985Y-76286759D01*
X141416986Y-76286760D01*
X141416988Y-76286761D01*
X141542511Y-76359232D01*
X141542512Y-76359232D01*
X141542515Y-76359234D01*
X141682525Y-76396750D01*
X141682528Y-76396750D01*
X141827472Y-76396750D01*
X141827475Y-76396750D01*
X141967485Y-76359234D01*
X142093015Y-76286759D01*
X142195509Y-76184265D01*
X142267984Y-76058735D01*
X142305500Y-75918725D01*
X142305500Y-75773775D01*
X142267984Y-75633765D01*
X142264382Y-75627527D01*
X142195511Y-75508238D01*
X142195506Y-75508232D01*
X142093017Y-75405743D01*
X142093011Y-75405738D01*
X141967488Y-75333267D01*
X141967489Y-75333267D01*
X141956006Y-75330190D01*
X141827475Y-75295750D01*
X141682525Y-75295750D01*
X141553993Y-75330190D01*
X141542511Y-75333267D01*
X141416988Y-75405738D01*
X141416982Y-75405743D01*
X141314493Y-75508232D01*
X141314488Y-75508238D01*
X141242017Y-75633761D01*
X141242016Y-75633765D01*
X141204500Y-75773775D01*
X133887447Y-75773775D01*
X133833011Y-75679488D01*
X133833006Y-75679482D01*
X133730517Y-75576993D01*
X133730511Y-75576988D01*
X133604988Y-75504517D01*
X133604989Y-75504517D01*
X133593506Y-75501440D01*
X133464975Y-75467000D01*
X133320025Y-75467000D01*
X133191493Y-75501440D01*
X133180011Y-75504517D01*
X133054488Y-75576988D01*
X133054482Y-75576993D01*
X132951993Y-75679482D01*
X132951988Y-75679488D01*
X132879517Y-75805011D01*
X132879516Y-75805015D01*
X132842000Y-75945025D01*
X100450500Y-75945025D01*
X100450500Y-75927525D01*
X100412984Y-75787515D01*
X100405052Y-75773777D01*
X100340511Y-75661988D01*
X100340506Y-75661982D01*
X100238017Y-75559493D01*
X100238011Y-75559488D01*
X100112488Y-75487017D01*
X100112489Y-75487017D01*
X100101006Y-75483940D01*
X99972475Y-75449500D01*
X99827525Y-75449500D01*
X99698993Y-75483940D01*
X99687511Y-75487017D01*
X99561988Y-75559488D01*
X99561982Y-75559493D01*
X99459493Y-75661982D01*
X99459488Y-75661988D01*
X99387017Y-75787511D01*
X99387016Y-75787515D01*
X99349500Y-75927525D01*
X97504301Y-75927525D01*
X97512984Y-75912485D01*
X97550500Y-75772475D01*
X97550500Y-75627525D01*
X97512984Y-75487515D01*
X97512696Y-75487017D01*
X97440511Y-75361988D01*
X97440506Y-75361982D01*
X97338017Y-75259493D01*
X97338011Y-75259488D01*
X97212488Y-75187017D01*
X97212489Y-75187017D01*
X97190660Y-75181168D01*
X97072475Y-75149500D01*
X97064876Y-75149500D01*
X96997837Y-75129815D01*
X96952082Y-75077011D01*
X96942138Y-75007853D01*
X96971163Y-74944297D01*
X97006476Y-74918831D01*
X97005447Y-74917048D01*
X97100812Y-74861988D01*
X97138015Y-74840509D01*
X97240509Y-74738015D01*
X97312984Y-74612485D01*
X97350500Y-74472475D01*
X97350500Y-74327525D01*
X97312984Y-74187515D01*
X97246565Y-74072475D01*
X97240511Y-74061988D01*
X97240506Y-74061982D01*
X97138017Y-73959493D01*
X97138011Y-73959488D01*
X97012488Y-73887017D01*
X97012489Y-73887017D01*
X97001006Y-73883940D01*
X96872475Y-73849500D01*
X96727525Y-73849500D01*
X96598993Y-73883940D01*
X96587511Y-73887017D01*
X96461988Y-73959488D01*
X96461982Y-73959493D01*
X96359493Y-74061982D01*
X96359488Y-74061988D01*
X96287017Y-74187511D01*
X96287016Y-74187515D01*
X96249500Y-74327525D01*
X64500500Y-74327525D01*
X64500500Y-72952525D01*
X71199500Y-72952525D01*
X71199500Y-73097475D01*
X71234347Y-73227525D01*
X71237017Y-73237488D01*
X71309488Y-73363011D01*
X71309490Y-73363013D01*
X71309491Y-73363015D01*
X71411985Y-73465509D01*
X71411986Y-73465510D01*
X71411988Y-73465511D01*
X71537511Y-73537982D01*
X71537512Y-73537982D01*
X71537515Y-73537984D01*
X71677525Y-73575500D01*
X71677528Y-73575500D01*
X71822472Y-73575500D01*
X71822475Y-73575500D01*
X71962485Y-73537984D01*
X72088015Y-73465509D01*
X72190509Y-73363015D01*
X72262984Y-73237485D01*
X72300500Y-73097475D01*
X72300500Y-72952525D01*
X72262984Y-72812515D01*
X72190509Y-72686985D01*
X72088015Y-72584491D01*
X72088013Y-72584490D01*
X72088011Y-72584488D01*
X71962488Y-72512017D01*
X71962489Y-72512017D01*
X71951006Y-72508940D01*
X71822475Y-72474500D01*
X71677525Y-72474500D01*
X71548993Y-72508940D01*
X71537511Y-72512017D01*
X71411988Y-72584488D01*
X71411982Y-72584493D01*
X71309493Y-72686982D01*
X71309488Y-72686988D01*
X71237017Y-72812511D01*
X71237016Y-72812515D01*
X71199500Y-72952525D01*
X64500500Y-72952525D01*
X64500500Y-72027525D01*
X77549500Y-72027525D01*
X77549500Y-72172475D01*
X77577415Y-72276653D01*
X77587017Y-72312488D01*
X77659488Y-72438011D01*
X77659490Y-72438013D01*
X77659491Y-72438015D01*
X77761985Y-72540509D01*
X77761986Y-72540510D01*
X77761988Y-72540511D01*
X77887511Y-72612982D01*
X77887512Y-72612982D01*
X77887515Y-72612984D01*
X78027525Y-72650500D01*
X78027528Y-72650500D01*
X78172472Y-72650500D01*
X78172475Y-72650500D01*
X78312485Y-72612984D01*
X78438015Y-72540509D01*
X78540509Y-72438015D01*
X78612984Y-72312485D01*
X78650500Y-72172475D01*
X78650500Y-72027525D01*
X78612984Y-71887515D01*
X78569665Y-71812485D01*
X78540511Y-71761988D01*
X78540506Y-71761982D01*
X78438017Y-71659493D01*
X78438011Y-71659488D01*
X78322028Y-71592525D01*
X83864500Y-71592525D01*
X83864500Y-71737475D01*
X83884600Y-71812488D01*
X83902017Y-71877488D01*
X83974488Y-72003011D01*
X83974490Y-72003013D01*
X83974491Y-72003015D01*
X84076985Y-72105509D01*
X84076986Y-72105510D01*
X84076988Y-72105511D01*
X84202511Y-72177982D01*
X84202512Y-72177982D01*
X84202515Y-72177984D01*
X84342525Y-72215500D01*
X84342528Y-72215500D01*
X84487472Y-72215500D01*
X84487475Y-72215500D01*
X84627485Y-72177984D01*
X84753015Y-72105509D01*
X84855509Y-72003015D01*
X84927984Y-71877485D01*
X84965500Y-71737475D01*
X84965500Y-71592525D01*
X84927984Y-71452515D01*
X84855509Y-71326985D01*
X84753015Y-71224491D01*
X84753013Y-71224490D01*
X84753011Y-71224488D01*
X84627488Y-71152017D01*
X84627489Y-71152017D01*
X84616006Y-71148940D01*
X84487475Y-71114500D01*
X84342525Y-71114500D01*
X84213993Y-71148940D01*
X84202511Y-71152017D01*
X84076988Y-71224488D01*
X84076982Y-71224493D01*
X83974493Y-71326982D01*
X83974488Y-71326988D01*
X83902017Y-71452511D01*
X83902016Y-71452515D01*
X83864500Y-71592525D01*
X78322028Y-71592525D01*
X78312488Y-71587017D01*
X78312489Y-71587017D01*
X78301006Y-71583940D01*
X78172475Y-71549500D01*
X78027525Y-71549500D01*
X77898993Y-71583940D01*
X77887511Y-71587017D01*
X77761988Y-71659488D01*
X77761982Y-71659493D01*
X77659493Y-71761982D01*
X77659488Y-71761988D01*
X77587017Y-71887511D01*
X77587016Y-71887515D01*
X77549500Y-72027525D01*
X64500500Y-72027525D01*
X64500500Y-70592525D01*
X74564500Y-70592525D01*
X74564500Y-70737475D01*
X74602016Y-70877485D01*
X74602017Y-70877488D01*
X74674488Y-71003011D01*
X74674490Y-71003013D01*
X74674491Y-71003015D01*
X74776985Y-71105509D01*
X74776986Y-71105510D01*
X74776988Y-71105511D01*
X74902511Y-71177982D01*
X74902512Y-71177982D01*
X74902515Y-71177984D01*
X75042525Y-71215500D01*
X75042528Y-71215500D01*
X75187472Y-71215500D01*
X75187475Y-71215500D01*
X75327485Y-71177984D01*
X75453015Y-71105509D01*
X75555509Y-71003015D01*
X75627984Y-70877485D01*
X75665500Y-70737475D01*
X75665500Y-70592525D01*
X75627984Y-70452515D01*
X75584665Y-70377485D01*
X75555511Y-70326988D01*
X75555506Y-70326982D01*
X75453017Y-70224493D01*
X75453015Y-70224491D01*
X75397652Y-70192527D01*
X75396367Y-70191785D01*
X75327485Y-70152016D01*
X75187475Y-70114500D01*
X75042525Y-70114500D01*
X74913993Y-70148940D01*
X74902511Y-70152017D01*
X74776988Y-70224488D01*
X74776982Y-70224493D01*
X74674493Y-70326982D01*
X74674488Y-70326988D01*
X74602017Y-70452511D01*
X74602016Y-70452515D01*
X74564500Y-70592525D01*
X64500500Y-70592525D01*
X64500500Y-70092525D01*
X80464500Y-70092525D01*
X80464500Y-70237475D01*
X80502016Y-70377485D01*
X80502017Y-70377488D01*
X80574488Y-70503011D01*
X80574490Y-70503013D01*
X80574491Y-70503015D01*
X80676985Y-70605509D01*
X80676986Y-70605510D01*
X80676988Y-70605511D01*
X80802511Y-70677982D01*
X80802512Y-70677982D01*
X80802515Y-70677984D01*
X80942525Y-70715500D01*
X80942528Y-70715500D01*
X81087472Y-70715500D01*
X81087475Y-70715500D01*
X81227485Y-70677984D01*
X81227492Y-70677979D01*
X81234993Y-70674874D01*
X81236118Y-70677591D01*
X81290289Y-70664438D01*
X81356321Y-70687278D01*
X81372094Y-70700618D01*
X81376985Y-70705509D01*
X81376986Y-70705510D01*
X81376988Y-70705511D01*
X81502511Y-70777982D01*
X81502512Y-70777982D01*
X81502515Y-70777984D01*
X81642525Y-70815500D01*
X81642528Y-70815500D01*
X81787472Y-70815500D01*
X81787475Y-70815500D01*
X81927485Y-70777984D01*
X82053015Y-70705509D01*
X82155509Y-70603015D01*
X82223101Y-70485943D01*
X87014500Y-70485943D01*
X87014500Y-70644057D01*
X87039677Y-70738017D01*
X87055423Y-70796783D01*
X87055426Y-70796790D01*
X87134475Y-70933709D01*
X87134479Y-70933714D01*
X87134480Y-70933716D01*
X87246284Y-71045520D01*
X87246286Y-71045521D01*
X87246290Y-71045524D01*
X87350189Y-71105509D01*
X87383216Y-71124577D01*
X87535943Y-71165500D01*
X87535945Y-71165500D01*
X87694055Y-71165500D01*
X87694057Y-71165500D01*
X87846784Y-71124577D01*
X87983716Y-71045520D01*
X88095520Y-70933716D01*
X88174577Y-70796784D01*
X88215500Y-70644057D01*
X88215500Y-70485943D01*
X88174577Y-70333216D01*
X88174573Y-70333209D01*
X88095524Y-70196290D01*
X88095518Y-70196282D01*
X87983717Y-70084481D01*
X87983709Y-70084475D01*
X87846790Y-70005426D01*
X87846786Y-70005424D01*
X87846784Y-70005423D01*
X87694057Y-69964500D01*
X87535943Y-69964500D01*
X87383216Y-70005423D01*
X87383209Y-70005426D01*
X87246290Y-70084475D01*
X87246282Y-70084481D01*
X87134481Y-70196282D01*
X87134475Y-70196290D01*
X87055426Y-70333209D01*
X87055423Y-70333216D01*
X87014500Y-70485943D01*
X82223101Y-70485943D01*
X82227984Y-70477485D01*
X82265500Y-70337475D01*
X82265500Y-70192525D01*
X82227984Y-70052515D01*
X82200795Y-70005423D01*
X82155511Y-69926988D01*
X82155506Y-69926982D01*
X82053017Y-69824493D01*
X82053011Y-69824488D01*
X81927488Y-69752017D01*
X81927489Y-69752017D01*
X81916006Y-69748940D01*
X81787475Y-69714500D01*
X81642525Y-69714500D01*
X81544108Y-69740870D01*
X81502510Y-69752017D01*
X81495001Y-69755128D01*
X81493878Y-69752417D01*
X81439655Y-69765558D01*
X81373634Y-69742690D01*
X81357905Y-69729381D01*
X81353017Y-69724493D01*
X81353011Y-69724488D01*
X81227488Y-69652017D01*
X81227489Y-69652017D01*
X81216006Y-69648940D01*
X81087475Y-69614500D01*
X80942525Y-69614500D01*
X80813993Y-69648940D01*
X80802511Y-69652017D01*
X80676988Y-69724488D01*
X80676982Y-69724493D01*
X80574493Y-69826982D01*
X80574488Y-69826988D01*
X80502017Y-69952511D01*
X80502016Y-69952515D01*
X80464500Y-70092525D01*
X64500500Y-70092525D01*
X64500500Y-68692525D01*
X67464500Y-68692525D01*
X67464500Y-68837475D01*
X67474880Y-68876212D01*
X67502017Y-68977488D01*
X67574488Y-69103011D01*
X67574490Y-69103013D01*
X67574491Y-69103015D01*
X67676985Y-69205509D01*
X67676986Y-69205510D01*
X67676988Y-69205511D01*
X67802511Y-69277982D01*
X67802512Y-69277982D01*
X67802515Y-69277984D01*
X67942525Y-69315500D01*
X67942528Y-69315500D01*
X68087472Y-69315500D01*
X68087475Y-69315500D01*
X68227485Y-69277984D01*
X68353015Y-69205509D01*
X68430999Y-69127525D01*
X116449500Y-69127525D01*
X116449500Y-69272475D01*
X116461029Y-69315500D01*
X116487017Y-69412488D01*
X116559488Y-69538011D01*
X116559490Y-69538013D01*
X116559491Y-69538015D01*
X116661985Y-69640509D01*
X116732000Y-69680932D01*
X116752231Y-69692613D01*
X116800446Y-69743181D01*
X116813668Y-69811788D01*
X116787700Y-69876653D01*
X116752231Y-69907387D01*
X116661985Y-69959491D01*
X116661982Y-69959493D01*
X116559493Y-70061982D01*
X116559488Y-70061988D01*
X116487017Y-70187511D01*
X116487016Y-70187515D01*
X116449500Y-70327525D01*
X116449500Y-70472475D01*
X116487016Y-70612485D01*
X116487017Y-70612488D01*
X116559488Y-70738011D01*
X116559490Y-70738013D01*
X116559491Y-70738015D01*
X116661985Y-70840509D01*
X116726029Y-70877485D01*
X116752231Y-70892613D01*
X116800446Y-70943181D01*
X116813668Y-71011788D01*
X116787700Y-71076653D01*
X116752231Y-71107387D01*
X116661985Y-71159491D01*
X116661982Y-71159493D01*
X116559493Y-71261982D01*
X116559488Y-71261988D01*
X116487017Y-71387511D01*
X116487016Y-71387515D01*
X116449500Y-71527525D01*
X116449500Y-71672475D01*
X116487016Y-71812485D01*
X116487017Y-71812488D01*
X116559488Y-71938011D01*
X116559490Y-71938013D01*
X116559491Y-71938015D01*
X116661985Y-72040509D01*
X116732000Y-72080932D01*
X116752231Y-72092613D01*
X116800446Y-72143181D01*
X116813668Y-72211788D01*
X116787700Y-72276653D01*
X116752231Y-72307387D01*
X116661985Y-72359491D01*
X116661982Y-72359493D01*
X116559493Y-72461982D01*
X116559488Y-72461988D01*
X116487017Y-72587511D01*
X116487016Y-72587515D01*
X116449500Y-72727525D01*
X116449500Y-72872475D01*
X116487016Y-73012485D01*
X116487017Y-73012488D01*
X116559488Y-73138011D01*
X116559490Y-73138013D01*
X116559491Y-73138015D01*
X116661985Y-73240509D01*
X116732000Y-73280932D01*
X116752231Y-73292613D01*
X116800446Y-73343181D01*
X116813668Y-73411788D01*
X116787700Y-73476653D01*
X116752231Y-73507387D01*
X116661985Y-73559491D01*
X116661982Y-73559493D01*
X116559493Y-73661982D01*
X116559488Y-73661988D01*
X116487017Y-73787511D01*
X116487016Y-73787515D01*
X116449500Y-73927525D01*
X116449500Y-74072475D01*
X116487016Y-74212485D01*
X116487017Y-74212488D01*
X116559488Y-74338011D01*
X116559490Y-74338013D01*
X116559491Y-74338015D01*
X116661985Y-74440509D01*
X116717352Y-74472475D01*
X116752231Y-74492613D01*
X116800446Y-74543181D01*
X116813668Y-74611788D01*
X116787700Y-74676653D01*
X116752231Y-74707387D01*
X116661985Y-74759491D01*
X116661982Y-74759493D01*
X116559493Y-74861982D01*
X116559488Y-74861988D01*
X116487017Y-74987511D01*
X116487016Y-74987515D01*
X116449500Y-75127525D01*
X116449500Y-75272475D01*
X116487016Y-75412485D01*
X116487017Y-75412488D01*
X116559488Y-75538011D01*
X116559490Y-75538013D01*
X116559491Y-75538015D01*
X116661985Y-75640509D01*
X116661986Y-75640510D01*
X116661988Y-75640511D01*
X116787511Y-75712982D01*
X116787512Y-75712982D01*
X116787515Y-75712984D01*
X116927525Y-75750500D01*
X116927528Y-75750500D01*
X117072472Y-75750500D01*
X117072475Y-75750500D01*
X117212485Y-75712984D01*
X117338015Y-75640509D01*
X117440509Y-75538015D01*
X117512984Y-75412485D01*
X117550500Y-75272475D01*
X117550500Y-75127525D01*
X117513657Y-74990025D01*
X130242000Y-74990025D01*
X130242000Y-75134975D01*
X130279516Y-75274985D01*
X130279517Y-75274988D01*
X130351988Y-75400511D01*
X130351990Y-75400513D01*
X130351991Y-75400515D01*
X130454485Y-75503009D01*
X130454486Y-75503010D01*
X130454488Y-75503011D01*
X130580011Y-75575482D01*
X130580012Y-75575482D01*
X130580015Y-75575484D01*
X130720025Y-75613000D01*
X130720028Y-75613000D01*
X130864972Y-75613000D01*
X130864975Y-75613000D01*
X131004985Y-75575484D01*
X131130515Y-75503009D01*
X131233009Y-75400515D01*
X131305484Y-75274985D01*
X131343000Y-75134975D01*
X131343000Y-74990025D01*
X131305484Y-74850015D01*
X131240818Y-74738011D01*
X131233011Y-74724488D01*
X131233006Y-74724482D01*
X131130517Y-74621993D01*
X131130511Y-74621988D01*
X131004988Y-74549517D01*
X131004989Y-74549517D01*
X130993506Y-74546440D01*
X130864975Y-74512000D01*
X130720025Y-74512000D01*
X130591493Y-74546440D01*
X130580011Y-74549517D01*
X130454488Y-74621988D01*
X130454482Y-74621993D01*
X130351993Y-74724482D01*
X130351988Y-74724488D01*
X130279517Y-74850011D01*
X130279516Y-74850015D01*
X130242000Y-74990025D01*
X117513657Y-74990025D01*
X117512984Y-74987515D01*
X117502978Y-74970185D01*
X117440511Y-74861988D01*
X117440506Y-74861982D01*
X117338017Y-74759493D01*
X117338015Y-74759491D01*
X117277378Y-74724482D01*
X117247769Y-74707387D01*
X117199553Y-74656820D01*
X117186331Y-74588213D01*
X117212299Y-74523348D01*
X117247769Y-74492613D01*
X117282648Y-74472475D01*
X117338015Y-74440509D01*
X117440509Y-74338015D01*
X117512984Y-74212485D01*
X117550500Y-74072475D01*
X117550500Y-73927525D01*
X117512984Y-73787515D01*
X117485843Y-73740506D01*
X117440511Y-73661988D01*
X117440506Y-73661982D01*
X117338017Y-73559493D01*
X117338015Y-73559491D01*
X117256604Y-73512488D01*
X117247769Y-73507387D01*
X117199553Y-73456820D01*
X117186331Y-73388213D01*
X117212299Y-73323348D01*
X117247769Y-73292613D01*
X117264082Y-73283194D01*
X117338015Y-73240509D01*
X117350999Y-73227525D01*
X125842000Y-73227525D01*
X125842000Y-73372475D01*
X125869915Y-73476653D01*
X125879517Y-73512488D01*
X125951988Y-73638011D01*
X125951990Y-73638013D01*
X125951991Y-73638015D01*
X126054485Y-73740509D01*
X126054486Y-73740510D01*
X126054488Y-73740511D01*
X126180011Y-73812982D01*
X126180012Y-73812982D01*
X126180015Y-73812984D01*
X126320025Y-73850500D01*
X126320028Y-73850500D01*
X126464972Y-73850500D01*
X126464975Y-73850500D01*
X126604985Y-73812984D01*
X126730515Y-73740509D01*
X126833009Y-73638015D01*
X126905484Y-73512485D01*
X126943000Y-73372475D01*
X126943000Y-73227525D01*
X126905484Y-73087515D01*
X126862165Y-73012485D01*
X126833011Y-72961988D01*
X126833006Y-72961982D01*
X126730517Y-72859493D01*
X126730511Y-72859488D01*
X126604988Y-72787017D01*
X126604989Y-72787017D01*
X126593506Y-72783940D01*
X126464975Y-72749500D01*
X126320025Y-72749500D01*
X126191493Y-72783940D01*
X126180011Y-72787017D01*
X126054488Y-72859488D01*
X126054482Y-72859493D01*
X125951993Y-72961982D01*
X125951988Y-72961988D01*
X125879517Y-73087511D01*
X125879516Y-73087515D01*
X125842000Y-73227525D01*
X117350999Y-73227525D01*
X117440509Y-73138015D01*
X117512984Y-73012485D01*
X117550500Y-72872475D01*
X117550500Y-72727525D01*
X117512984Y-72587515D01*
X117511239Y-72584493D01*
X117440511Y-72461988D01*
X117440506Y-72461982D01*
X117338017Y-72359493D01*
X117338015Y-72359491D01*
X117256604Y-72312488D01*
X117247769Y-72307387D01*
X117199553Y-72256820D01*
X117186331Y-72188213D01*
X117212299Y-72123348D01*
X117247769Y-72092613D01*
X117264082Y-72083194D01*
X117338015Y-72040509D01*
X117440509Y-71938015D01*
X117512984Y-71812485D01*
X117550500Y-71672475D01*
X117550500Y-71527525D01*
X117512984Y-71387515D01*
X117440509Y-71261985D01*
X117338015Y-71159491D01*
X117291346Y-71132546D01*
X117247769Y-71107387D01*
X117199553Y-71056820D01*
X117186331Y-70988213D01*
X117212299Y-70923348D01*
X117247769Y-70892613D01*
X117264082Y-70883194D01*
X117338015Y-70840509D01*
X117440509Y-70738015D01*
X117512984Y-70612485D01*
X117550500Y-70472475D01*
X117550500Y-70327525D01*
X117512984Y-70187515D01*
X117458142Y-70092527D01*
X117440511Y-70061988D01*
X117440506Y-70061982D01*
X117338017Y-69959493D01*
X117338015Y-69959491D01*
X117281708Y-69926982D01*
X117247769Y-69907387D01*
X117199553Y-69856820D01*
X117186331Y-69788213D01*
X117212299Y-69723348D01*
X117247769Y-69692613D01*
X117264082Y-69683194D01*
X117338015Y-69640509D01*
X117440509Y-69538015D01*
X117512984Y-69412485D01*
X117550500Y-69272475D01*
X117550500Y-69127525D01*
X117512984Y-68987515D01*
X117481030Y-68932170D01*
X117440511Y-68861988D01*
X117440506Y-68861982D01*
X117338017Y-68759493D01*
X117338011Y-68759488D01*
X117212488Y-68687017D01*
X117212489Y-68687017D01*
X117201006Y-68683940D01*
X117072475Y-68649500D01*
X116927525Y-68649500D01*
X116798993Y-68683940D01*
X116787511Y-68687017D01*
X116661988Y-68759488D01*
X116661982Y-68759493D01*
X116559493Y-68861982D01*
X116559488Y-68861988D01*
X116487017Y-68987511D01*
X116487016Y-68987515D01*
X116449500Y-69127525D01*
X68430999Y-69127525D01*
X68455509Y-69103015D01*
X68527984Y-68977485D01*
X68565500Y-68837475D01*
X68565500Y-68692525D01*
X68527984Y-68552515D01*
X68484665Y-68477485D01*
X68455511Y-68426988D01*
X68455506Y-68426982D01*
X68353017Y-68324493D01*
X68353015Y-68324491D01*
X68227485Y-68252016D01*
X68087475Y-68214500D01*
X67942525Y-68214500D01*
X67813993Y-68248940D01*
X67802511Y-68252017D01*
X67676988Y-68324488D01*
X67676982Y-68324493D01*
X67574493Y-68426982D01*
X67574488Y-68426988D01*
X67502017Y-68552511D01*
X67502016Y-68552515D01*
X67464500Y-68692525D01*
X64500500Y-68692525D01*
X64500500Y-68192525D01*
X80964500Y-68192525D01*
X80964500Y-68337475D01*
X81002016Y-68477485D01*
X81002017Y-68477488D01*
X81074488Y-68603011D01*
X81074490Y-68603013D01*
X81074491Y-68603015D01*
X81176985Y-68705509D01*
X81176986Y-68705510D01*
X81176988Y-68705511D01*
X81302511Y-68777982D01*
X81302512Y-68777982D01*
X81302515Y-68777984D01*
X81442525Y-68815500D01*
X81442528Y-68815500D01*
X81587472Y-68815500D01*
X81587475Y-68815500D01*
X81727485Y-68777984D01*
X81803001Y-68734384D01*
X81870899Y-68717912D01*
X81926998Y-68734384D01*
X82002515Y-68777984D01*
X82142525Y-68815500D01*
X82142528Y-68815500D01*
X82287472Y-68815500D01*
X82287475Y-68815500D01*
X82427485Y-68777984D01*
X82503001Y-68734384D01*
X82570899Y-68717912D01*
X82626998Y-68734384D01*
X82702515Y-68777984D01*
X82842525Y-68815500D01*
X82842528Y-68815500D01*
X82987472Y-68815500D01*
X82987475Y-68815500D01*
X83127485Y-68777984D01*
X83253015Y-68705509D01*
X83355509Y-68603015D01*
X83427984Y-68477485D01*
X83465500Y-68337475D01*
X83465500Y-68192525D01*
X83427984Y-68052515D01*
X83355509Y-67926985D01*
X83253015Y-67824491D01*
X83252765Y-67824346D01*
X83248648Y-67821969D01*
X83248647Y-67821969D01*
X83127488Y-67752017D01*
X83127489Y-67752017D01*
X83116006Y-67748940D01*
X83005941Y-67719448D01*
X143424500Y-67719448D01*
X143424500Y-67900551D01*
X143452829Y-68079410D01*
X143508787Y-68251636D01*
X143508788Y-68251639D01*
X143591006Y-68412997D01*
X143697441Y-68559494D01*
X143697445Y-68559499D01*
X143825500Y-68687554D01*
X143825505Y-68687558D01*
X143949967Y-68777984D01*
X143972006Y-68793996D01*
X144057332Y-68837472D01*
X144133360Y-68876211D01*
X144133363Y-68876212D01*
X144219476Y-68904191D01*
X144305591Y-68932171D01*
X144388429Y-68945291D01*
X144484449Y-68960500D01*
X144484454Y-68960500D01*
X146465551Y-68960500D01*
X146552259Y-68946765D01*
X146644409Y-68932171D01*
X146816639Y-68876211D01*
X146977994Y-68793996D01*
X147124501Y-68687553D01*
X147252553Y-68559501D01*
X147358996Y-68412994D01*
X147441211Y-68251639D01*
X147497171Y-68079409D01*
X147511765Y-67987259D01*
X147525500Y-67900551D01*
X147525500Y-67719448D01*
X147509019Y-67615397D01*
X147497171Y-67540591D01*
X147441211Y-67368361D01*
X147441211Y-67368360D01*
X147381157Y-67250500D01*
X147358996Y-67207006D01*
X147310685Y-67140511D01*
X147252558Y-67060505D01*
X147252554Y-67060500D01*
X147124499Y-66932445D01*
X147124494Y-66932441D01*
X146977997Y-66826006D01*
X146977996Y-66826005D01*
X146977994Y-66826004D01*
X146926300Y-66799664D01*
X146816639Y-66743788D01*
X146816636Y-66743787D01*
X146644410Y-66687829D01*
X146465551Y-66659500D01*
X146465546Y-66659500D01*
X144484454Y-66659500D01*
X144484449Y-66659500D01*
X144305589Y-66687829D01*
X144133363Y-66743787D01*
X144133360Y-66743788D01*
X143972002Y-66826006D01*
X143825505Y-66932441D01*
X143825500Y-66932445D01*
X143697445Y-67060500D01*
X143697441Y-67060505D01*
X143591006Y-67207002D01*
X143508788Y-67368360D01*
X143508787Y-67368363D01*
X143452829Y-67540589D01*
X143424500Y-67719448D01*
X83005941Y-67719448D01*
X82987475Y-67714500D01*
X82842525Y-67714500D01*
X82713993Y-67748940D01*
X82702511Y-67752017D01*
X82627000Y-67795614D01*
X82559100Y-67812087D01*
X82503000Y-67795614D01*
X82427488Y-67752017D01*
X82427489Y-67752017D01*
X82416006Y-67748940D01*
X82287475Y-67714500D01*
X82142525Y-67714500D01*
X82013993Y-67748940D01*
X82002511Y-67752017D01*
X81927000Y-67795614D01*
X81859100Y-67812087D01*
X81803000Y-67795614D01*
X81727488Y-67752017D01*
X81727489Y-67752017D01*
X81716006Y-67748940D01*
X81587475Y-67714500D01*
X81442525Y-67714500D01*
X81313993Y-67748940D01*
X81302511Y-67752017D01*
X81176988Y-67824488D01*
X81176982Y-67824493D01*
X81074493Y-67926982D01*
X81074488Y-67926988D01*
X81002017Y-68052511D01*
X81002016Y-68052515D01*
X80964500Y-68192525D01*
X64500500Y-68192525D01*
X64500500Y-66092525D01*
X70264500Y-66092525D01*
X70264500Y-66237475D01*
X70295008Y-66351331D01*
X70302017Y-66377488D01*
X70374488Y-66503011D01*
X70374490Y-66503013D01*
X70374491Y-66503015D01*
X70476985Y-66605509D01*
X70476986Y-66605510D01*
X70476988Y-66605511D01*
X70602511Y-66677982D01*
X70602512Y-66677982D01*
X70602515Y-66677984D01*
X70742525Y-66715500D01*
X70742528Y-66715500D01*
X70887472Y-66715500D01*
X70887475Y-66715500D01*
X71027485Y-66677984D01*
X71153015Y-66605509D01*
X71255509Y-66503015D01*
X71307613Y-66412769D01*
X71358180Y-66364553D01*
X71426787Y-66351331D01*
X71491652Y-66377299D01*
X71522387Y-66412769D01*
X71574491Y-66503015D01*
X71676985Y-66605509D01*
X71676986Y-66605510D01*
X71676988Y-66605511D01*
X71802511Y-66677982D01*
X71802512Y-66677982D01*
X71802515Y-66677984D01*
X71942525Y-66715500D01*
X71942528Y-66715500D01*
X72087472Y-66715500D01*
X72087475Y-66715500D01*
X72227485Y-66677984D01*
X72353015Y-66605509D01*
X72455509Y-66503015D01*
X72527984Y-66377485D01*
X72565500Y-66237475D01*
X72565500Y-66092525D01*
X72527984Y-65952515D01*
X72521052Y-65940509D01*
X72455511Y-65826988D01*
X72455506Y-65826982D01*
X72353017Y-65724493D01*
X72353011Y-65724488D01*
X72227488Y-65652017D01*
X72227489Y-65652017D01*
X72216006Y-65648940D01*
X72087475Y-65614500D01*
X71942525Y-65614500D01*
X71813993Y-65648940D01*
X71802511Y-65652017D01*
X71676988Y-65724488D01*
X71676982Y-65724493D01*
X71574493Y-65826982D01*
X71574491Y-65826985D01*
X71522387Y-65917231D01*
X71471819Y-65965446D01*
X71403212Y-65978668D01*
X71338347Y-65952700D01*
X71307613Y-65917231D01*
X71275716Y-65861985D01*
X71255509Y-65826985D01*
X71153015Y-65724491D01*
X71153013Y-65724490D01*
X71153011Y-65724488D01*
X71027488Y-65652017D01*
X71027489Y-65652017D01*
X71016006Y-65648940D01*
X70887475Y-65614500D01*
X70742525Y-65614500D01*
X70613993Y-65648940D01*
X70602511Y-65652017D01*
X70476988Y-65724488D01*
X70476982Y-65724493D01*
X70374493Y-65826982D01*
X70374488Y-65826988D01*
X70302017Y-65952511D01*
X70302016Y-65952515D01*
X70264500Y-66092525D01*
X64500500Y-66092525D01*
X64500500Y-64992525D01*
X88049500Y-64992525D01*
X88049500Y-65137475D01*
X88087016Y-65277485D01*
X88087017Y-65277488D01*
X88159488Y-65403011D01*
X88159490Y-65403013D01*
X88159491Y-65403015D01*
X88261985Y-65505509D01*
X88261986Y-65505510D01*
X88261988Y-65505511D01*
X88387511Y-65577982D01*
X88387512Y-65577982D01*
X88387515Y-65577984D01*
X88527525Y-65615500D01*
X88527528Y-65615500D01*
X88672472Y-65615500D01*
X88672475Y-65615500D01*
X88812485Y-65577984D01*
X88938015Y-65505509D01*
X89040509Y-65403015D01*
X89112984Y-65277485D01*
X89150500Y-65137475D01*
X89150500Y-64992525D01*
X89112984Y-64852515D01*
X89111243Y-64849500D01*
X89040511Y-64726988D01*
X89040506Y-64726982D01*
X88938017Y-64624493D01*
X88938011Y-64624488D01*
X88812488Y-64552017D01*
X88812489Y-64552017D01*
X88801006Y-64548940D01*
X88672475Y-64514500D01*
X88527525Y-64514500D01*
X88398993Y-64548940D01*
X88387511Y-64552017D01*
X88261988Y-64624488D01*
X88261982Y-64624493D01*
X88159493Y-64726982D01*
X88159488Y-64726988D01*
X88087017Y-64852511D01*
X88087016Y-64852515D01*
X88049500Y-64992525D01*
X64500500Y-64992525D01*
X64500500Y-63762194D01*
X86464500Y-63762194D01*
X86464500Y-63907144D01*
X86479195Y-63961985D01*
X86502017Y-64047157D01*
X86574488Y-64172680D01*
X86574490Y-64172682D01*
X86574491Y-64172684D01*
X86676985Y-64275178D01*
X86676986Y-64275179D01*
X86676988Y-64275180D01*
X86802511Y-64347651D01*
X86802512Y-64347651D01*
X86802515Y-64347653D01*
X86942525Y-64385169D01*
X86942528Y-64385169D01*
X87087472Y-64385169D01*
X87087475Y-64385169D01*
X87227485Y-64347653D01*
X87353015Y-64275178D01*
X87455509Y-64172684D01*
X87527984Y-64047154D01*
X87565500Y-63907144D01*
X87565500Y-63762194D01*
X87527984Y-63622184D01*
X87522672Y-63612984D01*
X87455511Y-63496657D01*
X87455506Y-63496651D01*
X87353017Y-63394162D01*
X87353011Y-63394157D01*
X87227488Y-63321686D01*
X87227489Y-63321686D01*
X87216006Y-63318609D01*
X87087475Y-63284169D01*
X86942525Y-63284169D01*
X86813993Y-63318609D01*
X86802511Y-63321686D01*
X86676988Y-63394157D01*
X86676982Y-63394162D01*
X86574493Y-63496651D01*
X86574488Y-63496657D01*
X86502017Y-63622180D01*
X86502016Y-63622184D01*
X86464500Y-63762194D01*
X64500500Y-63762194D01*
X64500500Y-62492525D01*
X73664500Y-62492525D01*
X73664500Y-62637475D01*
X73697195Y-62759493D01*
X73702017Y-62777488D01*
X73774488Y-62903011D01*
X73774490Y-62903013D01*
X73774491Y-62903015D01*
X73876985Y-63005509D01*
X73876986Y-63005510D01*
X73876988Y-63005511D01*
X74002511Y-63077982D01*
X74002512Y-63077982D01*
X74002515Y-63077984D01*
X74142525Y-63115500D01*
X74142528Y-63115500D01*
X74287472Y-63115500D01*
X74287475Y-63115500D01*
X74427485Y-63077984D01*
X74553015Y-63005509D01*
X74655509Y-62903015D01*
X74727984Y-62777485D01*
X74765500Y-62637475D01*
X74765500Y-62492525D01*
X74727984Y-62352515D01*
X74721052Y-62340509D01*
X74655511Y-62226988D01*
X74655506Y-62226982D01*
X74553017Y-62124493D01*
X74553011Y-62124488D01*
X74427488Y-62052017D01*
X74427489Y-62052017D01*
X74416006Y-62048940D01*
X74287475Y-62014500D01*
X74142525Y-62014500D01*
X74013993Y-62048940D01*
X74002511Y-62052017D01*
X73876988Y-62124488D01*
X73876982Y-62124493D01*
X73774493Y-62226982D01*
X73774488Y-62226988D01*
X73702017Y-62352511D01*
X73697583Y-62369055D01*
X73664500Y-62492525D01*
X64500500Y-62492525D01*
X64500500Y-61792525D01*
X75164500Y-61792525D01*
X75164500Y-61937475D01*
X75195192Y-62052016D01*
X75202017Y-62077488D01*
X75274488Y-62203011D01*
X75274490Y-62203013D01*
X75274491Y-62203015D01*
X75376985Y-62305509D01*
X75376986Y-62305510D01*
X75376988Y-62305511D01*
X75502511Y-62377982D01*
X75502512Y-62377982D01*
X75502515Y-62377984D01*
X75642525Y-62415500D01*
X75642528Y-62415500D01*
X75787472Y-62415500D01*
X75787475Y-62415500D01*
X75927485Y-62377984D01*
X76053015Y-62305509D01*
X76155509Y-62203015D01*
X76227984Y-62077485D01*
X76265500Y-61937475D01*
X76265500Y-61892525D01*
X76864500Y-61892525D01*
X76864500Y-62037475D01*
X76887817Y-62124493D01*
X76902017Y-62177488D01*
X76974488Y-62303011D01*
X76974490Y-62303013D01*
X76974491Y-62303015D01*
X77076985Y-62405509D01*
X77076986Y-62405510D01*
X77076988Y-62405511D01*
X77202511Y-62477982D01*
X77202512Y-62477982D01*
X77202515Y-62477984D01*
X77342525Y-62515500D01*
X77342528Y-62515500D01*
X77487472Y-62515500D01*
X77487475Y-62515500D01*
X77627485Y-62477984D01*
X77753015Y-62405509D01*
X77790999Y-62367525D01*
X85664500Y-62367525D01*
X85664500Y-62512475D01*
X85697993Y-62637472D01*
X85702017Y-62652488D01*
X85774488Y-62778011D01*
X85774490Y-62778013D01*
X85774491Y-62778015D01*
X85876985Y-62880509D01*
X85876986Y-62880510D01*
X85876988Y-62880511D01*
X86002511Y-62952982D01*
X86002512Y-62952982D01*
X86002515Y-62952984D01*
X86142525Y-62990500D01*
X86142528Y-62990500D01*
X86287472Y-62990500D01*
X86287475Y-62990500D01*
X86427485Y-62952984D01*
X86553015Y-62880509D01*
X86655509Y-62778015D01*
X86727984Y-62652485D01*
X86765500Y-62512475D01*
X86765500Y-62367525D01*
X86727984Y-62227515D01*
X86727676Y-62226982D01*
X86726546Y-62225025D01*
X87232000Y-62225025D01*
X87232000Y-62369975D01*
X87263682Y-62488213D01*
X87269517Y-62509988D01*
X87341988Y-62635511D01*
X87341990Y-62635513D01*
X87341991Y-62635515D01*
X87444485Y-62738009D01*
X87444486Y-62738010D01*
X87444488Y-62738011D01*
X87570011Y-62810482D01*
X87570012Y-62810482D01*
X87570015Y-62810484D01*
X87710025Y-62848000D01*
X87710028Y-62848000D01*
X87854972Y-62848000D01*
X87854975Y-62848000D01*
X87994985Y-62810484D01*
X88120515Y-62738009D01*
X88223009Y-62635515D01*
X88295484Y-62509985D01*
X88333000Y-62369975D01*
X88333000Y-62225025D01*
X88295484Y-62085015D01*
X88291138Y-62077488D01*
X88223011Y-61959488D01*
X88223006Y-61959482D01*
X88120517Y-61856993D01*
X88120511Y-61856988D01*
X88069480Y-61827525D01*
X99349500Y-61827525D01*
X99349500Y-61972475D01*
X99387016Y-62112485D01*
X99387017Y-62112488D01*
X99459488Y-62238011D01*
X99459490Y-62238013D01*
X99459491Y-62238015D01*
X99561985Y-62340509D01*
X99632000Y-62380932D01*
X99652231Y-62392613D01*
X99700446Y-62443181D01*
X99713668Y-62511788D01*
X99687700Y-62576653D01*
X99652231Y-62607387D01*
X99561985Y-62659491D01*
X99561982Y-62659493D01*
X99459493Y-62761982D01*
X99459488Y-62761988D01*
X99387017Y-62887511D01*
X99387016Y-62887515D01*
X99349500Y-63027525D01*
X99349500Y-63172475D01*
X99387016Y-63312485D01*
X99387017Y-63312488D01*
X99459488Y-63438011D01*
X99459490Y-63438013D01*
X99459491Y-63438015D01*
X99561985Y-63540509D01*
X99617352Y-63572475D01*
X99652231Y-63592613D01*
X99700446Y-63643181D01*
X99713668Y-63711788D01*
X99687700Y-63776653D01*
X99652231Y-63807387D01*
X99561985Y-63859491D01*
X99561982Y-63859493D01*
X99459493Y-63961982D01*
X99459488Y-63961988D01*
X99387017Y-64087511D01*
X99387016Y-64087515D01*
X99349500Y-64227525D01*
X99349500Y-64372475D01*
X99368032Y-64441636D01*
X99387017Y-64512488D01*
X99459488Y-64638011D01*
X99459490Y-64638013D01*
X99459491Y-64638015D01*
X99561985Y-64740509D01*
X99632000Y-64780932D01*
X99652231Y-64792613D01*
X99700446Y-64843181D01*
X99713668Y-64911788D01*
X99687700Y-64976653D01*
X99652231Y-65007387D01*
X99561985Y-65059491D01*
X99561982Y-65059493D01*
X99459493Y-65161982D01*
X99459488Y-65161988D01*
X99387017Y-65287511D01*
X99387016Y-65287515D01*
X99349500Y-65427525D01*
X99349500Y-65572475D01*
X99380192Y-65687016D01*
X99387017Y-65712488D01*
X99459488Y-65838011D01*
X99459490Y-65838013D01*
X99459491Y-65838015D01*
X99561985Y-65940509D01*
X99628078Y-65978668D01*
X99652231Y-65992613D01*
X99700446Y-66043181D01*
X99713668Y-66111788D01*
X99687700Y-66176653D01*
X99652231Y-66207387D01*
X99561985Y-66259491D01*
X99561982Y-66259493D01*
X99459493Y-66361982D01*
X99459488Y-66361988D01*
X99387017Y-66487511D01*
X99387016Y-66487515D01*
X99349500Y-66627525D01*
X99349500Y-66772475D01*
X99363844Y-66826006D01*
X99387017Y-66912488D01*
X99459488Y-67038011D01*
X99459490Y-67038013D01*
X99459491Y-67038015D01*
X99561985Y-67140509D01*
X99561986Y-67140510D01*
X99561988Y-67140511D01*
X99687511Y-67212982D01*
X99687512Y-67212982D01*
X99687515Y-67212984D01*
X99827525Y-67250500D01*
X99827528Y-67250500D01*
X99972472Y-67250500D01*
X99972475Y-67250500D01*
X100112485Y-67212984D01*
X100238015Y-67140509D01*
X100340509Y-67038015D01*
X100412984Y-66912485D01*
X100450500Y-66772475D01*
X100450500Y-66627525D01*
X100412984Y-66487515D01*
X100369829Y-66412769D01*
X100340511Y-66361988D01*
X100340506Y-66361982D01*
X100238017Y-66259493D01*
X100238015Y-66259491D01*
X100181367Y-66226785D01*
X100147769Y-66207387D01*
X100099553Y-66156820D01*
X100093907Y-66127525D01*
X135849500Y-66127525D01*
X135849500Y-66272475D01*
X135887016Y-66412485D01*
X135887017Y-66412488D01*
X135959488Y-66538011D01*
X135959490Y-66538013D01*
X135959491Y-66538015D01*
X136061985Y-66640509D01*
X136061986Y-66640510D01*
X136061988Y-66640511D01*
X136187511Y-66712982D01*
X136187512Y-66712982D01*
X136187515Y-66712984D01*
X136327525Y-66750500D01*
X136327528Y-66750500D01*
X136472472Y-66750500D01*
X136472475Y-66750500D01*
X136612485Y-66712984D01*
X136738015Y-66640509D01*
X136840509Y-66538015D01*
X136912984Y-66412485D01*
X136950500Y-66272475D01*
X136950500Y-66127525D01*
X136912984Y-65987515D01*
X136900242Y-65965446D01*
X136840511Y-65861988D01*
X136840506Y-65861982D01*
X136738017Y-65759493D01*
X136738011Y-65759488D01*
X136612488Y-65687017D01*
X136612489Y-65687017D01*
X136601006Y-65683940D01*
X136472475Y-65649500D01*
X136327525Y-65649500D01*
X136198993Y-65683940D01*
X136187511Y-65687017D01*
X136061988Y-65759488D01*
X136061982Y-65759493D01*
X135959493Y-65861982D01*
X135959488Y-65861988D01*
X135887017Y-65987511D01*
X135887016Y-65987515D01*
X135849500Y-66127525D01*
X100093907Y-66127525D01*
X100086331Y-66088213D01*
X100112299Y-66023348D01*
X100147769Y-65992613D01*
X100171922Y-65978668D01*
X100238015Y-65940509D01*
X100340509Y-65838015D01*
X100412984Y-65712485D01*
X100450500Y-65572475D01*
X100450500Y-65427525D01*
X100423705Y-65327525D01*
X140349500Y-65327525D01*
X140349500Y-65472475D01*
X140387016Y-65612485D01*
X140387017Y-65612488D01*
X140459488Y-65738011D01*
X140459490Y-65738013D01*
X140459491Y-65738015D01*
X140561985Y-65840509D01*
X140561986Y-65840510D01*
X140561988Y-65840511D01*
X140687511Y-65912982D01*
X140687512Y-65912982D01*
X140687515Y-65912984D01*
X140827525Y-65950500D01*
X140827528Y-65950500D01*
X140972472Y-65950500D01*
X140972475Y-65950500D01*
X141112485Y-65912984D01*
X141238015Y-65840509D01*
X141340509Y-65738015D01*
X141412984Y-65612485D01*
X141450500Y-65472475D01*
X141450500Y-65327525D01*
X141412984Y-65187515D01*
X141398244Y-65161985D01*
X141340511Y-65061988D01*
X141340506Y-65061982D01*
X141238017Y-64959493D01*
X141238011Y-64959488D01*
X141112488Y-64887017D01*
X141112489Y-64887017D01*
X141101006Y-64883940D01*
X140972475Y-64849500D01*
X140827525Y-64849500D01*
X140698993Y-64883940D01*
X140687511Y-64887017D01*
X140561988Y-64959488D01*
X140561982Y-64959493D01*
X140459493Y-65061982D01*
X140459488Y-65061988D01*
X140387017Y-65187511D01*
X140387016Y-65187515D01*
X140349500Y-65327525D01*
X100423705Y-65327525D01*
X100412984Y-65287515D01*
X100355246Y-65187511D01*
X100340511Y-65161988D01*
X100340506Y-65161982D01*
X100238017Y-65059493D01*
X100238015Y-65059491D01*
X100191346Y-65032546D01*
X100147769Y-65007387D01*
X100099553Y-64956820D01*
X100086331Y-64888213D01*
X100112299Y-64823348D01*
X100147769Y-64792613D01*
X100164082Y-64783194D01*
X100238015Y-64740509D01*
X100340509Y-64638015D01*
X100412984Y-64512485D01*
X100450500Y-64372475D01*
X100450500Y-64227525D01*
X100412984Y-64087515D01*
X100391613Y-64050500D01*
X100340511Y-63961988D01*
X100340506Y-63961982D01*
X100238017Y-63859493D01*
X100238015Y-63859491D01*
X100191346Y-63832546D01*
X100147769Y-63807387D01*
X100099553Y-63756820D01*
X100086331Y-63688213D01*
X100112299Y-63623348D01*
X100147769Y-63592613D01*
X100182648Y-63572475D01*
X100238015Y-63540509D01*
X100340509Y-63438015D01*
X100412984Y-63312485D01*
X100450500Y-63172475D01*
X100450500Y-63127525D01*
X131249500Y-63127525D01*
X131249500Y-63272475D01*
X131287016Y-63412485D01*
X131287017Y-63412488D01*
X131359488Y-63538011D01*
X131359490Y-63538013D01*
X131359491Y-63538015D01*
X131461985Y-63640509D01*
X131461986Y-63640510D01*
X131461988Y-63640511D01*
X131587511Y-63712982D01*
X131587512Y-63712982D01*
X131587515Y-63712984D01*
X131727525Y-63750500D01*
X131727528Y-63750500D01*
X131872472Y-63750500D01*
X131872475Y-63750500D01*
X132012485Y-63712984D01*
X132138015Y-63640509D01*
X132240509Y-63538015D01*
X132312984Y-63412485D01*
X132350500Y-63272475D01*
X132350500Y-63127525D01*
X135849500Y-63127525D01*
X135849500Y-63272475D01*
X135887016Y-63412485D01*
X135887017Y-63412488D01*
X135959488Y-63538011D01*
X135959490Y-63538013D01*
X135959491Y-63538015D01*
X136061985Y-63640509D01*
X136061986Y-63640510D01*
X136061988Y-63640511D01*
X136187511Y-63712982D01*
X136187512Y-63712982D01*
X136187515Y-63712984D01*
X136327525Y-63750500D01*
X136327528Y-63750500D01*
X136472472Y-63750500D01*
X136472475Y-63750500D01*
X136612485Y-63712984D01*
X136738015Y-63640509D01*
X136840509Y-63538015D01*
X136904301Y-63427525D01*
X140349500Y-63427525D01*
X140349500Y-63572475D01*
X140386829Y-63711788D01*
X140387017Y-63712488D01*
X140459488Y-63838011D01*
X140459490Y-63838013D01*
X140459491Y-63838015D01*
X140561985Y-63940509D01*
X140561986Y-63940510D01*
X140561988Y-63940511D01*
X140687511Y-64012982D01*
X140687512Y-64012982D01*
X140687515Y-64012984D01*
X140827525Y-64050500D01*
X140827528Y-64050500D01*
X140972472Y-64050500D01*
X140972475Y-64050500D01*
X141112485Y-64012984D01*
X141238015Y-63940509D01*
X141269076Y-63909448D01*
X143424500Y-63909448D01*
X143424500Y-64090551D01*
X143452829Y-64269410D01*
X143508787Y-64441636D01*
X143508788Y-64441639D01*
X143591006Y-64602997D01*
X143697441Y-64749494D01*
X143697445Y-64749499D01*
X143825500Y-64877554D01*
X143825505Y-64877558D01*
X143938280Y-64959493D01*
X143972006Y-64983996D01*
X144077484Y-65037740D01*
X144133360Y-65066211D01*
X144133363Y-65066212D01*
X144219476Y-65094191D01*
X144305591Y-65122171D01*
X144388429Y-65135291D01*
X144484449Y-65150500D01*
X144484454Y-65150500D01*
X146465551Y-65150500D01*
X146552259Y-65136765D01*
X146644409Y-65122171D01*
X146816639Y-65066211D01*
X146977994Y-64983996D01*
X147124501Y-64877553D01*
X147252553Y-64749501D01*
X147358996Y-64602994D01*
X147441211Y-64441639D01*
X147497171Y-64269409D01*
X147512491Y-64172680D01*
X147525500Y-64090551D01*
X147525500Y-63909448D01*
X147504466Y-63776653D01*
X147497171Y-63730591D01*
X147441211Y-63558361D01*
X147441211Y-63558360D01*
X147409771Y-63496657D01*
X147358996Y-63397006D01*
X147304273Y-63321686D01*
X147252558Y-63250505D01*
X147252554Y-63250500D01*
X147124499Y-63122445D01*
X147124494Y-63122441D01*
X146977997Y-63016006D01*
X146977996Y-63016005D01*
X146977994Y-63016004D01*
X146921102Y-62987016D01*
X146816639Y-62933788D01*
X146816636Y-62933787D01*
X146644410Y-62877829D01*
X146465551Y-62849500D01*
X146465546Y-62849500D01*
X144484454Y-62849500D01*
X144484449Y-62849500D01*
X144305589Y-62877829D01*
X144133363Y-62933787D01*
X144133360Y-62933788D01*
X143972002Y-63016006D01*
X143825505Y-63122441D01*
X143825500Y-63122445D01*
X143697445Y-63250500D01*
X143697441Y-63250505D01*
X143591006Y-63397002D01*
X143508788Y-63558360D01*
X143508787Y-63558363D01*
X143452829Y-63730589D01*
X143424500Y-63909448D01*
X141269076Y-63909448D01*
X141340509Y-63838015D01*
X141412984Y-63712485D01*
X141450500Y-63572475D01*
X141450500Y-63427525D01*
X141412984Y-63287515D01*
X141391613Y-63250500D01*
X141340511Y-63161988D01*
X141340506Y-63161982D01*
X141238017Y-63059493D01*
X141238011Y-63059488D01*
X141112488Y-62987017D01*
X141112489Y-62987017D01*
X141101006Y-62983940D01*
X140972475Y-62949500D01*
X140827525Y-62949500D01*
X140698993Y-62983940D01*
X140687511Y-62987017D01*
X140561988Y-63059488D01*
X140561982Y-63059493D01*
X140459493Y-63161982D01*
X140459488Y-63161988D01*
X140387017Y-63287511D01*
X140387016Y-63287515D01*
X140349500Y-63427525D01*
X136904301Y-63427525D01*
X136912984Y-63412485D01*
X136950500Y-63272475D01*
X136950500Y-63127525D01*
X136912984Y-62987515D01*
X136912696Y-62987017D01*
X136840511Y-62861988D01*
X136840506Y-62861982D01*
X136738017Y-62759493D01*
X136738011Y-62759488D01*
X136612488Y-62687017D01*
X136612489Y-62687017D01*
X136601006Y-62683940D01*
X136472475Y-62649500D01*
X136327525Y-62649500D01*
X136198993Y-62683940D01*
X136187511Y-62687017D01*
X136061988Y-62759488D01*
X136061982Y-62759493D01*
X135959493Y-62861982D01*
X135959488Y-62861988D01*
X135887017Y-62987511D01*
X135887016Y-62987515D01*
X135849500Y-63127525D01*
X132350500Y-63127525D01*
X132312984Y-62987515D01*
X132312696Y-62987017D01*
X132240511Y-62861988D01*
X132240506Y-62861982D01*
X132138017Y-62759493D01*
X132138011Y-62759488D01*
X132012488Y-62687017D01*
X132012489Y-62687017D01*
X132001006Y-62683940D01*
X131872475Y-62649500D01*
X131727525Y-62649500D01*
X131598993Y-62683940D01*
X131587511Y-62687017D01*
X131461988Y-62759488D01*
X131461982Y-62759493D01*
X131359493Y-62861982D01*
X131359488Y-62861988D01*
X131287017Y-62987511D01*
X131287016Y-62987515D01*
X131249500Y-63127525D01*
X100450500Y-63127525D01*
X100450500Y-63027525D01*
X100412984Y-62887515D01*
X100408940Y-62880511D01*
X100340511Y-62761988D01*
X100340506Y-62761982D01*
X100238017Y-62659493D01*
X100238015Y-62659491D01*
X100191346Y-62632546D01*
X100147769Y-62607387D01*
X100099553Y-62556820D01*
X100086331Y-62488213D01*
X100112299Y-62423348D01*
X100147769Y-62392613D01*
X100164082Y-62383194D01*
X100238015Y-62340509D01*
X100340509Y-62238015D01*
X100412984Y-62112485D01*
X100450500Y-61972475D01*
X100450500Y-61827525D01*
X100412984Y-61687515D01*
X100392774Y-61652511D01*
X100340511Y-61561988D01*
X100340506Y-61561982D01*
X100238017Y-61459493D01*
X100238011Y-61459488D01*
X100112488Y-61387017D01*
X100112489Y-61387017D01*
X100101006Y-61383940D01*
X99972475Y-61349500D01*
X99827525Y-61349500D01*
X99698993Y-61383940D01*
X99687511Y-61387017D01*
X99561988Y-61459488D01*
X99561982Y-61459493D01*
X99459493Y-61561982D01*
X99459488Y-61561988D01*
X99387017Y-61687511D01*
X99387016Y-61687515D01*
X99349500Y-61827525D01*
X88069480Y-61827525D01*
X87994988Y-61784517D01*
X87994989Y-61784517D01*
X87983506Y-61781440D01*
X87854975Y-61747000D01*
X87710025Y-61747000D01*
X87581493Y-61781440D01*
X87570011Y-61784517D01*
X87444488Y-61856988D01*
X87444482Y-61856993D01*
X87341993Y-61959482D01*
X87341988Y-61959488D01*
X87269517Y-62085011D01*
X87269516Y-62085015D01*
X87232000Y-62225025D01*
X86726546Y-62225025D01*
X86655511Y-62101988D01*
X86655506Y-62101982D01*
X86553017Y-61999493D01*
X86553011Y-61999488D01*
X86427488Y-61927017D01*
X86427489Y-61927017D01*
X86416006Y-61923940D01*
X86287475Y-61889500D01*
X86142525Y-61889500D01*
X86013993Y-61923940D01*
X86002511Y-61927017D01*
X85876988Y-61999488D01*
X85876982Y-61999493D01*
X85774493Y-62101982D01*
X85774488Y-62101988D01*
X85702017Y-62227511D01*
X85699202Y-62238017D01*
X85664500Y-62367525D01*
X77790999Y-62367525D01*
X77855509Y-62303015D01*
X77927984Y-62177485D01*
X77965500Y-62037475D01*
X77965500Y-61892525D01*
X77927984Y-61752515D01*
X77870246Y-61652511D01*
X77855511Y-61626988D01*
X77855506Y-61626982D01*
X77753017Y-61524493D01*
X77753011Y-61524488D01*
X77627488Y-61452017D01*
X77627489Y-61452017D01*
X77616006Y-61448940D01*
X77487475Y-61414500D01*
X77342525Y-61414500D01*
X77213993Y-61448940D01*
X77202511Y-61452017D01*
X77076988Y-61524488D01*
X77076982Y-61524493D01*
X76974493Y-61626982D01*
X76974488Y-61626988D01*
X76902017Y-61752511D01*
X76902016Y-61752515D01*
X76864500Y-61892525D01*
X76265500Y-61892525D01*
X76265500Y-61792525D01*
X76227984Y-61652515D01*
X76213244Y-61626985D01*
X76155511Y-61526988D01*
X76155506Y-61526982D01*
X76053017Y-61424493D01*
X76053011Y-61424488D01*
X75927488Y-61352017D01*
X75927489Y-61352017D01*
X75916006Y-61348940D01*
X75787475Y-61314500D01*
X75642525Y-61314500D01*
X75513993Y-61348940D01*
X75502511Y-61352017D01*
X75376988Y-61424488D01*
X75376982Y-61424493D01*
X75274493Y-61526982D01*
X75274488Y-61526988D01*
X75202017Y-61652511D01*
X75202016Y-61652515D01*
X75164500Y-61792525D01*
X64500500Y-61792525D01*
X64500500Y-60327525D01*
X89449500Y-60327525D01*
X89449500Y-60472475D01*
X89487016Y-60612485D01*
X89487017Y-60612488D01*
X89559488Y-60738011D01*
X89559490Y-60738013D01*
X89559491Y-60738015D01*
X89661985Y-60840509D01*
X89661986Y-60840510D01*
X89661988Y-60840511D01*
X89787511Y-60912982D01*
X89787512Y-60912982D01*
X89787515Y-60912984D01*
X89927525Y-60950500D01*
X89927528Y-60950500D01*
X90072472Y-60950500D01*
X90072475Y-60950500D01*
X90212485Y-60912984D01*
X90338015Y-60840509D01*
X90440509Y-60738015D01*
X90512984Y-60612485D01*
X90550500Y-60472475D01*
X90550500Y-60327525D01*
X90512984Y-60187515D01*
X90440509Y-60061985D01*
X90338015Y-59959491D01*
X90338013Y-59959490D01*
X90338011Y-59959488D01*
X90212488Y-59887017D01*
X90212489Y-59887017D01*
X90201006Y-59883940D01*
X90072475Y-59849500D01*
X89927525Y-59849500D01*
X89798993Y-59883940D01*
X89787511Y-59887017D01*
X89661988Y-59959488D01*
X89661982Y-59959493D01*
X89559493Y-60061982D01*
X89559488Y-60061988D01*
X89487017Y-60187511D01*
X89487016Y-60187515D01*
X89449500Y-60327525D01*
X64500500Y-60327525D01*
X64500500Y-58027525D01*
X69949500Y-58027525D01*
X69949500Y-58172475D01*
X69970407Y-58250500D01*
X69987017Y-58312488D01*
X70059488Y-58438011D01*
X70059490Y-58438013D01*
X70059491Y-58438015D01*
X70161985Y-58540509D01*
X70161986Y-58540510D01*
X70161988Y-58540511D01*
X70287511Y-58612982D01*
X70287512Y-58612982D01*
X70287515Y-58612984D01*
X70427525Y-58650500D01*
X70427528Y-58650500D01*
X70572472Y-58650500D01*
X70572475Y-58650500D01*
X70712485Y-58612984D01*
X70808543Y-58557525D01*
X71464500Y-58557525D01*
X71464500Y-58702475D01*
X71502016Y-58842485D01*
X71502017Y-58842488D01*
X71574488Y-58968011D01*
X71574490Y-58968013D01*
X71574491Y-58968015D01*
X71676985Y-59070509D01*
X71676986Y-59070510D01*
X71676988Y-59070511D01*
X71802511Y-59142982D01*
X71802512Y-59142982D01*
X71802515Y-59142984D01*
X71942525Y-59180500D01*
X71942528Y-59180500D01*
X72087472Y-59180500D01*
X72087475Y-59180500D01*
X72227485Y-59142984D01*
X72353015Y-59070509D01*
X72455509Y-58968015D01*
X72478886Y-58927525D01*
X90449500Y-58927525D01*
X90449500Y-59072475D01*
X90487016Y-59212485D01*
X90487017Y-59212488D01*
X90559488Y-59338011D01*
X90559490Y-59338013D01*
X90559491Y-59338015D01*
X90661985Y-59440509D01*
X90661986Y-59440510D01*
X90661988Y-59440511D01*
X90787511Y-59512982D01*
X90787512Y-59512982D01*
X90787515Y-59512984D01*
X90927525Y-59550500D01*
X90927528Y-59550500D01*
X91072472Y-59550500D01*
X91072475Y-59550500D01*
X91212485Y-59512984D01*
X91248596Y-59492135D01*
X143424500Y-59492135D01*
X143424500Y-60887870D01*
X143424501Y-60887876D01*
X143430908Y-60947483D01*
X143481202Y-61082328D01*
X143481206Y-61082335D01*
X143567452Y-61197544D01*
X143567455Y-61197547D01*
X143682664Y-61283793D01*
X143682671Y-61283797D01*
X143817517Y-61334091D01*
X143817516Y-61334091D01*
X143824444Y-61334835D01*
X143877127Y-61340500D01*
X147072872Y-61340499D01*
X147132483Y-61334091D01*
X147267331Y-61283796D01*
X147382546Y-61197546D01*
X147468796Y-61082331D01*
X147519091Y-60947483D01*
X147525500Y-60887873D01*
X147525499Y-59492128D01*
X147519091Y-59432517D01*
X147468796Y-59297669D01*
X147468795Y-59297668D01*
X147468793Y-59297664D01*
X147382547Y-59182455D01*
X147382544Y-59182452D01*
X147267335Y-59096206D01*
X147267328Y-59096202D01*
X147132482Y-59045908D01*
X147132483Y-59045908D01*
X147072883Y-59039501D01*
X147072881Y-59039500D01*
X147072873Y-59039500D01*
X147072864Y-59039500D01*
X143877129Y-59039500D01*
X143877123Y-59039501D01*
X143817516Y-59045908D01*
X143682671Y-59096202D01*
X143682664Y-59096206D01*
X143567455Y-59182452D01*
X143567452Y-59182455D01*
X143481206Y-59297664D01*
X143481202Y-59297671D01*
X143430908Y-59432517D01*
X143424501Y-59492116D01*
X143424501Y-59492123D01*
X143424500Y-59492135D01*
X91248596Y-59492135D01*
X91338015Y-59440509D01*
X91440509Y-59338015D01*
X91512984Y-59212485D01*
X91550500Y-59072475D01*
X91550500Y-58927525D01*
X91512984Y-58787515D01*
X91507481Y-58777984D01*
X91440511Y-58661988D01*
X91440506Y-58661982D01*
X91338017Y-58559493D01*
X91338011Y-58559488D01*
X91212488Y-58487017D01*
X91212489Y-58487017D01*
X91176915Y-58477485D01*
X91072475Y-58449500D01*
X90927525Y-58449500D01*
X90823085Y-58477485D01*
X90787511Y-58487017D01*
X90661988Y-58559488D01*
X90661982Y-58559493D01*
X90559493Y-58661982D01*
X90559488Y-58661988D01*
X90487017Y-58787511D01*
X90487016Y-58787515D01*
X90449500Y-58927525D01*
X72478886Y-58927525D01*
X72527984Y-58842485D01*
X72565500Y-58702475D01*
X72565500Y-58557525D01*
X72527984Y-58417515D01*
X72467346Y-58312488D01*
X72455511Y-58291988D01*
X72455506Y-58291982D01*
X72356049Y-58192525D01*
X82464500Y-58192525D01*
X82464500Y-58337475D01*
X82497791Y-58461717D01*
X82502017Y-58477488D01*
X82574488Y-58603011D01*
X82574490Y-58603013D01*
X82574491Y-58603015D01*
X82676985Y-58705509D01*
X82676986Y-58705510D01*
X82676988Y-58705511D01*
X82802511Y-58777982D01*
X82802512Y-58777982D01*
X82802515Y-58777984D01*
X82942525Y-58815500D01*
X82942528Y-58815500D01*
X83087472Y-58815500D01*
X83087475Y-58815500D01*
X83227485Y-58777984D01*
X83353015Y-58705509D01*
X83455509Y-58603015D01*
X83527984Y-58477485D01*
X83565500Y-58337475D01*
X83565500Y-58192525D01*
X83527984Y-58052515D01*
X83519612Y-58038015D01*
X83455511Y-57926988D01*
X83455506Y-57926982D01*
X83353015Y-57824491D01*
X83353010Y-57824488D01*
X83227485Y-57752016D01*
X83136084Y-57727525D01*
X97849500Y-57727525D01*
X97849500Y-57872475D01*
X97864107Y-57926988D01*
X97887017Y-58012488D01*
X97959488Y-58138011D01*
X97959490Y-58138013D01*
X97959491Y-58138015D01*
X98061985Y-58240509D01*
X98061986Y-58240510D01*
X98061988Y-58240511D01*
X98187511Y-58312982D01*
X98187512Y-58312982D01*
X98187515Y-58312984D01*
X98327525Y-58350500D01*
X98327528Y-58350500D01*
X98472472Y-58350500D01*
X98472475Y-58350500D01*
X98612485Y-58312984D01*
X98738015Y-58240509D01*
X98840509Y-58138015D01*
X98912984Y-58012485D01*
X98950500Y-57872475D01*
X98950500Y-57727525D01*
X98923705Y-57627525D01*
X127749500Y-57627525D01*
X127749500Y-57772475D01*
X127787016Y-57912485D01*
X127787017Y-57912488D01*
X127859488Y-58038011D01*
X127859490Y-58038013D01*
X127859491Y-58038015D01*
X127961985Y-58140509D01*
X127961986Y-58140510D01*
X127961988Y-58140511D01*
X128087511Y-58212982D01*
X128087512Y-58212982D01*
X128087515Y-58212984D01*
X128227525Y-58250500D01*
X128227528Y-58250500D01*
X128372472Y-58250500D01*
X128372475Y-58250500D01*
X128512485Y-58212984D01*
X128638015Y-58140509D01*
X128740509Y-58038015D01*
X128812984Y-57912485D01*
X128850500Y-57772475D01*
X128850500Y-57627525D01*
X128812984Y-57487515D01*
X128798244Y-57461985D01*
X128740511Y-57361988D01*
X128740506Y-57361982D01*
X128638017Y-57259493D01*
X128638011Y-57259488D01*
X128512488Y-57187017D01*
X128512489Y-57187017D01*
X128501006Y-57183940D01*
X128372475Y-57149500D01*
X128227525Y-57149500D01*
X128098993Y-57183940D01*
X128087511Y-57187017D01*
X127961988Y-57259488D01*
X127961982Y-57259493D01*
X127859493Y-57361982D01*
X127859488Y-57361988D01*
X127787017Y-57487511D01*
X127787016Y-57487515D01*
X127749500Y-57627525D01*
X98923705Y-57627525D01*
X98912984Y-57587515D01*
X98912696Y-57587017D01*
X98840511Y-57461988D01*
X98840506Y-57461982D01*
X98738017Y-57359493D01*
X98738011Y-57359488D01*
X98612488Y-57287017D01*
X98612489Y-57287017D01*
X98601006Y-57283940D01*
X98472475Y-57249500D01*
X98327525Y-57249500D01*
X98198993Y-57283940D01*
X98187511Y-57287017D01*
X98061988Y-57359488D01*
X98061982Y-57359493D01*
X97959493Y-57461982D01*
X97959488Y-57461988D01*
X97887017Y-57587511D01*
X97887016Y-57587515D01*
X97849500Y-57727525D01*
X83136084Y-57727525D01*
X83087475Y-57714500D01*
X82942525Y-57714500D01*
X82813993Y-57748940D01*
X82802511Y-57752017D01*
X82676988Y-57824488D01*
X82676982Y-57824493D01*
X82574493Y-57926982D01*
X82574488Y-57926988D01*
X82502017Y-58052511D01*
X82502016Y-58052515D01*
X82464500Y-58192525D01*
X72356049Y-58192525D01*
X72353017Y-58189493D01*
X72353011Y-58189488D01*
X72227488Y-58117017D01*
X72227489Y-58117017D01*
X72216006Y-58113940D01*
X72087475Y-58079500D01*
X71942525Y-58079500D01*
X71813993Y-58113940D01*
X71802511Y-58117017D01*
X71676988Y-58189488D01*
X71676982Y-58189493D01*
X71574493Y-58291982D01*
X71574488Y-58291988D01*
X71502017Y-58417511D01*
X71502016Y-58417515D01*
X71464500Y-58557525D01*
X70808543Y-58557525D01*
X70838015Y-58540509D01*
X70940509Y-58438015D01*
X71012984Y-58312485D01*
X71050500Y-58172475D01*
X71050500Y-58027525D01*
X71012984Y-57887515D01*
X70976595Y-57824488D01*
X70940511Y-57761988D01*
X70940506Y-57761982D01*
X70838017Y-57659493D01*
X70838011Y-57659488D01*
X70712488Y-57587017D01*
X70712489Y-57587017D01*
X70701006Y-57583940D01*
X70572475Y-57549500D01*
X70427525Y-57549500D01*
X70298993Y-57583940D01*
X70287511Y-57587017D01*
X70161988Y-57659488D01*
X70161982Y-57659493D01*
X70059493Y-57761982D01*
X70059488Y-57761988D01*
X69987017Y-57887511D01*
X69987016Y-57887515D01*
X69949500Y-58027525D01*
X64500500Y-58027525D01*
X64500500Y-56227525D01*
X83749500Y-56227525D01*
X83749500Y-56372475D01*
X83787016Y-56512485D01*
X83787017Y-56512488D01*
X83859488Y-56638011D01*
X83859490Y-56638013D01*
X83859491Y-56638015D01*
X83961985Y-56740509D01*
X83961986Y-56740510D01*
X83961988Y-56740511D01*
X84087511Y-56812982D01*
X84087512Y-56812982D01*
X84087515Y-56812984D01*
X84227525Y-56850500D01*
X84227528Y-56850500D01*
X84372472Y-56850500D01*
X84372475Y-56850500D01*
X84512485Y-56812984D01*
X84638015Y-56740509D01*
X84740509Y-56638015D01*
X84812984Y-56512485D01*
X84850500Y-56372475D01*
X84850500Y-56227525D01*
X84812984Y-56087515D01*
X84740509Y-55961985D01*
X84638015Y-55859491D01*
X84638013Y-55859490D01*
X84638011Y-55859488D01*
X84512488Y-55787017D01*
X84512489Y-55787017D01*
X84501006Y-55783940D01*
X84372475Y-55749500D01*
X84227525Y-55749500D01*
X84098993Y-55783940D01*
X84087511Y-55787017D01*
X83961988Y-55859488D01*
X83961982Y-55859493D01*
X83859493Y-55961982D01*
X83859488Y-55961988D01*
X83787017Y-56087511D01*
X83787016Y-56087515D01*
X83749500Y-56227525D01*
X64500500Y-56227525D01*
X64500500Y-53893713D01*
X66149500Y-53893713D01*
X66149500Y-54106287D01*
X66150561Y-54112984D01*
X66180260Y-54300500D01*
X66182754Y-54316243D01*
X66229298Y-54459491D01*
X66248444Y-54518414D01*
X66344951Y-54707820D01*
X66469890Y-54879786D01*
X66620213Y-55030109D01*
X66792179Y-55155048D01*
X66792181Y-55155049D01*
X66792184Y-55155051D01*
X66981588Y-55251557D01*
X67183757Y-55317246D01*
X67393713Y-55350500D01*
X67393714Y-55350500D01*
X67606286Y-55350500D01*
X67606287Y-55350500D01*
X67816243Y-55317246D01*
X68018412Y-55251557D01*
X68207816Y-55155051D01*
X68229789Y-55139086D01*
X68379786Y-55030109D01*
X68379788Y-55030106D01*
X68379792Y-55030104D01*
X68530104Y-54879792D01*
X68530106Y-54879788D01*
X68530109Y-54879786D01*
X68568078Y-54827525D01*
X123849500Y-54827525D01*
X123849500Y-54972475D01*
X123887016Y-55112485D01*
X123887017Y-55112488D01*
X123959488Y-55238011D01*
X123959490Y-55238013D01*
X123959491Y-55238015D01*
X124061985Y-55340509D01*
X124061986Y-55340510D01*
X124061988Y-55340511D01*
X124187511Y-55412982D01*
X124187512Y-55412982D01*
X124187515Y-55412984D01*
X124327525Y-55450500D01*
X124327528Y-55450500D01*
X124472472Y-55450500D01*
X124472475Y-55450500D01*
X124612485Y-55412984D01*
X124738015Y-55340509D01*
X124840509Y-55238015D01*
X124912984Y-55112485D01*
X124950500Y-54972475D01*
X124950500Y-54827525D01*
X124912984Y-54687515D01*
X124885843Y-54640506D01*
X124840511Y-54561988D01*
X124840506Y-54561982D01*
X124738017Y-54459493D01*
X124738011Y-54459488D01*
X124612488Y-54387017D01*
X124612489Y-54387017D01*
X124601006Y-54383940D01*
X124472475Y-54349500D01*
X124327525Y-54349500D01*
X124198993Y-54383940D01*
X124187511Y-54387017D01*
X124061988Y-54459488D01*
X124061982Y-54459493D01*
X123959493Y-54561982D01*
X123959488Y-54561988D01*
X123887017Y-54687511D01*
X123887016Y-54687515D01*
X123849500Y-54827525D01*
X68568078Y-54827525D01*
X68655048Y-54707820D01*
X68655047Y-54707820D01*
X68655051Y-54707816D01*
X68751557Y-54518412D01*
X68817246Y-54316243D01*
X68847136Y-54127525D01*
X76049500Y-54127525D01*
X76049500Y-54272475D01*
X76070139Y-54349500D01*
X76087017Y-54412488D01*
X76159488Y-54538011D01*
X76159490Y-54538013D01*
X76159491Y-54538015D01*
X76261985Y-54640509D01*
X76261986Y-54640510D01*
X76261988Y-54640511D01*
X76387511Y-54712982D01*
X76387512Y-54712982D01*
X76387515Y-54712984D01*
X76527525Y-54750500D01*
X76527528Y-54750500D01*
X76672472Y-54750500D01*
X76672475Y-54750500D01*
X76812485Y-54712984D01*
X76814170Y-54712011D01*
X76814171Y-54712011D01*
X76856605Y-54687511D01*
X76938015Y-54640509D01*
X77040509Y-54538015D01*
X77112984Y-54412485D01*
X77150500Y-54272475D01*
X77150500Y-54127525D01*
X77112984Y-53987515D01*
X77040509Y-53861985D01*
X77006049Y-53827525D01*
X78249500Y-53827525D01*
X78249500Y-53972475D01*
X78287016Y-54112485D01*
X78287017Y-54112488D01*
X78359488Y-54238011D01*
X78359490Y-54238013D01*
X78359491Y-54238015D01*
X78461985Y-54340509D01*
X78461986Y-54340510D01*
X78461988Y-54340511D01*
X78587511Y-54412982D01*
X78587512Y-54412982D01*
X78587515Y-54412984D01*
X78727525Y-54450500D01*
X78727528Y-54450500D01*
X78872472Y-54450500D01*
X78872475Y-54450500D01*
X79012485Y-54412984D01*
X79138015Y-54340509D01*
X79240509Y-54238015D01*
X79312984Y-54112485D01*
X79350500Y-53972475D01*
X79350500Y-53827525D01*
X79312984Y-53687515D01*
X79312696Y-53687017D01*
X79240511Y-53561988D01*
X79240506Y-53561982D01*
X79138017Y-53459493D01*
X79138015Y-53459491D01*
X79012485Y-53387016D01*
X78872475Y-53349500D01*
X78727525Y-53349500D01*
X78598993Y-53383940D01*
X78587511Y-53387017D01*
X78461988Y-53459488D01*
X78461982Y-53459493D01*
X78359493Y-53561982D01*
X78359488Y-53561988D01*
X78287017Y-53687511D01*
X78287016Y-53687515D01*
X78249500Y-53827525D01*
X77006049Y-53827525D01*
X76938015Y-53759491D01*
X76938013Y-53759490D01*
X76938011Y-53759488D01*
X76812488Y-53687017D01*
X76812489Y-53687017D01*
X76800322Y-53683757D01*
X76672475Y-53649500D01*
X76527525Y-53649500D01*
X76399678Y-53683757D01*
X76387511Y-53687017D01*
X76261988Y-53759488D01*
X76261982Y-53759493D01*
X76159493Y-53861982D01*
X76159488Y-53861988D01*
X76087017Y-53987511D01*
X76087016Y-53987515D01*
X76049500Y-54127525D01*
X68847136Y-54127525D01*
X68850500Y-54106287D01*
X68850500Y-53893713D01*
X68817246Y-53683757D01*
X68751557Y-53481588D01*
X68673058Y-53327525D01*
X84249500Y-53327525D01*
X84249500Y-53472475D01*
X84287016Y-53612485D01*
X84287017Y-53612488D01*
X84359488Y-53738011D01*
X84359490Y-53738013D01*
X84359491Y-53738015D01*
X84461985Y-53840509D01*
X84461986Y-53840510D01*
X84461988Y-53840511D01*
X84587511Y-53912982D01*
X84587512Y-53912982D01*
X84587515Y-53912984D01*
X84727525Y-53950500D01*
X84727528Y-53950500D01*
X84872472Y-53950500D01*
X84872475Y-53950500D01*
X85012485Y-53912984D01*
X85138015Y-53840509D01*
X85240509Y-53738015D01*
X85275433Y-53677525D01*
X115699500Y-53677525D01*
X115699500Y-53822475D01*
X115730460Y-53938017D01*
X115737017Y-53962488D01*
X115809488Y-54088011D01*
X115809490Y-54088013D01*
X115809491Y-54088015D01*
X115911985Y-54190509D01*
X115911986Y-54190510D01*
X115911988Y-54190511D01*
X116037511Y-54262982D01*
X116037512Y-54262982D01*
X116037515Y-54262984D01*
X116177525Y-54300500D01*
X116177528Y-54300500D01*
X116322472Y-54300500D01*
X116322475Y-54300500D01*
X116462485Y-54262984D01*
X116588015Y-54190509D01*
X116690509Y-54088015D01*
X116762984Y-53962485D01*
X116800500Y-53822475D01*
X116800500Y-53677525D01*
X116762984Y-53537515D01*
X116757217Y-53527527D01*
X116757216Y-53527525D01*
X134549500Y-53527525D01*
X134549500Y-53672475D01*
X134572817Y-53759493D01*
X134587017Y-53812488D01*
X134659488Y-53938011D01*
X134659490Y-53938013D01*
X134659491Y-53938015D01*
X134761985Y-54040509D01*
X134761986Y-54040510D01*
X134761988Y-54040511D01*
X134887511Y-54112982D01*
X134887512Y-54112982D01*
X134887515Y-54112984D01*
X135027525Y-54150500D01*
X135027528Y-54150500D01*
X135172472Y-54150500D01*
X135172475Y-54150500D01*
X135312485Y-54112984D01*
X135438015Y-54040509D01*
X135540509Y-53938015D01*
X135566087Y-53893713D01*
X150149500Y-53893713D01*
X150149500Y-54106287D01*
X150150561Y-54112984D01*
X150180260Y-54300500D01*
X150182754Y-54316243D01*
X150229298Y-54459491D01*
X150248444Y-54518414D01*
X150344951Y-54707820D01*
X150469890Y-54879786D01*
X150620213Y-55030109D01*
X150792179Y-55155048D01*
X150792181Y-55155049D01*
X150792184Y-55155051D01*
X150981588Y-55251557D01*
X151183757Y-55317246D01*
X151393713Y-55350500D01*
X151393714Y-55350500D01*
X151606286Y-55350500D01*
X151606287Y-55350500D01*
X151816243Y-55317246D01*
X152018412Y-55251557D01*
X152207816Y-55155051D01*
X152229789Y-55139086D01*
X152379786Y-55030109D01*
X152379788Y-55030106D01*
X152379792Y-55030104D01*
X152530104Y-54879792D01*
X152530106Y-54879788D01*
X152530109Y-54879786D01*
X152655048Y-54707820D01*
X152655047Y-54707820D01*
X152655051Y-54707816D01*
X152751557Y-54518412D01*
X152817246Y-54316243D01*
X152850500Y-54106287D01*
X152850500Y-53893713D01*
X152817246Y-53683757D01*
X152751557Y-53481588D01*
X152655051Y-53292184D01*
X152655049Y-53292181D01*
X152655048Y-53292179D01*
X152530109Y-53120213D01*
X152379786Y-52969890D01*
X152207820Y-52844951D01*
X152018414Y-52748444D01*
X152018413Y-52748443D01*
X152018412Y-52748443D01*
X151816243Y-52682754D01*
X151816241Y-52682753D01*
X151816240Y-52682753D01*
X151654957Y-52657208D01*
X151606287Y-52649500D01*
X151393713Y-52649500D01*
X151345042Y-52657208D01*
X151183760Y-52682753D01*
X150981585Y-52748444D01*
X150792179Y-52844951D01*
X150620213Y-52969890D01*
X150469890Y-53120213D01*
X150344951Y-53292179D01*
X150248444Y-53481585D01*
X150182753Y-53683760D01*
X150159983Y-53827525D01*
X150149500Y-53893713D01*
X135566087Y-53893713D01*
X135573198Y-53881397D01*
X135604696Y-53826841D01*
X135604696Y-53826840D01*
X135607216Y-53822475D01*
X135612984Y-53812485D01*
X135650500Y-53672475D01*
X135650500Y-53527525D01*
X135612984Y-53387515D01*
X135612696Y-53387017D01*
X135540511Y-53261988D01*
X135540506Y-53261982D01*
X135438017Y-53159493D01*
X135438011Y-53159488D01*
X135312488Y-53087017D01*
X135312489Y-53087017D01*
X135301006Y-53083940D01*
X135172475Y-53049500D01*
X135027525Y-53049500D01*
X134898993Y-53083940D01*
X134887511Y-53087017D01*
X134761988Y-53159488D01*
X134761982Y-53159493D01*
X134659493Y-53261982D01*
X134659488Y-53261988D01*
X134587017Y-53387511D01*
X134587016Y-53387515D01*
X134549500Y-53527525D01*
X116757216Y-53527525D01*
X116690511Y-53411988D01*
X116690506Y-53411982D01*
X116588017Y-53309493D01*
X116588011Y-53309488D01*
X116462488Y-53237017D01*
X116462489Y-53237017D01*
X116451006Y-53233940D01*
X116322475Y-53199500D01*
X116177525Y-53199500D01*
X116048993Y-53233940D01*
X116037511Y-53237017D01*
X115911988Y-53309488D01*
X115911982Y-53309493D01*
X115809493Y-53411982D01*
X115809488Y-53411988D01*
X115737017Y-53537511D01*
X115737016Y-53537515D01*
X115699500Y-53677525D01*
X85275433Y-53677525D01*
X85312984Y-53612485D01*
X85350500Y-53472475D01*
X85350500Y-53327525D01*
X85312984Y-53187515D01*
X85296805Y-53159493D01*
X85240511Y-53061988D01*
X85240506Y-53061982D01*
X85138017Y-52959493D01*
X85138011Y-52959488D01*
X85012488Y-52887017D01*
X85012489Y-52887017D01*
X85001006Y-52883940D01*
X84872475Y-52849500D01*
X84727525Y-52849500D01*
X84598993Y-52883940D01*
X84587511Y-52887017D01*
X84461988Y-52959488D01*
X84461982Y-52959493D01*
X84359493Y-53061982D01*
X84359488Y-53061988D01*
X84287017Y-53187511D01*
X84287016Y-53187515D01*
X84249500Y-53327525D01*
X68673058Y-53327525D01*
X68655051Y-53292184D01*
X68655049Y-53292181D01*
X68655048Y-53292179D01*
X68530109Y-53120213D01*
X68379786Y-52969890D01*
X68207820Y-52844951D01*
X68178247Y-52829883D01*
X68018414Y-52748444D01*
X68018413Y-52748443D01*
X68018412Y-52748443D01*
X67954033Y-52727525D01*
X103874500Y-52727525D01*
X103874500Y-52872475D01*
X103912016Y-53012485D01*
X103912017Y-53012488D01*
X103984488Y-53138011D01*
X103984490Y-53138013D01*
X103984491Y-53138015D01*
X104086985Y-53240509D01*
X104086986Y-53240510D01*
X104086988Y-53240511D01*
X104212511Y-53312982D01*
X104212512Y-53312982D01*
X104212515Y-53312984D01*
X104352525Y-53350500D01*
X104352528Y-53350500D01*
X104497472Y-53350500D01*
X104497475Y-53350500D01*
X104637485Y-53312984D01*
X104763015Y-53240509D01*
X104865509Y-53138015D01*
X104937984Y-53012485D01*
X104975500Y-52872475D01*
X104975500Y-52727525D01*
X104937984Y-52587515D01*
X104865509Y-52461985D01*
X104763015Y-52359491D01*
X104763013Y-52359490D01*
X104763011Y-52359488D01*
X104637488Y-52287017D01*
X104637489Y-52287017D01*
X104626006Y-52283940D01*
X104497475Y-52249500D01*
X104352525Y-52249500D01*
X104223993Y-52283940D01*
X104212511Y-52287017D01*
X104086988Y-52359488D01*
X104086982Y-52359493D01*
X103984493Y-52461982D01*
X103984488Y-52461988D01*
X103912017Y-52587511D01*
X103912016Y-52587515D01*
X103874500Y-52727525D01*
X67954033Y-52727525D01*
X67816243Y-52682754D01*
X67816241Y-52682753D01*
X67816240Y-52682753D01*
X67654957Y-52657208D01*
X67606287Y-52649500D01*
X67393713Y-52649500D01*
X67345042Y-52657208D01*
X67183760Y-52682753D01*
X66981585Y-52748444D01*
X66792179Y-52844951D01*
X66620213Y-52969890D01*
X66469890Y-53120213D01*
X66344951Y-53292179D01*
X66248444Y-53481585D01*
X66182753Y-53683760D01*
X66159983Y-53827525D01*
X66149500Y-53893713D01*
X64500500Y-53893713D01*
X64500500Y-52003750D01*
X64500726Y-51996263D01*
X64518271Y-51706205D01*
X64520076Y-51691340D01*
X64571780Y-51409201D01*
X64575364Y-51394663D01*
X64652096Y-51148422D01*
X64660696Y-51120822D01*
X64665998Y-51106841D01*
X64783731Y-50845249D01*
X64790676Y-50832016D01*
X64939080Y-50586526D01*
X64947567Y-50574230D01*
X65124480Y-50348417D01*
X65134395Y-50337226D01*
X65337226Y-50134395D01*
X65348417Y-50124480D01*
X65574230Y-49947567D01*
X65586526Y-49939080D01*
X65832016Y-49790676D01*
X65845249Y-49783731D01*
X66106841Y-49665998D01*
X66120822Y-49660696D01*
X66394668Y-49575362D01*
X66409197Y-49571780D01*
X66691344Y-49520075D01*
X66706201Y-49518271D01*
X66996264Y-49500726D01*
X67003751Y-49500500D01*
X67065892Y-49500500D01*
X151934108Y-49500500D01*
X151996249Y-49500500D01*
X152003736Y-49500726D01*
G37*
%TD.AperFunction*%
%TD*%
M02*
