%TF.GenerationSoftware,KiCad,Pcbnew,9.0.2-9.0.2-0~ubuntu24.04.1*%
%TF.CreationDate,2025-05-28T15:03:19-07:00*%
%TF.ProjectId,LoRa-BLE-Sensor,4c6f5261-2d42-44c4-952d-53656e736f72,1*%
%TF.SameCoordinates,Original*%
%TF.FileFunction,Soldermask,Bot*%
%TF.FilePolarity,Negative*%
%FSLAX46Y46*%
G04 Gerber Fmt 4.6, Leading zero omitted, Abs format (unit mm)*
G04 Created by KiCad (PCBNEW 9.0.2-9.0.2-0~ubuntu24.04.1) date 2025-05-28 15:03:19*
%MOMM*%
%LPD*%
G01*
G04 APERTURE LIST*
G04 Aperture macros list*
%AMRoundRect*
0 Rectangle with rounded corners*
0 $1 Rounding radius*
0 $2 $3 $4 $5 $6 $7 $8 $9 X,Y pos of 4 corners*
0 Add a 4 corners polygon primitive as box body*
4,1,4,$2,$3,$4,$5,$6,$7,$8,$9,$2,$3,0*
0 Add four circle primitives for the rounded corners*
1,1,$1+$1,$2,$3*
1,1,$1+$1,$4,$5*
1,1,$1+$1,$6,$7*
1,1,$1+$1,$8,$9*
0 Add four rect primitives between the rounded corners*
20,1,$1+$1,$2,$3,$4,$5,0*
20,1,$1+$1,$4,$5,$6,$7,0*
20,1,$1+$1,$6,$7,$8,$9,0*
20,1,$1+$1,$8,$9,$2,$3,0*%
G04 Aperture macros list end*
%ADD10C,2.450000*%
%ADD11C,2.452082*%
%ADD12RoundRect,0.250000X0.650000X1.550000X-0.650000X1.550000X-0.650000X-1.550000X0.650000X-1.550000X0*%
%ADD13O,1.800000X3.600000*%
%ADD14C,2.200000*%
%ADD15R,1.700000X1.700000*%
%ADD16C,1.700000*%
%ADD17RoundRect,0.250000X-1.550000X0.650000X-1.550000X-0.650000X1.550000X-0.650000X1.550000X0.650000X0*%
%ADD18O,3.600000X1.800000*%
G04 APERTURE END LIST*
D10*
X152725000Y-54000000D02*
G75*
G02*
X150275000Y-54000000I-1225000J0D01*
G01*
X150275000Y-54000000D02*
G75*
G02*
X152725000Y-54000000I1225000J0D01*
G01*
X152725000Y-104000000D02*
G75*
G02*
X150275000Y-104000000I-1225000J0D01*
G01*
X150275000Y-104000000D02*
G75*
G02*
X152725000Y-104000000I1225000J0D01*
G01*
X68725000Y-104000000D02*
G75*
G02*
X66275000Y-104000000I-1225000J0D01*
G01*
X66275000Y-104000000D02*
G75*
G02*
X68725000Y-104000000I1225000J0D01*
G01*
D11*
X68726041Y-54000000D02*
G75*
G02*
X66273959Y-54000000I-1226041J0D01*
G01*
X66273959Y-54000000D02*
G75*
G02*
X68726041Y-54000000I1226041J0D01*
G01*
D12*
%TO.C,J6*%
X143450000Y-99500000D03*
D13*
X139640000Y-99500000D03*
X135830000Y-99500000D03*
X132020000Y-99500000D03*
X128210000Y-99500000D03*
X124400000Y-99500000D03*
%TD*%
D14*
%TO.C,REF\u002A\u002A*%
X67500000Y-54000000D03*
%TD*%
D15*
%TO.C,J9*%
X150300000Y-84820000D03*
D16*
X150300000Y-87360000D03*
X150300000Y-89900000D03*
X150300000Y-92440000D03*
%TD*%
D14*
%TO.C,REF\u002A\u002A*%
X151500000Y-54000000D03*
%TD*%
D15*
%TO.C,J8*%
X77700000Y-98280000D03*
D16*
X77700000Y-100820000D03*
X77700000Y-103360000D03*
X77700000Y-105900000D03*
%TD*%
D12*
%TO.C,J5*%
X102610000Y-99500000D03*
D13*
X98800000Y-99500000D03*
X94990000Y-99500000D03*
X91180000Y-99500000D03*
X87370000Y-99500000D03*
X83560000Y-99500000D03*
%TD*%
D17*
%TO.C,J7*%
X145475000Y-60190000D03*
D18*
X145475000Y-64000000D03*
X145475000Y-67810000D03*
X145475000Y-71620000D03*
%TD*%
D14*
%TO.C,REF\u002A\u002A*%
X67500000Y-104000000D03*
%TD*%
%TO.C,REF\u002A\u002A*%
X151500000Y-104000000D03*
%TD*%
M02*
