M48
; DRILL file {KiCad 9.0.2-9.0.2-0~ubuntu24.04.1} date 2025-05-28T15:04:54-0700
; FORMAT={-:-/ absolute / metric / decimal}
; #@! TF.CreationDate,2025-05-28T15:04:54-07:00
; #@! TF.GenerationSoftware,Kicad,Pcbnew,9.0.2-9.0.2-0~ubuntu24.04.1
; #@! TF.FileFunction,MixedPlating,1,4
FMAT,2
METRIC
; #@! TA.AperFunction,Plated,PTH,ViaDrill
T1C0.300
; #@! TA.AperFunction,Plated,PTH,ComponentDrill
T2C1.000
; #@! TA.AperFunction,Plated,PTH,ComponentDrill
T3C1.200
; #@! TA.AperFunction,NonPlated,NPTH,ComponentDrill
T4C2.200
%
G90
G05
T1
X66.15Y-79.725
X66.2Y-99.8
X66.25Y-75.925
X68.015Y-68.765
X68.7Y-87.7
X68.8Y-91.6
X70.5Y-58.1
X70.6Y-99.8
X70.65Y-79.725
X70.75Y-75.925
X70.815Y-66.165
X70.817Y-69.844
X71.3Y-87.7
X71.75Y-73.025
X72.0Y-97.9
X72.015Y-58.63
X72.015Y-66.165
X72.315Y-63.665
X72.6Y-87.8
X72.7Y-54.2
X73.7Y-51.0
X74.015Y-58.365
X74.215Y-62.565
X74.6Y-97.9
X74.7Y-79.2
X74.7Y-89.6
X75.015Y-65.465
X75.015Y-66.465
X75.015Y-67.465
X75.115Y-70.665
X75.515Y-58.365
X75.6Y-90.7
X75.715Y-61.865
X75.715Y-72.365
X76.015Y-65.465
X76.015Y-66.465
X76.015Y-67.465
X76.6Y-54.2
X77.015Y-58.365
X77.015Y-65.465
X77.015Y-66.465
X77.015Y-67.465
X77.415Y-61.965
X78.1Y-72.1
X78.615Y-58.365
X78.8Y-53.9
X79.315Y-70.565
X81.015Y-70.165
X81.515Y-68.265
X81.715Y-70.265
X82.215Y-68.265
X82.515Y-69.265
X82.715Y-64.355
X82.715Y-65.965
X82.915Y-68.265
X83.015Y-58.265
X83.2Y-54.7
X83.5Y-85.7
X84.3Y-56.3
X84.415Y-71.665
X84.8Y-53.4
X84.9Y-83.4
X85.803Y-74.515
X85.803Y-78.815
X86.215Y-62.44
X86.415Y-68.365
X86.6Y-94.2
X86.8Y-85.7
X86.9Y-89.6
X87.015Y-63.835
X87.615Y-70.565
X87.782Y-62.297
X88.0Y-92.5
X88.6Y-65.065
X88.8Y-85.61
X90.0Y-60.4
X90.1Y-83.4
X91.0Y-59.0
X91.0Y-67.0
X91.6Y-94.2
X92.0Y-85.7
X92.1Y-89.7
X92.7Y-92.5
X93.5Y-80.7
X95.0Y-89.6
X96.8Y-74.4
X97.0Y-75.7
X97.0Y-78.5
X97.8Y-89.6
X97.8Y-90.7
X98.4Y-57.8
X98.4Y-78.6
X99.9Y-61.9
X99.9Y-63.1
X99.9Y-64.3
X99.9Y-65.5
X99.9Y-66.7
X99.9Y-76.0
X99.9Y-78.2
X100.8Y-87.2
X103.0Y-78.9
X104.425Y-52.8
X105.38Y-52.8
X105.8Y-84.9
X105.8Y-86.0
X106.6Y-79.0
X108.1Y-94.4
X109.19Y-89.75
X110.3Y-53.8
X112.29Y-94.45
X112.3Y-80.0
X112.4Y-103.9
X113.1Y-91.9
X113.3Y-80.0
X113.8Y-104.7
X113.875Y-87.325
X113.9Y-53.8
X113.9Y-100.2
X114.5Y-91.65
X115.2Y-101.9
X116.25Y-53.75
X117.0Y-60.8
X117.0Y-69.2
X117.0Y-70.4
X117.0Y-71.6
X117.0Y-72.8
X117.0Y-74.0
X117.0Y-75.2
X117.8Y-79.3
X118.3Y-88.85
X118.7Y-90.65
X123.3Y-83.5
X123.9Y-85.6
X124.4Y-54.9
X125.9Y-51.9
X126.392Y-73.3
X126.7Y-60.7
X126.837Y-94.2
X127.2Y-83.3
X127.2Y-89.5
X127.892Y-70.417
X127.9Y-51.5
X128.127Y-92.5
X128.3Y-57.7
X128.4Y-83.5
X128.517Y-79.047
X129.0Y-85.6
X129.618Y-69.942
X130.5Y-57.545
X130.692Y-73.718
X130.792Y-75.062
X131.4Y-94.2
X131.8Y-63.2
X132.3Y-83.3
X132.3Y-89.6
X132.8Y-92.5
X133.392Y-76.017
X133.392Y-79.917
X134.6Y-88.557
X135.1Y-53.6
X136.4Y-63.2
X136.4Y-66.2
X138.0Y-89.557
X138.1Y-90.657
X138.2Y-60.3
X140.15Y-56.0
X140.9Y-63.5
X140.9Y-65.4
X141.167Y-85.657
X141.755Y-75.846
X142.373Y-78.164
X143.155Y-76.846
X146.267Y-83.257
X146.267Y-84.257
T2
X77.7Y-98.28
X77.7Y-100.82
X77.7Y-103.36
X77.7Y-105.9
X150.3Y-84.82
X150.3Y-87.36
X150.3Y-89.9
X150.3Y-92.44
T3
X83.56Y-99.5
X87.37Y-99.5
X91.18Y-99.5
X94.99Y-99.5
X98.8Y-99.5
X102.61Y-99.5
X124.4Y-99.5
X128.21Y-99.5
X132.02Y-99.5
X135.83Y-99.5
X139.64Y-99.5
X143.45Y-99.5
X145.475Y-60.19
X145.475Y-64.0
X145.475Y-67.81
X145.475Y-71.62
T4
X67.5Y-54.0
X67.5Y-104.0
X151.5Y-54.0
X151.5Y-104.0
M30
