%TF.GenerationSoftware,KiCad,Pcbnew,9.0.2-9.0.2-0~ubuntu24.04.1*%
%TF.CreationDate,2025-05-28T15:03:19-07:00*%
%TF.ProjectId,LoRa-BLE-Sensor,4c6f5261-2d42-44c4-952d-53656e736f72,1*%
%TF.SameCoordinates,Original*%
%TF.FileFunction,Copper,L4,Bot*%
%TF.FilePolarity,Positive*%
%FSLAX46Y46*%
G04 Gerber Fmt 4.6, Leading zero omitted, Abs format (unit mm)*
G04 Created by KiCad (PCBNEW 9.0.2-9.0.2-0~ubuntu24.04.1) date 2025-05-28 15:03:19*
%MOMM*%
%LPD*%
G01*
G04 APERTURE LIST*
G04 Aperture macros list*
%AMRoundRect*
0 Rectangle with rounded corners*
0 $1 Rounding radius*
0 $2 $3 $4 $5 $6 $7 $8 $9 X,Y pos of 4 corners*
0 Add a 4 corners polygon primitive as box body*
4,1,4,$2,$3,$4,$5,$6,$7,$8,$9,$2,$3,0*
0 Add four circle primitives for the rounded corners*
1,1,$1+$1,$2,$3*
1,1,$1+$1,$4,$5*
1,1,$1+$1,$6,$7*
1,1,$1+$1,$8,$9*
0 Add four rect primitives between the rounded corners*
20,1,$1+$1,$2,$3,$4,$5,0*
20,1,$1+$1,$4,$5,$6,$7,0*
20,1,$1+$1,$6,$7,$8,$9,0*
20,1,$1+$1,$8,$9,$2,$3,0*%
G04 Aperture macros list end*
%TA.AperFunction,ComponentPad*%
%ADD10RoundRect,0.250000X0.650000X1.550000X-0.650000X1.550000X-0.650000X-1.550000X0.650000X-1.550000X0*%
%TD*%
%TA.AperFunction,ComponentPad*%
%ADD11O,1.800000X3.600000*%
%TD*%
%TA.AperFunction,ComponentPad*%
%ADD12R,1.700000X1.700000*%
%TD*%
%TA.AperFunction,ComponentPad*%
%ADD13C,1.700000*%
%TD*%
%TA.AperFunction,ComponentPad*%
%ADD14RoundRect,0.250000X-1.550000X0.650000X-1.550000X-0.650000X1.550000X-0.650000X1.550000X0.650000X0*%
%TD*%
%TA.AperFunction,ComponentPad*%
%ADD15O,3.600000X1.800000*%
%TD*%
%TA.AperFunction,ViaPad*%
%ADD16C,0.600000*%
%TD*%
%TA.AperFunction,ViaPad*%
%ADD17C,0.700000*%
%TD*%
%TA.AperFunction,Conductor*%
%ADD18C,0.250000*%
%TD*%
%TA.AperFunction,Conductor*%
%ADD19C,0.600000*%
%TD*%
%TA.AperFunction,Conductor*%
%ADD20C,0.500000*%
%TD*%
%TA.AperFunction,Conductor*%
%ADD21C,0.300000*%
%TD*%
G04 APERTURE END LIST*
D10*
%TO.P,J6,1,Pin_1*%
%TO.N,SENSOR2_PWR*%
X143450000Y-99500000D03*
D11*
%TO.P,J6,2,Pin_2*%
%TO.N,SENSOR2_IIN*%
X139640000Y-99500000D03*
%TO.P,J6,3,Pin_3*%
%TO.N,SENSOR2_VIN*%
X135830000Y-99500000D03*
%TO.P,J6,4,Pin_4*%
%TO.N,SENSOR2_D1*%
X132020000Y-99500000D03*
%TO.P,J6,5,Pin_5*%
%TO.N,SENSOR2_D2*%
X128210000Y-99500000D03*
%TO.P,J6,6,Pin_6*%
%TO.N,GND*%
X124400000Y-99500000D03*
%TD*%
D12*
%TO.P,J9,1,Pin_1*%
%TO.N,VDD*%
X150300000Y-84820000D03*
D13*
%TO.P,J9,2,Pin_2*%
%TO.N,SENSOR2_D1_NRF*%
X150300000Y-87360000D03*
%TO.P,J9,3,Pin_3*%
%TO.N,SENSOR2_D2_NRF*%
X150300000Y-89900000D03*
%TO.P,J9,4,Pin_4*%
%TO.N,GND*%
X150300000Y-92440000D03*
%TD*%
D12*
%TO.P,J8,1,Pin_1*%
%TO.N,VDD*%
X77700000Y-98280000D03*
D13*
%TO.P,J8,2,Pin_2*%
%TO.N,SENSOR1_D2_NRF*%
X77700000Y-100820000D03*
%TO.P,J8,3,Pin_3*%
%TO.N,SENSOR1_D1_NRF*%
X77700000Y-103360000D03*
%TO.P,J8,4,Pin_4*%
%TO.N,GND*%
X77700000Y-105900000D03*
%TD*%
D10*
%TO.P,J5,1,Pin_1*%
%TO.N,SENSOR1_PWR*%
X102610000Y-99500000D03*
D11*
%TO.P,J5,2,Pin_2*%
%TO.N,SENSOR1_IIN*%
X98800000Y-99500000D03*
%TO.P,J5,3,Pin_3*%
%TO.N,SENSOR1_VIN*%
X94990000Y-99500000D03*
%TO.P,J5,4,Pin_4*%
%TO.N,SENSOR1_D1*%
X91180000Y-99500000D03*
%TO.P,J5,5,Pin_5*%
%TO.N,SENSOR1_D2*%
X87370000Y-99500000D03*
%TO.P,J5,6,Pin_6*%
%TO.N,GND*%
X83560000Y-99500000D03*
%TD*%
D14*
%TO.P,J7,1,Pin_1*%
%TO.N,SENSOR3_PWR*%
X145475000Y-60190000D03*
D15*
%TO.P,J7,2,Pin_2*%
%TO.N,SENSOR3_D1_NRF*%
X145475000Y-64000000D03*
%TO.P,J7,3,Pin_3*%
%TO.N,SENSOR3_D2_NRF*%
X145475000Y-67810000D03*
%TO.P,J7,4,Pin_4*%
%TO.N,GND*%
X145475000Y-71620000D03*
%TD*%
D16*
%TO.N,VDD*%
X74215000Y-62565000D03*
X127200000Y-83300000D03*
X92000000Y-85700000D03*
X88800000Y-85610000D03*
X74700000Y-89600000D03*
X132300000Y-83300000D03*
X112300000Y-80000000D03*
X86800000Y-85700000D03*
X129000000Y-85600000D03*
X74600000Y-97900000D03*
X123900000Y-85600000D03*
X68015000Y-68765000D03*
X75115000Y-70665000D03*
X104425000Y-52800000D03*
X83500000Y-85700000D03*
%TO.N,GND*%
X72600000Y-87800000D03*
X76015000Y-66465000D03*
X86415000Y-68365000D03*
X85803198Y-74515000D03*
X105800000Y-86000000D03*
X125900000Y-51900000D03*
X75515000Y-58365000D03*
X128127500Y-92500000D03*
X127892500Y-70417500D03*
X129617500Y-69942500D03*
X97800000Y-89600000D03*
X92700000Y-92500000D03*
X82515000Y-69265000D03*
X114500000Y-91650000D03*
X72700000Y-54200000D03*
X105800000Y-84900000D03*
X74700000Y-79200000D03*
X70650000Y-79725000D03*
D17*
X128517500Y-79047500D03*
D16*
X91000000Y-67000000D03*
X76015000Y-67465000D03*
X68700000Y-87700000D03*
X77015000Y-67465000D03*
X109190000Y-89750000D03*
X146267500Y-84257500D03*
X75015000Y-67465000D03*
X78615000Y-58365000D03*
X105380000Y-52800000D03*
X88000000Y-92500000D03*
X112400000Y-103900000D03*
X138100000Y-90657500D03*
X72000000Y-97900000D03*
X73700000Y-51000000D03*
X70750000Y-75925000D03*
X83200000Y-54700000D03*
X113800000Y-104700000D03*
X130692500Y-73717500D03*
X66200000Y-99800000D03*
X143155000Y-76846250D03*
X76015000Y-65465000D03*
X95000000Y-89600000D03*
X82715000Y-65965000D03*
X142372500Y-78163750D03*
X113300000Y-80000000D03*
X127900000Y-51500000D03*
X70816650Y-69843672D03*
X77015000Y-58365000D03*
X77015000Y-66465000D03*
X100800000Y-87200000D03*
X113900000Y-53800000D03*
X118700000Y-90650000D03*
X85803198Y-78815000D03*
X130500000Y-57545000D03*
X138000000Y-89557500D03*
X141167500Y-85657500D03*
X72315000Y-63665000D03*
X82715000Y-64355000D03*
X106600000Y-79000000D03*
X103000000Y-78900000D03*
X118300000Y-88850000D03*
X126700000Y-60700000D03*
X134600000Y-88557500D03*
X140150000Y-56000000D03*
X117000000Y-60800000D03*
X97800000Y-90700000D03*
X93500000Y-80700000D03*
X110300000Y-53800000D03*
X132800000Y-92500000D03*
X74015000Y-58365000D03*
X77015000Y-65465000D03*
X70600000Y-99800000D03*
X71300000Y-87700000D03*
X79315000Y-70565000D03*
D17*
X75715000Y-72365000D03*
D16*
X75015000Y-66465000D03*
X66250000Y-75925000D03*
X66150000Y-79725000D03*
X138200000Y-60300000D03*
X75015000Y-65465000D03*
X146267500Y-83257500D03*
%TO.N,RESET*%
X68800000Y-91600000D03*
X75600000Y-90700000D03*
%TO.N,CC2*%
X88600000Y-65065000D03*
X86215000Y-62440000D03*
%TO.N,CC1*%
X87782500Y-62297500D03*
X91000000Y-59000000D03*
%TO.N,VBAT*%
X84300000Y-56300000D03*
X81715000Y-70265000D03*
X81015000Y-70165000D03*
%TO.N,VBUS_NRF*%
X87015000Y-63834669D03*
X90000000Y-60400000D03*
%TO.N,VSYS*%
X82215000Y-68265000D03*
X77415000Y-61965000D03*
X70815000Y-66165000D03*
X72015000Y-66165000D03*
X124400000Y-54900000D03*
X82915000Y-68265000D03*
X126392500Y-73300000D03*
X113875000Y-87325000D03*
X81515000Y-68265000D03*
X75715000Y-61865000D03*
D17*
X87615000Y-70565000D03*
D16*
X83015000Y-58265000D03*
X96800000Y-74400000D03*
X98400000Y-78600000D03*
%TO.N,BOOST1_FB_CTRL1*%
X117000000Y-75200000D03*
X112290000Y-94450000D03*
%TO.N,LDO2_OUT*%
X136400000Y-66200000D03*
X72015000Y-58630000D03*
X116250000Y-53750000D03*
X136400000Y-63200000D03*
%TO.N,LDO1_OUT*%
X97000000Y-75700000D03*
X98400000Y-57800000D03*
X113900000Y-100200000D03*
X97000000Y-78500000D03*
%TO.N,BOOST1_FB_CTRL2*%
X108100000Y-94400000D03*
X117000000Y-74000000D03*
%TO.N,/SHPHLD*%
X78100000Y-72100000D03*
X71750000Y-73025000D03*
%TO.N,BOOST2_FB_CTRL2*%
X99900000Y-65500000D03*
X133392500Y-79917500D03*
%TO.N,BOOST2_FB_CTRL1*%
X133392500Y-76017500D03*
X99900000Y-64300000D03*
%TO.N,BOOST1_EN*%
X113100000Y-91900000D03*
X99900000Y-76000000D03*
X99900000Y-78200000D03*
X99900000Y-66700000D03*
%TO.N,BOOST2_EN*%
X99900000Y-63100000D03*
X130792500Y-75062500D03*
%TO.N,V_SENSOR1_READ*%
X115200000Y-101900000D03*
X117800000Y-79300000D03*
%TO.N,V_SENSOR2_READ*%
X141755000Y-75846250D03*
X131800000Y-63200000D03*
%TO.N,V_BUCK1*%
X135100000Y-53600000D03*
X70500000Y-58100000D03*
%TO.N,SENSOR1_D1_NRF*%
X117000000Y-72800000D03*
X90100000Y-83400000D03*
%TO.N,SENSOR1_D2_NRF*%
X117000000Y-71600000D03*
X84900000Y-83400000D03*
%TO.N,SENSOR2_D1_NRF*%
X117000000Y-69200000D03*
X128400000Y-83500000D03*
%TO.N,SENSOR2_D2_NRF*%
X123300000Y-83500000D03*
X117000000Y-70400000D03*
%TO.N,SENSOR3_D2_NRF*%
X140900000Y-65400000D03*
X140900000Y-63500000D03*
%TO.N,BOOST3_EN*%
X128300000Y-57700000D03*
X99900000Y-61900000D03*
%TO.N,SENSOR1_PWR*%
X86900000Y-89600000D03*
X91600000Y-94200000D03*
X92100000Y-89700000D03*
X86600000Y-94200000D03*
%TO.N,SENSOR2_PWR*%
X131400000Y-94200000D03*
X132300000Y-89600000D03*
X127200000Y-89500000D03*
X126837500Y-94200000D03*
%TO.N,NTC*%
X84800000Y-53400000D03*
X76600000Y-54200000D03*
X84415000Y-71665000D03*
X78800000Y-53900000D03*
%TD*%
D18*
%TO.N,VBUS_NRF*%
X90000000Y-60400000D02*
X90000000Y-61945000D01*
X90000000Y-61945000D02*
X88110331Y-63834669D01*
X88110331Y-63834669D02*
X87015000Y-63834669D01*
%TO.N,CC1*%
X87782500Y-62297500D02*
X87782500Y-60417500D01*
X87782500Y-60417500D02*
X89200000Y-59000000D01*
X89200000Y-59000000D02*
X91000000Y-59000000D01*
%TO.N,RESET*%
X75600000Y-90700000D02*
X69700000Y-90700000D01*
X69700000Y-90700000D02*
X68800000Y-91600000D01*
%TO.N,CC2*%
X86215000Y-64430000D02*
X86215000Y-62440000D01*
X88600000Y-65065000D02*
X86850000Y-65065000D01*
X86850000Y-65065000D02*
X86215000Y-64430000D01*
D19*
%TO.N,VBAT*%
X81115000Y-70265000D02*
X81715000Y-70265000D01*
X83315000Y-70265000D02*
X81715000Y-70265000D01*
X84000000Y-69580000D02*
X83315000Y-70265000D01*
X84300000Y-56300000D02*
X84000000Y-56600000D01*
X84000000Y-56600000D02*
X84000000Y-69580000D01*
X81015000Y-70165000D02*
X81115000Y-70265000D01*
D20*
%TO.N,VSYS*%
X81515000Y-68265000D02*
X81515000Y-67165000D01*
X95815000Y-63885000D02*
X89135000Y-70565000D01*
X95800000Y-58300000D02*
X95800000Y-62350000D01*
X87615000Y-70615000D02*
X91400000Y-74400000D01*
X81515000Y-67165000D02*
X77415000Y-63065000D01*
X75715000Y-61865000D02*
X75715000Y-62965000D01*
X126392500Y-69307500D02*
X129500000Y-66200000D01*
X99200000Y-54900000D02*
X95800000Y-58300000D01*
X129500000Y-55985413D02*
X128414587Y-54900000D01*
X75015000Y-63665000D02*
X74515000Y-63665000D01*
X95815000Y-62365000D02*
X95815000Y-63885000D01*
X77415000Y-63065000D02*
X77415000Y-61965000D01*
X126392500Y-73300000D02*
X126392500Y-69307500D01*
D21*
X81115000Y-58265000D02*
X77415000Y-61965000D01*
D20*
X95800000Y-62350000D02*
X95815000Y-62365000D01*
X89135000Y-70565000D02*
X87615000Y-70565000D01*
X87615000Y-70565000D02*
X87615000Y-70615000D01*
X124400000Y-54900000D02*
X99200000Y-54900000D01*
X91400000Y-74400000D02*
X96800000Y-74400000D01*
X129500000Y-66200000D02*
X129500000Y-55985413D01*
X74515000Y-63665000D02*
X72015000Y-66165000D01*
X128414587Y-54900000D02*
X124400000Y-54900000D01*
X75715000Y-62965000D02*
X75015000Y-63665000D01*
X108950000Y-82400000D02*
X102200000Y-82400000D01*
D21*
X83015000Y-58265000D02*
X81115000Y-58265000D01*
D20*
X102200000Y-82400000D02*
X98400000Y-78600000D01*
X113875000Y-87325000D02*
X108950000Y-82400000D01*
D18*
%TO.N,BOOST1_FB_CTRL1*%
X117000000Y-92500000D02*
X115050000Y-94450000D01*
X117000000Y-75200000D02*
X117000000Y-92500000D01*
X115050000Y-94450000D02*
X112290000Y-94450000D01*
D20*
%TO.N,LDO2_OUT*%
X79400000Y-56700000D02*
X84400000Y-51700000D01*
X73945000Y-56700000D02*
X79400000Y-56700000D01*
X72015000Y-58630000D02*
X73945000Y-56700000D01*
X84400000Y-51700000D02*
X114200000Y-51700000D01*
X136400000Y-63200000D02*
X136400000Y-66200000D01*
X114200000Y-51700000D02*
X116250000Y-53750000D01*
%TO.N,LDO1_OUT*%
X110700000Y-100200000D02*
X113900000Y-100200000D01*
X97000000Y-78500000D02*
X97000000Y-80300000D01*
X98400000Y-74300000D02*
X98400000Y-57800000D01*
X106500000Y-96000000D02*
X110700000Y-100200000D01*
X106500000Y-89800000D02*
X106500000Y-96000000D01*
X97000000Y-80300000D02*
X106500000Y-89800000D01*
X97000000Y-75700000D02*
X98400000Y-74300000D01*
D18*
%TO.N,BOOST1_FB_CTRL2*%
X116500000Y-74000000D02*
X115800000Y-74700000D01*
X117000000Y-74000000D02*
X116500000Y-74000000D01*
X109100000Y-93400000D02*
X108100000Y-94400000D01*
X115800000Y-74700000D02*
X115800000Y-92100000D01*
X114500000Y-93400000D02*
X109100000Y-93400000D01*
X115800000Y-92100000D02*
X114500000Y-93400000D01*
%TO.N,/SHPHLD*%
X72125000Y-73400000D02*
X71750000Y-73025000D01*
X77930000Y-72100000D02*
X76630000Y-73400000D01*
X78100000Y-72100000D02*
X77930000Y-72100000D01*
X76630000Y-73400000D02*
X72125000Y-73400000D01*
%TO.N,BOOST2_FB_CTRL2*%
X99900000Y-65500000D02*
X117500000Y-65500000D01*
X133392500Y-79792500D02*
X133392500Y-79917500D01*
X121000000Y-72600000D02*
X125900000Y-77500000D01*
X125900000Y-77500000D02*
X131100000Y-77500000D01*
X117500000Y-65500000D02*
X121000000Y-69000000D01*
X121000000Y-69000000D02*
X121000000Y-72600000D01*
X131100000Y-77500000D02*
X133392500Y-79792500D01*
%TO.N,BOOST2_FB_CTRL1*%
X118800000Y-64300000D02*
X122900000Y-68400000D01*
X122900000Y-73000000D02*
X125917500Y-76017500D01*
X125917500Y-76017500D02*
X133392500Y-76017500D01*
X99900000Y-64300000D02*
X118800000Y-64300000D01*
X122900000Y-68400000D02*
X122900000Y-73000000D01*
%TO.N,BOOST1_EN*%
X109900000Y-81200000D02*
X114800000Y-86100000D01*
X114800000Y-89200000D02*
X113100000Y-90900000D01*
X113100000Y-90900000D02*
X113100000Y-91900000D01*
X99900000Y-66700000D02*
X99900000Y-76000000D01*
X99900000Y-78200000D02*
X102900000Y-81200000D01*
X102900000Y-81200000D02*
X109900000Y-81200000D01*
X114800000Y-86100000D02*
X114800000Y-89200000D01*
%TO.N,BOOST2_EN*%
X99900000Y-63100000D02*
X120000000Y-63100000D01*
X124900000Y-73500000D02*
X126400000Y-75000000D01*
X124900000Y-68000000D02*
X124900000Y-73500000D01*
X120000000Y-63100000D02*
X124900000Y-68000000D01*
X126400000Y-75000000D02*
X130730000Y-75000000D01*
X130730000Y-75000000D02*
X130792500Y-75062500D01*
%TO.N,V_SENSOR1_READ*%
X117800000Y-79300000D02*
X120600000Y-82100000D01*
X120600000Y-96500000D02*
X115200000Y-101900000D01*
X120600000Y-82100000D02*
X120600000Y-96500000D01*
%TO.N,V_SENSOR2_READ*%
X140055000Y-75846250D02*
X141755000Y-75846250D01*
X131800000Y-63200000D02*
X131800000Y-67591250D01*
X131800000Y-67591250D02*
X140055000Y-75846250D01*
D20*
%TO.N,V_BUCK1*%
X73200000Y-55400000D02*
X79000000Y-55400000D01*
X79000000Y-55400000D02*
X83800000Y-50600000D01*
X70500000Y-58100000D02*
X73200000Y-55400000D01*
X83800000Y-50600000D02*
X132100000Y-50600000D01*
X132100000Y-50600000D02*
X135100000Y-53600000D01*
D18*
%TO.N,SENSOR1_D1_NRF*%
X116100000Y-72800000D02*
X117000000Y-72800000D01*
X81200000Y-102100000D02*
X81200000Y-92800000D01*
X91200000Y-77500000D02*
X111400000Y-77500000D01*
X111400000Y-77500000D02*
X116100000Y-72800000D01*
X91200000Y-77500000D02*
X90100000Y-78600000D01*
X90100000Y-78600000D02*
X90100000Y-83400000D01*
X79940000Y-103360000D02*
X81200000Y-102100000D01*
X85500000Y-88500000D02*
X87900000Y-88500000D01*
X87900000Y-88500000D02*
X90100000Y-86300000D01*
X81200000Y-92800000D02*
X85500000Y-88500000D01*
X77700000Y-103360000D02*
X79940000Y-103360000D01*
X90100000Y-86300000D02*
X90100000Y-83400000D01*
%TO.N,SENSOR1_D2_NRF*%
X90000000Y-76800000D02*
X84900000Y-81900000D01*
X84900000Y-83400000D02*
X84900000Y-87200000D01*
X79080000Y-100820000D02*
X77700000Y-100820000D01*
X115900000Y-71600000D02*
X110700000Y-76800000D01*
X117000000Y-71600000D02*
X115900000Y-71600000D01*
X80000000Y-99900000D02*
X79080000Y-100820000D01*
X110700000Y-76800000D02*
X90000000Y-76800000D01*
X84900000Y-87200000D02*
X80000000Y-92100000D01*
X80000000Y-92100000D02*
X80000000Y-99900000D01*
X84900000Y-81900000D02*
X84900000Y-83400000D01*
%TO.N,SENSOR2_D1_NRF*%
X117000000Y-69200000D02*
X117900000Y-69200000D01*
X130800000Y-83500000D02*
X133050000Y-85750000D01*
X128400000Y-83500000D02*
X130800000Y-83500000D01*
X119800000Y-74400000D02*
X128400000Y-83000000D01*
X117900000Y-69200000D02*
X119800000Y-71100000D01*
X140900000Y-87360000D02*
X150300000Y-87360000D01*
X139290000Y-85750000D02*
X140900000Y-87360000D01*
X119800000Y-71100000D02*
X119800000Y-74400000D01*
X133050000Y-85750000D02*
X139290000Y-85750000D01*
X128400000Y-83000000D02*
X128400000Y-83500000D01*
%TO.N,SENSOR2_D2_NRF*%
X117800000Y-70400000D02*
X117000000Y-70400000D01*
X118400000Y-71000000D02*
X117800000Y-70400000D01*
X123300000Y-83500000D02*
X123300000Y-81500000D01*
X140691881Y-89900000D02*
X150300000Y-89900000D01*
X123300000Y-83500000D02*
X125300000Y-83500000D01*
X123300000Y-81500000D02*
X118400000Y-76600000D01*
X138091881Y-87300000D02*
X140691881Y-89900000D01*
X125300000Y-83500000D02*
X129100000Y-87300000D01*
X118400000Y-76600000D02*
X118400000Y-71000000D01*
X129100000Y-87300000D02*
X138091881Y-87300000D01*
%TO.N,SENSOR3_D2_NRF*%
X140900000Y-63500000D02*
X140900000Y-65400000D01*
%TO.N,BOOST3_EN*%
X122500000Y-61900000D02*
X126600000Y-57800000D01*
X99900000Y-61900000D02*
X122500000Y-61900000D01*
X126600000Y-57800000D02*
X128200000Y-57800000D01*
X128200000Y-57800000D02*
X128300000Y-57700000D01*
D20*
%TO.N,SENSOR1_PWR*%
X91600000Y-94200000D02*
X91600000Y-90200000D01*
X91600000Y-95500000D02*
X91500000Y-95500000D01*
X102617500Y-99357500D02*
X102617500Y-96217500D01*
X86900000Y-89600000D02*
X86600000Y-89900000D01*
X101900000Y-95500000D02*
X91500000Y-95500000D01*
X91600000Y-94200000D02*
X91600000Y-95500000D01*
X86600000Y-94200000D02*
X87900000Y-95500000D01*
X91600000Y-90200000D02*
X92100000Y-89700000D01*
X86600000Y-89900000D02*
X86600000Y-94200000D01*
X87900000Y-95500000D02*
X91500000Y-95500000D01*
X102617500Y-96217500D02*
X101900000Y-95500000D01*
%TO.N,SENSOR2_PWR*%
X126870000Y-95070000D02*
X126870000Y-94232500D01*
X131400000Y-90500000D02*
X131400000Y-94200000D01*
X143450000Y-97150000D02*
X141900000Y-95600000D01*
X141900000Y-95600000D02*
X131400000Y-95600000D01*
X132300000Y-89600000D02*
X131400000Y-90500000D01*
X127400000Y-95600000D02*
X126870000Y-95070000D01*
X131400000Y-94200000D02*
X131400000Y-95600000D01*
X127200000Y-89500000D02*
X126837500Y-89862500D01*
X126870000Y-94232500D02*
X126837500Y-94200000D01*
X143450000Y-99500000D02*
X143450000Y-97150000D01*
X131400000Y-95600000D02*
X127400000Y-95600000D01*
X126837500Y-89862500D02*
X126837500Y-94200000D01*
D18*
%TO.N,NTC*%
X84800000Y-53600000D02*
X85000000Y-53800000D01*
X85000000Y-53800000D02*
X85000000Y-56000000D01*
X85100000Y-71380000D02*
X84815000Y-71665000D01*
X85000000Y-56000000D02*
X85100000Y-56100000D01*
X85100000Y-56100000D02*
X85100000Y-71380000D01*
X78500000Y-54200000D02*
X78800000Y-53900000D01*
X84800000Y-53600000D02*
X84800000Y-53400000D01*
X76600000Y-54200000D02*
X78500000Y-54200000D01*
X84815000Y-71665000D02*
X84415000Y-71665000D01*
%TD*%
%TA.AperFunction,Conductor*%
%TO.N,VSYS*%
G36*
X78044451Y-62882670D02*
G01*
X78504861Y-63158917D01*
X78523799Y-63172882D01*
X79323840Y-63889586D01*
X83273739Y-67428037D01*
X83310538Y-67487431D01*
X83315000Y-67520397D01*
X83315000Y-68541000D01*
X83295315Y-68608039D01*
X83242511Y-68653794D01*
X83191000Y-68665000D01*
X81275517Y-68665000D01*
X81208478Y-68645315D01*
X81177766Y-68617294D01*
X81170543Y-68608039D01*
X78015000Y-64565000D01*
X78014999Y-64565000D01*
X74415000Y-64565000D01*
X72125223Y-67141000D01*
X72051995Y-67223381D01*
X71992744Y-67260409D01*
X71959316Y-67265000D01*
X70539000Y-67265000D01*
X70471961Y-67245315D01*
X70426206Y-67192511D01*
X70415000Y-67141000D01*
X70415000Y-65189000D01*
X70434685Y-65121961D01*
X70487489Y-65076206D01*
X70539000Y-65065000D01*
X71914999Y-65065000D01*
X71915000Y-65065000D01*
X72894512Y-63889584D01*
X72944825Y-63853401D01*
X74715000Y-63165000D01*
X75288818Y-62878091D01*
X75344272Y-62865000D01*
X77980655Y-62865000D01*
X78044451Y-62882670D01*
G37*
%TD.AperFunction*%
%TD*%
M02*
