%TF.GenerationSoftware,KiCad,Pcbnew,9.0.2-9.0.2-0~ubuntu24.04.1*%
%TF.CreationDate,2025-05-28T15:03:18-07:00*%
%TF.ProjectId,LoRa-BLE-Sensor,4c6f5261-2d42-44c4-952d-53656e736f72,1*%
%TF.SameCoordinates,Original*%
%TF.FileFunction,Copper,L1,Top*%
%TF.FilePolarity,Positive*%
%FSLAX46Y46*%
G04 Gerber Fmt 4.6, Leading zero omitted, Abs format (unit mm)*
G04 Created by KiCad (PCBNEW 9.0.2-9.0.2-0~ubuntu24.04.1) date 2025-05-28 15:03:18*
%MOMM*%
%LPD*%
G01*
G04 APERTURE LIST*
G04 Aperture macros list*
%AMRoundRect*
0 Rectangle with rounded corners*
0 $1 Rounding radius*
0 $2 $3 $4 $5 $6 $7 $8 $9 X,Y pos of 4 corners*
0 Add a 4 corners polygon primitive as box body*
4,1,4,$2,$3,$4,$5,$6,$7,$8,$9,$2,$3,0*
0 Add four circle primitives for the rounded corners*
1,1,$1+$1,$2,$3*
1,1,$1+$1,$4,$5*
1,1,$1+$1,$6,$7*
1,1,$1+$1,$8,$9*
0 Add four rect primitives between the rounded corners*
20,1,$1+$1,$2,$3,$4,$5,0*
20,1,$1+$1,$4,$5,$6,$7,0*
20,1,$1+$1,$6,$7,$8,$9,0*
20,1,$1+$1,$8,$9,$2,$3,0*%
G04 Aperture macros list end*
%TA.AperFunction,SMDPad,CuDef*%
%ADD10RoundRect,0.140000X-0.170000X0.140000X-0.170000X-0.140000X0.170000X-0.140000X0.170000X0.140000X0*%
%TD*%
%TA.AperFunction,SMDPad,CuDef*%
%ADD11RoundRect,0.150000X-0.150000X0.587500X-0.150000X-0.587500X0.150000X-0.587500X0.150000X0.587500X0*%
%TD*%
%TA.AperFunction,SMDPad,CuDef*%
%ADD12RoundRect,0.140000X-0.140000X-0.170000X0.140000X-0.170000X0.140000X0.170000X-0.140000X0.170000X0*%
%TD*%
%TA.AperFunction,SMDPad,CuDef*%
%ADD13R,1.100000X0.500000*%
%TD*%
%TA.AperFunction,SMDPad,CuDef*%
%ADD14RoundRect,0.225000X0.250000X-0.225000X0.250000X0.225000X-0.250000X0.225000X-0.250000X-0.225000X0*%
%TD*%
%TA.AperFunction,SMDPad,CuDef*%
%ADD15R,1.000000X0.700000*%
%TD*%
%TA.AperFunction,SMDPad,CuDef*%
%ADD16RoundRect,0.225000X-0.250000X0.225000X-0.250000X-0.225000X0.250000X-0.225000X0.250000X0.225000X0*%
%TD*%
%TA.AperFunction,SMDPad,CuDef*%
%ADD17RoundRect,0.250000X0.450000X-0.262500X0.450000X0.262500X-0.450000X0.262500X-0.450000X-0.262500X0*%
%TD*%
%TA.AperFunction,ComponentPad*%
%ADD18RoundRect,0.250000X0.650000X1.550000X-0.650000X1.550000X-0.650000X-1.550000X0.650000X-1.550000X0*%
%TD*%
%TA.AperFunction,ComponentPad*%
%ADD19O,1.800000X3.600000*%
%TD*%
%TA.AperFunction,SMDPad,CuDef*%
%ADD20RoundRect,0.135000X0.135000X0.185000X-0.135000X0.185000X-0.135000X-0.185000X0.135000X-0.185000X0*%
%TD*%
%TA.AperFunction,SMDPad,CuDef*%
%ADD21RoundRect,0.150000X0.150000X-0.512500X0.150000X0.512500X-0.150000X0.512500X-0.150000X-0.512500X0*%
%TD*%
%TA.AperFunction,SMDPad,CuDef*%
%ADD22RoundRect,0.250000X0.375000X0.850000X-0.375000X0.850000X-0.375000X-0.850000X0.375000X-0.850000X0*%
%TD*%
%TA.AperFunction,SMDPad,CuDef*%
%ADD23R,0.600000X0.700000*%
%TD*%
%TA.AperFunction,SMDPad,CuDef*%
%ADD24RoundRect,0.040600X-0.564400X-0.249400X0.564400X-0.249400X0.564400X0.249400X-0.564400X0.249400X0*%
%TD*%
%TA.AperFunction,SMDPad,CuDef*%
%ADD25R,0.500000X1.100000*%
%TD*%
%TA.AperFunction,SMDPad,CuDef*%
%ADD26RoundRect,0.250000X-0.250000X-2.500000X0.250000X-2.500000X0.250000X2.500000X-0.250000X2.500000X0*%
%TD*%
%TA.AperFunction,SMDPad,CuDef*%
%ADD27RoundRect,0.250000X-0.550000X-1.250000X0.550000X-1.250000X0.550000X1.250000X-0.550000X1.250000X0*%
%TD*%
%TA.AperFunction,SMDPad,CuDef*%
%ADD28RoundRect,0.225000X-0.225000X-0.250000X0.225000X-0.250000X0.225000X0.250000X-0.225000X0.250000X0*%
%TD*%
%TA.AperFunction,ComponentPad*%
%ADD29R,1.700000X1.700000*%
%TD*%
%TA.AperFunction,ComponentPad*%
%ADD30C,1.700000*%
%TD*%
%TA.AperFunction,SMDPad,CuDef*%
%ADD31RoundRect,0.135000X0.185000X-0.135000X0.185000X0.135000X-0.185000X0.135000X-0.185000X-0.135000X0*%
%TD*%
%TA.AperFunction,SMDPad,CuDef*%
%ADD32R,1.250000X0.750000*%
%TD*%
%TA.AperFunction,SMDPad,CuDef*%
%ADD33R,0.750000X1.250000*%
%TD*%
%TA.AperFunction,SMDPad,CuDef*%
%ADD34RoundRect,0.250000X0.475000X-0.250000X0.475000X0.250000X-0.475000X0.250000X-0.475000X-0.250000X0*%
%TD*%
%TA.AperFunction,SMDPad,CuDef*%
%ADD35RoundRect,0.225000X0.225000X0.250000X-0.225000X0.250000X-0.225000X-0.250000X0.225000X-0.250000X0*%
%TD*%
%TA.AperFunction,SMDPad,CuDef*%
%ADD36RoundRect,0.150000X-0.275000X0.150000X-0.275000X-0.150000X0.275000X-0.150000X0.275000X0.150000X0*%
%TD*%
%TA.AperFunction,SMDPad,CuDef*%
%ADD37RoundRect,0.175000X-0.225000X0.175000X-0.225000X-0.175000X0.225000X-0.175000X0.225000X0.175000X0*%
%TD*%
%TA.AperFunction,SMDPad,CuDef*%
%ADD38RoundRect,0.135000X-0.135000X-0.185000X0.135000X-0.185000X0.135000X0.185000X-0.135000X0.185000X0*%
%TD*%
%TA.AperFunction,SMDPad,CuDef*%
%ADD39RoundRect,0.250000X0.650000X-1.000000X0.650000X1.000000X-0.650000X1.000000X-0.650000X-1.000000X0*%
%TD*%
%TA.AperFunction,SMDPad,CuDef*%
%ADD40RoundRect,0.140000X0.170000X-0.140000X0.170000X0.140000X-0.170000X0.140000X-0.170000X-0.140000X0*%
%TD*%
%TA.AperFunction,SMDPad,CuDef*%
%ADD41RoundRect,0.135000X-0.185000X0.135000X-0.185000X-0.135000X0.185000X-0.135000X0.185000X0.135000X0*%
%TD*%
%TA.AperFunction,SMDPad,CuDef*%
%ADD42R,0.450000X1.100000*%
%TD*%
%TA.AperFunction,SMDPad,CuDef*%
%ADD43R,0.700000X1.000000*%
%TD*%
%TA.AperFunction,SMDPad,CuDef*%
%ADD44R,0.700000X0.600000*%
%TD*%
%TA.AperFunction,SMDPad,CuDef*%
%ADD45R,0.740000X2.795000*%
%TD*%
%TA.AperFunction,SMDPad,CuDef*%
%ADD46RoundRect,0.250000X1.075000X-0.375000X1.075000X0.375000X-1.075000X0.375000X-1.075000X-0.375000X0*%
%TD*%
%TA.AperFunction,SMDPad,CuDef*%
%ADD47RoundRect,0.040600X0.249400X-0.564400X0.249400X0.564400X-0.249400X0.564400X-0.249400X-0.564400X0*%
%TD*%
%TA.AperFunction,SMDPad,CuDef*%
%ADD48RoundRect,0.218750X-0.218750X-0.381250X0.218750X-0.381250X0.218750X0.381250X-0.218750X0.381250X0*%
%TD*%
%TA.AperFunction,SMDPad,CuDef*%
%ADD49R,1.100000X0.450000*%
%TD*%
%TA.AperFunction,SMDPad,CuDef*%
%ADD50RoundRect,0.150000X-0.625000X0.150000X-0.625000X-0.150000X0.625000X-0.150000X0.625000X0.150000X0*%
%TD*%
%TA.AperFunction,SMDPad,CuDef*%
%ADD51RoundRect,0.250000X-0.650000X0.350000X-0.650000X-0.350000X0.650000X-0.350000X0.650000X0.350000X0*%
%TD*%
%TA.AperFunction,ComponentPad*%
%ADD52RoundRect,0.250000X-1.550000X0.650000X-1.550000X-0.650000X1.550000X-0.650000X1.550000X0.650000X0*%
%TD*%
%TA.AperFunction,ComponentPad*%
%ADD53O,3.600000X1.800000*%
%TD*%
%TA.AperFunction,SMDPad,CuDef*%
%ADD54R,1.300000X0.900000*%
%TD*%
%TA.AperFunction,SMDPad,CuDef*%
%ADD55R,0.900000X1.300000*%
%TD*%
%TA.AperFunction,SMDPad,CuDef*%
%ADD56RoundRect,0.147500X0.147500X0.172500X-0.147500X0.172500X-0.147500X-0.172500X0.147500X-0.172500X0*%
%TD*%
%TA.AperFunction,SMDPad,CuDef*%
%ADD57RoundRect,0.147500X-0.147500X-0.172500X0.147500X-0.172500X0.147500X0.172500X-0.147500X0.172500X0*%
%TD*%
%TA.AperFunction,SMDPad,CuDef*%
%ADD58R,1.600000X0.700000*%
%TD*%
%TA.AperFunction,SMDPad,CuDef*%
%ADD59RoundRect,0.250000X-0.250000X-0.475000X0.250000X-0.475000X0.250000X0.475000X-0.250000X0.475000X0*%
%TD*%
%TA.AperFunction,SMDPad,CuDef*%
%ADD60RoundRect,0.250000X2.500000X-0.250000X2.500000X0.250000X-2.500000X0.250000X-2.500000X-0.250000X0*%
%TD*%
%TA.AperFunction,SMDPad,CuDef*%
%ADD61RoundRect,0.250000X1.250000X-0.550000X1.250000X0.550000X-1.250000X0.550000X-1.250000X-0.550000X0*%
%TD*%
%TA.AperFunction,SMDPad,CuDef*%
%ADD62RoundRect,0.250000X-0.850000X0.375000X-0.850000X-0.375000X0.850000X-0.375000X0.850000X0.375000X0*%
%TD*%
%TA.AperFunction,SMDPad,CuDef*%
%ADD63R,0.800000X0.300000*%
%TD*%
%TA.AperFunction,SMDPad,CuDef*%
%ADD64R,0.300000X0.800000*%
%TD*%
%TA.AperFunction,SMDPad,CuDef*%
%ADD65R,3.600000X3.600000*%
%TD*%
%TA.AperFunction,SMDPad,CuDef*%
%ADD66RoundRect,0.150000X-0.150000X-0.625000X0.150000X-0.625000X0.150000X0.625000X-0.150000X0.625000X0*%
%TD*%
%TA.AperFunction,SMDPad,CuDef*%
%ADD67RoundRect,0.250000X-0.350000X-0.650000X0.350000X-0.650000X0.350000X0.650000X-0.350000X0.650000X0*%
%TD*%
%TA.AperFunction,SMDPad,CuDef*%
%ADD68RoundRect,0.218750X-0.381250X0.218750X-0.381250X-0.218750X0.381250X-0.218750X0.381250X0.218750X0*%
%TD*%
%TA.AperFunction,SMDPad,CuDef*%
%ADD69RoundRect,0.150000X-0.512500X-0.150000X0.512500X-0.150000X0.512500X0.150000X-0.512500X0.150000X0*%
%TD*%
%TA.AperFunction,ViaPad*%
%ADD70C,0.600000*%
%TD*%
%TA.AperFunction,ViaPad*%
%ADD71C,0.700000*%
%TD*%
%TA.AperFunction,Conductor*%
%ADD72C,0.250000*%
%TD*%
%TA.AperFunction,Conductor*%
%ADD73C,0.500000*%
%TD*%
%TA.AperFunction,Conductor*%
%ADD74C,0.300000*%
%TD*%
%TA.AperFunction,Conductor*%
%ADD75C,0.600000*%
%TD*%
%TA.AperFunction,Conductor*%
%ADD76C,0.200000*%
%TD*%
G04 APERTURE END LIST*
D10*
%TO.P,C9,1*%
%TO.N,VDD*%
X75815000Y-70585000D03*
%TO.P,C9,2*%
%TO.N,GND*%
X75815000Y-71545000D03*
%TD*%
D11*
%TO.P,Q5,1,G*%
%TO.N,VDD*%
X132270000Y-84505000D03*
%TO.P,Q5,2,S*%
%TO.N,SENSOR2_D1_NRF*%
X130370000Y-84505000D03*
%TO.P,Q5,3,D*%
%TO.N,Net-(Q5-D)*%
X131320000Y-86380000D03*
%TD*%
D12*
%TO.P,C2,1*%
%TO.N,VDD*%
X104420000Y-53500000D03*
%TO.P,C2,2*%
%TO.N,GND*%
X105380000Y-53500000D03*
%TD*%
D13*
%TO.P,D6,1,1*%
%TO.N,SENSOR2_D2*%
X124800000Y-92500000D03*
%TO.P,D6,2,2*%
%TO.N,GND*%
X127200000Y-92500000D03*
%TD*%
D12*
%TO.P,C3,1*%
%TO.N,VDD*%
X112320000Y-79300000D03*
%TO.P,C3,2*%
%TO.N,GND*%
X113280000Y-79300000D03*
%TD*%
%TO.P,C22,1*%
%TO.N,SENSOR1_VIN_NRF*%
X96200000Y-90700000D03*
%TO.P,C22,2*%
%TO.N,GND*%
X97160000Y-90700000D03*
%TD*%
D13*
%TO.P,D4,1,1*%
%TO.N,SENSOR1_D2*%
X84710000Y-92500000D03*
%TO.P,D4,2,2*%
%TO.N,GND*%
X87110000Y-92500000D03*
%TD*%
D14*
%TO.P,C19,1*%
%TO.N,LDO2_OUT*%
X74015000Y-60740000D03*
%TO.P,C19,2*%
%TO.N,GND*%
X74015000Y-59190000D03*
%TD*%
D15*
%TO.P,SW1,1,1*%
%TO.N,RESET*%
X66150000Y-96925000D03*
X70650000Y-96925000D03*
%TO.P,SW1,2,2*%
%TO.N,GND*%
X66150000Y-99075000D03*
X70650000Y-99075000D03*
%TD*%
D16*
%TO.P,C12,1*%
%TO.N,VSYS*%
X71415000Y-66890000D03*
%TO.P,C12,2*%
%TO.N,GND*%
X71415000Y-68440000D03*
%TD*%
D17*
%TO.P,R13,1*%
%TO.N,Net-(D7-A1)*%
X104190000Y-89112500D03*
%TO.P,R13,2*%
%TO.N,SENSOR1_IIN_NRF*%
X104190000Y-87287500D03*
%TD*%
D18*
%TO.P,J6,1,Pin_1*%
%TO.N,SENSOR2_PWR*%
X143450000Y-99500000D03*
D19*
%TO.P,J6,2,Pin_2*%
%TO.N,SENSOR2_IIN*%
X139640000Y-99500000D03*
%TO.P,J6,3,Pin_3*%
%TO.N,SENSOR2_VIN*%
X135830000Y-99500000D03*
%TO.P,J6,4,Pin_4*%
%TO.N,SENSOR2_D1*%
X132020000Y-99500000D03*
%TO.P,J6,5,Pin_5*%
%TO.N,SENSOR2_D2*%
X128210000Y-99500000D03*
%TO.P,J6,6,Pin_6*%
%TO.N,GND*%
X124400000Y-99500000D03*
%TD*%
D20*
%TO.P,R28,1*%
%TO.N,VBOOST1*%
X111555000Y-92500000D03*
%TO.P,R28,2*%
%TO.N,BOOST1_FB*%
X110535000Y-92500000D03*
%TD*%
D10*
%TO.P,C4,1*%
%TO.N,RESET*%
X72700000Y-96900000D03*
%TO.P,C4,2*%
%TO.N,GND*%
X72700000Y-97860000D03*
%TD*%
D13*
%TO.P,D5,1,1*%
%TO.N,SENSOR2_D1*%
X129500000Y-92500000D03*
%TO.P,D5,2,2*%
%TO.N,GND*%
X131900000Y-92500000D03*
%TD*%
D21*
%TO.P,Q11,1,G*%
%TO.N,VBOOST3*%
X134900000Y-56000000D03*
%TO.P,Q11,2,S*%
%TO.N,SENSOR3_PWR*%
X136800000Y-56000000D03*
%TO.P,Q11,3,D*%
%TO.N,V_BUCK1*%
X135850000Y-53725000D03*
%TD*%
D22*
%TO.P,L3,1,1*%
%TO.N,VSYS*%
X112865000Y-87250000D03*
%TO.P,L3,2,2*%
%TO.N,Net-(U3-SW)*%
X110715000Y-87250000D03*
%TD*%
D15*
%TO.P,D2,1,GND*%
%TO.N,GND*%
X86365000Y-69065000D03*
D23*
%TO.P,D2,2,I/O1*%
%TO.N,USB_D+*%
X88065000Y-69065000D03*
%TO.P,D2,3,I/O2*%
%TO.N,USB_D-*%
X88065000Y-67065000D03*
%TO.P,D2,4,VCC*%
%TO.N,VBUS*%
X86165000Y-67065000D03*
%TD*%
D11*
%TO.P,Q4,1,G*%
%TO.N,SENSOR1_PWR*%
X86850000Y-88462500D03*
%TO.P,Q4,2,S*%
%TO.N,SENSOR1_D2*%
X84950000Y-88462500D03*
%TO.P,Q4,3,D*%
%TO.N,Net-(Q3-D)*%
X85900000Y-90337500D03*
%TD*%
D24*
%TO.P,U3,1,SW*%
%TO.N,Net-(U3-SW)*%
X110590000Y-89350000D03*
%TO.P,U3,2,GND*%
%TO.N,GND*%
X110590000Y-90300000D03*
%TO.P,U3,3,FB*%
%TO.N,BOOST1_FB*%
X110590000Y-91250000D03*
%TO.P,U3,4,EN*%
%TO.N,BOOST1_EN*%
X113100000Y-91250000D03*
%TO.P,U3,5,VOUT*%
%TO.N,VBOOST1*%
X113100000Y-90300000D03*
%TO.P,U3,6,VIN*%
%TO.N,VSYS*%
X113100000Y-89350000D03*
%TD*%
D25*
%TO.P,D10,1,1*%
%TO.N,SENSOR2_VIN*%
X134600000Y-91957500D03*
%TO.P,D10,2,2*%
%TO.N,GND*%
X134600000Y-89557500D03*
%TD*%
D20*
%TO.P,R12,1*%
%TO.N,SENSOR2_PWR*%
X125810000Y-94200000D03*
%TO.P,R12,2*%
%TO.N,SENSOR2_D2*%
X124790000Y-94200000D03*
%TD*%
D26*
%TO.P,J10,1,-*%
%TO.N,GND*%
X73700000Y-54250000D03*
%TO.P,J10,2,NTC*%
%TO.N,NTC*%
X75700000Y-54250000D03*
%TO.P,J10,3,+*%
%TO.N,VBAT*%
X77700000Y-54250000D03*
D27*
%TO.P,J10,MP*%
%TO.N,N/C*%
X71300000Y-52000000D03*
X80100000Y-52000000D03*
%TD*%
D28*
%TO.P,C15,1*%
%TO.N,VDD*%
X68140000Y-69965000D03*
%TO.P,C15,2*%
%TO.N,GND*%
X69690000Y-69965000D03*
%TD*%
D29*
%TO.P,J9,1,Pin_1*%
%TO.N,VDD*%
X150300000Y-84820000D03*
D30*
%TO.P,J9,2,Pin_2*%
%TO.N,SENSOR2_D1_NRF*%
X150300000Y-87360000D03*
%TO.P,J9,3,Pin_3*%
%TO.N,SENSOR2_D2_NRF*%
X150300000Y-89900000D03*
%TO.P,J9,4,Pin_4*%
%TO.N,GND*%
X150300000Y-92440000D03*
%TD*%
D31*
%TO.P,R29,1*%
%TO.N,BOOST1_FB*%
X109200000Y-91360000D03*
%TO.P,R29,2*%
%TO.N,GND*%
X109200000Y-90340000D03*
%TD*%
D28*
%TO.P,C24,1*%
%TO.N,VSYS*%
X115515000Y-88850000D03*
%TO.P,C24,2*%
%TO.N,GND*%
X117065000Y-88850000D03*
%TD*%
D32*
%TO.P,D13,1,K*%
%TO.N,SENSOR2_PWR*%
X139622500Y-80626250D03*
%TO.P,D13,2,A*%
%TO.N,VBOOST2*%
X136322500Y-80626250D03*
%TD*%
D33*
%TO.P,D11,1,K*%
%TO.N,SENSOR1_PWR*%
X110000000Y-101150000D03*
%TO.P,D11,2,A*%
%TO.N,VBOOST1*%
X110000000Y-97850000D03*
%TD*%
D34*
%TO.P,C29,1*%
%TO.N,VBOOST3*%
X127850000Y-54305000D03*
%TO.P,C29,2*%
%TO.N,GND*%
X127850000Y-52405000D03*
%TD*%
D12*
%TO.P,C21,1*%
%TO.N,SENSOR2_IIN_NRF*%
X144625000Y-84307500D03*
%TO.P,C21,2*%
%TO.N,GND*%
X145585000Y-84307500D03*
%TD*%
D14*
%TO.P,C28,1*%
%TO.N,VSYS*%
X125850000Y-54330000D03*
%TO.P,C28,2*%
%TO.N,GND*%
X125850000Y-52780000D03*
%TD*%
D35*
%TO.P,C14,1*%
%TO.N,V_BUCK1*%
X72890000Y-62365000D03*
%TO.P,C14,2*%
%TO.N,GND*%
X71340000Y-62365000D03*
%TD*%
D20*
%TO.P,R8,1*%
%TO.N,SENSOR1_PWR*%
X85720000Y-94200000D03*
%TO.P,R8,2*%
%TO.N,SENSOR1_D2*%
X84700000Y-94200000D03*
%TD*%
D36*
%TO.P,J2,1,Pin_1*%
%TO.N,/NFC_OUT-*%
X71875000Y-84100000D03*
%TO.P,J2,2,Pin_2*%
%TO.N,/NFC_OUT+*%
X71875000Y-85300000D03*
D37*
%TO.P,J2,MP*%
%TO.N,N/C*%
X68100000Y-82950000D03*
X68100000Y-86450000D03*
%TD*%
D11*
%TO.P,Q1,1,G*%
%TO.N,VDD*%
X92050000Y-84562500D03*
%TO.P,Q1,2,S*%
%TO.N,SENSOR1_D1_NRF*%
X90150000Y-84562500D03*
%TO.P,Q1,3,D*%
%TO.N,Net-(Q1-D)*%
X91100000Y-86437500D03*
%TD*%
D38*
%TO.P,R20,1*%
%TO.N,SENSOR2_VIN_NRF*%
X136400000Y-89557500D03*
%TO.P,R20,2*%
%TO.N,GND*%
X137420000Y-89557500D03*
%TD*%
D39*
%TO.P,D7,1,A1*%
%TO.N,Net-(D7-A1)*%
X100790000Y-93000000D03*
%TO.P,D7,2,A2*%
%TO.N,GND*%
X100790000Y-89000000D03*
%TD*%
D40*
%TO.P,C5,1*%
%TO.N,/NFC_OUT-*%
X85803198Y-76115000D03*
%TO.P,C5,2*%
%TO.N,GND*%
X85803198Y-75155000D03*
%TD*%
D15*
%TO.P,SW2,1,1*%
%TO.N,BUT1*%
X66200000Y-78250000D03*
X70700000Y-78250000D03*
%TO.P,SW2,2,2*%
%TO.N,GND*%
X66200000Y-80400000D03*
X70700000Y-80400000D03*
%TD*%
D31*
%TO.P,R25,1*%
%TO.N,SENSOR3_PWR*%
X138150000Y-55997500D03*
%TO.P,R25,2*%
%TO.N,V_SENSOR3_READ*%
X138150000Y-54977500D03*
%TD*%
D41*
%TO.P,R30,1*%
%TO.N,VBOOST1*%
X114245000Y-93340000D03*
%TO.P,R30,2*%
%TO.N,Net-(Q12-D1)*%
X114245000Y-94360000D03*
%TD*%
D42*
%TO.P,Q13,1,S2*%
%TO.N,BOOST2_FB*%
X132717500Y-78917500D03*
%TO.P,Q13,2,G2*%
%TO.N,BOOST2_FB_CTRL2*%
X133367500Y-78917500D03*
%TO.P,Q13,3,D1*%
%TO.N,Net-(Q13-D1)*%
X134017500Y-78917500D03*
%TO.P,Q13,4,S1*%
%TO.N,BOOST2_FB*%
X134017500Y-76917500D03*
%TO.P,Q13,5,G1*%
%TO.N,BOOST2_FB_CTRL1*%
X133367500Y-76917500D03*
%TO.P,Q13,6,D2*%
%TO.N,Net-(Q13-D2)*%
X132717500Y-76917500D03*
%TD*%
D43*
%TO.P,D16,1,GND*%
%TO.N,GND*%
X138900000Y-60350000D03*
D44*
%TO.P,D16,2,I/O1*%
%TO.N,SENSOR3_D1_NRF*%
X138900000Y-62050000D03*
%TO.P,D16,3,I/O2*%
%TO.N,SENSOR3_D2_NRF*%
X140900000Y-62050000D03*
%TO.P,D16,4,VCC*%
%TO.N,SENSOR3_PWR*%
X140900000Y-60150000D03*
%TD*%
D20*
%TO.P,R34,1*%
%TO.N,BOOST2_FB*%
X130212500Y-78962500D03*
%TO.P,R34,2*%
%TO.N,GND*%
X129192500Y-78962500D03*
%TD*%
D29*
%TO.P,J8,1,Pin_1*%
%TO.N,VDD*%
X77700000Y-98280000D03*
D30*
%TO.P,J8,2,Pin_2*%
%TO.N,SENSOR1_D2_NRF*%
X77700000Y-100820000D03*
%TO.P,J8,3,Pin_3*%
%TO.N,SENSOR1_D1_NRF*%
X77700000Y-103360000D03*
%TO.P,J8,4,Pin_4*%
%TO.N,GND*%
X77700000Y-105900000D03*
%TD*%
D45*
%TO.P,J1,01,VTref*%
%TO.N,VDD*%
X73840000Y-89567500D03*
%TO.P,J1,02,SWDIO/TMS*%
%TO.N,SWDIO*%
X73840000Y-93632500D03*
%TO.P,J1,03,GND*%
%TO.N,GND*%
X72570000Y-89567500D03*
%TO.P,J1,04,SWDCLK/TCK*%
%TO.N,SWCLK*%
X72570000Y-93632500D03*
%TO.P,J1,05,GND*%
%TO.N,GND*%
X71300000Y-89567500D03*
%TO.P,J1,06,SWO/TDO*%
%TO.N,unconnected-(J1-SWO{slash}TDO-Pad06)*%
X71300000Y-93632500D03*
%TO.P,J1,07,KEY*%
%TO.N,unconnected-(J1-KEY-Pad07)*%
X70030000Y-89567500D03*
%TO.P,J1,08,NC/TDI*%
%TO.N,unconnected-(J1-NC{slash}TDI-Pad08)*%
X70030000Y-93632500D03*
%TO.P,J1,09,GNDDetect*%
%TO.N,GND*%
X68760000Y-89567500D03*
%TO.P,J1,10,nRESET*%
%TO.N,RESET*%
X68760000Y-93632500D03*
%TD*%
D31*
%TO.P,R19,1*%
%TO.N,SENSOR2_VIN*%
X136400000Y-92867500D03*
%TO.P,R19,2*%
%TO.N,SENSOR2_VIN_NRF*%
X136400000Y-91847500D03*
%TD*%
D46*
%TO.P,F2,1*%
%TO.N,SENSOR2_IIN*%
X144625000Y-91907500D03*
%TO.P,F2,2*%
%TO.N,Net-(D8-A1)*%
X144625000Y-89107500D03*
%TD*%
D31*
%TO.P,R9,1*%
%TO.N,VDD*%
X129020000Y-84952500D03*
%TO.P,R9,2*%
%TO.N,SENSOR2_D1_NRF*%
X129020000Y-83932500D03*
%TD*%
D14*
%TO.P,C16,1*%
%TO.N,LDO1_OUT*%
X78615000Y-60740000D03*
%TO.P,C16,2*%
%TO.N,GND*%
X78615000Y-59190000D03*
%TD*%
D31*
%TO.P,R17,1*%
%TO.N,SENSOR1_VIN*%
X96200000Y-92910000D03*
%TO.P,R17,2*%
%TO.N,SENSOR1_VIN_NRF*%
X96200000Y-91890000D03*
%TD*%
D13*
%TO.P,D3,1,1*%
%TO.N,SENSOR1_D1*%
X89310000Y-92500000D03*
%TO.P,D3,2,2*%
%TO.N,GND*%
X91710000Y-92500000D03*
%TD*%
D31*
%TO.P,R7,1*%
%TO.N,VDD*%
X83550000Y-85020000D03*
%TO.P,R7,2*%
%TO.N,SENSOR1_D2_NRF*%
X83550000Y-84000000D03*
%TD*%
D47*
%TO.P,U4,1,SW*%
%TO.N,Net-(U4-SW)*%
X128242500Y-77572500D03*
%TO.P,U4,2,GND*%
%TO.N,GND*%
X129192500Y-77572500D03*
%TO.P,U4,3,FB*%
%TO.N,BOOST2_FB*%
X130142500Y-77572500D03*
%TO.P,U4,4,EN*%
%TO.N,BOOST2_EN*%
X130142500Y-75062500D03*
%TO.P,U4,5,VOUT*%
%TO.N,VBOOST2*%
X129192500Y-75062500D03*
%TO.P,U4,6,VIN*%
%TO.N,VSYS*%
X128242500Y-75062500D03*
%TD*%
D38*
%TO.P,R18,1*%
%TO.N,SENSOR1_VIN_NRF*%
X96200000Y-89600000D03*
%TO.P,R18,2*%
%TO.N,GND*%
X97220000Y-89600000D03*
%TD*%
D48*
%TO.P,L2,1,1*%
%TO.N,VDD*%
X67590000Y-67665000D03*
%TO.P,L2,2,2*%
%TO.N,Net-(U2-SW2)*%
X69715000Y-67665000D03*
%TD*%
D28*
%TO.P,C1,1*%
%TO.N,VDD*%
X104425000Y-52000000D03*
%TO.P,C1,2*%
%TO.N,GND*%
X105975000Y-52000000D03*
%TD*%
D47*
%TO.P,U5,1,SW*%
%TO.N,Net-(U5-SW)*%
X126400000Y-59110000D03*
%TO.P,U5,2,GND*%
%TO.N,GND*%
X127350000Y-59110000D03*
%TO.P,U5,3,FB*%
%TO.N,BOOST3_FB*%
X128300000Y-59110000D03*
%TO.P,U5,4,EN*%
%TO.N,BOOST3_EN*%
X128300000Y-56600000D03*
%TO.P,U5,5,VOUT*%
%TO.N,VBOOST3*%
X127350000Y-56600000D03*
%TO.P,U5,6,VIN*%
%TO.N,VSYS*%
X126400000Y-56600000D03*
%TD*%
D49*
%TO.P,Q12,1,S2*%
%TO.N,BOOST1_FB*%
X109190000Y-93750000D03*
%TO.P,Q12,2,G2*%
%TO.N,BOOST1_FB_CTRL2*%
X109190000Y-94400000D03*
%TO.P,Q12,3,D1*%
%TO.N,Net-(Q12-D1)*%
X109190000Y-95050000D03*
%TO.P,Q12,4,S1*%
%TO.N,BOOST1_FB*%
X111190000Y-95050000D03*
%TO.P,Q12,5,G1*%
%TO.N,BOOST1_FB_CTRL1*%
X111190000Y-94400000D03*
%TO.P,Q12,6,D2*%
%TO.N,Net-(Q12-D2)*%
X111190000Y-93750000D03*
%TD*%
D32*
%TO.P,D15,1,K*%
%TO.N,SENSOR3_PWR*%
X136950000Y-58662500D03*
%TO.P,D15,2,A*%
%TO.N,VBOOST3*%
X133650000Y-58662500D03*
%TD*%
D34*
%TO.P,C27,1*%
%TO.N,VBOOST2*%
X129617500Y-72667500D03*
%TO.P,C27,2*%
%TO.N,GND*%
X129617500Y-70767500D03*
%TD*%
D38*
%TO.P,R21,1*%
%TO.N,SENSOR1_PWR*%
X113790000Y-102650000D03*
%TO.P,R21,2*%
%TO.N,V_SENSOR1_READ*%
X114810000Y-102650000D03*
%TD*%
D25*
%TO.P,D14,1,1*%
%TO.N,SENSOR2_PWR*%
X141772500Y-80626250D03*
%TO.P,D14,2,2*%
%TO.N,GND*%
X141772500Y-78226250D03*
%TD*%
D18*
%TO.P,J5,1,Pin_1*%
%TO.N,SENSOR1_PWR*%
X102610000Y-99500000D03*
D19*
%TO.P,J5,2,Pin_2*%
%TO.N,SENSOR1_IIN*%
X98800000Y-99500000D03*
%TO.P,J5,3,Pin_3*%
%TO.N,SENSOR1_VIN*%
X94990000Y-99500000D03*
%TO.P,J5,4,Pin_4*%
%TO.N,SENSOR1_D1*%
X91180000Y-99500000D03*
%TO.P,J5,5,Pin_5*%
%TO.N,SENSOR1_D2*%
X87370000Y-99500000D03*
%TO.P,J5,6,Pin_6*%
%TO.N,GND*%
X83560000Y-99500000D03*
%TD*%
D14*
%TO.P,C11,1*%
%TO.N,VSYS*%
X71415000Y-65440000D03*
%TO.P,C11,2*%
%TO.N,GND*%
X71415000Y-63890000D03*
%TD*%
D50*
%TO.P,J12,1,Pin_1*%
%TO.N,BUT1*%
X73575000Y-78200000D03*
%TO.P,J12,2,Pin_2*%
%TO.N,GND*%
X73575000Y-79200000D03*
D51*
%TO.P,J12,MP*%
%TO.N,N/C*%
X76100000Y-76900000D03*
X76100000Y-80500000D03*
%TD*%
D31*
%TO.P,R5,1*%
%TO.N,VDD*%
X88800000Y-85020000D03*
%TO.P,R5,2*%
%TO.N,SENSOR1_D1_NRF*%
X88800000Y-84000000D03*
%TD*%
D52*
%TO.P,J7,1,Pin_1*%
%TO.N,SENSOR3_PWR*%
X145475000Y-60190000D03*
D53*
%TO.P,J7,2,Pin_2*%
%TO.N,SENSOR3_D1_NRF*%
X145475000Y-64000000D03*
%TO.P,J7,3,Pin_3*%
%TO.N,SENSOR3_D2_NRF*%
X145475000Y-67810000D03*
%TO.P,J7,4,Pin_4*%
%TO.N,GND*%
X145475000Y-71620000D03*
%TD*%
D41*
%TO.P,R33,1*%
%TO.N,VBOOST2*%
X131417500Y-76552500D03*
%TO.P,R33,2*%
%TO.N,BOOST2_FB*%
X131417500Y-77572500D03*
%TD*%
%TO.P,R24,1*%
%TO.N,V_SENSOR2_READ*%
X142472500Y-75816250D03*
%TO.P,R24,2*%
%TO.N,GND*%
X142472500Y-76836250D03*
%TD*%
D54*
%TO.P,U1,1,VBUS*%
%TO.N,VBUS_NRF*%
X101094853Y-58300000D03*
%TO.P,U1,2,USB-*%
%TO.N,USB_D-*%
X101094853Y-59500000D03*
%TO.P,U1,3,USB+*%
%TO.N,USB_D+*%
X101094853Y-60700000D03*
%TO.P,U1,4,P0.13*%
%TO.N,BOOST3_EN*%
X101094853Y-61900000D03*
%TO.P,U1,5,P0.14*%
%TO.N,BOOST2_EN*%
X101094853Y-63100000D03*
%TO.P,U1,6,P0.15*%
%TO.N,BOOST2_FB_CTRL1*%
X101094853Y-64300000D03*
%TO.P,U1,7,P0.16*%
%TO.N,BOOST2_FB_CTRL2*%
X101094853Y-65500000D03*
%TO.P,U1,8,P0.17*%
%TO.N,BOOST1_EN*%
X101094853Y-66700000D03*
%TO.P,U1,9,P0.19*%
%TO.N,NPM_SCL*%
X101094853Y-67900000D03*
%TO.P,U1,10,P0.20*%
%TO.N,NPM_SDA*%
X101094853Y-69100000D03*
%TO.P,U1,11,P0.21*%
%TO.N,BUT1*%
X101094853Y-70300000D03*
%TO.P,U1,12,P0.10*%
%TO.N,NFC-*%
X101094853Y-71500000D03*
%TO.P,U1,13,P0.09*%
%TO.N,NFC+*%
X101094853Y-72700000D03*
D55*
%TO.P,U1,14,GND*%
%TO.N,GND*%
X103054853Y-77870000D03*
%TO.P,U1,15,RF_BT*%
%TO.N,unconnected-(U1-RF_BT-Pad15)*%
X104254853Y-77870000D03*
%TO.P,U1,16,GND*%
%TO.N,GND*%
X106654853Y-77870000D03*
%TO.P,U1,17,NRF_RESET*%
%TO.N,RESET*%
X107854853Y-77870000D03*
%TO.P,U1,18,SWDCLK*%
%TO.N,SWCLK*%
X109054853Y-77870000D03*
%TO.P,U1,19,SWDIO*%
%TO.N,SWDIO*%
X110254853Y-77870000D03*
%TO.P,U1,20,VBAT_SX*%
%TO.N,VDD*%
X111454853Y-77870000D03*
%TO.P,U1,21,VBAT_IO_SX*%
X112654853Y-77870000D03*
%TO.P,U1,22,GND*%
%TO.N,GND*%
X113854853Y-77870000D03*
D54*
%TO.P,U1,23,P0.24*%
%TO.N,BOOST1_FB_CTRL1*%
X115834853Y-75200000D03*
%TO.P,U1,24,P0.25*%
%TO.N,BOOST1_FB_CTRL2*%
X115834853Y-74000000D03*
%TO.P,U1,25,P1.01*%
%TO.N,SENSOR1_D1_NRF*%
X115834853Y-72800000D03*
%TO.P,U1,26,P1.02*%
%TO.N,SENSOR1_D2_NRF*%
X115834853Y-71600000D03*
%TO.P,U1,27,P1.03*%
%TO.N,SENSOR2_D2_NRF*%
X115834853Y-70400000D03*
%TO.P,U1,28,P1.04*%
%TO.N,SENSOR2_D1_NRF*%
X115834853Y-69200000D03*
%TO.P,U1,29,P0.03*%
%TO.N,SENSOR1_VIN_NRF*%
X115834853Y-68000000D03*
%TO.P,U1,30,P0.02*%
%TO.N,SENSOR1_IIN_NRF*%
X115834853Y-66800000D03*
%TO.P,U1,31,P0.28*%
%TO.N,SENSOR2_VIN_NRF*%
X115834853Y-65600000D03*
%TO.P,U1,32,P0.29*%
%TO.N,SENSOR2_IIN_NRF*%
X115834853Y-64400000D03*
%TO.P,U1,33,P0.30*%
%TO.N,SENSOR3_D2_NRF*%
X115834853Y-63200000D03*
%TO.P,U1,34,P0.26*%
%TO.N,SENSOR3_D1_NRF*%
X115834853Y-62000000D03*
%TO.P,U1,35,GND*%
%TO.N,GND*%
X115834853Y-60800000D03*
D55*
%TO.P,U1,36,GND*%
X113914853Y-55130000D03*
%TO.P,U1,37,RF_LoRa*%
%TO.N,unconnected-(U1-RF_LoRa-Pad37)*%
X112714853Y-55130000D03*
%TO.P,U1,38,GND*%
%TO.N,GND*%
X110314853Y-55130000D03*
%TO.P,U1,39,P0.31*%
%TO.N,V_SENSOR3_READ*%
X109114853Y-55130000D03*
%TO.P,U1,40,P0.05*%
%TO.N,V_SENSOR2_READ*%
X107914853Y-55130000D03*
%TO.P,U1,41,P0.04*%
%TO.N,V_SENSOR1_READ*%
X106714853Y-55130000D03*
%TO.P,U1,42,GND*%
%TO.N,GND*%
X105514853Y-55130000D03*
%TO.P,U1,43,VDD_NRF*%
%TO.N,VDD*%
X104314853Y-55130000D03*
%TO.P,U1,44,VBAT_NRF*%
X103114853Y-55130000D03*
%TD*%
D56*
%TO.P,R1,1*%
%TO.N,NFC-*%
X87888198Y-76115000D03*
%TO.P,R1,2*%
%TO.N,/NFC_OUT-*%
X86918198Y-76115000D03*
%TD*%
D50*
%TO.P,J11,1,Pin_1*%
%TO.N,RESET*%
X92375000Y-79700000D03*
%TO.P,J11,2,Pin_2*%
%TO.N,GND*%
X92375000Y-80700000D03*
D51*
%TO.P,J11,MP*%
%TO.N,N/C*%
X94900000Y-78400000D03*
X94900000Y-82000000D03*
%TD*%
D11*
%TO.P,Q7,1,G*%
%TO.N,VDD*%
X127170000Y-84505000D03*
%TO.P,Q7,2,S*%
%TO.N,SENSOR2_D2_NRF*%
X125270000Y-84505000D03*
%TO.P,Q7,3,D*%
%TO.N,Net-(Q7-D)*%
X126220000Y-86380000D03*
%TD*%
D57*
%TO.P,R14,1*%
%TO.N,SENSOR1_IIN_NRF*%
X104205000Y-84900000D03*
%TO.P,R14,2*%
%TO.N,GND*%
X105175000Y-84900000D03*
%TD*%
D14*
%TO.P,C18,1*%
%TO.N,LDO2_OUT*%
X75515000Y-60740000D03*
%TO.P,C18,2*%
%TO.N,GND*%
X75515000Y-59190000D03*
%TD*%
D12*
%TO.P,C23,1*%
%TO.N,SENSOR2_VIN_NRF*%
X136400000Y-90657500D03*
%TO.P,C23,2*%
%TO.N,GND*%
X137360000Y-90657500D03*
%TD*%
D41*
%TO.P,R26,1*%
%TO.N,V_SENSOR3_READ*%
X139500000Y-54977500D03*
%TO.P,R26,2*%
%TO.N,GND*%
X139500000Y-55997500D03*
%TD*%
D58*
%TO.P,D1,1,AR*%
%TO.N,VSYS*%
X86115000Y-61415000D03*
%TO.P,D1,2,KR*%
%TO.N,Net-(D1-KR)*%
X83115000Y-61415000D03*
%TO.P,D1,3,AG*%
%TO.N,VSYS*%
X86115000Y-60365000D03*
%TO.P,D1,4,KG*%
%TO.N,Net-(D1-KG)*%
X83115000Y-60365000D03*
%TO.P,D1,5,AB*%
%TO.N,VSYS*%
X86115000Y-59315000D03*
%TO.P,D1,6,KB*%
%TO.N,Net-(D1-KB)*%
X83115000Y-59315000D03*
%TD*%
D20*
%TO.P,R6,1*%
%TO.N,SENSOR1_PWR*%
X90320000Y-94200000D03*
%TO.P,R6,2*%
%TO.N,SENSOR1_D1*%
X89300000Y-94200000D03*
%TD*%
D12*
%TO.P,C8,1*%
%TO.N,VBAT*%
X80735000Y-69265000D03*
%TO.P,C8,2*%
%TO.N,GND*%
X81695000Y-69265000D03*
%TD*%
D39*
%TO.P,D8,1,A1*%
%TO.N,Net-(D8-A1)*%
X141225000Y-91307500D03*
%TO.P,D8,2,A2*%
%TO.N,GND*%
X141225000Y-87307500D03*
%TD*%
D38*
%TO.P,R27,1*%
%TO.N,BOOST1_EN*%
X113645000Y-92350000D03*
%TO.P,R27,2*%
%TO.N,GND*%
X114665000Y-92350000D03*
%TD*%
D56*
%TO.P,R2,1*%
%TO.N,NFC+*%
X87888198Y-77135000D03*
%TO.P,R2,2*%
%TO.N,/NFC_OUT+*%
X86918198Y-77135000D03*
%TD*%
D31*
%TO.P,R11,1*%
%TO.N,VDD*%
X123920000Y-84952500D03*
%TO.P,R11,2*%
%TO.N,SENSOR2_D2_NRF*%
X123920000Y-83932500D03*
%TD*%
D15*
%TO.P,SW3,1,1*%
%TO.N,GND*%
X70700000Y-75200000D03*
X66200000Y-75200000D03*
%TO.P,SW3,2,2*%
%TO.N,/SHPHLD*%
X70700000Y-73050000D03*
X66200000Y-73050000D03*
%TD*%
D57*
%TO.P,R16,1*%
%TO.N,SENSOR2_IIN_NRF*%
X144640000Y-83295000D03*
%TO.P,R16,2*%
%TO.N,GND*%
X145610000Y-83295000D03*
%TD*%
D17*
%TO.P,R15,1*%
%TO.N,Net-(D8-A1)*%
X144625000Y-87420000D03*
%TO.P,R15,2*%
%TO.N,SENSOR2_IIN_NRF*%
X144625000Y-85595000D03*
%TD*%
D59*
%TO.P,C25,1*%
%TO.N,VBOOST1*%
X115540000Y-90650000D03*
%TO.P,C25,2*%
%TO.N,GND*%
X117440000Y-90650000D03*
%TD*%
D11*
%TO.P,Q3,1,G*%
%TO.N,VDD*%
X86800000Y-84562500D03*
%TO.P,Q3,2,S*%
%TO.N,SENSOR1_D2_NRF*%
X84900000Y-84562500D03*
%TO.P,Q3,3,D*%
%TO.N,Net-(Q3-D)*%
X85850000Y-86437500D03*
%TD*%
D13*
%TO.P,D12,1,1*%
%TO.N,SENSOR1_PWR*%
X110000000Y-103300000D03*
%TO.P,D12,2,2*%
%TO.N,GND*%
X112400000Y-103300000D03*
%TD*%
D28*
%TO.P,C13,1*%
%TO.N,VSYS*%
X81040000Y-67165000D03*
%TO.P,C13,2*%
%TO.N,GND*%
X82590000Y-67165000D03*
%TD*%
D11*
%TO.P,Q8,1,G*%
%TO.N,SENSOR2_PWR*%
X127170000Y-88405000D03*
%TO.P,Q8,2,S*%
%TO.N,SENSOR2_D2*%
X125270000Y-88405000D03*
%TO.P,Q8,3,D*%
%TO.N,Net-(Q7-D)*%
X126220000Y-90280000D03*
%TD*%
D20*
%TO.P,R22,1*%
%TO.N,V_SENSOR1_READ*%
X114810000Y-104000000D03*
%TO.P,R22,2*%
%TO.N,GND*%
X113790000Y-104000000D03*
%TD*%
D60*
%TO.P,J4,1,Pin_1*%
%TO.N,GND*%
X94300000Y-67000000D03*
%TO.P,J4,2,Pin_2*%
%TO.N,USB_D+*%
X94300000Y-65000000D03*
%TO.P,J4,3,Pin_3*%
%TO.N,USB_D-*%
X94300000Y-63000000D03*
%TO.P,J4,4,Pin_4*%
%TO.N,CC2*%
X94300000Y-61000000D03*
%TO.P,J4,5,Pin_5*%
%TO.N,CC1*%
X94300000Y-59000000D03*
%TO.P,J4,6,Pin_6*%
%TO.N,VBUS*%
X94300000Y-57000000D03*
D61*
%TO.P,J4,MP*%
%TO.N,N/C*%
X92050000Y-69400000D03*
X92050000Y-54600000D03*
%TD*%
D31*
%TO.P,R23,1*%
%TO.N,SENSOR2_PWR*%
X141122500Y-76836250D03*
%TO.P,R23,2*%
%TO.N,V_SENSOR2_READ*%
X141122500Y-75816250D03*
%TD*%
D62*
%TO.P,L5,1,1*%
%TO.N,VSYS*%
X124250000Y-56835000D03*
%TO.P,L5,2,2*%
%TO.N,Net-(U5-SW)*%
X124250000Y-58985000D03*
%TD*%
D41*
%TO.P,R37,1*%
%TO.N,BOOST3_EN*%
X129700000Y-56590000D03*
%TO.P,R37,2*%
%TO.N,GND*%
X129700000Y-57610000D03*
%TD*%
D20*
%TO.P,R38,1*%
%TO.N,VBOOST3*%
X130810000Y-60600000D03*
%TO.P,R38,2*%
%TO.N,BOOST3_FB*%
X129790000Y-60600000D03*
%TD*%
D25*
%TO.P,D9,1,1*%
%TO.N,SENSOR1_VIN*%
X94400000Y-92000000D03*
%TO.P,D9,2,2*%
%TO.N,GND*%
X94400000Y-89600000D03*
%TD*%
D31*
%TO.P,R3,1*%
%TO.N,VDD*%
X73900000Y-97890000D03*
%TO.P,R3,2*%
%TO.N,RESET*%
X73900000Y-96870000D03*
%TD*%
D63*
%TO.P,U2,1,VOUT1*%
%TO.N,V_BUCK1*%
X73765000Y-64715000D03*
%TO.P,U2,2,PVSS1*%
%TO.N,GND*%
X73765000Y-65215000D03*
%TO.P,U2,3,SW1*%
%TO.N,Net-(U2-SW1)*%
X73765000Y-65715000D03*
%TO.P,U2,4,PVDD*%
%TO.N,VSYS*%
X73765000Y-66215000D03*
%TO.P,U2,5,SW2*%
%TO.N,Net-(U2-SW2)*%
X73765000Y-66715000D03*
%TO.P,U2,6,PVSS2*%
%TO.N,GND*%
X73765000Y-67215000D03*
%TO.P,U2,7,GPIO0*%
%TO.N,BUT1*%
X73765000Y-67715000D03*
%TO.P,U2,8,GPIO1*%
%TO.N,unconnected-(U2-GPIO1-Pad8)*%
X73765000Y-68215000D03*
D64*
%TO.P,U2,9,GPIO2*%
%TO.N,unconnected-(U2-GPIO2-Pad9)*%
X74465000Y-68915000D03*
%TO.P,U2,10,GPIO3*%
%TO.N,unconnected-(U2-GPIO3-Pad10)*%
X74965000Y-68915000D03*
%TO.P,U2,11,GPIO4*%
%TO.N,unconnected-(U2-GPIO4-Pad11)*%
X75465000Y-68915000D03*
%TO.P,U2,12,VDDIO*%
%TO.N,VDD*%
X75965000Y-68915000D03*
%TO.P,U2,13,SDA*%
%TO.N,NPM_SDA*%
X76465000Y-68915000D03*
%TO.P,U2,14,SCL*%
%TO.N,NPM_SCL*%
X76965000Y-68915000D03*
%TO.P,U2,15,SHPHLD*%
%TO.N,/SHPHLD*%
X77465000Y-68915000D03*
%TO.P,U2,16,VSET2*%
%TO.N,Net-(U2-VSET2)*%
X77965000Y-68915000D03*
D63*
%TO.P,U2,17,VSET1*%
%TO.N,GND*%
X78665000Y-68215000D03*
%TO.P,U2,18,NTC*%
%TO.N,NTC*%
X78665000Y-67715000D03*
%TO.P,U2,19,VBAT*%
%TO.N,VBAT*%
X78665000Y-67215000D03*
%TO.P,U2,20,VSYS*%
%TO.N,VSYS*%
X78665000Y-66715000D03*
%TO.P,U2,21,VBUS*%
%TO.N,VBUS*%
X78665000Y-66215000D03*
%TO.P,U2,22,VBUSOUT*%
%TO.N,VBUS_NRF*%
X78665000Y-65715000D03*
%TO.P,U2,23,CC1*%
%TO.N,CC1*%
X78665000Y-65215000D03*
%TO.P,U2,24,CC2*%
%TO.N,CC2*%
X78665000Y-64715000D03*
D64*
%TO.P,U2,25,LED0*%
%TO.N,Net-(D1-KR)*%
X77965000Y-64015000D03*
%TO.P,U2,26,LED1*%
%TO.N,Net-(D1-KG)*%
X77465000Y-64015000D03*
%TO.P,U2,27,LED2*%
%TO.N,Net-(D1-KB)*%
X76965000Y-64015000D03*
%TO.P,U2,28,LSIN1/VINLDO1*%
%TO.N,VSYS*%
X76465000Y-64015000D03*
%TO.P,U2,29,LSOUT1/VOUTLDO1*%
%TO.N,LDO1_OUT*%
X75965000Y-64015000D03*
%TO.P,U2,30,LSIN2/VINLDO2*%
%TO.N,VSYS*%
X75465000Y-64015000D03*
%TO.P,U2,31,LSOUT2/VOUTLDO2*%
%TO.N,LDO2_OUT*%
X74965000Y-64015000D03*
%TO.P,U2,32,VOUT2*%
%TO.N,VDD*%
X74465000Y-64015000D03*
D65*
%TO.P,U2,33,PAD*%
%TO.N,GND*%
X76215000Y-66465000D03*
%TD*%
D66*
%TO.P,J3,1,-*%
%TO.N,GND*%
X83815000Y-54655000D03*
%TO.P,J3,2,NTC*%
%TO.N,NTC*%
X84815000Y-54655000D03*
%TO.P,J3,3,+*%
%TO.N,VBAT*%
X85815000Y-54655000D03*
D67*
%TO.P,J3,MP*%
%TO.N,N/C*%
X82515000Y-52130000D03*
X87115000Y-52130000D03*
%TD*%
D46*
%TO.P,F1,1*%
%TO.N,SENSOR1_IIN*%
X104190000Y-93600000D03*
%TO.P,F1,2*%
%TO.N,Net-(D7-A1)*%
X104190000Y-90800000D03*
%TD*%
D11*
%TO.P,Q2,1,G*%
%TO.N,SENSOR1_PWR*%
X92100000Y-88462500D03*
%TO.P,Q2,2,S*%
%TO.N,SENSOR1_D1*%
X90200000Y-88462500D03*
%TO.P,Q2,3,D*%
%TO.N,Net-(Q1-D)*%
X91150000Y-90337500D03*
%TD*%
D20*
%TO.P,R10,1*%
%TO.N,SENSOR2_PWR*%
X130510000Y-94200000D03*
%TO.P,R10,2*%
%TO.N,SENSOR2_D1*%
X129490000Y-94200000D03*
%TD*%
D14*
%TO.P,C26,1*%
%TO.N,VSYS*%
X127792500Y-72747500D03*
%TO.P,C26,2*%
%TO.N,GND*%
X127792500Y-71197500D03*
%TD*%
D68*
%TO.P,L1,1,1*%
%TO.N,V_BUCK1*%
X69215000Y-62802500D03*
%TO.P,L1,2,2*%
%TO.N,Net-(U2-SW1)*%
X69215000Y-64927500D03*
%TD*%
D41*
%TO.P,R31,1*%
%TO.N,VBOOST1*%
X113190000Y-93340000D03*
%TO.P,R31,2*%
%TO.N,Net-(Q12-D2)*%
X113190000Y-94360000D03*
%TD*%
D31*
%TO.P,R32,1*%
%TO.N,BOOST2_EN*%
X131317500Y-74627500D03*
%TO.P,R32,2*%
%TO.N,GND*%
X131317500Y-73607500D03*
%TD*%
D14*
%TO.P,C17,1*%
%TO.N,LDO1_OUT*%
X77015000Y-60740000D03*
%TO.P,C17,2*%
%TO.N,GND*%
X77015000Y-59190000D03*
%TD*%
D12*
%TO.P,C7,1*%
%TO.N,VBUS*%
X80835000Y-65965000D03*
%TO.P,C7,2*%
%TO.N,GND*%
X81795000Y-65965000D03*
%TD*%
D38*
%TO.P,R36,1*%
%TO.N,VBOOST2*%
X132382500Y-74917500D03*
%TO.P,R36,2*%
%TO.N,Net-(Q13-D2)*%
X133402500Y-74917500D03*
%TD*%
D11*
%TO.P,Q6,1,G*%
%TO.N,SENSOR2_PWR*%
X132270000Y-88405000D03*
%TO.P,Q6,2,S*%
%TO.N,SENSOR2_D1*%
X130370000Y-88405000D03*
%TO.P,Q6,3,D*%
%TO.N,Net-(Q5-D)*%
X131320000Y-90280000D03*
%TD*%
D62*
%TO.P,L4,1,1*%
%TO.N,VSYS*%
X126092500Y-75342500D03*
%TO.P,L4,2,2*%
%TO.N,Net-(U4-SW)*%
X126092500Y-77492500D03*
%TD*%
D20*
%TO.P,R39,1*%
%TO.N,BOOST3_FB*%
X128310000Y-60600000D03*
%TO.P,R39,2*%
%TO.N,GND*%
X127290000Y-60600000D03*
%TD*%
D12*
%TO.P,C20,1*%
%TO.N,SENSOR1_IIN_NRF*%
X104210000Y-86000000D03*
%TO.P,C20,2*%
%TO.N,GND*%
X105170000Y-86000000D03*
%TD*%
D69*
%TO.P,Q9,1,G*%
%TO.N,VBOOST1*%
X112662500Y-99300000D03*
%TO.P,Q9,2,S*%
%TO.N,SENSOR1_PWR*%
X112662500Y-101200000D03*
%TO.P,Q9,3,D*%
%TO.N,LDO1_OUT*%
X114937500Y-100250000D03*
%TD*%
D41*
%TO.P,R4,1*%
%TO.N,Net-(U2-VSET2)*%
X78165000Y-70255000D03*
%TO.P,R4,2*%
%TO.N,GND*%
X78165000Y-71275000D03*
%TD*%
D21*
%TO.P,Q10,1,G*%
%TO.N,VBOOST2*%
X137672500Y-77963750D03*
%TO.P,Q10,2,S*%
%TO.N,SENSOR2_PWR*%
X139572500Y-77963750D03*
%TO.P,Q10,3,D*%
%TO.N,LDO2_OUT*%
X138622500Y-75688750D03*
%TD*%
D38*
%TO.P,R35,1*%
%TO.N,VBOOST2*%
X132382500Y-73817500D03*
%TO.P,R35,2*%
%TO.N,Net-(Q13-D1)*%
X133402500Y-73817500D03*
%TD*%
D10*
%TO.P,C6,1*%
%TO.N,/NFC_OUT+*%
X85803198Y-77135000D03*
%TO.P,C6,2*%
%TO.N,GND*%
X85803198Y-78095000D03*
%TD*%
D12*
%TO.P,C10,1*%
%TO.N,VBUS_NRF*%
X80835000Y-64365000D03*
%TO.P,C10,2*%
%TO.N,GND*%
X81795000Y-64365000D03*
%TD*%
D70*
%TO.N,VDD*%
X74215000Y-62565000D03*
X127200000Y-83300000D03*
X92000000Y-85700000D03*
X88800000Y-85610000D03*
X74700000Y-89600000D03*
X132300000Y-83300000D03*
X112300000Y-80000000D03*
X86800000Y-85700000D03*
X129000000Y-85600000D03*
X74600000Y-97900000D03*
X123900000Y-85600000D03*
X68015000Y-68765000D03*
X75115000Y-70665000D03*
X104425000Y-52800000D03*
X83500000Y-85700000D03*
%TO.N,GND*%
X72600000Y-87800000D03*
X76015000Y-66465000D03*
X86415000Y-68365000D03*
X85803198Y-74515000D03*
X105800000Y-86000000D03*
X125900000Y-51900000D03*
X75515000Y-58365000D03*
X128127500Y-92500000D03*
X127892500Y-70417500D03*
X129617500Y-69942500D03*
X97800000Y-89600000D03*
X92700000Y-92500000D03*
X82515000Y-69265000D03*
X114500000Y-91650000D03*
X72700000Y-54200000D03*
X105800000Y-84900000D03*
X74700000Y-79200000D03*
X70650000Y-79725000D03*
D71*
X128517500Y-79047500D03*
D70*
X91000000Y-67000000D03*
X76015000Y-67465000D03*
X68700000Y-87700000D03*
X77015000Y-67465000D03*
X109190000Y-89750000D03*
X146267500Y-84257500D03*
X75015000Y-67465000D03*
X78615000Y-58365000D03*
X105380000Y-52800000D03*
X88000000Y-92500000D03*
X112400000Y-103900000D03*
X138100000Y-90657500D03*
X72000000Y-97900000D03*
X73700000Y-51000000D03*
X70750000Y-75925000D03*
X83200000Y-54700000D03*
X113800000Y-104700000D03*
X130692500Y-73717500D03*
X66200000Y-99800000D03*
X143155000Y-76846250D03*
X76015000Y-65465000D03*
X95000000Y-89600000D03*
X82715000Y-65965000D03*
X142372500Y-78163750D03*
X113300000Y-80000000D03*
X127900000Y-51500000D03*
X70816650Y-69843672D03*
X77015000Y-58365000D03*
X77015000Y-66465000D03*
X100800000Y-87200000D03*
X113900000Y-53800000D03*
X118700000Y-90650000D03*
X85803198Y-78815000D03*
X130500000Y-57545000D03*
X138000000Y-89557500D03*
X141167500Y-85657500D03*
X72315000Y-63665000D03*
X82715000Y-64355000D03*
X106600000Y-79000000D03*
X103000000Y-78900000D03*
X118300000Y-88850000D03*
X126700000Y-60700000D03*
X134600000Y-88557500D03*
X140150000Y-56000000D03*
X117000000Y-60800000D03*
X97800000Y-90700000D03*
X93500000Y-80700000D03*
X110300000Y-53800000D03*
X132800000Y-92500000D03*
X74015000Y-58365000D03*
X77015000Y-65465000D03*
X70600000Y-99800000D03*
X71300000Y-87700000D03*
X79315000Y-70565000D03*
D71*
X75715000Y-72365000D03*
D70*
X75015000Y-66465000D03*
X66250000Y-75925000D03*
X66150000Y-79725000D03*
X138200000Y-60300000D03*
X75015000Y-65465000D03*
X146267500Y-83257500D03*
%TO.N,RESET*%
X68800000Y-91600000D03*
X75600000Y-90700000D03*
%TO.N,CC2*%
X88600000Y-65065000D03*
X86215000Y-62440000D03*
%TO.N,CC1*%
X87782500Y-62297500D03*
X91000000Y-59000000D03*
%TO.N,VBAT*%
X84300000Y-56300000D03*
X81715000Y-70265000D03*
X81015000Y-70165000D03*
%TO.N,VBUS_NRF*%
X87015000Y-63834669D03*
X90000000Y-60400000D03*
%TO.N,VSYS*%
X82215000Y-68265000D03*
X77415000Y-61965000D03*
X70815000Y-66165000D03*
X72015000Y-66165000D03*
X124400000Y-54900000D03*
X82915000Y-68265000D03*
X126392500Y-73300000D03*
X113875000Y-87325000D03*
X81515000Y-68265000D03*
X75715000Y-61865000D03*
D71*
X87615000Y-70565000D03*
D70*
X83015000Y-58265000D03*
X96800000Y-74400000D03*
X98400000Y-78600000D03*
%TO.N,BOOST1_FB_CTRL1*%
X117000000Y-75200000D03*
X112290000Y-94450000D03*
%TO.N,LDO2_OUT*%
X136400000Y-66200000D03*
X72015000Y-58630000D03*
X116250000Y-53750000D03*
X136400000Y-63200000D03*
%TO.N,LDO1_OUT*%
X97000000Y-75700000D03*
X98400000Y-57800000D03*
X113900000Y-100200000D03*
X97000000Y-78500000D03*
%TO.N,BOOST1_FB_CTRL2*%
X108100000Y-94400000D03*
X117000000Y-74000000D03*
%TO.N,/SHPHLD*%
X78100000Y-72100000D03*
X71750000Y-73025000D03*
%TO.N,BOOST2_FB_CTRL2*%
X99900000Y-65500000D03*
X133392500Y-79917500D03*
%TO.N,BOOST2_FB_CTRL1*%
X133392500Y-76017500D03*
X99900000Y-64300000D03*
%TO.N,BOOST1_EN*%
X113100000Y-91900000D03*
X99900000Y-76000000D03*
X99900000Y-78200000D03*
X99900000Y-66700000D03*
%TO.N,BOOST2_EN*%
X99900000Y-63100000D03*
X130792500Y-75062500D03*
%TO.N,V_SENSOR1_READ*%
X115200000Y-101900000D03*
X117800000Y-79300000D03*
%TO.N,V_SENSOR2_READ*%
X141755000Y-75846250D03*
X131800000Y-63200000D03*
%TO.N,V_BUCK1*%
X135100000Y-53600000D03*
X70500000Y-58100000D03*
%TO.N,SENSOR1_D1_NRF*%
X117000000Y-72800000D03*
X90100000Y-83400000D03*
%TO.N,SENSOR1_D2_NRF*%
X117000000Y-71600000D03*
X84900000Y-83400000D03*
%TO.N,SENSOR2_D1_NRF*%
X117000000Y-69200000D03*
X128400000Y-83500000D03*
%TO.N,SENSOR2_D2_NRF*%
X123300000Y-83500000D03*
X117000000Y-70400000D03*
%TO.N,SENSOR3_D2_NRF*%
X140900000Y-65400000D03*
X140900000Y-63500000D03*
%TO.N,BOOST3_EN*%
X128300000Y-57700000D03*
X99900000Y-61900000D03*
%TO.N,SENSOR1_PWR*%
X86900000Y-89600000D03*
X91600000Y-94200000D03*
X92100000Y-89700000D03*
X86600000Y-94200000D03*
%TO.N,SENSOR2_PWR*%
X131400000Y-94200000D03*
X132300000Y-89600000D03*
X127200000Y-89500000D03*
X126837500Y-94200000D03*
%TO.N,NTC*%
X84800000Y-53400000D03*
X76600000Y-54200000D03*
X84415000Y-71665000D03*
X78800000Y-53900000D03*
%TD*%
D72*
%TO.N,VBUS_NRF*%
X99400000Y-58300000D02*
X101094853Y-58300000D01*
X90000000Y-60400000D02*
X90400000Y-60000000D01*
X90400000Y-60000000D02*
X97700000Y-60000000D01*
X97700000Y-60000000D02*
X99400000Y-58300000D01*
D73*
%TO.N,VDD*%
X112320000Y-79300000D02*
X112320000Y-79980000D01*
X73840000Y-89567500D02*
X74667500Y-89567500D01*
X104425000Y-53495000D02*
X104420000Y-53500000D01*
D72*
X75815000Y-69965000D02*
X75815000Y-70585000D01*
D73*
X75735000Y-70665000D02*
X75815000Y-70585000D01*
X132270000Y-83330000D02*
X132300000Y-83300000D01*
X88800000Y-85610000D02*
X88800000Y-85020000D01*
X86800000Y-84562500D02*
X86800000Y-85700000D01*
X127170000Y-83330000D02*
X127200000Y-83300000D01*
X104420000Y-55024853D02*
X104314853Y-55130000D01*
X104420000Y-53500000D02*
X104420000Y-55024853D01*
X75115000Y-70665000D02*
X75735000Y-70665000D01*
X112320000Y-79980000D02*
X112300000Y-80000000D01*
X112100000Y-78500000D02*
X112100000Y-77870000D01*
X104314853Y-55130000D02*
X103114853Y-55130000D01*
X92012500Y-84600000D02*
X92050000Y-84562500D01*
X74667500Y-89567500D02*
X74700000Y-89600000D01*
X132270000Y-84505000D02*
X132270000Y-83330000D01*
X123900000Y-85600000D02*
X123900000Y-84972500D01*
X74590000Y-97890000D02*
X74600000Y-97900000D01*
X73900000Y-97890000D02*
X74590000Y-97890000D01*
D72*
X75965000Y-68915000D02*
X75965000Y-69715000D01*
D73*
X104425000Y-52000000D02*
X104425000Y-52800000D01*
X83500000Y-85070000D02*
X83550000Y-85020000D01*
X129000000Y-85600000D02*
X129000000Y-84972500D01*
X112320000Y-79300000D02*
X112320000Y-78720000D01*
X92012500Y-85687500D02*
X92012500Y-84600000D01*
X112100000Y-77870000D02*
X111454853Y-77870000D01*
X104425000Y-52800000D02*
X104425000Y-53495000D01*
D72*
X75815000Y-69865000D02*
X75815000Y-69965000D01*
D74*
X74465000Y-62815000D02*
X74465000Y-64015000D01*
D72*
X75965000Y-69715000D02*
X75815000Y-69865000D01*
D73*
X92000000Y-85700000D02*
X92012500Y-85687500D01*
X83500000Y-85700000D02*
X83500000Y-85070000D01*
X127170000Y-84505000D02*
X127170000Y-83330000D01*
X112320000Y-78720000D02*
X112100000Y-78500000D01*
X112654853Y-77870000D02*
X112100000Y-77870000D01*
X129000000Y-84972500D02*
X129020000Y-84952500D01*
D74*
X74215000Y-62565000D02*
X74465000Y-62815000D01*
D73*
X123900000Y-84972500D02*
X123920000Y-84952500D01*
%TO.N,GND*%
X82590000Y-67165000D02*
X82590000Y-66090000D01*
X81795000Y-64365000D02*
X82705000Y-64365000D01*
X125850000Y-52780000D02*
X125850000Y-51950000D01*
X129192500Y-77572500D02*
X129192500Y-78962500D01*
X134600000Y-89557500D02*
X134600000Y-88557500D01*
X78615000Y-59190000D02*
X78615000Y-58365000D01*
D75*
X83800000Y-54670000D02*
X83815000Y-54655000D01*
D73*
X75765000Y-72250000D02*
X75665000Y-72350000D01*
X66200000Y-79775000D02*
X66150000Y-79725000D01*
X141225000Y-85715000D02*
X141167500Y-85657500D01*
D74*
X79315000Y-70565000D02*
X78875000Y-70565000D01*
D73*
X117440000Y-90650000D02*
X118700000Y-90650000D01*
X70700000Y-75200000D02*
X70700000Y-75875000D01*
X70700000Y-79775000D02*
X70650000Y-79725000D01*
X113280000Y-79300000D02*
X113280000Y-79980000D01*
X71300000Y-89567500D02*
X71300000Y-87700000D01*
X141225000Y-87307500D02*
X141225000Y-85715000D01*
X139352500Y-56000000D02*
X139350000Y-55997500D01*
X97220000Y-89600000D02*
X97800000Y-89600000D01*
X105800000Y-86000000D02*
X105170000Y-86000000D01*
X113280000Y-79300000D02*
X113854853Y-78725147D01*
X146230000Y-83295000D02*
X146267500Y-83257500D01*
X114665000Y-91815000D02*
X114500000Y-91650000D01*
D75*
X83245000Y-54655000D02*
X83200000Y-54700000D01*
D73*
X113914853Y-53814853D02*
X113900000Y-53800000D01*
X86415000Y-68365000D02*
X86415000Y-69015000D01*
X92700000Y-92500000D02*
X91710000Y-92500000D01*
X142310000Y-78226250D02*
X142372500Y-78163750D01*
X75515000Y-59190000D02*
X75515000Y-58365000D01*
X109200000Y-90340000D02*
X110550000Y-90340000D01*
X132800000Y-92500000D02*
X131900000Y-92500000D01*
X106654853Y-78945147D02*
X106600000Y-79000000D01*
X138900000Y-60350000D02*
X138250000Y-60350000D01*
X68760000Y-89567500D02*
X68760000Y-87760000D01*
X127350000Y-59110000D02*
X127350000Y-60540000D01*
X100790000Y-87210000D02*
X100800000Y-87200000D01*
X70650000Y-99750000D02*
X70600000Y-99800000D01*
X127850000Y-51550000D02*
X127900000Y-51500000D01*
X127872500Y-71197500D02*
X127792500Y-71197500D01*
X66200000Y-75875000D02*
X66250000Y-75925000D01*
X72700000Y-97860000D02*
X72040000Y-97860000D01*
D75*
X73700000Y-54250000D02*
X72750000Y-54250000D01*
D73*
X85803198Y-78095000D02*
X85803198Y-78815000D01*
X127892500Y-71177500D02*
X127872500Y-71197500D01*
X113914853Y-55130000D02*
X113914853Y-53814853D01*
X128127500Y-92500000D02*
X127200000Y-92500000D01*
X92375000Y-80700000D02*
X93500000Y-80700000D01*
X128602500Y-78962500D02*
X128517500Y-79047500D01*
X137420000Y-89557500D02*
X138000000Y-89557500D01*
X146217500Y-84307500D02*
X146267500Y-84257500D01*
X110550000Y-90340000D02*
X110590000Y-90300000D01*
X105514853Y-53634853D02*
X105380000Y-53500000D01*
D75*
X73700000Y-54250000D02*
X73700000Y-51000000D01*
D73*
X103054853Y-78845147D02*
X103000000Y-78900000D01*
X70700000Y-80400000D02*
X70700000Y-79775000D01*
X81795000Y-65965000D02*
X82715000Y-65965000D01*
X113854853Y-78725147D02*
X113854853Y-77870000D01*
X109200000Y-89760000D02*
X109190000Y-89750000D01*
D74*
X79315000Y-70565000D02*
X79315000Y-70395366D01*
D73*
X70650000Y-99075000D02*
X70650000Y-99750000D01*
D74*
X78665000Y-69745366D02*
X78665000Y-68215000D01*
D73*
X117065000Y-88850000D02*
X118300000Y-88850000D01*
X72570000Y-89567500D02*
X72570000Y-87830000D01*
X70700000Y-75875000D02*
X70750000Y-75925000D01*
X94300000Y-67000000D02*
X91000000Y-67000000D01*
X105514853Y-55130000D02*
X105514853Y-53634853D01*
X103054853Y-77870000D02*
X103054853Y-78845147D01*
X88000000Y-92500000D02*
X87110000Y-92500000D01*
X125850000Y-51950000D02*
X125900000Y-51900000D01*
X138250000Y-60350000D02*
X138200000Y-60300000D01*
X75815000Y-71545000D02*
X75815000Y-72265000D01*
X145610000Y-83295000D02*
X146230000Y-83295000D01*
X143145000Y-76836250D02*
X143155000Y-76846250D01*
D72*
X70725000Y-75360000D02*
X70700000Y-75385000D01*
D73*
X68760000Y-87760000D02*
X68700000Y-87700000D01*
D75*
X72750000Y-54250000D02*
X72700000Y-54200000D01*
D73*
X74015000Y-59190000D02*
X74015000Y-58365000D01*
X106654853Y-77870000D02*
X106654853Y-78945147D01*
X127850000Y-52405000D02*
X127850000Y-51550000D01*
X129617500Y-70767500D02*
X129617500Y-69942500D01*
X66150000Y-99750000D02*
X66200000Y-99800000D01*
X85803198Y-75155000D02*
X85803198Y-74515000D01*
X140000000Y-56000000D02*
X139352500Y-56000000D01*
X105380000Y-53500000D02*
X105380000Y-52800000D01*
X113790000Y-104000000D02*
X113790000Y-104690000D01*
X129700000Y-57610000D02*
X130435000Y-57610000D01*
X126800000Y-60600000D02*
X127290000Y-60600000D01*
X109200000Y-90340000D02*
X109200000Y-89760000D01*
X105380000Y-52595000D02*
X105975000Y-52000000D01*
X113280000Y-79980000D02*
X113300000Y-80000000D01*
X145585000Y-84307500D02*
X146217500Y-84307500D01*
X86415000Y-69015000D02*
X86365000Y-69065000D01*
X141772500Y-78226250D02*
X142310000Y-78226250D01*
X115834853Y-60800000D02*
X117000000Y-60800000D01*
X105175000Y-84900000D02*
X105800000Y-84900000D01*
X114665000Y-92350000D02*
X114665000Y-91815000D01*
D74*
X79315000Y-70395366D02*
X78665000Y-69745366D01*
X78875000Y-70565000D02*
X78165000Y-71275000D01*
D73*
X66150000Y-99075000D02*
X66150000Y-99750000D01*
X112400000Y-103300000D02*
X112400000Y-103900000D01*
X77015000Y-59190000D02*
X77015000Y-58365000D01*
X66200000Y-75200000D02*
X66200000Y-75875000D01*
X131317500Y-73607500D02*
X130802500Y-73607500D01*
X127892500Y-70417500D02*
X127892500Y-71177500D01*
X105380000Y-52800000D02*
X105380000Y-52595000D01*
X72040000Y-97860000D02*
X72000000Y-97900000D01*
X142472500Y-76836250D02*
X143145000Y-76836250D01*
X82590000Y-66090000D02*
X82715000Y-65965000D01*
X100790000Y-89000000D02*
X100790000Y-87210000D01*
X130802500Y-73607500D02*
X130692500Y-73717500D01*
X94400000Y-89600000D02*
X95000000Y-89600000D01*
X130435000Y-57610000D02*
X130500000Y-57545000D01*
X129192500Y-78962500D02*
X128602500Y-78962500D01*
X66200000Y-80400000D02*
X66200000Y-79775000D01*
X72570000Y-87830000D02*
X72600000Y-87800000D01*
D75*
X83815000Y-54655000D02*
X83245000Y-54655000D01*
D73*
X110314853Y-55130000D02*
X110314853Y-53814853D01*
X82515000Y-69265000D02*
X81695000Y-69265000D01*
X127350000Y-60540000D02*
X127290000Y-60600000D01*
X137360000Y-90657500D02*
X138100000Y-90657500D01*
X113790000Y-104690000D02*
X113800000Y-104700000D01*
X82705000Y-64365000D02*
X82715000Y-64355000D01*
X126700000Y-60700000D02*
X126800000Y-60600000D01*
X97160000Y-90700000D02*
X97800000Y-90700000D01*
X110314853Y-53814853D02*
X110300000Y-53800000D01*
X73575000Y-79200000D02*
X74700000Y-79200000D01*
D74*
%TO.N,RESET*%
X68800000Y-96925000D02*
X70650000Y-96925000D01*
D72*
X107854853Y-79045147D02*
X107200000Y-79700000D01*
D74*
X68760000Y-94660000D02*
X68800000Y-94700000D01*
X72675000Y-96925000D02*
X72700000Y-96900000D01*
X66150000Y-96925000D02*
X70650000Y-96925000D01*
D72*
X83100000Y-79700000D02*
X75600000Y-87200000D01*
D74*
X70650000Y-96925000D02*
X72675000Y-96925000D01*
X68800000Y-94700000D02*
X68800000Y-96925000D01*
X73900000Y-96870000D02*
X72730000Y-96870000D01*
D72*
X68800000Y-91600000D02*
X68800000Y-93592500D01*
X75600000Y-87200000D02*
X75600000Y-90700000D01*
D74*
X72730000Y-96790000D02*
X72700000Y-96820000D01*
D72*
X107200000Y-79700000D02*
X83100000Y-79700000D01*
X68800000Y-93592500D02*
X68760000Y-93632500D01*
X107854853Y-77870000D02*
X107854853Y-79045147D01*
D74*
X68760000Y-93632500D02*
X68760000Y-94660000D01*
D72*
%TO.N,BUT1*%
X82400000Y-73700000D02*
X77850000Y-78250000D01*
X101094853Y-70300000D02*
X97400000Y-70300000D01*
X73765000Y-67715000D02*
X73240000Y-67715000D01*
X95100000Y-72600000D02*
X92100000Y-72600000D01*
X72915000Y-68040000D02*
X72915000Y-78190000D01*
X92100000Y-72600000D02*
X91000000Y-73700000D01*
X82600000Y-73700000D02*
X82400000Y-73700000D01*
X73240000Y-67715000D02*
X72915000Y-68040000D01*
X77850000Y-78250000D02*
X70700000Y-78250000D01*
D74*
X66200000Y-78250000D02*
X70700000Y-78250000D01*
D72*
X97400000Y-70300000D02*
X95100000Y-72600000D01*
X91000000Y-73700000D02*
X82600000Y-73700000D01*
D73*
%TO.N,VBUS*%
X80835000Y-65745000D02*
X81415000Y-65165000D01*
X91200000Y-57000000D02*
X94300000Y-57000000D01*
X86415000Y-65165000D02*
X87080000Y-65165000D01*
X80835000Y-65965000D02*
X80835000Y-65745000D01*
X86415000Y-65165000D02*
X86165000Y-65415000D01*
X88800000Y-63445000D02*
X88800000Y-59400000D01*
X88800000Y-59400000D02*
X91200000Y-57000000D01*
X86165000Y-65415000D02*
X86165000Y-67065000D01*
X87080000Y-65165000D02*
X88800000Y-63445000D01*
X81415000Y-65165000D02*
X86415000Y-65165000D01*
D72*
%TO.N,USB_D-*%
X90600000Y-64200000D02*
X90600000Y-63700000D01*
X97200000Y-63000000D02*
X94300000Y-63000000D01*
X90600000Y-63700000D02*
X91300000Y-63000000D01*
X88065000Y-67065000D02*
X88065000Y-66735000D01*
X88065000Y-66735000D02*
X90600000Y-64200000D01*
X97800000Y-62400000D02*
X97200000Y-63000000D01*
X101094853Y-59500000D02*
X99700000Y-59500000D01*
X99700000Y-59500000D02*
X97800000Y-61400000D01*
X91300000Y-63000000D02*
X94300000Y-63000000D01*
X97800000Y-61400000D02*
X97800000Y-62400000D01*
%TO.N,USB_D+*%
X88065000Y-69065000D02*
X88065000Y-68735000D01*
X98400000Y-61800000D02*
X98400000Y-63700000D01*
X101094853Y-60700000D02*
X99500000Y-60700000D01*
X91100000Y-65000000D02*
X94300000Y-65000000D01*
X90100000Y-66000000D02*
X91100000Y-65000000D01*
X88065000Y-68735000D02*
X90100000Y-66700000D01*
X99500000Y-60700000D02*
X98400000Y-61800000D01*
X97100000Y-65000000D02*
X94300000Y-65000000D01*
X98400000Y-63700000D02*
X97100000Y-65000000D01*
X90100000Y-66700000D02*
X90100000Y-66000000D01*
%TO.N,SWCLK*%
X82600000Y-81500000D02*
X92237810Y-81500000D01*
X92237810Y-81500000D02*
X93837810Y-83100000D01*
X99000000Y-80400000D02*
X107877289Y-80400000D01*
X72570000Y-92130000D02*
X73000000Y-91700000D01*
X72570000Y-93632500D02*
X72570000Y-92130000D01*
X75900000Y-91700000D02*
X76700000Y-90900000D01*
X76700000Y-87400000D02*
X82600000Y-81500000D01*
X93837810Y-83100000D02*
X96300000Y-83100000D01*
X96300000Y-83100000D02*
X99000000Y-80400000D01*
X107877289Y-80400000D02*
X109054853Y-79222436D01*
X76700000Y-90900000D02*
X76700000Y-87400000D01*
X73000000Y-91700000D02*
X75900000Y-91700000D01*
X109054853Y-79222436D02*
X109054853Y-77870000D01*
%TO.N,SWDIO*%
X91894290Y-82500000D02*
X82800000Y-82500000D01*
X110254853Y-77870000D02*
X110254853Y-79445147D01*
X77800000Y-87500000D02*
X77800000Y-91100000D01*
X82800000Y-82500000D02*
X77800000Y-87500000D01*
X108500000Y-81200000D02*
X99600000Y-81200000D01*
X99600000Y-81200000D02*
X96800000Y-84000000D01*
X75267500Y-93632500D02*
X73840000Y-93632500D01*
X93394290Y-84000000D02*
X91894290Y-82500000D01*
X110254853Y-79445147D02*
X108500000Y-81200000D01*
X77800000Y-91100000D02*
X75267500Y-93632500D01*
X96800000Y-84000000D02*
X93394290Y-84000000D01*
%TO.N,CC2*%
X90000000Y-63600000D02*
X90000000Y-62000000D01*
X88600000Y-65065000D02*
X88600000Y-65000000D01*
X86215000Y-62440000D02*
X86140000Y-62365000D01*
X91000000Y-61000000D02*
X94300000Y-61000000D01*
X86140000Y-62365000D02*
X80815000Y-62365000D01*
X78665000Y-64515000D02*
X78665000Y-64715000D01*
X90000000Y-62000000D02*
X91000000Y-61000000D01*
X80815000Y-62365000D02*
X78665000Y-64515000D01*
X88600000Y-65000000D02*
X90000000Y-63600000D01*
%TO.N,CC1*%
X87015000Y-63065000D02*
X80815000Y-63065000D01*
X87782500Y-62297500D02*
X87015000Y-63065000D01*
X80815000Y-63065000D02*
X79615000Y-64265000D01*
X79615000Y-64785000D02*
X79185000Y-65215000D01*
X79615000Y-64265000D02*
X79615000Y-64785000D01*
X79185000Y-65215000D02*
X78665000Y-65215000D01*
X91000000Y-59000000D02*
X94300000Y-59000000D01*
D75*
%TO.N,VBAT*%
X85400000Y-56300000D02*
X85815000Y-55885000D01*
X77700000Y-56300000D02*
X77700000Y-54250000D01*
X84300000Y-56300000D02*
X77700000Y-56300000D01*
X85815000Y-55885000D02*
X85815000Y-54655000D01*
X84300000Y-56300000D02*
X85400000Y-56300000D01*
D72*
%TO.N,VBUS_NRF*%
X86110331Y-63730000D02*
X81150000Y-63730000D01*
X80835000Y-64045000D02*
X80835000Y-64365000D01*
X86215000Y-63834669D02*
X86110331Y-63730000D01*
X81150000Y-63730000D02*
X80835000Y-64045000D01*
X87015000Y-63834669D02*
X86215000Y-63834669D01*
D73*
%TO.N,VBOOST1*%
X115540000Y-90650000D02*
X115540000Y-97160000D01*
D74*
X112350000Y-92500000D02*
X113190000Y-93340000D01*
D73*
X115540000Y-97160000D02*
X113400000Y-99300000D01*
D74*
X111555000Y-92500000D02*
X112350000Y-92500000D01*
D73*
X113400000Y-99300000D02*
X112662500Y-99300000D01*
X110000000Y-97850000D02*
X110000000Y-98700000D01*
X110600000Y-99300000D02*
X112662500Y-99300000D01*
X110000000Y-98700000D02*
X110600000Y-99300000D01*
X115190000Y-90300000D02*
X115540000Y-90650000D01*
D74*
X114245000Y-93340000D02*
X115540000Y-93340000D01*
D73*
X113100000Y-90300000D02*
X115190000Y-90300000D01*
D74*
X113190000Y-93340000D02*
X114245000Y-93340000D01*
%TO.N,VSYS*%
X83015000Y-58265000D02*
X85915000Y-58265000D01*
X86115000Y-58465000D02*
X86115000Y-59315000D01*
D73*
X98300000Y-75800000D02*
X98300000Y-78500000D01*
X98300000Y-78500000D02*
X98400000Y-78600000D01*
X96900000Y-74400000D02*
X98300000Y-75800000D01*
X87615000Y-70565000D02*
X85515000Y-70565000D01*
X85515000Y-70565000D02*
X83215000Y-68265000D01*
X86115000Y-61415000D02*
X86115000Y-60365000D01*
D74*
X76465000Y-63193248D02*
X76465000Y-64015000D01*
D73*
X96800000Y-74400000D02*
X96900000Y-74400000D01*
D74*
X75715000Y-61865000D02*
X75465000Y-62115000D01*
D73*
X83215000Y-68265000D02*
X82915000Y-68265000D01*
D74*
X77415000Y-62243248D02*
X76465000Y-63193248D01*
D73*
X86115000Y-60365000D02*
X86115000Y-59315000D01*
D74*
X85915000Y-58265000D02*
X86115000Y-58465000D01*
X75465000Y-62115000D02*
X75465000Y-64015000D01*
X77415000Y-61965000D02*
X77415000Y-62243248D01*
D72*
%TO.N,Net-(U2-SW1)*%
X73065000Y-65715000D02*
X72015000Y-64665000D01*
X69477500Y-64665000D02*
X69215000Y-64927500D01*
X73765000Y-65715000D02*
X73065000Y-65715000D01*
X72015000Y-64665000D02*
X69477500Y-64665000D01*
D74*
%TO.N,BOOST1_FB_CTRL1*%
X112240000Y-94400000D02*
X112290000Y-94450000D01*
D72*
X115834853Y-75200000D02*
X117000000Y-75200000D01*
D74*
X111190000Y-94400000D02*
X112240000Y-94400000D01*
D72*
%TO.N,Net-(U2-SW2)*%
X73765000Y-66715000D02*
X72940000Y-66715000D01*
X71990000Y-67665000D02*
X69715000Y-67665000D01*
X72940000Y-66715000D02*
X71990000Y-67665000D01*
D73*
%TO.N,VBOOST2*%
X137672500Y-79276250D02*
X136322500Y-80626250D01*
D74*
X131417500Y-76552500D02*
X131417500Y-75882500D01*
D73*
X137672500Y-77963750D02*
X137672500Y-75872500D01*
D74*
X132382500Y-73817500D02*
X132400000Y-73800000D01*
D73*
X134467500Y-72667500D02*
X134200000Y-72667500D01*
X129617500Y-72667500D02*
X134200000Y-72667500D01*
X137672500Y-75872500D02*
X134467500Y-72667500D01*
D74*
X132400000Y-73800000D02*
X132400000Y-72667500D01*
X131417500Y-75882500D02*
X132382500Y-74917500D01*
X132382500Y-74917500D02*
X132382500Y-73817500D01*
D73*
X137672500Y-77963750D02*
X137672500Y-79276250D01*
X129192500Y-75062500D02*
X129192500Y-73092500D01*
X129192500Y-73092500D02*
X129617500Y-72667500D01*
%TO.N,LDO2_OUT*%
X136400000Y-68700000D02*
X136400000Y-66200000D01*
X135200000Y-62000000D02*
X136400000Y-63200000D01*
X72015000Y-58630000D02*
X72015000Y-59565000D01*
X116250000Y-53750000D02*
X116250000Y-56350000D01*
X73190000Y-60740000D02*
X74015000Y-60740000D01*
X138622500Y-75688750D02*
X138622500Y-70922500D01*
X138622500Y-70922500D02*
X136400000Y-68700000D01*
X116250000Y-56350000D02*
X121900000Y-62000000D01*
X72015000Y-59565000D02*
X73190000Y-60740000D01*
X121900000Y-62000000D02*
X135200000Y-62000000D01*
%TO.N,LDO1_OUT*%
X89300000Y-55395000D02*
X89300000Y-53600000D01*
X113900000Y-100200000D02*
X114887500Y-100200000D01*
X94500000Y-52700000D02*
X98400000Y-56600000D01*
X82125000Y-57230000D02*
X87465000Y-57230000D01*
X97000000Y-75700000D02*
X97000000Y-78500000D01*
X114887500Y-100200000D02*
X114937500Y-100250000D01*
X89300000Y-53600000D02*
X90200000Y-52700000D01*
X90200000Y-52700000D02*
X94500000Y-52700000D01*
X98400000Y-56600000D02*
X98400000Y-57800000D01*
X87465000Y-57230000D02*
X89300000Y-55395000D01*
X78615000Y-60740000D02*
X82125000Y-57230000D01*
D72*
%TO.N,BOOST1_FB_CTRL2*%
X108100000Y-94400000D02*
X109190000Y-94400000D01*
X115834853Y-74000000D02*
X117000000Y-74000000D01*
%TO.N,SENSOR1_IIN_NRF*%
X115834853Y-66800000D02*
X117900000Y-66800000D01*
X119400000Y-68300000D02*
X119400000Y-81000000D01*
D74*
X104205000Y-84900000D02*
X104205000Y-85995000D01*
D72*
X104205000Y-84195000D02*
X104205000Y-84900000D01*
X104500000Y-83900000D02*
X104205000Y-84195000D01*
D74*
X104210000Y-87267500D02*
X104190000Y-87287500D01*
D72*
X116500000Y-83900000D02*
X104500000Y-83900000D01*
D74*
X104210000Y-86000000D02*
X104210000Y-87267500D01*
D72*
X117900000Y-66800000D02*
X119400000Y-68300000D01*
X119400000Y-81000000D02*
X116500000Y-83900000D01*
D74*
X104205000Y-85995000D02*
X104210000Y-86000000D01*
%TO.N,BOOST1_FB*%
X109995000Y-93750000D02*
X109190000Y-93750000D01*
X110535000Y-92500000D02*
X110535000Y-91305000D01*
X110190000Y-94850000D02*
X110190000Y-93945000D01*
X110480000Y-91360000D02*
X110590000Y-91250000D01*
X110390000Y-95050000D02*
X110190000Y-94850000D01*
X109190000Y-93750000D02*
X109190000Y-92950000D01*
X109200000Y-91360000D02*
X110480000Y-91360000D01*
X109640000Y-92500000D02*
X110535000Y-92500000D01*
X109190000Y-92950000D02*
X109640000Y-92500000D01*
X110190000Y-93945000D02*
X109995000Y-93750000D01*
X110535000Y-91305000D02*
X110590000Y-91250000D01*
X111190000Y-95050000D02*
X110390000Y-95050000D01*
D72*
%TO.N,SENSOR2_IIN_NRF*%
X135595000Y-83295000D02*
X144640000Y-83295000D01*
D74*
X144640000Y-83295000D02*
X144640000Y-84292500D01*
D72*
X115834853Y-64400000D02*
X118500000Y-64400000D01*
X122100000Y-78500000D02*
X124600000Y-81000000D01*
X122100000Y-68000000D02*
X122100000Y-78500000D01*
X133300000Y-81000000D02*
X135595000Y-83295000D01*
D74*
X144625000Y-84307500D02*
X144625000Y-85595000D01*
D72*
X118500000Y-64400000D02*
X122100000Y-68000000D01*
D74*
X144640000Y-84292500D02*
X144625000Y-84307500D01*
D72*
X124600000Y-81000000D02*
X133300000Y-81000000D01*
%TO.N,Net-(U2-VSET2)*%
X77965000Y-70055000D02*
X78165000Y-70255000D01*
X77965000Y-68915000D02*
X77965000Y-70055000D01*
%TO.N,/SHPHLD*%
X78100000Y-72100000D02*
X77850000Y-72100000D01*
X77465000Y-71715000D02*
X77465000Y-68915000D01*
D74*
X66200000Y-73050000D02*
X70700000Y-73050000D01*
D72*
X71750000Y-73025000D02*
X70725000Y-73025000D01*
X77850000Y-72100000D02*
X77465000Y-71715000D01*
%TO.N,NPM_SDA*%
X77400000Y-74100000D02*
X76465000Y-73165000D01*
X101094853Y-69100000D02*
X97600000Y-69100000D01*
X91800000Y-71800000D02*
X90500000Y-73100000D01*
X80300000Y-74100000D02*
X77400000Y-74100000D01*
X76465000Y-73165000D02*
X76465000Y-68915000D01*
X81300000Y-73100000D02*
X80300000Y-74100000D01*
X90500000Y-73100000D02*
X81300000Y-73100000D01*
X97600000Y-69100000D02*
X94900000Y-71800000D01*
X94900000Y-71800000D02*
X91800000Y-71800000D01*
%TO.N,NPM_SCL*%
X76965000Y-72035000D02*
X76965000Y-68915000D01*
X101094853Y-67900000D02*
X97800000Y-67900000D01*
X89800000Y-72400000D02*
X80300000Y-72400000D01*
X91050000Y-71150000D02*
X90000000Y-72200000D01*
X78130000Y-73200000D02*
X76965000Y-72035000D01*
X79500000Y-73200000D02*
X78130000Y-73200000D01*
X97800000Y-67900000D02*
X94550000Y-71150000D01*
X90000000Y-72200000D02*
X89800000Y-72400000D01*
X94550000Y-71150000D02*
X91050000Y-71150000D01*
X80300000Y-72400000D02*
X79500000Y-73200000D01*
D74*
%TO.N,BOOST2_FB*%
X133792500Y-77917500D02*
X134017500Y-77692500D01*
X134017500Y-77692500D02*
X134017500Y-76917500D01*
X132717500Y-78917500D02*
X132717500Y-78142500D01*
X132292500Y-78917500D02*
X131417500Y-78042500D01*
X130212500Y-77642500D02*
X130142500Y-77572500D01*
X132717500Y-78142500D02*
X132942500Y-77917500D01*
X131417500Y-77572500D02*
X130142500Y-77572500D01*
X132717500Y-78917500D02*
X132292500Y-78917500D01*
X130212500Y-78962500D02*
X130212500Y-77642500D01*
X132942500Y-77917500D02*
X133792500Y-77917500D01*
X131417500Y-78042500D02*
X131417500Y-77572500D01*
D72*
%TO.N,BOOST2_FB_CTRL2*%
X133392500Y-79917500D02*
X133392500Y-78942500D01*
X101094853Y-65500000D02*
X99900000Y-65500000D01*
X133392500Y-78942500D02*
X133367500Y-78917500D01*
%TO.N,BOOST2_FB_CTRL1*%
X101094853Y-64300000D02*
X99900000Y-64300000D01*
X133392500Y-76892500D02*
X133367500Y-76917500D01*
X133392500Y-76017500D02*
X133392500Y-76892500D01*
D74*
%TO.N,Net-(Q12-D1)*%
X114245000Y-95295000D02*
X114245000Y-94360000D01*
X109990000Y-95850000D02*
X113690000Y-95850000D01*
X113690000Y-95850000D02*
X114245000Y-95295000D01*
X109190000Y-95050000D02*
X109990000Y-95850000D01*
%TO.N,Net-(Q12-D2)*%
X112580000Y-93750000D02*
X113190000Y-94360000D01*
X111190000Y-93750000D02*
X112580000Y-93750000D01*
D72*
%TO.N,BOOST1_EN*%
X113100000Y-91250000D02*
X113100000Y-91900000D01*
X113100000Y-91900000D02*
X113100000Y-92060000D01*
X99900000Y-76000000D02*
X99900000Y-78200000D01*
X101094853Y-66700000D02*
X99900000Y-66700000D01*
X113645000Y-92350000D02*
X113390000Y-92350000D01*
X113100000Y-92060000D02*
X113390000Y-92350000D01*
%TO.N,BOOST2_EN*%
X131107500Y-74747500D02*
X131317500Y-74747500D01*
X130792500Y-75062500D02*
X131107500Y-74747500D01*
X101094853Y-63100000D02*
X99900000Y-63100000D01*
X130142500Y-75062500D02*
X130792500Y-75062500D01*
%TO.N,SENSOR1_VIN_NRF*%
X96200000Y-89600000D02*
X96200000Y-90700000D01*
X99700000Y-82700000D02*
X96200000Y-86200000D01*
X115900000Y-82700000D02*
X99700000Y-82700000D01*
X117700000Y-68000000D02*
X118600000Y-68900000D01*
X118600000Y-68900000D02*
X118600000Y-80000000D01*
X96200000Y-90700000D02*
X96200000Y-91890000D01*
X118600000Y-80000000D02*
X115900000Y-82700000D01*
X96200000Y-86200000D02*
X96200000Y-89600000D01*
X115834853Y-68000000D02*
X117700000Y-68000000D01*
%TO.N,SENSOR2_VIN_NRF*%
X132600000Y-81900000D02*
X136400000Y-85700000D01*
X120600000Y-79200000D02*
X123300000Y-81900000D01*
X123300000Y-81900000D02*
X132600000Y-81900000D01*
X115834853Y-65600000D02*
X118000000Y-65600000D01*
X136400000Y-90657500D02*
X136400000Y-91847500D01*
X120600000Y-68200000D02*
X120600000Y-79200000D01*
X136400000Y-89557500D02*
X136400000Y-90657500D01*
X136400000Y-85700000D02*
X136400000Y-89557500D01*
X118000000Y-65600000D02*
X120600000Y-68200000D01*
%TO.N,V_SENSOR1_READ*%
X117700000Y-79300000D02*
X117800000Y-79300000D01*
X114810000Y-102650000D02*
X114810000Y-104000000D01*
X115200000Y-102260000D02*
X114810000Y-102650000D01*
X115200000Y-101900000D02*
X115200000Y-102260000D01*
X106714853Y-68314853D02*
X115700000Y-77300000D01*
X106714853Y-55130000D02*
X106714853Y-68314853D01*
X115700000Y-77300000D02*
X117700000Y-79300000D01*
%TO.N,V_SENSOR2_READ*%
X141152500Y-75846250D02*
X141122500Y-75816250D01*
X141755000Y-75846250D02*
X142442500Y-75846250D01*
X107914853Y-56030000D02*
X110484853Y-58600000D01*
X120950000Y-63150000D02*
X131750000Y-63150000D01*
X131750000Y-63150000D02*
X131800000Y-63200000D01*
X141755000Y-75846250D02*
X141152500Y-75846250D01*
X116400000Y-58600000D02*
X120950000Y-63150000D01*
X142442500Y-75846250D02*
X142472500Y-75816250D01*
X107914853Y-55130000D02*
X107914853Y-56030000D01*
X110484853Y-58600000D02*
X116400000Y-58600000D01*
D74*
%TO.N,SENSOR1_D1*%
X89310000Y-92500000D02*
X89310000Y-92490000D01*
X89300000Y-94200000D02*
X89300000Y-92510000D01*
X89300000Y-95700000D02*
X91180000Y-97580000D01*
X89310000Y-92490000D02*
X90200000Y-91600000D01*
X89300000Y-92510000D02*
X89310000Y-92500000D01*
X91180000Y-97580000D02*
X91180000Y-99500000D01*
X89300000Y-94200000D02*
X89300000Y-95700000D01*
X90200000Y-91600000D02*
X90200000Y-88462500D01*
%TO.N,SENSOR1_D2*%
X84950000Y-92070000D02*
X84950000Y-88462500D01*
X84710000Y-92500000D02*
X84710000Y-94190000D01*
X84700000Y-95400000D02*
X87370000Y-98070000D01*
X84710000Y-92310000D02*
X84950000Y-92070000D01*
X84710000Y-92500000D02*
X84710000Y-92310000D01*
X84700000Y-94200000D02*
X84700000Y-95400000D01*
X84710000Y-94190000D02*
X84700000Y-94200000D01*
X87370000Y-98070000D02*
X87370000Y-99500000D01*
%TO.N,SENSOR2_D1*%
X129500000Y-92800000D02*
X130370000Y-91930000D01*
X129490000Y-94200000D02*
X129490000Y-94990000D01*
X132020000Y-97520000D02*
X132020000Y-99500000D01*
X129500000Y-94190000D02*
X129490000Y-94200000D01*
X129500000Y-92800000D02*
X129500000Y-94190000D01*
X129490000Y-94990000D02*
X132020000Y-97520000D01*
X130370000Y-91930000D02*
X130370000Y-88405000D01*
X129500000Y-92500000D02*
X129500000Y-92800000D01*
D72*
%TO.N,SENSOR2_D2*%
X125270000Y-88405000D02*
X125270000Y-92030000D01*
D74*
X124790000Y-94690000D02*
X128210000Y-98110000D01*
D72*
X125270000Y-92030000D02*
X124800000Y-92500000D01*
D74*
X124800000Y-92500000D02*
X124800000Y-94190000D01*
X128210000Y-98110000D02*
X128210000Y-99500000D01*
X124800000Y-94190000D02*
X124790000Y-94200000D01*
X124790000Y-94200000D02*
X124790000Y-94690000D01*
%TO.N,SENSOR1_VIN*%
X96200000Y-92910000D02*
X96200000Y-95200000D01*
X94990000Y-96410000D02*
X94990000Y-99500000D01*
X96200000Y-92910000D02*
X95310000Y-92910000D01*
X95310000Y-92910000D02*
X94400000Y-92000000D01*
X96200000Y-95200000D02*
X94990000Y-96410000D01*
%TO.N,SENSOR2_VIN*%
X136400000Y-92867500D02*
X136400000Y-96360000D01*
X134600000Y-91957500D02*
X135510000Y-92867500D01*
X135830000Y-96930000D02*
X135830000Y-99500000D01*
X136400000Y-96360000D02*
X135830000Y-96930000D01*
X135510000Y-92867500D02*
X136400000Y-92867500D01*
D72*
%TO.N,SENSOR1_IIN*%
X100100000Y-96300000D02*
X102900000Y-96300000D01*
X98800000Y-97600000D02*
X100100000Y-96300000D01*
X98800000Y-99500000D02*
X98800000Y-97600000D01*
X104190000Y-95010000D02*
X104190000Y-93600000D01*
X102900000Y-96300000D02*
X104190000Y-95010000D01*
%TO.N,SENSOR2_IIN*%
X144625000Y-92675000D02*
X144625000Y-91907500D01*
X139640000Y-99500000D02*
X139640000Y-97660000D01*
X139640000Y-97660000D02*
X144625000Y-92675000D01*
%TO.N,Net-(Q3-D)*%
X85900000Y-90337500D02*
X85850000Y-90287500D01*
X85850000Y-90287500D02*
X85850000Y-86437500D01*
%TO.N,Net-(Q7-D)*%
X126220000Y-90280000D02*
X126220000Y-86380000D01*
D74*
%TO.N,Net-(Q13-D1)*%
X134017500Y-78917500D02*
X134992500Y-77942500D01*
X134992500Y-77942500D02*
X134992500Y-74792500D01*
X134992500Y-74792500D02*
X134017500Y-73817500D01*
X134017500Y-73817500D02*
X133402500Y-73817500D01*
%TO.N,Net-(Q13-D2)*%
X132717500Y-75602500D02*
X133402500Y-74917500D01*
X132717500Y-76917500D02*
X132717500Y-75602500D01*
D73*
%TO.N,V_BUCK1*%
X135100000Y-53600000D02*
X135225000Y-53725000D01*
X135225000Y-53725000D02*
X135850000Y-53725000D01*
X69215000Y-59385000D02*
X69215000Y-62802500D01*
X70500000Y-58100000D02*
X69215000Y-59385000D01*
D74*
X73765000Y-63440000D02*
X72890000Y-62565000D01*
X73765000Y-64715000D02*
X73765000Y-63440000D01*
D72*
%TO.N,SENSOR1_D1_NRF*%
X88800000Y-84000000D02*
X89587500Y-84000000D01*
X90100000Y-83400000D02*
X90100000Y-84512500D01*
X115834853Y-72800000D02*
X117000000Y-72800000D01*
X90100000Y-84512500D02*
X90150000Y-84562500D01*
X89587500Y-84000000D02*
X90150000Y-84562500D01*
%TO.N,Net-(Q1-D)*%
X91100000Y-90287500D02*
X91150000Y-90337500D01*
X91100000Y-86437500D02*
X91100000Y-90287500D01*
%TO.N,SENSOR1_D2_NRF*%
X84900000Y-83400000D02*
X84900000Y-84562500D01*
X84337500Y-84000000D02*
X84900000Y-84562500D01*
X115834853Y-71600000D02*
X117000000Y-71600000D01*
X83550000Y-84000000D02*
X84337500Y-84000000D01*
%TO.N,Net-(D1-KG)*%
X79265000Y-62415000D02*
X81315000Y-60365000D01*
X77465000Y-63505000D02*
X78555000Y-62415000D01*
X78555000Y-62415000D02*
X79265000Y-62415000D01*
X77465000Y-64015000D02*
X77465000Y-63505000D01*
X81315000Y-60365000D02*
X83115000Y-60365000D01*
%TO.N,Net-(D1-KR)*%
X79465000Y-63015000D02*
X81065000Y-61415000D01*
X78965000Y-63015000D02*
X79465000Y-63015000D01*
X81065000Y-61415000D02*
X83115000Y-61415000D01*
X77965000Y-64015000D02*
X78965000Y-63015000D01*
%TO.N,SENSOR2_D1_NRF*%
X128400000Y-83500000D02*
X128587500Y-83500000D01*
X128587500Y-83500000D02*
X129020000Y-83932500D01*
X129020000Y-83932500D02*
X129797500Y-83932500D01*
X115834853Y-69200000D02*
X117000000Y-69200000D01*
X129797500Y-83932500D02*
X130370000Y-84505000D01*
%TO.N,SENSOR2_D2_NRF*%
X123920000Y-83932500D02*
X124697500Y-83932500D01*
X123700000Y-83900000D02*
X123887500Y-83900000D01*
X123887500Y-83900000D02*
X123920000Y-83932500D01*
X115834853Y-70400000D02*
X117000000Y-70400000D01*
X124697500Y-83932500D02*
X125270000Y-84505000D01*
X123300000Y-83500000D02*
X123700000Y-83900000D01*
%TO.N,Net-(Q5-D)*%
X131320000Y-86380000D02*
X131320000Y-90280000D01*
D76*
%TO.N,NFC+*%
X92368198Y-76850000D02*
X88653199Y-76850000D01*
X100119852Y-72700000D02*
X99744852Y-72325000D01*
X88368199Y-77135000D02*
X87888198Y-77135000D01*
X88653199Y-76850000D02*
X88368199Y-77135000D01*
X96893198Y-72325000D02*
X92368198Y-76850000D01*
X101094853Y-72700000D02*
X100119852Y-72700000D01*
X99744852Y-72325000D02*
X96893198Y-72325000D01*
%TO.N,NFC-*%
X96706802Y-71875000D02*
X92181802Y-76400000D01*
X88368199Y-76115000D02*
X87888198Y-76115000D01*
X92181802Y-76400000D02*
X88653199Y-76400000D01*
X101094853Y-71500000D02*
X100119852Y-71500000D01*
X99744852Y-71875000D02*
X96706802Y-71875000D01*
X88653199Y-76400000D02*
X88368199Y-76115000D01*
X100119852Y-71500000D02*
X99744852Y-71875000D01*
D73*
%TO.N,VBOOST3*%
X127850000Y-54950000D02*
X127850000Y-54305000D01*
X133650000Y-58662500D02*
X132462500Y-58662500D01*
X132400000Y-56000000D02*
X134900000Y-56000000D01*
X132400000Y-58600000D02*
X132400000Y-56000000D01*
X130810000Y-60600000D02*
X131200000Y-60600000D01*
X132462500Y-58662500D02*
X132400000Y-58600000D01*
X127350000Y-56600000D02*
X127350000Y-55450000D01*
X131200000Y-60600000D02*
X132400000Y-59400000D01*
X132400000Y-59400000D02*
X132400000Y-58600000D01*
X127850000Y-54305000D02*
X130705000Y-54305000D01*
X130705000Y-54305000D02*
X132400000Y-56000000D01*
X127350000Y-55450000D02*
X127850000Y-54950000D01*
D72*
%TO.N,Net-(D1-KB)*%
X76965000Y-63365000D02*
X78465000Y-61865000D01*
X79015000Y-61865000D02*
X81565000Y-59315000D01*
X78465000Y-61865000D02*
X79015000Y-61865000D01*
X76965000Y-64015000D02*
X76965000Y-63365000D01*
X81565000Y-59315000D02*
X83115000Y-59315000D01*
%TO.N,SENSOR3_D1_NRF*%
X143900000Y-64200000D02*
X144095000Y-64005000D01*
X115834853Y-62000000D02*
X118000000Y-62000000D01*
X144095000Y-64005000D02*
X144710000Y-64005000D01*
X120200000Y-64200000D02*
X138900000Y-64200000D01*
X118000000Y-62000000D02*
X120200000Y-64200000D01*
X140500000Y-64200000D02*
X143900000Y-64200000D01*
X143510000Y-64000000D02*
X146900000Y-64000000D01*
X138900000Y-62050000D02*
X138900000Y-64200000D01*
X138900000Y-64200000D02*
X140500000Y-64200000D01*
%TO.N,SENSOR3_D2_NRF*%
X120400000Y-65400000D02*
X142400000Y-65400000D01*
X140900000Y-63500000D02*
X140900000Y-62050000D01*
X144815000Y-67815000D02*
X142400000Y-65400000D01*
X118200000Y-63200000D02*
X120400000Y-65400000D01*
X115834853Y-63200000D02*
X118200000Y-63200000D01*
X146900000Y-67810000D02*
X143615000Y-67810000D01*
%TO.N,BOOST3_EN*%
X128300000Y-56600000D02*
X129690000Y-56600000D01*
X129690000Y-56600000D02*
X129700000Y-56590000D01*
X101094853Y-61900000D02*
X99900000Y-61900000D01*
X128300000Y-57700000D02*
X128300000Y-56600000D01*
%TO.N,BOOST3_FB*%
X128310000Y-60600000D02*
X129790000Y-60600000D01*
X128310000Y-59120000D02*
X128300000Y-59110000D01*
X128310000Y-60600000D02*
X128310000Y-59120000D01*
D73*
%TO.N,SENSOR3_PWR*%
X136950000Y-58662500D02*
X139862500Y-58662500D01*
X138147500Y-56000000D02*
X138150000Y-55997500D01*
X136950000Y-56150000D02*
X136800000Y-56000000D01*
X139862500Y-58662500D02*
X140900000Y-59700000D01*
X136800000Y-56000000D02*
X138147500Y-56000000D01*
X136950000Y-58662500D02*
X136950000Y-56150000D01*
X140900000Y-59700000D02*
X140900000Y-60150000D01*
X141147500Y-60190000D02*
X146900000Y-60190000D01*
D74*
%TO.N,SENSOR1_PWR*%
X113790000Y-102327500D02*
X112662500Y-101200000D01*
D73*
X86900000Y-89600000D02*
X86850000Y-89550000D01*
X86600000Y-94200000D02*
X85720000Y-94200000D01*
X105850000Y-101150000D02*
X104200000Y-99500000D01*
X86850000Y-89550000D02*
X86850000Y-88462500D01*
X110000000Y-101150000D02*
X110000000Y-103300000D01*
X110050000Y-101200000D02*
X110000000Y-101150000D01*
X112662500Y-101200000D02*
X110050000Y-101200000D01*
X92100000Y-89700000D02*
X92100000Y-88462500D01*
X104200000Y-99500000D02*
X102610000Y-99500000D01*
D74*
X113790000Y-102650000D02*
X113790000Y-102327500D01*
D73*
X110000000Y-101150000D02*
X105850000Y-101150000D01*
X91600000Y-94200000D02*
X90320000Y-94200000D01*
%TO.N,SENSOR2_PWR*%
X147700000Y-92300000D02*
X143450000Y-96550000D01*
X141772500Y-80626250D02*
X146526250Y-80626250D01*
X127200000Y-89500000D02*
X127200000Y-88435000D01*
X147700000Y-81800000D02*
X147700000Y-92300000D01*
X143450000Y-96550000D02*
X143450000Y-99500000D01*
X139622500Y-80626250D02*
X141772500Y-80626250D01*
X139572500Y-80576250D02*
X139622500Y-80626250D01*
X146950000Y-81050000D02*
X147700000Y-81800000D01*
D74*
X141122500Y-76836250D02*
X140700000Y-76836250D01*
D73*
X132300000Y-88435000D02*
X132270000Y-88405000D01*
X132300000Y-89600000D02*
X132300000Y-88435000D01*
X131400000Y-94200000D02*
X130510000Y-94200000D01*
X126837500Y-94200000D02*
X125810000Y-94200000D01*
X146526250Y-80626250D02*
X146950000Y-81050000D01*
X139572500Y-77963750D02*
X139572500Y-80576250D01*
D74*
X140700000Y-76836250D02*
X139572500Y-77963750D01*
D73*
X127200000Y-88435000D02*
X127170000Y-88405000D01*
D72*
%TO.N,V_SENSOR3_READ*%
X109114853Y-55130000D02*
X109114853Y-53800000D01*
X138822500Y-54977500D02*
X139500000Y-54977500D01*
X138822500Y-52722500D02*
X138822500Y-54977500D01*
X138150000Y-54977500D02*
X138822500Y-54977500D01*
X109114853Y-53800000D02*
X112114853Y-50800000D01*
X112114853Y-50800000D02*
X136900000Y-50800000D01*
X136900000Y-50800000D02*
X138822500Y-52722500D01*
D76*
%TO.N,/NFC_OUT-*%
X72887501Y-84475000D02*
X72512501Y-84100000D01*
X85338197Y-76115000D02*
X85053197Y-76400000D01*
X74706802Y-84475000D02*
X72887501Y-84475000D01*
X82781802Y-76400000D02*
X74706802Y-84475000D01*
X72512501Y-84100000D02*
X71875000Y-84100000D01*
X85803198Y-76115000D02*
X86918198Y-76115000D01*
X85803198Y-76115000D02*
X85338197Y-76115000D01*
X85053197Y-76400000D02*
X82781802Y-76400000D01*
%TO.N,/NFC_OUT+*%
X82968198Y-76850000D02*
X74893198Y-84925000D01*
X85053197Y-76850000D02*
X82968198Y-76850000D01*
X85338197Y-77135000D02*
X85053197Y-76850000D01*
X74893198Y-84925000D02*
X72887501Y-84925000D01*
X85803198Y-77135000D02*
X85338197Y-77135000D01*
X72512501Y-85300000D02*
X71875000Y-85300000D01*
X85803198Y-77135000D02*
X86918198Y-77135000D01*
X72887501Y-84925000D02*
X72512501Y-85300000D01*
D74*
%TO.N,Net-(D7-A1)*%
X100790000Y-93000000D02*
X101500000Y-93000000D01*
X101500000Y-93000000D02*
X103700000Y-90800000D01*
X103700000Y-90800000D02*
X104190000Y-90800000D01*
X104190000Y-89112500D02*
X104190000Y-90800000D01*
%TO.N,Net-(D8-A1)*%
X144625000Y-87420000D02*
X144625000Y-89107500D01*
X143617500Y-89107500D02*
X144625000Y-89107500D01*
X141417500Y-91307500D02*
X143617500Y-89107500D01*
X141225000Y-91307500D02*
X141417500Y-91307500D01*
D72*
%TO.N,NTC*%
X79415000Y-67915000D02*
X79215000Y-67715000D01*
X75750000Y-54200000D02*
X75700000Y-54250000D01*
X84415000Y-71665000D02*
X81515000Y-71665000D01*
X76600000Y-54200000D02*
X75750000Y-54200000D01*
X84800000Y-54640000D02*
X84815000Y-54655000D01*
X79415000Y-69565000D02*
X79415000Y-67915000D01*
X79215000Y-67715000D02*
X78665000Y-67715000D01*
X84800000Y-53400000D02*
X83200000Y-53400000D01*
X82700000Y-53900000D02*
X78800000Y-53900000D01*
X84800000Y-53400000D02*
X84800000Y-54640000D01*
X81515000Y-71665000D02*
X79415000Y-69565000D01*
X83200000Y-53400000D02*
X82700000Y-53900000D01*
%TD*%
%TA.AperFunction,Conductor*%
%TO.N,VBAT*%
G36*
X79730677Y-67084685D02*
G01*
X79751319Y-67101319D01*
X80602717Y-67952717D01*
X80623432Y-67980178D01*
X81107062Y-68850712D01*
X81118964Y-68880858D01*
X81210798Y-69248193D01*
X81214500Y-69277969D01*
X81214500Y-69278190D01*
X81214501Y-69474900D01*
X81214981Y-69478550D01*
X81215000Y-69486272D01*
X81214991Y-69486302D01*
X81215000Y-69486570D01*
X81215000Y-69765000D01*
X81906381Y-69851422D01*
X81970460Y-69879269D01*
X82009313Y-69937341D01*
X82015000Y-69974464D01*
X82015000Y-70441000D01*
X81995315Y-70508039D01*
X81942511Y-70553794D01*
X81891000Y-70565000D01*
X80926689Y-70565000D01*
X80859650Y-70545315D01*
X80839008Y-70528681D01*
X80552511Y-70242184D01*
X80519894Y-70184576D01*
X80515000Y-70165002D01*
X80515000Y-70164999D01*
X79749087Y-68215402D01*
X79747781Y-68208510D01*
X79745523Y-68204996D01*
X79740500Y-68170061D01*
X79740500Y-67967855D01*
X79740501Y-67967842D01*
X79740501Y-67872148D01*
X79727792Y-67824719D01*
X79718318Y-67789361D01*
X79696891Y-67752250D01*
X79675465Y-67715138D01*
X79614862Y-67654535D01*
X79614860Y-67654533D01*
X79491302Y-67530975D01*
X79463572Y-67488639D01*
X79415000Y-67365000D01*
X79414999Y-67365000D01*
X79095916Y-67365000D01*
X79090839Y-67363509D01*
X79090839Y-67364500D01*
X78439000Y-67364500D01*
X78371961Y-67344815D01*
X78326206Y-67292011D01*
X78315000Y-67240500D01*
X78315000Y-67189500D01*
X78334685Y-67122461D01*
X78387489Y-67076706D01*
X78439000Y-67065500D01*
X79085738Y-67065500D01*
X79095916Y-67065000D01*
X79663638Y-67065000D01*
X79730677Y-67084685D01*
G37*
%TD.AperFunction*%
%TD*%
%TA.AperFunction,Conductor*%
%TO.N,LDO1_OUT*%
G36*
X79058039Y-60284685D02*
G01*
X79103794Y-60337489D01*
X79115000Y-60389000D01*
X79115000Y-61152781D01*
X79095315Y-61219820D01*
X79042511Y-61265575D01*
X79003339Y-61276166D01*
X77114999Y-61465000D01*
X77114999Y-61465001D01*
X77031739Y-61631521D01*
X77022812Y-61649373D01*
X77014500Y-61657686D01*
X76948608Y-61771814D01*
X76933616Y-61827764D01*
X76927998Y-61839001D01*
X76721827Y-62251345D01*
X76705066Y-62276589D01*
X76115001Y-62964998D01*
X76115000Y-62965001D01*
X76115000Y-63135181D01*
X76114500Y-63142811D01*
X76114500Y-64241000D01*
X76111949Y-64249685D01*
X76113238Y-64258647D01*
X76102259Y-64282687D01*
X76094815Y-64308039D01*
X76087974Y-64313966D01*
X76084213Y-64322203D01*
X76061978Y-64336492D01*
X76042011Y-64353794D01*
X76031496Y-64356081D01*
X76025435Y-64359977D01*
X75990500Y-64365000D01*
X75939500Y-64365000D01*
X75872461Y-64345315D01*
X75826706Y-64292511D01*
X75815500Y-64241000D01*
X75815500Y-62609293D01*
X75835185Y-62542254D01*
X75844236Y-62529916D01*
X76315000Y-61965000D01*
X76515000Y-61365000D01*
X76515000Y-60389000D01*
X76534685Y-60321961D01*
X76587489Y-60276206D01*
X76639000Y-60265000D01*
X78991000Y-60265000D01*
X79058039Y-60284685D01*
G37*
%TD.AperFunction*%
%TD*%
%TA.AperFunction,Conductor*%
%TO.N,VSYS*%
G36*
X81458039Y-66584685D02*
G01*
X81503794Y-66637489D01*
X81515000Y-66689000D01*
X81515000Y-67665000D01*
X81815000Y-67865000D01*
X83191000Y-67865000D01*
X83258039Y-67884685D01*
X83303794Y-67937489D01*
X83315000Y-67989000D01*
X83315000Y-68541000D01*
X83295315Y-68608039D01*
X83242511Y-68653794D01*
X83191000Y-68665000D01*
X81311933Y-68665000D01*
X81299439Y-68661331D01*
X81286459Y-68662355D01*
X81266559Y-68651676D01*
X81244894Y-68645315D01*
X81234954Y-68634716D01*
X81224893Y-68629318D01*
X81203541Y-68601224D01*
X81184635Y-68567193D01*
X81175399Y-68546199D01*
X81015000Y-68065000D01*
X80715000Y-67665000D01*
X79815000Y-66865000D01*
X79710760Y-66865000D01*
X79693113Y-66863738D01*
X79667115Y-66860000D01*
X79663638Y-66859500D01*
X79095916Y-66859500D01*
X79095898Y-66859500D01*
X79085841Y-66859747D01*
X79083731Y-66859851D01*
X79083633Y-66859827D01*
X79077657Y-66860000D01*
X78439000Y-66860000D01*
X78371961Y-66840315D01*
X78326206Y-66787511D01*
X78315000Y-66736000D01*
X78315000Y-66689500D01*
X78334685Y-66622461D01*
X78387489Y-66576706D01*
X78439000Y-66565500D01*
X79085738Y-66565500D01*
X79088275Y-66565375D01*
X79088746Y-66565207D01*
X79089262Y-66565326D01*
X79095916Y-66565000D01*
X81391000Y-66565000D01*
X81458039Y-66584685D01*
G37*
%TD.AperFunction*%
%TD*%
%TA.AperFunction,Conductor*%
%TO.N,VSYS*%
G36*
X71917478Y-65084685D02*
G01*
X71952023Y-65117890D01*
X72615000Y-66065000D01*
X73334084Y-66065000D01*
X73339161Y-66066490D01*
X73339161Y-66065500D01*
X73991000Y-66065500D01*
X74058039Y-66085185D01*
X74103794Y-66137989D01*
X74115000Y-66189500D01*
X74115000Y-66240500D01*
X74095315Y-66307539D01*
X74042511Y-66353294D01*
X73991000Y-66364500D01*
X73344262Y-66364500D01*
X73334084Y-66365000D01*
X72615000Y-66365000D01*
X71971380Y-67192511D01*
X71952233Y-67217129D01*
X71895536Y-67257961D01*
X71854353Y-67265000D01*
X70539000Y-67265000D01*
X70471961Y-67245315D01*
X70426206Y-67192511D01*
X70415000Y-67141000D01*
X70415000Y-65189000D01*
X70434685Y-65121961D01*
X70487489Y-65076206D01*
X70539000Y-65065000D01*
X71850439Y-65065000D01*
X71917478Y-65084685D01*
G37*
%TD.AperFunction*%
%TD*%
%TA.AperFunction,Conductor*%
%TO.N,VBUS*%
G36*
X81058039Y-65584685D02*
G01*
X81103794Y-65637489D01*
X81115000Y-65689000D01*
X81115000Y-66235500D01*
X81095315Y-66302539D01*
X81042511Y-66348294D01*
X80991000Y-66359500D01*
X79095916Y-66359500D01*
X79085872Y-66359745D01*
X79084699Y-66359802D01*
X79083722Y-66359850D01*
X79083625Y-66359827D01*
X79077643Y-66360000D01*
X78439000Y-66360000D01*
X78371961Y-66340315D01*
X78326206Y-66287511D01*
X78315000Y-66236000D01*
X78315000Y-66189500D01*
X78334685Y-66122461D01*
X78387489Y-66076706D01*
X78439000Y-66065500D01*
X79085738Y-66065500D01*
X79088308Y-66065373D01*
X79088778Y-66065206D01*
X79089292Y-66065325D01*
X79095916Y-66065000D01*
X79515000Y-66065000D01*
X80015000Y-65865000D01*
X80485549Y-65582670D01*
X80549345Y-65565000D01*
X80991000Y-65565000D01*
X81058039Y-65584685D01*
G37*
%TD.AperFunction*%
%TD*%
%TA.AperFunction,Conductor*%
%TO.N,Net-(U5-SW)*%
G36*
X126693039Y-58274685D02*
G01*
X126738794Y-58327489D01*
X126750000Y-58379000D01*
X126750000Y-59631000D01*
X126730315Y-59698039D01*
X126677511Y-59743794D01*
X126626000Y-59755000D01*
X123174000Y-59755000D01*
X123106961Y-59735315D01*
X123061206Y-59682511D01*
X123050000Y-59631000D01*
X123050000Y-58379000D01*
X123069685Y-58311961D01*
X123122489Y-58266206D01*
X123174000Y-58255000D01*
X126626000Y-58255000D01*
X126693039Y-58274685D01*
G37*
%TD.AperFunction*%
%TD*%
%TA.AperFunction,Conductor*%
%TO.N,LDO2_OUT*%
G36*
X75958039Y-60184685D02*
G01*
X76003794Y-60237489D01*
X76015000Y-60289000D01*
X76015000Y-60998637D01*
X75995315Y-61065676D01*
X75959783Y-61101811D01*
X75471206Y-61427528D01*
X75467862Y-61429756D01*
X75407686Y-61464500D01*
X75391562Y-61480624D01*
X75381341Y-61487438D01*
X75115000Y-61664999D01*
X75115000Y-62056933D01*
X75114500Y-62064563D01*
X75114500Y-64241000D01*
X75111949Y-64249685D01*
X75113238Y-64258647D01*
X75102259Y-64282687D01*
X75094815Y-64308039D01*
X75087974Y-64313966D01*
X75084213Y-64322203D01*
X75061978Y-64336492D01*
X75042011Y-64353794D01*
X75031496Y-64356081D01*
X75025435Y-64359977D01*
X74990500Y-64365000D01*
X74939500Y-64365000D01*
X74872461Y-64345315D01*
X74826706Y-64292511D01*
X74815500Y-64241000D01*
X74815500Y-62764563D01*
X74815000Y-62756933D01*
X74815000Y-62065000D01*
X74814999Y-62064999D01*
X73568418Y-61201981D01*
X73524503Y-61147637D01*
X73515000Y-61100029D01*
X73515000Y-60289000D01*
X73534685Y-60221961D01*
X73587489Y-60176206D01*
X73639000Y-60165000D01*
X75891000Y-60165000D01*
X75958039Y-60184685D01*
G37*
%TD.AperFunction*%
%TD*%
%TA.AperFunction,Conductor*%
%TO.N,VSYS*%
G36*
X128535539Y-72137185D02*
G01*
X128581294Y-72189989D01*
X128592500Y-72241500D01*
X128592500Y-75893500D01*
X128572815Y-75960539D01*
X128520011Y-76006294D01*
X128468500Y-76017500D01*
X125016500Y-76017500D01*
X124949461Y-75997815D01*
X124903706Y-75945011D01*
X124892500Y-75893500D01*
X124892500Y-74267099D01*
X124912185Y-74200060D01*
X124926704Y-74181585D01*
X126855850Y-72155983D01*
X126916338Y-72121012D01*
X126945643Y-72117500D01*
X128468500Y-72117500D01*
X128535539Y-72137185D01*
G37*
%TD.AperFunction*%
%TD*%
%TA.AperFunction,Conductor*%
%TO.N,VSYS*%
G36*
X126593039Y-53674685D02*
G01*
X126638794Y-53727489D01*
X126650000Y-53779000D01*
X126650000Y-57431000D01*
X126630315Y-57498039D01*
X126577511Y-57543794D01*
X126526000Y-57555000D01*
X123174000Y-57555000D01*
X123106961Y-57535315D01*
X123061206Y-57482511D01*
X123050000Y-57431000D01*
X123050000Y-53779000D01*
X123069685Y-53711961D01*
X123122489Y-53666206D01*
X123174000Y-53655000D01*
X126526000Y-53655000D01*
X126593039Y-53674685D01*
G37*
%TD.AperFunction*%
%TD*%
%TA.AperFunction,Conductor*%
%TO.N,VBUS_NRF*%
G36*
X81058039Y-64084685D02*
G01*
X81103794Y-64137489D01*
X81115000Y-64189000D01*
X81115000Y-64709315D01*
X81095315Y-64776354D01*
X81073381Y-64801994D01*
X80421018Y-65381872D01*
X80387536Y-65403144D01*
X80379820Y-65406455D01*
X80379811Y-65406459D01*
X79931910Y-65675199D01*
X79914166Y-65684001D01*
X79497596Y-65850631D01*
X79451543Y-65859500D01*
X79095916Y-65859500D01*
X79085845Y-65859747D01*
X79085841Y-65859747D01*
X79085808Y-65859748D01*
X79083721Y-65859851D01*
X79083623Y-65859827D01*
X79077653Y-65860000D01*
X78439000Y-65860000D01*
X78371961Y-65840315D01*
X78326206Y-65787511D01*
X78315000Y-65736000D01*
X78315000Y-65689500D01*
X78334685Y-65622461D01*
X78387489Y-65576706D01*
X78439000Y-65565500D01*
X79085738Y-65565500D01*
X79088285Y-65565374D01*
X79088755Y-65565207D01*
X79089270Y-65565326D01*
X79095916Y-65565000D01*
X79314998Y-65565000D01*
X79315000Y-65565000D01*
X80015000Y-64965000D01*
X80105559Y-64801994D01*
X80479568Y-64128780D01*
X80529332Y-64079737D01*
X80587963Y-64065000D01*
X80991000Y-64065000D01*
X81058039Y-64084685D01*
G37*
%TD.AperFunction*%
%TD*%
%TA.AperFunction,Conductor*%
%TO.N,VSYS*%
G36*
X116043039Y-86069685D02*
G01*
X116088794Y-86122489D01*
X116100000Y-86174000D01*
X116100000Y-89526000D01*
X116080315Y-89593039D01*
X116027511Y-89638794D01*
X115976000Y-89650000D01*
X112324000Y-89650000D01*
X112256961Y-89630315D01*
X112211206Y-89577511D01*
X112200000Y-89526000D01*
X112200000Y-86174000D01*
X112219685Y-86106961D01*
X112272489Y-86061206D01*
X112324000Y-86050000D01*
X115976000Y-86050000D01*
X116043039Y-86069685D01*
G37*
%TD.AperFunction*%
%TD*%
%TA.AperFunction,Conductor*%
%TO.N,Net-(U3-SW)*%
G36*
X111333039Y-86069685D02*
G01*
X111378794Y-86122489D01*
X111390000Y-86174000D01*
X111390000Y-89526000D01*
X111370315Y-89593039D01*
X111317511Y-89638794D01*
X111266000Y-89650000D01*
X110014000Y-89650000D01*
X109946961Y-89630315D01*
X109901206Y-89577511D01*
X109890000Y-89526000D01*
X109890000Y-86174000D01*
X109909685Y-86106961D01*
X109962489Y-86061206D01*
X110014000Y-86050000D01*
X111266000Y-86050000D01*
X111333039Y-86069685D01*
G37*
%TD.AperFunction*%
%TD*%
%TA.AperFunction,Conductor*%
%TO.N,V_BUCK1*%
G36*
X72030677Y-60684685D02*
G01*
X72051319Y-60701319D01*
X73278681Y-61928681D01*
X73312166Y-61990004D01*
X73315000Y-62016362D01*
X73315000Y-62541000D01*
X73295315Y-62608039D01*
X73242511Y-62653794D01*
X73191000Y-62665000D01*
X72539000Y-62665000D01*
X72471961Y-62645315D01*
X72426206Y-62592511D01*
X72415000Y-62541000D01*
X72415000Y-61965000D01*
X71915000Y-61565000D01*
X70715000Y-61565000D01*
X69815000Y-62365000D01*
X69815000Y-63041000D01*
X69795315Y-63108039D01*
X69742511Y-63153794D01*
X69691000Y-63165000D01*
X68739000Y-63165000D01*
X68671961Y-63145315D01*
X68626206Y-63092511D01*
X68615000Y-63041000D01*
X68615000Y-61922032D01*
X68634685Y-61854993D01*
X68658302Y-61827884D01*
X69980173Y-60694852D01*
X70043884Y-60666169D01*
X70060871Y-60665000D01*
X71963638Y-60665000D01*
X72030677Y-60684685D01*
G37*
%TD.AperFunction*%
%TD*%
%TA.AperFunction,Conductor*%
%TO.N,GND*%
G36*
X73240919Y-67042705D02*
G01*
X73247481Y-67041762D01*
X73256205Y-67045746D01*
X73277291Y-67049941D01*
X73286771Y-67053868D01*
X73345247Y-67065499D01*
X73345250Y-67065500D01*
X73991000Y-67065500D01*
X73999685Y-67068050D01*
X74008647Y-67066762D01*
X74032687Y-67077740D01*
X74058039Y-67085185D01*
X74063966Y-67092025D01*
X74072203Y-67095787D01*
X74086492Y-67118021D01*
X74103794Y-67137989D01*
X74106081Y-67148503D01*
X74109977Y-67154565D01*
X74115000Y-67189500D01*
X74115000Y-67240500D01*
X74095315Y-67307539D01*
X74042511Y-67353294D01*
X73991000Y-67364500D01*
X73345247Y-67364500D01*
X73286771Y-67376131D01*
X73277291Y-67380059D01*
X73269262Y-67380922D01*
X73229834Y-67389500D01*
X73197147Y-67389500D01*
X73114361Y-67411682D01*
X73107668Y-67415546D01*
X73099179Y-67420448D01*
X73069658Y-67437491D01*
X73040139Y-67454534D01*
X73040136Y-67454536D01*
X72654537Y-67840135D01*
X72654533Y-67840141D01*
X72611682Y-67914360D01*
X72611682Y-67914361D01*
X72597225Y-67968318D01*
X72589500Y-67997147D01*
X72589500Y-68059071D01*
X72588853Y-68065379D01*
X72577940Y-68092091D01*
X72569815Y-68119764D01*
X72563695Y-68126962D01*
X72562430Y-68130060D01*
X72559041Y-68132437D01*
X72548454Y-68144890D01*
X72485650Y-68201414D01*
X72414999Y-68265000D01*
X72367649Y-68927904D01*
X72343238Y-68993370D01*
X72342371Y-68994514D01*
X71252225Y-70416445D01*
X71195815Y-70457672D01*
X71153818Y-70465000D01*
X69339000Y-70465000D01*
X69271961Y-70445315D01*
X69226206Y-70392511D01*
X69215000Y-70341000D01*
X69215000Y-69538610D01*
X69234685Y-69471571D01*
X69279620Y-69429752D01*
X70865000Y-68565000D01*
X70865000Y-68114500D01*
X70884685Y-68047461D01*
X70937489Y-68001706D01*
X70989000Y-67990500D01*
X72032851Y-67990500D01*
X72032853Y-67990500D01*
X72115639Y-67968318D01*
X72189862Y-67925465D01*
X72849624Y-67265703D01*
X72852164Y-67263234D01*
X73052159Y-67074350D01*
X73114413Y-67042630D01*
X73137300Y-67040500D01*
X73229834Y-67040500D01*
X73240919Y-67042705D01*
G37*
%TD.AperFunction*%
%TD*%
%TA.AperFunction,Conductor*%
%TO.N,Net-(U4-SW)*%
G36*
X128535539Y-76837185D02*
G01*
X128581294Y-76889989D01*
X128592500Y-76941500D01*
X128592500Y-78193500D01*
X128572815Y-78260539D01*
X128520011Y-78306294D01*
X128468500Y-78317500D01*
X125016500Y-78317500D01*
X124949461Y-78297815D01*
X124903706Y-78245011D01*
X124892500Y-78193500D01*
X124892500Y-76941500D01*
X124912185Y-76874461D01*
X124964989Y-76828706D01*
X125016500Y-76817500D01*
X128468500Y-76817500D01*
X128535539Y-76837185D01*
G37*
%TD.AperFunction*%
%TD*%
%TA.AperFunction,Conductor*%
%TO.N,VDD*%
G36*
X68058039Y-67084685D02*
G01*
X68103794Y-67137489D01*
X68115000Y-67189000D01*
X68115000Y-68265000D01*
X68685148Y-68930173D01*
X68713831Y-68993883D01*
X68715000Y-69010870D01*
X68715000Y-70541000D01*
X68695315Y-70608039D01*
X68642511Y-70653794D01*
X68591000Y-70665000D01*
X67639000Y-70665000D01*
X67571961Y-70645315D01*
X67526206Y-70592511D01*
X67515000Y-70541000D01*
X67515000Y-69464999D01*
X67135826Y-68896238D01*
X67115018Y-68829539D01*
X67115000Y-68827455D01*
X67115000Y-67189000D01*
X67134685Y-67121961D01*
X67187489Y-67076206D01*
X67239000Y-67065000D01*
X67991000Y-67065000D01*
X68058039Y-67084685D01*
G37*
%TD.AperFunction*%
%TD*%
%TA.AperFunction,Conductor*%
%TO.N,GND*%
G36*
X71948203Y-61884685D02*
G01*
X71993958Y-61937489D01*
X72005164Y-61989000D01*
X72005164Y-62865000D01*
X72305164Y-63165000D01*
X72681164Y-63165000D01*
X72748203Y-63184685D01*
X72793958Y-63237489D01*
X72805164Y-63289000D01*
X72805164Y-64465000D01*
X73147291Y-64875552D01*
X73173647Y-64930738D01*
X73176132Y-64943230D01*
X73220447Y-65009552D01*
X73267554Y-65041028D01*
X73286769Y-65053867D01*
X73297697Y-65056040D01*
X73305164Y-65065000D01*
X73342738Y-65065000D01*
X73345252Y-65065500D01*
X73351633Y-65065500D01*
X73981164Y-65065500D01*
X74048203Y-65085185D01*
X74093958Y-65137989D01*
X74105164Y-65189500D01*
X74105164Y-65240500D01*
X74085479Y-65307539D01*
X74032675Y-65353294D01*
X73981164Y-65364500D01*
X73344262Y-65364500D01*
X73334084Y-65365000D01*
X73226689Y-65365000D01*
X73159650Y-65345315D01*
X73139008Y-65328681D01*
X72214864Y-64404537D01*
X72214862Y-64404535D01*
X72165669Y-64376133D01*
X72140640Y-64361682D01*
X72099246Y-64350591D01*
X72057853Y-64339500D01*
X71029164Y-64339500D01*
X70962125Y-64319815D01*
X70916370Y-64267011D01*
X70905164Y-64215500D01*
X70905164Y-61989000D01*
X70924849Y-61921961D01*
X70977653Y-61876206D01*
X71029164Y-61865000D01*
X71881164Y-61865000D01*
X71948203Y-61884685D01*
G37*
%TD.AperFunction*%
%TD*%
M02*
