%TF.GenerationSoftware,KiCad,Pcbnew,8.0.8*%
%TF.CreationDate,2025-03-05T18:01:18-08:00*%
%TF.ProjectId,LoRa-BLE-Sensor,4c6f5261-2d42-44c4-952d-53656e736f72,1*%
%TF.SameCoordinates,Original*%
%TF.FileFunction,Soldermask,Bot*%
%TF.FilePolarity,Negative*%
%FSLAX46Y46*%
G04 Gerber Fmt 4.6, Leading zero omitted, Abs format (unit mm)*
G04 Created by KiCad (PCBNEW 8.0.8) date 2025-03-05 18:01:18*
%MOMM*%
%LPD*%
G01*
G04 APERTURE LIST*
G04 Aperture macros list*
%AMRoundRect*
0 Rectangle with rounded corners*
0 $1 Rounding radius*
0 $2 $3 $4 $5 $6 $7 $8 $9 X,Y pos of 4 corners*
0 Add a 4 corners polygon primitive as box body*
4,1,4,$2,$3,$4,$5,$6,$7,$8,$9,$2,$3,0*
0 Add four circle primitives for the rounded corners*
1,1,$1+$1,$2,$3*
1,1,$1+$1,$4,$5*
1,1,$1+$1,$6,$7*
1,1,$1+$1,$8,$9*
0 Add four rect primitives between the rounded corners*
20,1,$1+$1,$2,$3,$4,$5,0*
20,1,$1+$1,$4,$5,$6,$7,0*
20,1,$1+$1,$6,$7,$8,$9,0*
20,1,$1+$1,$8,$9,$2,$3,0*%
G04 Aperture macros list end*
%ADD10C,3.050000*%
%ADD11C,3.200000*%
%ADD12RoundRect,0.250000X0.650000X1.550000X-0.650000X1.550000X-0.650000X-1.550000X0.650000X-1.550000X0*%
%ADD13O,1.800000X3.600000*%
%ADD14RoundRect,0.347223X-1.702777X0.902777X-1.702777X-0.902777X1.702777X-0.902777X1.702777X0.902777X0*%
%ADD15O,4.100000X2.500000*%
%ADD16RoundRect,0.102000X-0.990000X-0.990000X0.990000X-0.990000X0.990000X0.990000X-0.990000X0.990000X0*%
%ADD17C,2.184000*%
%ADD18C,2.139000*%
%ADD19C,1.400000*%
%ADD20O,1.400000X1.400000*%
%ADD21R,1.700000X1.700000*%
%ADD22O,1.700000X1.700000*%
G04 APERTURE END LIST*
D10*
X157525000Y-34000000D02*
G75*
G02*
X154475000Y-34000000I-1525000J0D01*
G01*
X154475000Y-34000000D02*
G75*
G02*
X157525000Y-34000000I1525000J0D01*
G01*
X157525000Y-111000000D02*
G75*
G02*
X154475000Y-111000000I-1525000J0D01*
G01*
X154475000Y-111000000D02*
G75*
G02*
X157525000Y-111000000I1525000J0D01*
G01*
X69525000Y-111000000D02*
G75*
G02*
X66475000Y-111000000I-1525000J0D01*
G01*
X66475000Y-111000000D02*
G75*
G02*
X69525000Y-111000000I1525000J0D01*
G01*
X69525000Y-34000000D02*
G75*
G02*
X66475000Y-34000000I-1525000J0D01*
G01*
X66475000Y-34000000D02*
G75*
G02*
X69525000Y-34000000I1525000J0D01*
G01*
D11*
%TO.C,REF\u002A\u002A*%
X156000000Y-111000000D03*
%TD*%
%TO.C,J2*%
X78880000Y-41000000D03*
X86500000Y-38460000D03*
X86500000Y-43540000D03*
X137500000Y-38460000D03*
X137500000Y-43540000D03*
X145120000Y-41000000D03*
%TD*%
D12*
%TO.C,J6*%
X143240000Y-107500000D03*
D13*
X139430000Y-107500000D03*
X135620000Y-107500000D03*
X131810000Y-107500000D03*
X128000000Y-107500000D03*
X124190000Y-107500000D03*
X120380000Y-107500000D03*
X116570000Y-107500000D03*
%TD*%
D11*
%TO.C,REF\u002A\u002A*%
X156000000Y-34000000D03*
%TD*%
%TO.C,REF\u002A\u002A*%
X68000000Y-111000000D03*
%TD*%
D14*
%TO.C,J4*%
X147112500Y-59020000D03*
D15*
X147112500Y-64100000D03*
X147112500Y-69180000D03*
%TD*%
D16*
%TO.C,K1*%
X126112500Y-58100000D03*
D17*
X126112500Y-70100000D03*
D18*
X124112500Y-64100000D03*
D17*
X138312500Y-58100000D03*
X138312500Y-70100000D03*
%TD*%
D12*
%TO.C,J5*%
X102817500Y-107357500D03*
D13*
X99007500Y-107357500D03*
X95197500Y-107357500D03*
X91387500Y-107357500D03*
X87577500Y-107357500D03*
X83767500Y-107357500D03*
X79957500Y-107357500D03*
X76147500Y-107357500D03*
%TD*%
D11*
%TO.C,REF\u002A\u002A*%
X68000000Y-34000000D03*
%TD*%
D19*
%TO.C,TH1*%
X109395000Y-48500000D03*
D20*
X111295000Y-48500000D03*
%TD*%
D21*
%TO.C,J7*%
X153000000Y-78375000D03*
D22*
X153000000Y-80915000D03*
X153000000Y-83455000D03*
X153000000Y-85995000D03*
X153000000Y-88535000D03*
X153000000Y-91075000D03*
X153000000Y-93615000D03*
X153000000Y-96155000D03*
X153000000Y-98695000D03*
X153000000Y-101235000D03*
%TD*%
M02*
