%TF.GenerationSoftware,KiCad,Pcbnew,8.0.8*%
%TF.CreationDate,2025-03-05T18:01:18-08:00*%
%TF.ProjectId,LoRa-BLE-Sensor,4c6f5261-2d42-44c4-952d-53656e736f72,1*%
%TF.SameCoordinates,Original*%
%TF.FileFunction,Copper,L4,Bot*%
%TF.FilePolarity,Positive*%
%FSLAX46Y46*%
G04 Gerber Fmt 4.6, Leading zero omitted, Abs format (unit mm)*
G04 Created by KiCad (PCBNEW 8.0.8) date 2025-03-05 18:01:18*
%MOMM*%
%LPD*%
G01*
G04 APERTURE LIST*
G04 Aperture macros list*
%AMRoundRect*
0 Rectangle with rounded corners*
0 $1 Rounding radius*
0 $2 $3 $4 $5 $6 $7 $8 $9 X,Y pos of 4 corners*
0 Add a 4 corners polygon primitive as box body*
4,1,4,$2,$3,$4,$5,$6,$7,$8,$9,$2,$3,0*
0 Add four circle primitives for the rounded corners*
1,1,$1+$1,$2,$3*
1,1,$1+$1,$4,$5*
1,1,$1+$1,$6,$7*
1,1,$1+$1,$8,$9*
0 Add four rect primitives between the rounded corners*
20,1,$1+$1,$2,$3,$4,$5,0*
20,1,$1+$1,$4,$5,$6,$7,0*
20,1,$1+$1,$6,$7,$8,$9,0*
20,1,$1+$1,$8,$9,$2,$3,0*%
G04 Aperture macros list end*
%TA.AperFunction,ComponentPad*%
%ADD10C,3.200000*%
%TD*%
%TA.AperFunction,ComponentPad*%
%ADD11RoundRect,0.250000X0.650000X1.550000X-0.650000X1.550000X-0.650000X-1.550000X0.650000X-1.550000X0*%
%TD*%
%TA.AperFunction,ComponentPad*%
%ADD12O,1.800000X3.600000*%
%TD*%
%TA.AperFunction,ComponentPad*%
%ADD13RoundRect,0.347223X-1.702777X0.902777X-1.702777X-0.902777X1.702777X-0.902777X1.702777X0.902777X0*%
%TD*%
%TA.AperFunction,ComponentPad*%
%ADD14O,4.100000X2.500000*%
%TD*%
%TA.AperFunction,ComponentPad*%
%ADD15R,1.980000X1.980000*%
%TD*%
%TA.AperFunction,ComponentPad*%
%ADD16C,1.980000*%
%TD*%
%TA.AperFunction,ComponentPad*%
%ADD17C,1.935000*%
%TD*%
%TA.AperFunction,ComponentPad*%
%ADD18C,1.400000*%
%TD*%
%TA.AperFunction,ComponentPad*%
%ADD19O,1.400000X1.400000*%
%TD*%
%TA.AperFunction,ComponentPad*%
%ADD20R,1.700000X1.700000*%
%TD*%
%TA.AperFunction,ComponentPad*%
%ADD21O,1.700000X1.700000*%
%TD*%
%TA.AperFunction,ViaPad*%
%ADD22C,0.600000*%
%TD*%
%TA.AperFunction,ViaPad*%
%ADD23C,0.700000*%
%TD*%
%TA.AperFunction,Conductor*%
%ADD24C,0.300000*%
%TD*%
%TA.AperFunction,Conductor*%
%ADD25C,0.250000*%
%TD*%
%TA.AperFunction,Conductor*%
%ADD26C,0.600000*%
%TD*%
%TA.AperFunction,Conductor*%
%ADD27C,0.500000*%
%TD*%
%TA.AperFunction,Conductor*%
%ADD28C,3.600000*%
%TD*%
G04 APERTURE END LIST*
D10*
%TO.P,J2,1,+*%
%TO.N,VBAT*%
X78880000Y-41000000D03*
X86500000Y-38460000D03*
X86500000Y-43540000D03*
%TO.P,J2,2,-*%
%TO.N,GND*%
X137500000Y-38460000D03*
X137500000Y-43540000D03*
X145120000Y-41000000D03*
%TD*%
D11*
%TO.P,J6,1,Pin_1*%
%TO.N,V_SENSOR2*%
X143240000Y-107500000D03*
D12*
%TO.P,J6,2,Pin_2*%
%TO.N,I1_IN*%
X139430000Y-107500000D03*
%TO.P,J6,3,Pin_3*%
%TO.N,V1_IN*%
X135620000Y-107500000D03*
%TO.P,J6,4,Pin_4*%
%TO.N,D4_IN*%
X131810000Y-107500000D03*
%TO.P,J6,5,Pin_5*%
%TO.N,D5_IN*%
X128000000Y-107500000D03*
%TO.P,J6,6,Pin_6*%
%TO.N,D6_IN*%
X124190000Y-107500000D03*
%TO.P,J6,7,Pin_7*%
%TO.N,D7_IN*%
X120380000Y-107500000D03*
%TO.P,J6,8,Pin_8*%
%TO.N,GND*%
X116570000Y-107500000D03*
%TD*%
D13*
%TO.P,J4,1,Pin_1*%
%TO.N,Net-(J4-Pin_1)*%
X147112500Y-59020000D03*
D14*
%TO.P,J4,2,Pin_2*%
%TO.N,Net-(J4-Pin_2)*%
X147112500Y-64100000D03*
%TO.P,J4,3,Pin_3*%
%TO.N,Net-(J4-Pin_3)*%
X147112500Y-69180000D03*
%TD*%
D15*
%TO.P,K1,A1*%
%TO.N,V_RELAY*%
X126112500Y-58100000D03*
D16*
%TO.P,K1,A2*%
%TO.N,GND*%
X126112500Y-70100000D03*
D17*
%TO.P,K1,COM*%
%TO.N,Net-(J4-Pin_2)*%
X124112500Y-64100000D03*
D16*
%TO.P,K1,NC*%
%TO.N,Net-(J4-Pin_1)*%
X138312500Y-58100000D03*
%TO.P,K1,NO*%
%TO.N,Net-(J4-Pin_3)*%
X138312500Y-70100000D03*
%TD*%
D11*
%TO.P,J5,1,Pin_1*%
%TO.N,V_SENSOR1*%
X102817500Y-107357500D03*
D12*
%TO.P,J5,2,Pin_2*%
%TO.N,I0_IN*%
X99007500Y-107357500D03*
%TO.P,J5,3,Pin_3*%
%TO.N,V0_IN*%
X95197500Y-107357500D03*
%TO.P,J5,4,Pin_4*%
%TO.N,D0_IN*%
X91387500Y-107357500D03*
%TO.P,J5,5,Pin_5*%
%TO.N,D1_IN*%
X87577500Y-107357500D03*
%TO.P,J5,6,Pin_6*%
%TO.N,D2_IN*%
X83767500Y-107357500D03*
%TO.P,J5,7,Pin_7*%
%TO.N,D3_IN*%
X79957500Y-107357500D03*
%TO.P,J5,8,Pin_8*%
%TO.N,GND*%
X76147500Y-107357500D03*
%TD*%
D18*
%TO.P,TH1,1*%
%TO.N,Net-(U2-NTC)*%
X109395000Y-48500000D03*
D19*
%TO.P,TH1,2*%
%TO.N,GND*%
X111295000Y-48500000D03*
%TD*%
D20*
%TO.P,J7,1,Pin_1*%
%TO.N,V_SENSOR1*%
X153000000Y-78375000D03*
D21*
%TO.P,J7,2,Pin_2*%
%TO.N,VDD*%
X153000000Y-80915000D03*
%TO.P,J7,3,Pin_3*%
%TO.N,D2_NRF*%
X153000000Y-83455000D03*
%TO.P,J7,4,Pin_4*%
%TO.N,D3_NRF*%
X153000000Y-85995000D03*
%TO.P,J7,5,Pin_5*%
%TO.N,GND*%
X153000000Y-88535000D03*
%TO.P,J7,6,Pin_6*%
%TO.N,V_SENSOR2*%
X153000000Y-91075000D03*
%TO.P,J7,7,Pin_7*%
%TO.N,VDD*%
X153000000Y-93615000D03*
%TO.P,J7,8,Pin_8*%
%TO.N,D6_NRF*%
X153000000Y-96155000D03*
%TO.P,J7,9,Pin_9*%
%TO.N,D7_NRF*%
X153000000Y-98695000D03*
%TO.P,J7,10,Pin_10*%
%TO.N,GND*%
X153000000Y-101235000D03*
%TD*%
D22*
%TO.N,VDD*%
X121800000Y-97600000D03*
X82400000Y-97900000D03*
X74200000Y-58500000D03*
X91600000Y-97900000D03*
X90500000Y-95300000D03*
X74700000Y-83000000D03*
X117300000Y-97600000D03*
X78500000Y-85300000D03*
X126400000Y-97400000D03*
X131100000Y-97400000D03*
X81900000Y-94500000D03*
X116200000Y-95000000D03*
X130500000Y-94100000D03*
X74600000Y-91300000D03*
X125800000Y-94100000D03*
X68000000Y-64700000D03*
X120800000Y-94900000D03*
X87000000Y-97900000D03*
X77700000Y-97900000D03*
X75100000Y-66600000D03*
X105700000Y-77425000D03*
X77200000Y-94600000D03*
X86400000Y-94600000D03*
%TO.N,GND*%
X124400000Y-82900000D03*
X72600000Y-81200000D03*
X76000000Y-62400000D03*
X86400000Y-64300000D03*
X106000000Y-94000000D03*
X119112500Y-67600000D03*
X98700000Y-88700000D03*
X112400000Y-83300000D03*
X75500000Y-54300000D03*
X126800000Y-99400000D03*
X119800000Y-71000000D03*
X120275000Y-72725000D03*
X97400000Y-97600000D03*
X91900000Y-99900000D03*
X82500000Y-65200000D03*
X106700000Y-63900000D03*
X106000000Y-92900000D03*
X104500000Y-86900000D03*
X70600000Y-79000000D03*
D23*
X111170000Y-71625000D03*
D22*
X91000000Y-67000000D03*
X76000000Y-63400000D03*
X68700000Y-81100000D03*
X77000000Y-63400000D03*
X101390000Y-62000000D03*
X146000000Y-92400000D03*
X75000000Y-63400000D03*
X78600000Y-54300000D03*
X105700000Y-78380000D03*
X87300000Y-99900000D03*
X120200000Y-83100000D03*
X137700000Y-98800000D03*
X72000000Y-91300000D03*
X70700000Y-75200000D03*
X121000000Y-81700000D03*
X116500000Y-73800000D03*
X66200000Y-93200000D03*
X78000000Y-99900000D03*
X76000000Y-61400000D03*
X94600000Y-97600000D03*
X82700000Y-61900000D03*
X132300000Y-82700000D03*
X78500000Y-86300000D03*
X117700000Y-99600000D03*
X122200000Y-99500000D03*
X70801650Y-65778672D03*
X77000000Y-54300000D03*
X77000000Y-62400000D03*
X101000000Y-95200000D03*
X82700000Y-99900000D03*
X110900000Y-62900000D03*
X137400000Y-97700000D03*
X140900000Y-93800000D03*
X72300000Y-59600000D03*
X82700000Y-60290000D03*
X104500000Y-83400000D03*
X79600000Y-76000000D03*
X110500000Y-61100000D03*
X134000000Y-96700000D03*
X79600000Y-79600000D03*
X97500000Y-98700000D03*
X131500000Y-99400000D03*
X74000000Y-54300000D03*
X77000000Y-61400000D03*
X70600000Y-93200000D03*
X71300000Y-81100000D03*
X79300000Y-66500000D03*
D23*
X75700000Y-68300000D03*
D22*
X75000000Y-62400000D03*
X133100000Y-81400000D03*
X66200000Y-75200000D03*
X66100000Y-79000000D03*
X75000000Y-61400000D03*
X146000000Y-91400000D03*
%TO.N,RESET*%
X79400000Y-80900000D03*
X69200000Y-85000000D03*
%TO.N,CC2*%
X89100000Y-61000000D03*
X85500000Y-58300000D03*
%TO.N,CC1*%
X87000000Y-59000000D03*
X91000000Y-59000000D03*
%TO.N,VBAT*%
X81700000Y-66200000D03*
X81000000Y-66100000D03*
%TO.N,VBUS_NRF*%
X101200000Y-74300000D03*
X85400000Y-60100000D03*
%TO.N,VSYS*%
X82200000Y-64200000D03*
X77400000Y-57900000D03*
X70800000Y-62100000D03*
X72000000Y-62100000D03*
X82900000Y-64200000D03*
X116100000Y-69500000D03*
X106400000Y-59900000D03*
X81500000Y-64200000D03*
X75700000Y-57800000D03*
D23*
X89100000Y-66500000D03*
D22*
X83000000Y-54200000D03*
%TO.N,BOOST1_FB_CTRL1*%
X94200000Y-72500000D03*
X104490000Y-66700000D03*
%TO.N,LDO2_OUT*%
X128550000Y-78100000D03*
X114800000Y-61100000D03*
%TO.N,BOOST1_FB_CTRL2*%
X93000000Y-71300000D03*
X100300000Y-66600000D03*
%TO.N,V_SENSOR1*%
X116500000Y-89000000D03*
X91000000Y-102800000D03*
X82200000Y-102800000D03*
X86000000Y-102900000D03*
X77300000Y-102700000D03*
X120700000Y-85500000D03*
X111700000Y-93100000D03*
%TO.N,V_SENSOR2*%
X130900000Y-102400000D03*
X117200000Y-102700000D03*
X121800000Y-102400000D03*
X126400000Y-102400000D03*
D23*
%TO.N,Net-(U2-SHPHLD)*%
X80300000Y-67900000D03*
D22*
X71700000Y-72300000D03*
%TO.N,BOOST2_FB_CTRL2*%
X96800000Y-72800000D03*
X110300000Y-76500000D03*
%TO.N,BOOST2_FB_CTRL1*%
X96600000Y-89900000D03*
X114200000Y-76500000D03*
%TO.N,BOOST1_EN*%
X105300000Y-64150000D03*
X91900000Y-72500000D03*
%TO.N,BOOST2_EN*%
X95600000Y-71800000D03*
X115155000Y-73900000D03*
%TO.N,Net-(U2-NTC)*%
X86800000Y-67600000D03*
%TO.N,D2_NRF*%
X84500000Y-90400000D03*
%TO.N,D3_NRF*%
X82550000Y-90450000D03*
D23*
%TO.N,D6_NRF*%
X122432500Y-94000000D03*
X90200000Y-91700000D03*
%TO.N,D7_NRF*%
X88100000Y-90400000D03*
X115932500Y-96300000D03*
D22*
%TO.N,V_SENSOR1_READ*%
X108400000Y-83300000D03*
X119600000Y-80690000D03*
%TO.N,V_SENSOR2_READ*%
X109200000Y-84300000D03*
X131700000Y-80352500D03*
%TD*%
D24*
%TO.N,RESET*%
X75300000Y-85000000D02*
X69200000Y-85000000D01*
X79400000Y-80900000D02*
X75300000Y-85000000D01*
D25*
%TO.N,CC2*%
X85500000Y-58300000D02*
X85500000Y-58900000D01*
X85500000Y-58900000D02*
X87600000Y-61000000D01*
X87600000Y-61000000D02*
X89100000Y-61000000D01*
%TO.N,CC1*%
X87000000Y-59000000D02*
X91000000Y-59000000D01*
D26*
%TO.N,VBAT*%
X81700000Y-66200000D02*
X83300000Y-66200000D01*
X81100000Y-66200000D02*
X81700000Y-66200000D01*
X83300000Y-66200000D02*
X84200000Y-65300000D01*
X86460000Y-43540000D02*
X86500000Y-43540000D01*
X81000000Y-66100000D02*
X81100000Y-66200000D01*
X84200000Y-65300000D02*
X84200000Y-45800000D01*
X84200000Y-45800000D02*
X86460000Y-43540000D01*
D25*
%TO.N,VBUS_NRF*%
X101100000Y-74200000D02*
X101200000Y-74300000D01*
X85400000Y-60100000D02*
X85500000Y-60200000D01*
X85500000Y-60200000D02*
X85500000Y-67800000D01*
X90500000Y-74200000D02*
X101100000Y-74200000D01*
X85500000Y-67800000D02*
X85500000Y-69200000D01*
X85500000Y-69200000D02*
X90500000Y-74200000D01*
D27*
%TO.N,VSYS*%
X81500000Y-64200000D02*
X81500000Y-63100000D01*
X81500000Y-63100000D02*
X77400000Y-59000000D01*
X75700000Y-57800000D02*
X75700000Y-58900000D01*
X116000000Y-69500000D02*
X116100000Y-69500000D01*
X75000000Y-59600000D02*
X74500000Y-59600000D01*
X77400000Y-59000000D02*
X77400000Y-57900000D01*
X95750000Y-59850000D02*
X106422500Y-59850000D01*
D24*
X81100000Y-54200000D02*
X77400000Y-57900000D01*
D27*
X106400000Y-59900000D02*
X116000000Y-69500000D01*
X106422500Y-59877500D02*
X106400000Y-59900000D01*
X74500000Y-59600000D02*
X72000000Y-62100000D01*
X75700000Y-58900000D02*
X75000000Y-59600000D01*
X106422500Y-59850000D02*
X106422500Y-59877500D01*
X89100000Y-66500000D02*
X95750000Y-59850000D01*
D24*
X83000000Y-54200000D02*
X81100000Y-54200000D01*
%TO.N,BOOST1_FB_CTRL1*%
X97650000Y-67750000D02*
X103440000Y-67750000D01*
X103440000Y-67750000D02*
X104490000Y-66700000D01*
X94200000Y-71200000D02*
X97650000Y-67750000D01*
X94200000Y-72500000D02*
X94200000Y-71200000D01*
D27*
%TO.N,LDO2_OUT*%
X114800000Y-65800000D02*
X114800000Y-61100000D01*
X120000000Y-69500000D02*
X118500000Y-69500000D01*
X128550000Y-78100000D02*
X128550000Y-78050000D01*
X118500000Y-69500000D02*
X114800000Y-65800000D01*
X128550000Y-78050000D02*
X120000000Y-69500000D01*
D25*
%TO.N,BOOST1_FB_CTRL2*%
X95900000Y-66600000D02*
X100300000Y-66600000D01*
X93000000Y-71300000D02*
X93000000Y-69500000D01*
X93000000Y-69500000D02*
X95900000Y-66600000D01*
D27*
%TO.N,V_SENSOR1*%
X86600000Y-103500000D02*
X86000000Y-102900000D01*
X86600000Y-103500000D02*
X82300000Y-103500000D01*
X120700000Y-85500000D02*
X133400000Y-85500000D01*
X91700000Y-103500000D02*
X86600000Y-103500000D01*
X102817500Y-107357500D02*
X102817500Y-104217500D01*
X78100000Y-103500000D02*
X82300000Y-103500000D01*
X82200000Y-103400000D02*
X82200000Y-102800000D01*
X77300000Y-102700000D02*
X78100000Y-103500000D01*
X116500000Y-89000000D02*
X115800000Y-89000000D01*
X102100000Y-103500000D02*
X91700000Y-103500000D01*
X82300000Y-103500000D02*
X82200000Y-103400000D01*
X140525000Y-78375000D02*
X153000000Y-78375000D01*
X91700000Y-103500000D02*
X91000000Y-102800000D01*
X115800000Y-89000000D02*
X111700000Y-93100000D01*
X133400000Y-85500000D02*
X140525000Y-78375000D01*
X102817500Y-104217500D02*
X102100000Y-103500000D01*
%TO.N,V_SENSOR2*%
X126400000Y-103300000D02*
X126400000Y-102400000D01*
X121900000Y-103300000D02*
X126400000Y-103300000D01*
X117800000Y-103300000D02*
X121900000Y-103300000D01*
X130900000Y-103300000D02*
X126400000Y-103300000D01*
X121800000Y-102400000D02*
X121800000Y-103200000D01*
X143240000Y-105540000D02*
X143240000Y-107500000D01*
X130900000Y-103300000D02*
X141000000Y-103300000D01*
X121800000Y-103200000D02*
X121900000Y-103300000D01*
X117200000Y-102700000D02*
X117800000Y-103300000D01*
X130900000Y-103300000D02*
X130900000Y-102400000D01*
X141000000Y-103300000D02*
X143240000Y-105540000D01*
D25*
%TO.N,Net-(U2-SHPHLD)*%
X75900000Y-72300000D02*
X71700000Y-72300000D01*
X80300000Y-67900000D02*
X75900000Y-72300000D01*
D28*
%TO.N,Net-(J4-Pin_2)*%
X147112500Y-64100000D02*
X124162500Y-64100000D01*
%TO.N,Net-(J4-Pin_1)*%
X138312500Y-58100000D02*
X146192500Y-58100000D01*
X146192500Y-58100000D02*
X147112500Y-59020000D01*
%TO.N,Net-(J4-Pin_3)*%
X146192500Y-70100000D02*
X147112500Y-69180000D01*
X138312500Y-70100000D02*
X146192500Y-70100000D01*
D25*
%TO.N,BOOST2_FB_CTRL2*%
X96800000Y-72800000D02*
X106600000Y-72800000D01*
X106600000Y-72800000D02*
X110300000Y-76500000D01*
%TO.N,BOOST2_FB_CTRL1*%
X99700000Y-90000000D02*
X113200000Y-76500000D01*
X96700000Y-90000000D02*
X99700000Y-90000000D01*
X96600000Y-89900000D02*
X96700000Y-90000000D01*
X113200000Y-76500000D02*
X114200000Y-76500000D01*
%TO.N,BOOST1_EN*%
X91900000Y-68000000D02*
X95750000Y-64150000D01*
X91900000Y-72500000D02*
X91900000Y-68000000D01*
X95750000Y-64150000D02*
X105300000Y-64150000D01*
%TO.N,BOOST2_EN*%
X96500000Y-70900000D02*
X107500000Y-70900000D01*
X95600000Y-71800000D02*
X96500000Y-70900000D01*
X110500000Y-73900000D02*
X115155000Y-73900000D01*
X107500000Y-70900000D02*
X110500000Y-73900000D01*
%TO.N,Net-(U2-NTC)*%
X104700000Y-48500000D02*
X109395000Y-48500000D01*
X87000000Y-67400000D02*
X87000000Y-66200000D01*
X87000000Y-66200000D02*
X104700000Y-48500000D01*
X86800000Y-67600000D02*
X87000000Y-67400000D01*
%TO.N,D2_NRF*%
X107800000Y-90900000D02*
X112000000Y-86700000D01*
X92600000Y-88200000D02*
X95300000Y-90900000D01*
X136700000Y-86700000D02*
X139945000Y-83455000D01*
X139945000Y-83455000D02*
X153000000Y-83455000D01*
X112000000Y-86700000D02*
X136700000Y-86700000D01*
X84500000Y-90400000D02*
X86700000Y-88200000D01*
X95300000Y-90900000D02*
X107800000Y-90900000D01*
X86700000Y-88200000D02*
X92600000Y-88200000D01*
%TO.N,D3_NRF*%
X87400000Y-89300000D02*
X90500000Y-89300000D01*
X140000000Y-88000000D02*
X142005000Y-85995000D01*
X82550000Y-90450000D02*
X83500000Y-91400000D01*
X142005000Y-85995000D02*
X153000000Y-85995000D01*
X90500000Y-89300000D02*
X93100000Y-91900000D01*
X113800000Y-88000000D02*
X140000000Y-88000000D01*
X93100000Y-91900000D02*
X109900000Y-91900000D01*
X83500000Y-91400000D02*
X85300000Y-91400000D01*
X109900000Y-91900000D02*
X113800000Y-88000000D01*
X85300000Y-91400000D02*
X87400000Y-89300000D01*
%TO.N,D6_NRF*%
X125132500Y-91300000D02*
X141000000Y-91300000D01*
X104200000Y-94000000D02*
X105200000Y-95000000D01*
X112275000Y-95000000D02*
X113275000Y-94000000D01*
X92500000Y-94000000D02*
X104200000Y-94000000D01*
X122432500Y-94000000D02*
X125132500Y-91300000D01*
X90200000Y-91700000D02*
X92500000Y-94000000D01*
X105200000Y-95000000D02*
X112275000Y-95000000D01*
X113275000Y-94000000D02*
X122432500Y-94000000D01*
X145855000Y-96155000D02*
X153000000Y-96155000D01*
X141000000Y-91300000D02*
X145855000Y-96155000D01*
%TO.N,D7_NRF*%
X141000000Y-95400000D02*
X144295000Y-98695000D01*
X93300000Y-96300000D02*
X88100000Y-91100000D01*
X115932500Y-96300000D02*
X93300000Y-96300000D01*
X144295000Y-98695000D02*
X153000000Y-98695000D01*
X88100000Y-91100000D02*
X88100000Y-90400000D01*
X115932500Y-96300000D02*
X131900000Y-96300000D01*
X132800000Y-95400000D02*
X141000000Y-95400000D01*
X131900000Y-96300000D02*
X132800000Y-95400000D01*
D24*
%TO.N,V_SENSOR1_READ*%
X118590000Y-81700000D02*
X119600000Y-80690000D01*
X110000000Y-81700000D02*
X118590000Y-81700000D01*
X108400000Y-83300000D02*
X110000000Y-81700000D01*
%TO.N,V_SENSOR2_READ*%
X127752500Y-84300000D02*
X131700000Y-80352500D01*
X109200000Y-84300000D02*
X127752500Y-84300000D01*
%TD*%
%TA.AperFunction,Conductor*%
%TO.N,VSYS*%
G36*
X78029451Y-58817670D02*
G01*
X78489861Y-59093917D01*
X78508799Y-59107882D01*
X79308840Y-59824586D01*
X83258739Y-63363037D01*
X83295538Y-63422431D01*
X83300000Y-63455397D01*
X83300000Y-64476000D01*
X83280315Y-64543039D01*
X83227511Y-64588794D01*
X83176000Y-64600000D01*
X81260517Y-64600000D01*
X81193478Y-64580315D01*
X81162766Y-64552294D01*
X81155543Y-64543039D01*
X78000000Y-60500000D01*
X77999999Y-60500000D01*
X74400000Y-60500000D01*
X72110223Y-63076000D01*
X72036995Y-63158381D01*
X71977744Y-63195409D01*
X71944316Y-63200000D01*
X70524000Y-63200000D01*
X70456961Y-63180315D01*
X70411206Y-63127511D01*
X70400000Y-63076000D01*
X70400000Y-61124000D01*
X70419685Y-61056961D01*
X70472489Y-61011206D01*
X70524000Y-61000000D01*
X71899999Y-61000000D01*
X71900000Y-61000000D01*
X72879512Y-59824584D01*
X72929825Y-59788401D01*
X74700000Y-59100000D01*
X75273818Y-58813091D01*
X75329272Y-58800000D01*
X77965655Y-58800000D01*
X78029451Y-58817670D01*
G37*
%TD.AperFunction*%
%TD*%
%TA.AperFunction,Conductor*%
%TO.N,VBAT*%
G36*
X90443039Y-35319685D02*
G01*
X90488794Y-35372489D01*
X90500000Y-35424000D01*
X90500000Y-46276000D01*
X90480315Y-46343039D01*
X90427511Y-46388794D01*
X90376000Y-46400000D01*
X76324000Y-46400000D01*
X76256961Y-46380315D01*
X76211206Y-46327511D01*
X76200000Y-46276000D01*
X76200000Y-35424000D01*
X76219685Y-35356961D01*
X76272489Y-35311206D01*
X76324000Y-35300000D01*
X90376000Y-35300000D01*
X90443039Y-35319685D01*
G37*
%TD.AperFunction*%
%TD*%
M02*
