%TF.GenerationSoftware,KiCad,Pcbnew,8.0.8*%
%TF.CreationDate,2025-03-05T18:01:18-08:00*%
%TF.ProjectId,LoRa-BLE-Sensor,4c6f5261-2d42-44c4-952d-53656e736f72,1*%
%TF.SameCoordinates,Original*%
%TF.FileFunction,Copper,L1,Top*%
%TF.FilePolarity,Positive*%
%FSLAX46Y46*%
G04 Gerber Fmt 4.6, Leading zero omitted, Abs format (unit mm)*
G04 Created by KiCad (PCBNEW 8.0.8) date 2025-03-05 18:01:18*
%MOMM*%
%LPD*%
G01*
G04 APERTURE LIST*
G04 Aperture macros list*
%AMRoundRect*
0 Rectangle with rounded corners*
0 $1 Rounding radius*
0 $2 $3 $4 $5 $6 $7 $8 $9 X,Y pos of 4 corners*
0 Add a 4 corners polygon primitive as box body*
4,1,4,$2,$3,$4,$5,$6,$7,$8,$9,$2,$3,0*
0 Add four circle primitives for the rounded corners*
1,1,$1+$1,$2,$3*
1,1,$1+$1,$4,$5*
1,1,$1+$1,$6,$7*
1,1,$1+$1,$8,$9*
0 Add four rect primitives between the rounded corners*
20,1,$1+$1,$2,$3,$4,$5,0*
20,1,$1+$1,$4,$5,$6,$7,0*
20,1,$1+$1,$6,$7,$8,$9,0*
20,1,$1+$1,$8,$9,$2,$3,0*%
G04 Aperture macros list end*
%TA.AperFunction,SMDPad,CuDef*%
%ADD10RoundRect,0.140000X-0.170000X0.140000X-0.170000X-0.140000X0.170000X-0.140000X0.170000X0.140000X0*%
%TD*%
%TA.AperFunction,SMDPad,CuDef*%
%ADD11RoundRect,0.150000X0.587500X0.150000X-0.587500X0.150000X-0.587500X-0.150000X0.587500X-0.150000X0*%
%TD*%
%TA.AperFunction,SMDPad,CuDef*%
%ADD12R,1.100000X0.500000*%
%TD*%
%TA.AperFunction,SMDPad,CuDef*%
%ADD13RoundRect,0.135000X-0.135000X-0.185000X0.135000X-0.185000X0.135000X0.185000X-0.135000X0.185000X0*%
%TD*%
%TA.AperFunction,SMDPad,CuDef*%
%ADD14RoundRect,0.140000X-0.140000X-0.170000X0.140000X-0.170000X0.140000X0.170000X-0.140000X0.170000X0*%
%TD*%
%TA.AperFunction,SMDPad,CuDef*%
%ADD15RoundRect,0.147500X0.172500X-0.147500X0.172500X0.147500X-0.172500X0.147500X-0.172500X-0.147500X0*%
%TD*%
%TA.AperFunction,SMDPad,CuDef*%
%ADD16RoundRect,0.225000X0.250000X-0.225000X0.250000X0.225000X-0.250000X0.225000X-0.250000X-0.225000X0*%
%TD*%
%TA.AperFunction,ComponentPad*%
%ADD17C,3.200000*%
%TD*%
%TA.AperFunction,SMDPad,CuDef*%
%ADD18R,1.000000X0.700000*%
%TD*%
%TA.AperFunction,SMDPad,CuDef*%
%ADD19RoundRect,0.225000X-0.250000X0.225000X-0.250000X-0.225000X0.250000X-0.225000X0.250000X0.225000X0*%
%TD*%
%TA.AperFunction,SMDPad,CuDef*%
%ADD20RoundRect,0.250000X0.450000X-0.262500X0.450000X0.262500X-0.450000X0.262500X-0.450000X-0.262500X0*%
%TD*%
%TA.AperFunction,ComponentPad*%
%ADD21RoundRect,0.250000X0.650000X1.550000X-0.650000X1.550000X-0.650000X-1.550000X0.650000X-1.550000X0*%
%TD*%
%TA.AperFunction,ComponentPad*%
%ADD22O,1.800000X3.600000*%
%TD*%
%TA.AperFunction,SMDPad,CuDef*%
%ADD23RoundRect,0.135000X0.135000X0.185000X-0.135000X0.185000X-0.135000X-0.185000X0.135000X-0.185000X0*%
%TD*%
%TA.AperFunction,SMDPad,CuDef*%
%ADD24RoundRect,0.250000X0.375000X0.850000X-0.375000X0.850000X-0.375000X-0.850000X0.375000X-0.850000X0*%
%TD*%
%TA.AperFunction,SMDPad,CuDef*%
%ADD25R,0.600000X0.700000*%
%TD*%
%TA.AperFunction,SMDPad,CuDef*%
%ADD26RoundRect,0.040600X-0.564400X-0.249400X0.564400X-0.249400X0.564400X0.249400X-0.564400X0.249400X0*%
%TD*%
%TA.AperFunction,SMDPad,CuDef*%
%ADD27R,0.500000X1.100000*%
%TD*%
%TA.AperFunction,SMDPad,CuDef*%
%ADD28RoundRect,0.225000X-0.225000X-0.250000X0.225000X-0.250000X0.225000X0.250000X-0.225000X0.250000X0*%
%TD*%
%TA.AperFunction,SMDPad,CuDef*%
%ADD29RoundRect,0.135000X0.185000X-0.135000X0.185000X0.135000X-0.185000X0.135000X-0.185000X-0.135000X0*%
%TD*%
%TA.AperFunction,SMDPad,CuDef*%
%ADD30R,1.250000X0.750000*%
%TD*%
%TA.AperFunction,SMDPad,CuDef*%
%ADD31RoundRect,0.225000X0.225000X0.250000X-0.225000X0.250000X-0.225000X-0.250000X0.225000X-0.250000X0*%
%TD*%
%TA.AperFunction,SMDPad,CuDef*%
%ADD32R,1.600000X2.300000*%
%TD*%
%TA.AperFunction,SMDPad,CuDef*%
%ADD33RoundRect,0.250000X0.650000X-1.000000X0.650000X1.000000X-0.650000X1.000000X-0.650000X-1.000000X0*%
%TD*%
%TA.AperFunction,SMDPad,CuDef*%
%ADD34RoundRect,0.135000X-0.185000X0.135000X-0.185000X-0.135000X0.185000X-0.135000X0.185000X0.135000X0*%
%TD*%
%TA.AperFunction,SMDPad,CuDef*%
%ADD35R,1.100000X0.450000*%
%TD*%
%TA.AperFunction,SMDPad,CuDef*%
%ADD36R,0.740000X2.795000*%
%TD*%
%TA.AperFunction,SMDPad,CuDef*%
%ADD37RoundRect,0.250000X1.075000X-0.375000X1.075000X0.375000X-1.075000X0.375000X-1.075000X-0.375000X0*%
%TD*%
%TA.AperFunction,SMDPad,CuDef*%
%ADD38RoundRect,0.218750X-0.218750X-0.381250X0.218750X-0.381250X0.218750X0.381250X-0.218750X0.381250X0*%
%TD*%
%TA.AperFunction,SMDPad,CuDef*%
%ADD39RoundRect,0.250000X-0.250000X-0.475000X0.250000X-0.475000X0.250000X0.475000X-0.250000X0.475000X0*%
%TD*%
%TA.AperFunction,ComponentPad*%
%ADD40RoundRect,0.347223X-1.702777X0.902777X-1.702777X-0.902777X1.702777X-0.902777X1.702777X0.902777X0*%
%TD*%
%TA.AperFunction,ComponentPad*%
%ADD41O,4.100000X2.500000*%
%TD*%
%TA.AperFunction,ComponentPad*%
%ADD42R,1.980000X1.980000*%
%TD*%
%TA.AperFunction,ComponentPad*%
%ADD43C,1.980000*%
%TD*%
%TA.AperFunction,ComponentPad*%
%ADD44C,1.935000*%
%TD*%
%TA.AperFunction,SMDPad,CuDef*%
%ADD45R,0.900000X1.300000*%
%TD*%
%TA.AperFunction,SMDPad,CuDef*%
%ADD46R,1.300000X0.900000*%
%TD*%
%TA.AperFunction,SMDPad,CuDef*%
%ADD47RoundRect,0.147500X-0.147500X-0.172500X0.147500X-0.172500X0.147500X0.172500X-0.147500X0.172500X0*%
%TD*%
%TA.AperFunction,SMDPad,CuDef*%
%ADD48R,1.600000X0.700000*%
%TD*%
%TA.AperFunction,SMDPad,CuDef*%
%ADD49RoundRect,0.250000X2.500000X-0.250000X2.500000X0.250000X-2.500000X0.250000X-2.500000X-0.250000X0*%
%TD*%
%TA.AperFunction,SMDPad,CuDef*%
%ADD50RoundRect,0.250000X1.250000X-0.550000X1.250000X0.550000X-1.250000X0.550000X-1.250000X-0.550000X0*%
%TD*%
%TA.AperFunction,ComponentPad*%
%ADD51C,1.400000*%
%TD*%
%TA.AperFunction,ComponentPad*%
%ADD52O,1.400000X1.400000*%
%TD*%
%TA.AperFunction,SMDPad,CuDef*%
%ADD53R,0.800000X0.300000*%
%TD*%
%TA.AperFunction,SMDPad,CuDef*%
%ADD54R,0.300000X0.800000*%
%TD*%
%TA.AperFunction,SMDPad,CuDef*%
%ADD55R,3.600000X3.600000*%
%TD*%
%TA.AperFunction,SMDPad,CuDef*%
%ADD56RoundRect,0.218750X-0.381250X0.218750X-0.381250X-0.218750X0.381250X-0.218750X0.381250X0.218750X0*%
%TD*%
%TA.AperFunction,ComponentPad*%
%ADD57R,1.700000X1.700000*%
%TD*%
%TA.AperFunction,ComponentPad*%
%ADD58O,1.700000X1.700000*%
%TD*%
%TA.AperFunction,SMDPad,CuDef*%
%ADD59RoundRect,0.150000X0.150000X-0.512500X0.150000X0.512500X-0.150000X0.512500X-0.150000X-0.512500X0*%
%TD*%
%TA.AperFunction,ViaPad*%
%ADD60C,0.600000*%
%TD*%
%TA.AperFunction,ViaPad*%
%ADD61C,0.700000*%
%TD*%
%TA.AperFunction,Conductor*%
%ADD62C,0.500000*%
%TD*%
%TA.AperFunction,Conductor*%
%ADD63C,0.250000*%
%TD*%
%TA.AperFunction,Conductor*%
%ADD64C,0.300000*%
%TD*%
G04 APERTURE END LIST*
D10*
%TO.P,C11,1*%
%TO.N,VDD*%
X75800000Y-66520000D03*
%TO.P,C11,2*%
%TO.N,GND*%
X75800000Y-67480000D03*
%TD*%
D11*
%TO.P,Q5,1,G*%
%TO.N,VDD*%
X131100000Y-98050000D03*
%TO.P,Q5,2,S*%
%TO.N,D4_NRF*%
X131100000Y-96150000D03*
%TO.P,Q5,3,D*%
%TO.N,D4_IN*%
X129225000Y-97100000D03*
%TD*%
D10*
%TO.P,C2,1*%
%TO.N,VDD*%
X105000000Y-77420000D03*
%TO.P,C2,2*%
%TO.N,GND*%
X105000000Y-78380000D03*
%TD*%
D11*
%TO.P,Q8,1,G*%
%TO.N,VDD*%
X117290000Y-98250000D03*
%TO.P,Q8,2,S*%
%TO.N,D7_NRF*%
X117290000Y-96350000D03*
%TO.P,Q8,3,D*%
%TO.N,D7_IN*%
X115415000Y-97300000D03*
%TD*%
D12*
%TO.P,D6,1,1*%
%TO.N,D5_IN*%
X124362500Y-100000000D03*
%TO.P,D6,2,2*%
%TO.N,GND*%
X126762500Y-100000000D03*
%TD*%
D10*
%TO.P,C3,1*%
%TO.N,VDD*%
X79200000Y-85320000D03*
%TO.P,C3,2*%
%TO.N,GND*%
X79200000Y-86280000D03*
%TD*%
D13*
%TO.P,R4,1*%
%TO.N,VDD*%
X77190000Y-95300000D03*
%TO.P,R4,2*%
%TO.N,D3_NRF*%
X78210000Y-95300000D03*
%TD*%
D14*
%TO.P,C7,1*%
%TO.N,V0_NRF*%
X95800000Y-98700000D03*
%TO.P,C7,2*%
%TO.N,GND*%
X96760000Y-98700000D03*
%TD*%
D12*
%TO.P,D2,1,1*%
%TO.N,D1_IN*%
X84910000Y-100500000D03*
%TO.P,D2,2,2*%
%TO.N,GND*%
X87310000Y-100500000D03*
%TD*%
D15*
%TO.P,D18,1,K*%
%TO.N,Net-(D18-K)*%
X116912500Y-62670000D03*
%TO.P,D18,2,A*%
%TO.N,V_RELAY*%
X116912500Y-61700000D03*
%TD*%
D16*
%TO.P,C17,1*%
%TO.N,LDO2_OUT*%
X74000000Y-56675000D03*
%TO.P,C17,2*%
%TO.N,GND*%
X74000000Y-55125000D03*
%TD*%
D17*
%TO.P,J2,1,+*%
%TO.N,VBAT*%
X78880000Y-41000000D03*
X86500000Y-38460000D03*
X86500000Y-43540000D03*
%TO.P,J2,2,-*%
%TO.N,GND*%
X137500000Y-38460000D03*
X137500000Y-43540000D03*
X145120000Y-41000000D03*
%TD*%
D18*
%TO.P,SW1,1,1*%
%TO.N,RESET*%
X66150000Y-90325000D03*
X70650000Y-90325000D03*
%TO.P,SW1,2,2*%
%TO.N,GND*%
X66150000Y-92475000D03*
X70650000Y-92475000D03*
%TD*%
D19*
%TO.P,C20,1*%
%TO.N,VSYS*%
X71400000Y-62825000D03*
%TO.P,C20,2*%
%TO.N,GND*%
X71400000Y-64375000D03*
%TD*%
D20*
%TO.P,R20,1*%
%TO.N,Net-(D9-A1)*%
X104390000Y-97112500D03*
%TO.P,R20,2*%
%TO.N,I0_NRF*%
X104390000Y-95287500D03*
%TD*%
D21*
%TO.P,J6,1,Pin_1*%
%TO.N,V_SENSOR2*%
X143240000Y-107500000D03*
D22*
%TO.P,J6,2,Pin_2*%
%TO.N,I1_IN*%
X139430000Y-107500000D03*
%TO.P,J6,3,Pin_3*%
%TO.N,V1_IN*%
X135620000Y-107500000D03*
%TO.P,J6,4,Pin_4*%
%TO.N,D4_IN*%
X131810000Y-107500000D03*
%TO.P,J6,5,Pin_5*%
%TO.N,D5_IN*%
X128000000Y-107500000D03*
%TO.P,J6,6,Pin_6*%
%TO.N,D6_IN*%
X124190000Y-107500000D03*
%TO.P,J6,7,Pin_7*%
%TO.N,D7_IN*%
X120380000Y-107500000D03*
%TO.P,J6,8,Pin_8*%
%TO.N,GND*%
X116570000Y-107500000D03*
%TD*%
D13*
%TO.P,R11,1*%
%TO.N,VDD*%
X121380000Y-94950000D03*
%TO.P,R11,2*%
%TO.N,D6_NRF*%
X122400000Y-94950000D03*
%TD*%
D23*
%TO.P,R37,1*%
%TO.N,VBOOST1*%
X103755000Y-64750000D03*
%TO.P,R37,2*%
%TO.N,BOOST1_FB*%
X102735000Y-64750000D03*
%TD*%
D10*
%TO.P,C4,1*%
%TO.N,RESET*%
X72700000Y-90300000D03*
%TO.P,C4,2*%
%TO.N,GND*%
X72700000Y-91260000D03*
%TD*%
D12*
%TO.P,D5,1,1*%
%TO.N,D4_IN*%
X129062500Y-100000000D03*
%TO.P,D5,2,2*%
%TO.N,GND*%
X131462500Y-100000000D03*
%TD*%
D24*
%TO.P,L3,1,1*%
%TO.N,VSYS*%
X105065000Y-59500000D03*
%TO.P,L3,2,2*%
%TO.N,Net-(U3-SW)*%
X102915000Y-59500000D03*
%TD*%
D18*
%TO.P,D20,1,GND*%
%TO.N,GND*%
X86350000Y-65000000D03*
D25*
%TO.P,D20,2,I/O1*%
%TO.N,USB_D+*%
X88050000Y-65000000D03*
%TO.P,D20,3,I/O2*%
%TO.N,USB_D-*%
X88050000Y-63000000D03*
%TO.P,D20,4,VCC*%
%TO.N,VBUS*%
X86150000Y-63000000D03*
%TD*%
D26*
%TO.P,U3,1,SW*%
%TO.N,Net-(U3-SW)*%
X102790000Y-61600000D03*
%TO.P,U3,2,GND*%
%TO.N,GND*%
X102790000Y-62550000D03*
%TO.P,U3,3,FB*%
%TO.N,BOOST1_FB*%
X102790000Y-63500000D03*
%TO.P,U3,4,EN*%
%TO.N,BOOST1_EN*%
X105300000Y-63500000D03*
%TO.P,U3,5,VOUT*%
%TO.N,VBOOST1*%
X105300000Y-62550000D03*
%TO.P,U3,6,VIN*%
%TO.N,VSYS*%
X105300000Y-61600000D03*
%TD*%
D27*
%TO.P,D12,1,1*%
%TO.N,V1_IN*%
X134000000Y-100100000D03*
%TO.P,D12,2,2*%
%TO.N,GND*%
X134000000Y-97700000D03*
%TD*%
D23*
%TO.P,R14,1*%
%TO.N,V_SENSOR2*%
X125372500Y-101700000D03*
%TO.P,R14,2*%
%TO.N,D5_IN*%
X124352500Y-101700000D03*
%TD*%
D28*
%TO.P,C14,1*%
%TO.N,VDD*%
X68125000Y-65900000D03*
%TO.P,C14,2*%
%TO.N,GND*%
X69675000Y-65900000D03*
%TD*%
D29*
%TO.P,R38,1*%
%TO.N,BOOST1_FB*%
X101400000Y-63610000D03*
%TO.P,R38,2*%
%TO.N,GND*%
X101400000Y-62590000D03*
%TD*%
D28*
%TO.P,C18,1*%
%TO.N,VSYS*%
X107715000Y-61100000D03*
%TO.P,C18,2*%
%TO.N,GND*%
X109265000Y-61100000D03*
%TD*%
D30*
%TO.P,D15,1,K*%
%TO.N,V_SENSOR2*%
X129550000Y-85162500D03*
%TO.P,D15,2,A*%
%TO.N,VBOOST2*%
X126250000Y-85162500D03*
%TD*%
%TO.P,D14,1,K*%
%TO.N,V_SENSOR1*%
X117450000Y-85500000D03*
%TO.P,D14,2,A*%
%TO.N,VBOOST1*%
X114150000Y-85500000D03*
%TD*%
D14*
%TO.P,C6,1*%
%TO.N,I1_NRF*%
X144357500Y-92450000D03*
%TO.P,C6,2*%
%TO.N,GND*%
X145317500Y-92450000D03*
%TD*%
D23*
%TO.P,R7,1*%
%TO.N,V_SENSOR1*%
X81310000Y-102200000D03*
%TO.P,R7,2*%
%TO.N,D2_IN*%
X80290000Y-102200000D03*
%TD*%
D31*
%TO.P,C13,1*%
%TO.N,V_RELAY*%
X72875000Y-58300000D03*
%TO.P,C13,2*%
%TO.N,GND*%
X71325000Y-58300000D03*
%TD*%
D23*
%TO.P,R6,1*%
%TO.N,V_SENSOR1*%
X85920000Y-102200000D03*
%TO.P,R6,2*%
%TO.N,D1_IN*%
X84900000Y-102200000D03*
%TD*%
D11*
%TO.P,Q1,1,G*%
%TO.N,VDD*%
X91547500Y-98550000D03*
%TO.P,Q1,2,S*%
%TO.N,D0_NRF*%
X91547500Y-96650000D03*
%TO.P,Q1,3,D*%
%TO.N,D0_IN*%
X89672500Y-97600000D03*
%TD*%
D32*
%TO.P,D19,1,K*%
%TO.N,V_RELAY*%
X119112500Y-61700000D03*
%TO.P,D19,2,A*%
%TO.N,GND*%
X119112500Y-66100000D03*
%TD*%
D13*
%TO.P,R27,1*%
%TO.N,V1_NRF*%
X135800000Y-97700000D03*
%TO.P,R27,2*%
%TO.N,GND*%
X136820000Y-97700000D03*
%TD*%
D33*
%TO.P,D9,1,A1*%
%TO.N,Net-(D9-A1)*%
X100990000Y-101000000D03*
%TO.P,D9,2,A2*%
%TO.N,GND*%
X100990000Y-97000000D03*
%TD*%
D29*
%TO.P,R31,1*%
%TO.N,GND*%
X113050000Y-83310000D03*
%TO.P,R31,2*%
%TO.N,Net-(Q9-G)*%
X113050000Y-82290000D03*
%TD*%
D18*
%TO.P,SW2,1,1*%
%TO.N,BUT1*%
X66150000Y-77525000D03*
X70650000Y-77525000D03*
%TO.P,SW2,2,2*%
%TO.N,GND*%
X66150000Y-79675000D03*
X70650000Y-79675000D03*
%TD*%
D34*
%TO.P,R42,1*%
%TO.N,VBOOST1*%
X106445000Y-65590000D03*
%TO.P,R42,2*%
%TO.N,Net-(Q11-D1)*%
X106445000Y-66610000D03*
%TD*%
D35*
%TO.P,Q12,1,S2*%
%TO.N,BOOST2_FB*%
X111300000Y-75825000D03*
%TO.P,Q12,2,G2*%
%TO.N,BOOST2_FB_CTRL2*%
X111300000Y-76475000D03*
%TO.P,Q12,3,D1*%
%TO.N,Net-(Q12-D1)*%
X111300000Y-77125000D03*
%TO.P,Q12,4,S1*%
%TO.N,BOOST2_FB*%
X113300000Y-77125000D03*
%TO.P,Q12,5,G1*%
%TO.N,BOOST2_FB_CTRL1*%
X113300000Y-76475000D03*
%TO.P,Q12,6,D2*%
%TO.N,Net-(Q12-D2)*%
X113300000Y-75825000D03*
%TD*%
D29*
%TO.P,R40,1*%
%TO.N,BOOST2_FB*%
X111255000Y-73320000D03*
%TO.P,R40,2*%
%TO.N,GND*%
X111255000Y-72300000D03*
%TD*%
D36*
%TO.P,J1,01,VTref*%
%TO.N,VDD*%
X73840000Y-82967500D03*
%TO.P,J1,02,SWDIO/TMS*%
%TO.N,SWDIO*%
X73840000Y-87032500D03*
%TO.P,J1,03,GND*%
%TO.N,GND*%
X72570000Y-82967500D03*
%TO.P,J1,04,SWDCLK/TCK*%
%TO.N,SWCLK*%
X72570000Y-87032500D03*
%TO.P,J1,05,GND*%
%TO.N,GND*%
X71300000Y-82967500D03*
%TO.P,J1,06,SWO/TDO*%
%TO.N,unconnected-(J1-SWO{slash}TDO-Pad06)*%
X71300000Y-87032500D03*
%TO.P,J1,07,KEY*%
%TO.N,unconnected-(J1-KEY-Pad07)*%
X70030000Y-82967500D03*
%TO.P,J1,08,NC/TDI*%
%TO.N,unconnected-(J1-NC{slash}TDI-Pad08)*%
X70030000Y-87032500D03*
%TO.P,J1,09,GNDDetect*%
%TO.N,GND*%
X68760000Y-82967500D03*
%TO.P,J1,10,nRESET*%
%TO.N,RESET*%
X68760000Y-87032500D03*
%TD*%
D23*
%TO.P,R15,1*%
%TO.N,V_SENSOR2*%
X120810000Y-101850000D03*
%TO.P,R15,2*%
%TO.N,D6_IN*%
X119790000Y-101850000D03*
%TD*%
D29*
%TO.P,R23,1*%
%TO.N,V1_IN*%
X135800000Y-101010000D03*
%TO.P,R23,2*%
%TO.N,V1_NRF*%
X135800000Y-99990000D03*
%TD*%
D37*
%TO.P,F2,1*%
%TO.N,I1_IN*%
X144357500Y-100050000D03*
%TO.P,F2,2*%
%TO.N,Net-(D10-A1)*%
X144357500Y-97250000D03*
%TD*%
D13*
%TO.P,R9,1*%
%TO.N,VDD*%
X130652500Y-94800000D03*
%TO.P,R9,2*%
%TO.N,D4_NRF*%
X131672500Y-94800000D03*
%TD*%
D16*
%TO.P,C12,1*%
%TO.N,LDO1_OUT*%
X78600000Y-56675000D03*
%TO.P,C12,2*%
%TO.N,GND*%
X78600000Y-55125000D03*
%TD*%
D29*
%TO.P,R22,1*%
%TO.N,V0_IN*%
X95800000Y-100910000D03*
%TO.P,R22,2*%
%TO.N,V0_NRF*%
X95800000Y-99890000D03*
%TD*%
D12*
%TO.P,D1,1,1*%
%TO.N,D0_IN*%
X89510000Y-100500000D03*
%TO.P,D1,2,2*%
%TO.N,GND*%
X91910000Y-100500000D03*
%TD*%
D13*
%TO.P,R2,1*%
%TO.N,VDD*%
X86490000Y-95300000D03*
%TO.P,R2,2*%
%TO.N,D1_NRF*%
X87510000Y-95300000D03*
%TD*%
D26*
%TO.P,U4,1,SW*%
%TO.N,Net-(U4-SW)*%
X112645000Y-71350000D03*
%TO.P,U4,2,GND*%
%TO.N,GND*%
X112645000Y-72300000D03*
%TO.P,U4,3,FB*%
%TO.N,BOOST2_FB*%
X112645000Y-73250000D03*
%TO.P,U4,4,EN*%
%TO.N,BOOST2_EN*%
X115155000Y-73250000D03*
%TO.P,U4,5,VOUT*%
%TO.N,VBOOST2*%
X115155000Y-72300000D03*
%TO.P,U4,6,VIN*%
%TO.N,VSYS*%
X115155000Y-71350000D03*
%TD*%
D23*
%TO.P,R8,1*%
%TO.N,V_SENSOR1*%
X76610000Y-102200000D03*
%TO.P,R8,2*%
%TO.N,D3_IN*%
X75590000Y-102200000D03*
%TD*%
D13*
%TO.P,R26,1*%
%TO.N,V0_NRF*%
X95800000Y-97600000D03*
%TO.P,R26,2*%
%TO.N,GND*%
X96820000Y-97600000D03*
%TD*%
D38*
%TO.P,L2,1,1*%
%TO.N,VDD*%
X67575000Y-63600000D03*
%TO.P,L2,2,2*%
%TO.N,Net-(U2-SW2)*%
X69700000Y-63600000D03*
%TD*%
D19*
%TO.P,C1,1*%
%TO.N,VDD*%
X106500000Y-77425000D03*
%TO.P,C1,2*%
%TO.N,GND*%
X106500000Y-78975000D03*
%TD*%
D35*
%TO.P,Q11,1,S2*%
%TO.N,BOOST1_FB*%
X101390000Y-66000000D03*
%TO.P,Q11,2,G2*%
%TO.N,BOOST1_FB_CTRL2*%
X101390000Y-66650000D03*
%TO.P,Q11,3,D1*%
%TO.N,Net-(Q11-D1)*%
X101390000Y-67300000D03*
%TO.P,Q11,4,S1*%
%TO.N,BOOST1_FB*%
X103390000Y-67300000D03*
%TO.P,Q11,5,G1*%
%TO.N,BOOST1_FB_CTRL1*%
X103390000Y-66650000D03*
%TO.P,Q11,6,D2*%
%TO.N,Net-(Q11-D2)*%
X103390000Y-66000000D03*
%TD*%
D13*
%TO.P,R12,1*%
%TO.N,VDD*%
X116842500Y-95000000D03*
%TO.P,R12,2*%
%TO.N,D7_NRF*%
X117862500Y-95000000D03*
%TD*%
D39*
%TO.P,C25,1*%
%TO.N,VBOOST2*%
X117550000Y-72725000D03*
%TO.P,C25,2*%
%TO.N,GND*%
X119450000Y-72725000D03*
%TD*%
D40*
%TO.P,J4,1,Pin_1*%
%TO.N,Net-(J4-Pin_1)*%
X147112500Y-59020000D03*
D41*
%TO.P,J4,2,Pin_2*%
%TO.N,Net-(J4-Pin_2)*%
X147112500Y-64100000D03*
%TO.P,J4,3,Pin_3*%
%TO.N,Net-(J4-Pin_3)*%
X147112500Y-69180000D03*
%TD*%
D29*
%TO.P,R18,1*%
%TO.N,V_SENSOR1*%
X118950000Y-81710000D03*
%TO.P,R18,2*%
%TO.N,V_SENSOR1_READ*%
X118950000Y-80690000D03*
%TD*%
D27*
%TO.P,D17,1,1*%
%TO.N,V_SENSOR2*%
X131700000Y-85162500D03*
%TO.P,D17,2,2*%
%TO.N,GND*%
X131700000Y-82762500D03*
%TD*%
D42*
%TO.P,K1,A1*%
%TO.N,V_RELAY*%
X126112500Y-58100000D03*
D43*
%TO.P,K1,A2*%
%TO.N,GND*%
X126112500Y-70100000D03*
D44*
%TO.P,K1,COM*%
%TO.N,Net-(J4-Pin_2)*%
X124112500Y-64100000D03*
D43*
%TO.P,K1,NC*%
%TO.N,Net-(J4-Pin_1)*%
X138312500Y-58100000D03*
%TO.P,K1,NO*%
%TO.N,Net-(J4-Pin_3)*%
X138312500Y-70100000D03*
%TD*%
D21*
%TO.P,J5,1,Pin_1*%
%TO.N,V_SENSOR1*%
X102817500Y-107357500D03*
D22*
%TO.P,J5,2,Pin_2*%
%TO.N,I0_IN*%
X99007500Y-107357500D03*
%TO.P,J5,3,Pin_3*%
%TO.N,V0_IN*%
X95197500Y-107357500D03*
%TO.P,J5,4,Pin_4*%
%TO.N,D0_IN*%
X91387500Y-107357500D03*
%TO.P,J5,5,Pin_5*%
%TO.N,D1_IN*%
X87577500Y-107357500D03*
%TO.P,J5,6,Pin_6*%
%TO.N,D2_IN*%
X83767500Y-107357500D03*
%TO.P,J5,7,Pin_7*%
%TO.N,D3_IN*%
X79957500Y-107357500D03*
%TO.P,J5,8,Pin_8*%
%TO.N,GND*%
X76147500Y-107357500D03*
%TD*%
D16*
%TO.P,C16,1*%
%TO.N,VSYS*%
X71400000Y-61375000D03*
%TO.P,C16,2*%
%TO.N,GND*%
X71400000Y-59825000D03*
%TD*%
D13*
%TO.P,R1,1*%
%TO.N,VDD*%
X91090000Y-95300000D03*
%TO.P,R1,2*%
%TO.N,D0_NRF*%
X92110000Y-95300000D03*
%TD*%
D23*
%TO.P,R39,1*%
%TO.N,VBOOST2*%
X113665000Y-74525000D03*
%TO.P,R39,2*%
%TO.N,BOOST2_FB*%
X112645000Y-74525000D03*
%TD*%
D34*
%TO.P,R29,1*%
%TO.N,V_SENSOR2_READ*%
X132400000Y-80352500D03*
%TO.P,R29,2*%
%TO.N,GND*%
X132400000Y-81372500D03*
%TD*%
D45*
%TO.P,U1,1,VBUS*%
%TO.N,VBUS_NRF*%
X100200000Y-74094853D03*
%TO.P,U1,2,USB-*%
%TO.N,USB_D-*%
X99000000Y-74094853D03*
%TO.P,U1,3,USB+*%
%TO.N,USB_D+*%
X97800000Y-74094853D03*
%TO.P,U1,4,P0.13*%
%TO.N,BOOST2_FB_CTRL2*%
X96600000Y-74094853D03*
%TO.P,U1,5,P0.14*%
%TO.N,BOOST2_EN*%
X95400000Y-74094853D03*
%TO.P,U1,6,P0.15*%
%TO.N,BOOST1_FB_CTRL1*%
X94200000Y-74094853D03*
%TO.P,U1,7,P0.16*%
%TO.N,BOOST1_FB_CTRL2*%
X93000000Y-74094853D03*
%TO.P,U1,8,P0.17*%
%TO.N,BOOST1_EN*%
X91800000Y-74094853D03*
%TO.P,U1,9,P0.19*%
%TO.N,NPM_SCL*%
X90600000Y-74094853D03*
%TO.P,U1,10,P0.20*%
%TO.N,NPM_SDA*%
X89400000Y-74094853D03*
%TO.P,U1,11,P0.21*%
%TO.N,NPM_IO2*%
X88200000Y-74094853D03*
%TO.P,U1,12,P0.10*%
%TO.N,NPM_IO1*%
X87000000Y-74094853D03*
%TO.P,U1,13,P0.09*%
%TO.N,BUT1*%
X85800000Y-74094853D03*
D46*
%TO.P,U1,14,GND*%
%TO.N,GND*%
X80630000Y-76054853D03*
%TO.P,U1,15,RF_BT*%
%TO.N,unconnected-(U1-RF_BT-Pad15)*%
X80630000Y-77254853D03*
%TO.P,U1,16,GND*%
%TO.N,GND*%
X80630000Y-79654853D03*
%TO.P,U1,17,NRF_RESET*%
%TO.N,RESET*%
X80630000Y-80854853D03*
%TO.P,U1,18,SWDCLK*%
%TO.N,SWCLK*%
X80630000Y-82054853D03*
%TO.P,U1,19,SWDIO*%
%TO.N,SWDIO*%
X80630000Y-83254853D03*
%TO.P,U1,20,VBAT_SX*%
%TO.N,VDD*%
X80630000Y-84454853D03*
%TO.P,U1,21,VBAT_IO_SX*%
X80630000Y-85654853D03*
%TO.P,U1,22,GND*%
%TO.N,GND*%
X80630000Y-86854853D03*
D45*
%TO.P,U1,23,P0.24*%
%TO.N,D3_NRF*%
X83300000Y-88834853D03*
%TO.P,U1,24,P0.25*%
%TO.N,D2_NRF*%
X84500000Y-88834853D03*
%TO.P,U1,25,P1.01*%
%TO.N,D1_NRF*%
X85700000Y-88834853D03*
%TO.P,U1,26,P1.02*%
%TO.N,D0_NRF*%
X86900000Y-88834853D03*
%TO.P,U1,27,P1.03*%
%TO.N,D7_NRF*%
X88100000Y-88834853D03*
%TO.P,U1,28,P1.04*%
%TO.N,D6_NRF*%
X89300000Y-88834853D03*
%TO.P,U1,29,P0.03*%
%TO.N,V0_NRF*%
X90500000Y-88834853D03*
%TO.P,U1,30,P0.02*%
%TO.N,I0_NRF*%
X91700000Y-88834853D03*
%TO.P,U1,31,P0.28*%
%TO.N,D5_NRF*%
X92900000Y-88834853D03*
%TO.P,U1,32,P0.29*%
%TO.N,D4_NRF*%
X94100000Y-88834853D03*
%TO.P,U1,33,P0.30*%
%TO.N,V1_NRF*%
X95300000Y-88834853D03*
%TO.P,U1,34,P0.26*%
%TO.N,BOOST2_FB_CTRL1*%
X96500000Y-88834853D03*
%TO.P,U1,35,GND*%
%TO.N,GND*%
X97700000Y-88834853D03*
D46*
%TO.P,U1,36,GND*%
X103370000Y-86914853D03*
%TO.P,U1,37,RF_LoRa*%
%TO.N,unconnected-(U1-RF_LoRa-Pad37)*%
X103370000Y-85714853D03*
%TO.P,U1,38,GND*%
%TO.N,GND*%
X103370000Y-83314853D03*
%TO.P,U1,39,P0.31*%
%TO.N,I1_NRF*%
X103370000Y-82114853D03*
%TO.P,U1,40,P0.05*%
%TO.N,V_SENSOR2_READ*%
X103370000Y-80914853D03*
%TO.P,U1,41,P0.04*%
%TO.N,V_SENSOR1_READ*%
X103370000Y-79714853D03*
%TO.P,U1,42,GND*%
%TO.N,GND*%
X103370000Y-78514853D03*
%TO.P,U1,43,VDD_NRF*%
%TO.N,VDD*%
X103370000Y-77314853D03*
%TO.P,U1,44,VBAT_NRF*%
X103370000Y-76114853D03*
%TD*%
D11*
%TO.P,Q6,1,G*%
%TO.N,VDD*%
X126400000Y-98050000D03*
%TO.P,Q6,2,S*%
%TO.N,D5_NRF*%
X126400000Y-96150000D03*
%TO.P,Q6,3,D*%
%TO.N,D5_IN*%
X124525000Y-97100000D03*
%TD*%
D47*
%TO.P,R24,1*%
%TO.N,I0_NRF*%
X104405000Y-92900000D03*
%TO.P,R24,2*%
%TO.N,GND*%
X105375000Y-92900000D03*
%TD*%
D16*
%TO.P,C21,1*%
%TO.N,LDO2_OUT*%
X75500000Y-56675000D03*
%TO.P,C21,2*%
%TO.N,GND*%
X75500000Y-55125000D03*
%TD*%
D14*
%TO.P,C8,1*%
%TO.N,V1_NRF*%
X135800000Y-98800000D03*
%TO.P,C8,2*%
%TO.N,GND*%
X136760000Y-98800000D03*
%TD*%
D48*
%TO.P,D13,1,AR*%
%TO.N,VSYS*%
X86100000Y-57350000D03*
%TO.P,D13,2,KR*%
%TO.N,Net-(D13-KR)*%
X83100000Y-57350000D03*
%TO.P,D13,3,AG*%
%TO.N,VSYS*%
X86100000Y-56300000D03*
%TO.P,D13,4,KG*%
%TO.N,Net-(D13-KG)*%
X83100000Y-56300000D03*
%TO.P,D13,5,AB*%
%TO.N,VSYS*%
X86100000Y-55250000D03*
%TO.P,D13,6,KB*%
%TO.N,Net-(D13-KB)*%
X83100000Y-55250000D03*
%TD*%
D23*
%TO.P,R5,1*%
%TO.N,V_SENSOR1*%
X90520000Y-102200000D03*
%TO.P,R5,2*%
%TO.N,D0_IN*%
X89500000Y-102200000D03*
%TD*%
D14*
%TO.P,C9,1*%
%TO.N,VBAT*%
X80720000Y-65200000D03*
%TO.P,C9,2*%
%TO.N,GND*%
X81680000Y-65200000D03*
%TD*%
D33*
%TO.P,D10,1,A1*%
%TO.N,Net-(D10-A1)*%
X140957500Y-99450000D03*
%TO.P,D10,2,A2*%
%TO.N,GND*%
X140957500Y-95450000D03*
%TD*%
D13*
%TO.P,R35,1*%
%TO.N,BOOST1_EN*%
X105845000Y-64600000D03*
%TO.P,R35,2*%
%TO.N,GND*%
X106865000Y-64600000D03*
%TD*%
%TO.P,R10,1*%
%TO.N,VDD*%
X125952500Y-94800000D03*
%TO.P,R10,2*%
%TO.N,D5_NRF*%
X126972500Y-94800000D03*
%TD*%
D18*
%TO.P,SW3,1,1*%
%TO.N,GND*%
X70650000Y-74475000D03*
X66150000Y-74475000D03*
%TO.P,SW3,2,2*%
%TO.N,Net-(U2-SHPHLD)*%
X70650000Y-72325000D03*
X66150000Y-72325000D03*
%TD*%
D47*
%TO.P,R25,1*%
%TO.N,I1_NRF*%
X144372500Y-91437500D03*
%TO.P,R25,2*%
%TO.N,GND*%
X145342500Y-91437500D03*
%TD*%
D11*
%TO.P,Q3,1,G*%
%TO.N,VDD*%
X82337500Y-98550000D03*
%TO.P,Q3,2,S*%
%TO.N,D2_NRF*%
X82337500Y-96650000D03*
%TO.P,Q3,3,D*%
%TO.N,D2_IN*%
X80462500Y-97600000D03*
%TD*%
D23*
%TO.P,R16,1*%
%TO.N,V_SENSOR2*%
X116262500Y-101900000D03*
%TO.P,R16,2*%
%TO.N,D7_IN*%
X115242500Y-101900000D03*
%TD*%
D20*
%TO.P,R21,1*%
%TO.N,Net-(D10-A1)*%
X144357500Y-95562500D03*
%TO.P,R21,2*%
%TO.N,I1_NRF*%
X144357500Y-93737500D03*
%TD*%
D39*
%TO.P,C24,1*%
%TO.N,VBOOST1*%
X107740000Y-62900000D03*
%TO.P,C24,2*%
%TO.N,GND*%
X109640000Y-62900000D03*
%TD*%
D11*
%TO.P,Q2,1,G*%
%TO.N,VDD*%
X86947500Y-98550000D03*
%TO.P,Q2,2,S*%
%TO.N,D1_NRF*%
X86947500Y-96650000D03*
%TO.P,Q2,3,D*%
%TO.N,D1_IN*%
X85072500Y-97600000D03*
%TD*%
D27*
%TO.P,D16,1,1*%
%TO.N,V_SENSOR1*%
X119600000Y-85500000D03*
%TO.P,D16,2,2*%
%TO.N,GND*%
X119600000Y-83100000D03*
%TD*%
D28*
%TO.P,C22,1*%
%TO.N,VSYS*%
X81025000Y-63100000D03*
%TO.P,C22,2*%
%TO.N,GND*%
X82575000Y-63100000D03*
%TD*%
D34*
%TO.P,R19,1*%
%TO.N,V_SENSOR1_READ*%
X120300000Y-80690000D03*
%TO.P,R19,2*%
%TO.N,GND*%
X120300000Y-81710000D03*
%TD*%
D12*
%TO.P,D3,1,1*%
%TO.N,D2_IN*%
X80300000Y-100500000D03*
%TO.P,D3,2,2*%
%TO.N,GND*%
X82700000Y-100500000D03*
%TD*%
D49*
%TO.P,J3,1,Pin_1*%
%TO.N,GND*%
X94300000Y-67000000D03*
%TO.P,J3,2,Pin_2*%
%TO.N,USB_D+*%
X94300000Y-65000000D03*
%TO.P,J3,3,Pin_3*%
%TO.N,USB_D-*%
X94300000Y-63000000D03*
%TO.P,J3,4,Pin_4*%
%TO.N,CC2*%
X94300000Y-61000000D03*
%TO.P,J3,5,Pin_5*%
%TO.N,CC1*%
X94300000Y-59000000D03*
%TO.P,J3,6,Pin_6*%
%TO.N,VBUS*%
X94300000Y-57000000D03*
D50*
%TO.P,J3,MP*%
%TO.N,N/C*%
X92050000Y-69400000D03*
X92050000Y-54600000D03*
%TD*%
D29*
%TO.P,R28,1*%
%TO.N,V_SENSOR2*%
X131050000Y-81372500D03*
%TO.P,R28,2*%
%TO.N,V_SENSOR2_READ*%
X131050000Y-80352500D03*
%TD*%
D34*
%TO.P,R34,1*%
%TO.N,Net-(Q10-G)*%
X126150000Y-81942500D03*
%TO.P,R34,2*%
%TO.N,VBOOST2*%
X126150000Y-82962500D03*
%TD*%
D11*
%TO.P,Q4,1,G*%
%TO.N,VDD*%
X77637500Y-98550000D03*
%TO.P,Q4,2,S*%
%TO.N,D3_NRF*%
X77637500Y-96650000D03*
%TO.P,Q4,3,D*%
%TO.N,D3_IN*%
X75762500Y-97600000D03*
%TD*%
D51*
%TO.P,TH1,1*%
%TO.N,Net-(U2-NTC)*%
X109395000Y-48500000D03*
D52*
%TO.P,TH1,2*%
%TO.N,GND*%
X111295000Y-48500000D03*
%TD*%
D13*
%TO.P,R3,1*%
%TO.N,VDD*%
X81890000Y-95300000D03*
%TO.P,R3,2*%
%TO.N,D2_NRF*%
X82910000Y-95300000D03*
%TD*%
D12*
%TO.P,D4,1,1*%
%TO.N,D3_IN*%
X75600000Y-100500000D03*
%TO.P,D4,2,2*%
%TO.N,GND*%
X78000000Y-100500000D03*
%TD*%
D29*
%TO.P,R41,1*%
%TO.N,GND*%
X116912500Y-66100000D03*
%TO.P,R41,2*%
%TO.N,Net-(D18-K)*%
X116912500Y-65080000D03*
%TD*%
D27*
%TO.P,D11,1,1*%
%TO.N,V0_IN*%
X94000000Y-100000000D03*
%TO.P,D11,2,2*%
%TO.N,GND*%
X94000000Y-97600000D03*
%TD*%
D34*
%TO.P,R33,1*%
%TO.N,Net-(Q9-G)*%
X114150000Y-82290000D03*
%TO.P,R33,2*%
%TO.N,VBOOST1*%
X114150000Y-83310000D03*
%TD*%
D29*
%TO.P,R32,1*%
%TO.N,GND*%
X125050000Y-82972500D03*
%TO.P,R32,2*%
%TO.N,Net-(Q10-G)*%
X125050000Y-81952500D03*
%TD*%
%TO.P,R17,1*%
%TO.N,VDD*%
X73900000Y-91290000D03*
%TO.P,R17,2*%
%TO.N,RESET*%
X73900000Y-90270000D03*
%TD*%
D53*
%TO.P,U2,1,VOUT1*%
%TO.N,V_RELAY*%
X73750000Y-60650000D03*
%TO.P,U2,2,PVSS1*%
%TO.N,GND*%
X73750000Y-61150000D03*
%TO.P,U2,3,SW1*%
%TO.N,Net-(U2-SW1)*%
X73750000Y-61650000D03*
%TO.P,U2,4,PVDD*%
%TO.N,VSYS*%
X73750000Y-62150000D03*
%TO.P,U2,5,SW2*%
%TO.N,Net-(U2-SW2)*%
X73750000Y-62650000D03*
%TO.P,U2,6,PVSS2*%
%TO.N,GND*%
X73750000Y-63150000D03*
%TO.P,U2,7,GPIO0*%
%TO.N,BUT1*%
X73750000Y-63650000D03*
%TO.P,U2,8,GPIO1*%
%TO.N,NPM_IO1*%
X73750000Y-64150000D03*
D54*
%TO.P,U2,9,GPIO2*%
%TO.N,NPM_IO2*%
X74450000Y-64850000D03*
%TO.P,U2,10,GPIO3*%
%TO.N,unconnected-(U2-GPIO3-Pad10)*%
X74950000Y-64850000D03*
%TO.P,U2,11,GPIO4*%
%TO.N,unconnected-(U2-GPIO4-Pad11)*%
X75450000Y-64850000D03*
%TO.P,U2,12,VDDIO*%
%TO.N,VDD*%
X75950000Y-64850000D03*
%TO.P,U2,13,SDA*%
%TO.N,NPM_SDA*%
X76450000Y-64850000D03*
%TO.P,U2,14,SCL*%
%TO.N,NPM_SCL*%
X76950000Y-64850000D03*
%TO.P,U2,15,SHPHLD*%
%TO.N,Net-(U2-SHPHLD)*%
X77450000Y-64850000D03*
%TO.P,U2,16,VSET2*%
%TO.N,Net-(U2-VSET2)*%
X77950000Y-64850000D03*
D53*
%TO.P,U2,17,VSET1*%
%TO.N,GND*%
X78650000Y-64150000D03*
%TO.P,U2,18,NTC*%
%TO.N,Net-(U2-NTC)*%
X78650000Y-63650000D03*
%TO.P,U2,19,VBAT*%
%TO.N,VBAT*%
X78650000Y-63150000D03*
%TO.P,U2,20,VSYS*%
%TO.N,VSYS*%
X78650000Y-62650000D03*
%TO.P,U2,21,VBUS*%
%TO.N,VBUS*%
X78650000Y-62150000D03*
%TO.P,U2,22,VBUSOUT*%
%TO.N,VBUS_NRF*%
X78650000Y-61650000D03*
%TO.P,U2,23,CC1*%
%TO.N,CC1*%
X78650000Y-61150000D03*
%TO.P,U2,24,CC2*%
%TO.N,CC2*%
X78650000Y-60650000D03*
D54*
%TO.P,U2,25,LED0*%
%TO.N,Net-(D13-KR)*%
X77950000Y-59950000D03*
%TO.P,U2,26,LED1*%
%TO.N,Net-(D13-KG)*%
X77450000Y-59950000D03*
%TO.P,U2,27,LED2*%
%TO.N,Net-(D13-KB)*%
X76950000Y-59950000D03*
%TO.P,U2,28,LSIN1/VINLDO1*%
%TO.N,VSYS*%
X76450000Y-59950000D03*
%TO.P,U2,29,LSOUT1/VOUTLDO1*%
%TO.N,LDO1_OUT*%
X75950000Y-59950000D03*
%TO.P,U2,30,LSIN2/VINLDO2*%
%TO.N,VSYS*%
X75450000Y-59950000D03*
%TO.P,U2,31,LSOUT2/VOUTLDO2*%
%TO.N,LDO2_OUT*%
X74950000Y-59950000D03*
%TO.P,U2,32,VOUT2*%
%TO.N,VDD*%
X74450000Y-59950000D03*
D55*
%TO.P,U2,33,PAD*%
%TO.N,GND*%
X76200000Y-62400000D03*
%TD*%
D12*
%TO.P,D8,1,1*%
%TO.N,D7_IN*%
X115252500Y-100200000D03*
%TO.P,D8,2,2*%
%TO.N,GND*%
X117652500Y-100200000D03*
%TD*%
D37*
%TO.P,F1,1*%
%TO.N,I0_IN*%
X104390000Y-101600000D03*
%TO.P,F1,2*%
%TO.N,Net-(D9-A1)*%
X104390000Y-98800000D03*
%TD*%
D23*
%TO.P,R13,1*%
%TO.N,V_SENSOR2*%
X130072500Y-101700000D03*
%TO.P,R13,2*%
%TO.N,D4_IN*%
X129052500Y-101700000D03*
%TD*%
D28*
%TO.P,C19,1*%
%TO.N,VSYS*%
X117470000Y-70900000D03*
%TO.P,C19,2*%
%TO.N,GND*%
X119020000Y-70900000D03*
%TD*%
D56*
%TO.P,L1,1,1*%
%TO.N,V_RELAY*%
X69200000Y-58737500D03*
%TO.P,L1,2,2*%
%TO.N,Net-(U2-SW1)*%
X69200000Y-60862500D03*
%TD*%
D34*
%TO.P,R43,1*%
%TO.N,VBOOST1*%
X105390000Y-65590000D03*
%TO.P,R43,2*%
%TO.N,Net-(Q11-D2)*%
X105390000Y-66610000D03*
%TD*%
D13*
%TO.P,R36,1*%
%TO.N,BOOST2_EN*%
X115590000Y-74425000D03*
%TO.P,R36,2*%
%TO.N,GND*%
X116610000Y-74425000D03*
%TD*%
D16*
%TO.P,C15,1*%
%TO.N,LDO1_OUT*%
X77000000Y-56675000D03*
%TO.P,C15,2*%
%TO.N,GND*%
X77000000Y-55125000D03*
%TD*%
D14*
%TO.P,C10,1*%
%TO.N,VBUS*%
X80820000Y-61900000D03*
%TO.P,C10,2*%
%TO.N,GND*%
X81780000Y-61900000D03*
%TD*%
D12*
%TO.P,D7,1,1*%
%TO.N,D6_IN*%
X119800000Y-100150000D03*
%TO.P,D7,2,2*%
%TO.N,GND*%
X122200000Y-100150000D03*
%TD*%
D34*
%TO.P,R45,1*%
%TO.N,VBOOST2*%
X115300000Y-75490000D03*
%TO.P,R45,2*%
%TO.N,Net-(Q12-D2)*%
X115300000Y-76510000D03*
%TD*%
D24*
%TO.P,L4,1,1*%
%TO.N,VSYS*%
X114875000Y-69200000D03*
%TO.P,L4,2,2*%
%TO.N,Net-(U4-SW)*%
X112725000Y-69200000D03*
%TD*%
D14*
%TO.P,C5,1*%
%TO.N,I0_NRF*%
X104410000Y-94000000D03*
%TO.P,C5,2*%
%TO.N,GND*%
X105370000Y-94000000D03*
%TD*%
D57*
%TO.P,J7,1,Pin_1*%
%TO.N,V_SENSOR1*%
X153000000Y-78375000D03*
D58*
%TO.P,J7,2,Pin_2*%
%TO.N,VDD*%
X153000000Y-80915000D03*
%TO.P,J7,3,Pin_3*%
%TO.N,D2_NRF*%
X153000000Y-83455000D03*
%TO.P,J7,4,Pin_4*%
%TO.N,D3_NRF*%
X153000000Y-85995000D03*
%TO.P,J7,5,Pin_5*%
%TO.N,GND*%
X153000000Y-88535000D03*
%TO.P,J7,6,Pin_6*%
%TO.N,V_SENSOR2*%
X153000000Y-91075000D03*
%TO.P,J7,7,Pin_7*%
%TO.N,VDD*%
X153000000Y-93615000D03*
%TO.P,J7,8,Pin_8*%
%TO.N,D6_NRF*%
X153000000Y-96155000D03*
%TO.P,J7,9,Pin_9*%
%TO.N,D7_NRF*%
X153000000Y-98695000D03*
%TO.P,J7,10,Pin_10*%
%TO.N,GND*%
X153000000Y-101235000D03*
%TD*%
D59*
%TO.P,Q9,1,G*%
%TO.N,Net-(Q9-G)*%
X115600000Y-82837500D03*
%TO.P,Q9,2,S*%
%TO.N,V_SENSOR1*%
X117500000Y-82837500D03*
%TO.P,Q9,3,D*%
%TO.N,LDO1_OUT*%
X116550000Y-80562500D03*
%TD*%
D34*
%TO.P,R30,1*%
%TO.N,Net-(U2-VSET2)*%
X78150000Y-66190000D03*
%TO.P,R30,2*%
%TO.N,GND*%
X78150000Y-67210000D03*
%TD*%
D59*
%TO.P,Q10,1,G*%
%TO.N,Net-(Q10-G)*%
X127600000Y-82500000D03*
%TO.P,Q10,2,S*%
%TO.N,V_SENSOR2*%
X129500000Y-82500000D03*
%TO.P,Q10,3,D*%
%TO.N,LDO2_OUT*%
X128550000Y-80225000D03*
%TD*%
D11*
%TO.P,Q7,1,G*%
%TO.N,VDD*%
X121837500Y-98230000D03*
%TO.P,Q7,2,S*%
%TO.N,D6_NRF*%
X121837500Y-96330000D03*
%TO.P,Q7,3,D*%
%TO.N,D6_IN*%
X119962500Y-97280000D03*
%TD*%
D34*
%TO.P,R44,1*%
%TO.N,VBOOST2*%
X116400000Y-75490000D03*
%TO.P,R44,2*%
%TO.N,Net-(Q12-D1)*%
X116400000Y-76510000D03*
%TD*%
D14*
%TO.P,C23,1*%
%TO.N,VBUS_NRF*%
X80820000Y-60300000D03*
%TO.P,C23,2*%
%TO.N,GND*%
X81780000Y-60300000D03*
%TD*%
D60*
%TO.N,VDD*%
X121800000Y-97600000D03*
X82400000Y-97900000D03*
X74200000Y-58500000D03*
X91600000Y-97900000D03*
X90500000Y-95300000D03*
X74700000Y-83000000D03*
X117300000Y-97600000D03*
X78500000Y-85300000D03*
X126400000Y-97400000D03*
X131100000Y-97400000D03*
X81900000Y-94500000D03*
X116200000Y-95000000D03*
X130500000Y-94100000D03*
X74600000Y-91300000D03*
X125800000Y-94100000D03*
X68000000Y-64700000D03*
X120800000Y-94900000D03*
X87000000Y-97900000D03*
X77700000Y-97900000D03*
X75100000Y-66600000D03*
X105700000Y-77425000D03*
X77200000Y-94600000D03*
X86400000Y-94600000D03*
%TO.N,GND*%
X124400000Y-82900000D03*
X72600000Y-81200000D03*
X76000000Y-62400000D03*
X86400000Y-64300000D03*
X106000000Y-94000000D03*
X119112500Y-67600000D03*
X98700000Y-88700000D03*
X112400000Y-83300000D03*
X75500000Y-54300000D03*
X126800000Y-99400000D03*
X119800000Y-71000000D03*
X120275000Y-72725000D03*
X97400000Y-97600000D03*
X91900000Y-99900000D03*
X82500000Y-65200000D03*
X106700000Y-63900000D03*
X106000000Y-92900000D03*
X104500000Y-86900000D03*
X70600000Y-79000000D03*
D61*
X111170000Y-71625000D03*
D60*
X91000000Y-67000000D03*
X76000000Y-63400000D03*
X68700000Y-81100000D03*
X77000000Y-63400000D03*
X101390000Y-62000000D03*
X146000000Y-92400000D03*
X75000000Y-63400000D03*
X78600000Y-54300000D03*
X105700000Y-78380000D03*
X87300000Y-99900000D03*
X120200000Y-83100000D03*
X137700000Y-98800000D03*
X72000000Y-91300000D03*
X70700000Y-75200000D03*
X121000000Y-81700000D03*
X116500000Y-73800000D03*
X66200000Y-93200000D03*
X78000000Y-99900000D03*
X76000000Y-61400000D03*
X94600000Y-97600000D03*
X82700000Y-61900000D03*
X132300000Y-82700000D03*
X78500000Y-86300000D03*
X117700000Y-99600000D03*
X122200000Y-99500000D03*
X70801650Y-65778672D03*
X77000000Y-54300000D03*
X77000000Y-62400000D03*
X101000000Y-95200000D03*
X82700000Y-99900000D03*
X110900000Y-62900000D03*
X137400000Y-97700000D03*
X140900000Y-93800000D03*
X72300000Y-59600000D03*
X82700000Y-60290000D03*
X104500000Y-83400000D03*
X79600000Y-76000000D03*
X110500000Y-61100000D03*
X134000000Y-96700000D03*
X79600000Y-79600000D03*
X97500000Y-98700000D03*
X131500000Y-99400000D03*
X74000000Y-54300000D03*
X77000000Y-61400000D03*
X70600000Y-93200000D03*
X71300000Y-81100000D03*
X79300000Y-66500000D03*
D61*
X75700000Y-68300000D03*
D60*
X75000000Y-62400000D03*
X133100000Y-81400000D03*
X66200000Y-75200000D03*
X66100000Y-79000000D03*
X75000000Y-61400000D03*
X146000000Y-91400000D03*
%TO.N,RESET*%
X79400000Y-80900000D03*
X69200000Y-85000000D03*
%TO.N,CC2*%
X89100000Y-61000000D03*
X85500000Y-58300000D03*
%TO.N,CC1*%
X87000000Y-59000000D03*
X91000000Y-59000000D03*
%TO.N,VBAT*%
X81700000Y-66200000D03*
X81000000Y-66100000D03*
%TO.N,VBUS_NRF*%
X101200000Y-74300000D03*
X85400000Y-60100000D03*
%TO.N,VSYS*%
X82200000Y-64200000D03*
X77400000Y-57900000D03*
X70800000Y-62100000D03*
X72000000Y-62100000D03*
X82900000Y-64200000D03*
X116100000Y-69500000D03*
X106400000Y-59900000D03*
X81500000Y-64200000D03*
X75700000Y-57800000D03*
D61*
X89100000Y-66500000D03*
D60*
X83000000Y-54200000D03*
%TO.N,BOOST1_FB_CTRL1*%
X94200000Y-72500000D03*
X104490000Y-66700000D03*
%TO.N,LDO2_OUT*%
X128550000Y-78100000D03*
X114800000Y-61100000D03*
%TO.N,BOOST1_FB_CTRL2*%
X93000000Y-71300000D03*
X100300000Y-66600000D03*
%TO.N,V_SENSOR1*%
X116500000Y-89000000D03*
X91000000Y-102800000D03*
X82200000Y-102800000D03*
X86000000Y-102900000D03*
X77300000Y-102700000D03*
X120700000Y-85500000D03*
X111700000Y-93100000D03*
%TO.N,V_SENSOR2*%
X130900000Y-102400000D03*
X117200000Y-102700000D03*
X121800000Y-102400000D03*
X126400000Y-102400000D03*
D61*
%TO.N,Net-(U2-SHPHLD)*%
X80300000Y-67900000D03*
D60*
X71700000Y-72300000D03*
%TO.N,BOOST2_FB_CTRL2*%
X96800000Y-72800000D03*
X110300000Y-76500000D03*
%TO.N,BOOST2_FB_CTRL1*%
X96600000Y-89900000D03*
X114200000Y-76500000D03*
%TO.N,BOOST1_EN*%
X105300000Y-64150000D03*
X91900000Y-72500000D03*
%TO.N,BOOST2_EN*%
X95600000Y-71800000D03*
X115155000Y-73900000D03*
%TO.N,Net-(U2-NTC)*%
X86800000Y-67600000D03*
%TO.N,D2_NRF*%
X84500000Y-90400000D03*
%TO.N,D3_NRF*%
X82550000Y-90450000D03*
D61*
%TO.N,D6_NRF*%
X122432500Y-94000000D03*
X90200000Y-91700000D03*
%TO.N,D7_NRF*%
X88100000Y-90400000D03*
X115932500Y-96300000D03*
D60*
%TO.N,V_SENSOR1_READ*%
X108400000Y-83300000D03*
X119600000Y-80690000D03*
%TO.N,V_SENSOR2_READ*%
X109200000Y-84300000D03*
X131700000Y-80352500D03*
%TD*%
D62*
%TO.N,VDD*%
X91547500Y-98550000D02*
X91547500Y-97952500D01*
X79200000Y-85320000D02*
X78520000Y-85320000D01*
X77637500Y-98550000D02*
X77637500Y-97962500D01*
X73840000Y-82967500D02*
X74667500Y-82967500D01*
X105005000Y-77425000D02*
X105000000Y-77420000D01*
D63*
X75800000Y-65900000D02*
X75800000Y-66520000D01*
D62*
X130652500Y-94252500D02*
X130500000Y-94100000D01*
X86490000Y-95300000D02*
X86490000Y-94690000D01*
X75720000Y-66600000D02*
X75800000Y-66520000D01*
X91547500Y-97952500D02*
X91600000Y-97900000D01*
X82337500Y-97962500D02*
X82400000Y-97900000D01*
X90500000Y-95300000D02*
X91090000Y-95300000D01*
X103475147Y-77420000D02*
X103370000Y-77314853D01*
X130652500Y-94800000D02*
X130652500Y-94252500D01*
X105000000Y-77420000D02*
X103475147Y-77420000D01*
X81900000Y-94500000D02*
X81890000Y-94510000D01*
X75100000Y-66600000D02*
X75720000Y-66600000D01*
X78520000Y-85320000D02*
X78500000Y-85300000D01*
X120850000Y-94950000D02*
X120800000Y-94900000D01*
X125952500Y-94800000D02*
X125952500Y-94252500D01*
X80000000Y-85100000D02*
X80630000Y-85100000D01*
X103370000Y-77314853D02*
X103370000Y-76114853D01*
X121380000Y-94950000D02*
X120850000Y-94950000D01*
X81890000Y-94510000D02*
X81890000Y-95300000D01*
X74667500Y-82967500D02*
X74700000Y-83000000D01*
X125952500Y-94252500D02*
X125800000Y-94100000D01*
X74590000Y-91290000D02*
X74600000Y-91300000D01*
X117290000Y-97610000D02*
X117300000Y-97600000D01*
X73900000Y-91290000D02*
X74590000Y-91290000D01*
X131100000Y-98050000D02*
X131100000Y-97400000D01*
X86947500Y-98550000D02*
X86947500Y-97952500D01*
X82337500Y-98550000D02*
X82337500Y-97962500D01*
D63*
X75950000Y-64850000D02*
X75950000Y-65650000D01*
D62*
X117290000Y-98250000D02*
X117290000Y-97610000D01*
X86490000Y-94690000D02*
X86400000Y-94600000D01*
X106500000Y-77425000D02*
X105700000Y-77425000D01*
X116842500Y-95000000D02*
X116200000Y-95000000D01*
X79200000Y-85320000D02*
X79780000Y-85320000D01*
X121837500Y-98230000D02*
X121837500Y-97637500D01*
X80630000Y-85100000D02*
X80630000Y-84454853D01*
X105700000Y-77425000D02*
X105005000Y-77425000D01*
X77190000Y-95300000D02*
X77190000Y-94610000D01*
D63*
X75800000Y-65800000D02*
X75800000Y-65900000D01*
D64*
X74450000Y-58750000D02*
X74450000Y-59950000D01*
D63*
X75950000Y-65650000D02*
X75800000Y-65800000D01*
D62*
X86947500Y-97952500D02*
X87000000Y-97900000D01*
X126400000Y-98050000D02*
X126400000Y-97400000D01*
X77190000Y-94610000D02*
X77200000Y-94600000D01*
X79780000Y-85320000D02*
X80000000Y-85100000D01*
X80630000Y-85654853D02*
X80630000Y-85100000D01*
D64*
X74200000Y-58500000D02*
X74450000Y-58750000D01*
D62*
X121837500Y-97637500D02*
X121800000Y-97600000D01*
X77637500Y-97962500D02*
X77700000Y-97900000D01*
%TO.N,GND*%
X82575000Y-63100000D02*
X82575000Y-62025000D01*
X81780000Y-60300000D02*
X82690000Y-60300000D01*
X112645000Y-72300000D02*
X111255000Y-72300000D01*
X134000000Y-97700000D02*
X134000000Y-96700000D01*
X116912500Y-66100000D02*
X119112500Y-66100000D01*
X78600000Y-55125000D02*
X78600000Y-54300000D01*
X75800000Y-68200000D02*
X75700000Y-68300000D01*
X66150000Y-79050000D02*
X66100000Y-79000000D01*
X140957500Y-93857500D02*
X140900000Y-93800000D01*
D64*
X79300000Y-66500000D02*
X78860000Y-66500000D01*
D62*
X109640000Y-62900000D02*
X110900000Y-62900000D01*
X70650000Y-74475000D02*
X70650000Y-75150000D01*
X70650000Y-79050000D02*
X70600000Y-79000000D01*
X79200000Y-86280000D02*
X78520000Y-86280000D01*
X71300000Y-82967500D02*
X71300000Y-81100000D01*
X140957500Y-95450000D02*
X140957500Y-93857500D01*
X119112500Y-66100000D02*
X119112500Y-67600000D01*
X96820000Y-97600000D02*
X97400000Y-97600000D01*
X106000000Y-94000000D02*
X105370000Y-94000000D01*
X79200000Y-86280000D02*
X79774853Y-86854853D01*
X103370000Y-83314853D02*
X104414853Y-83314853D01*
X145962500Y-91437500D02*
X146000000Y-91400000D01*
X106865000Y-64065000D02*
X106700000Y-63900000D01*
X86400000Y-64300000D02*
X86400000Y-64950000D01*
X132237500Y-82762500D02*
X132300000Y-82700000D01*
X75500000Y-55125000D02*
X75500000Y-54300000D01*
X101400000Y-62590000D02*
X102750000Y-62590000D01*
X87310000Y-100500000D02*
X87310000Y-99910000D01*
X104485147Y-86914853D02*
X104500000Y-86900000D01*
X68760000Y-82967500D02*
X68760000Y-81160000D01*
X96760000Y-98700000D02*
X97500000Y-98700000D01*
X100990000Y-95210000D02*
X101000000Y-95200000D01*
X70650000Y-93150000D02*
X70600000Y-93200000D01*
X91910000Y-100500000D02*
X91910000Y-99910000D01*
X119020000Y-70980000D02*
X119020000Y-70900000D01*
X66150000Y-75150000D02*
X66200000Y-75200000D01*
X131462500Y-99437500D02*
X131500000Y-99400000D01*
X72700000Y-91260000D02*
X72040000Y-91260000D01*
X136760000Y-98800000D02*
X137700000Y-98800000D01*
X97700000Y-88834853D02*
X98565147Y-88834853D01*
X80630000Y-79654853D02*
X79654853Y-79654853D01*
X122200000Y-100150000D02*
X122200000Y-99500000D01*
X119040000Y-71000000D02*
X119020000Y-70980000D01*
X111255000Y-71710000D02*
X111170000Y-71625000D01*
X136820000Y-97700000D02*
X137400000Y-97700000D01*
X145950000Y-92450000D02*
X146000000Y-92400000D01*
X102750000Y-62590000D02*
X102790000Y-62550000D01*
X104865147Y-78514853D02*
X105000000Y-78380000D01*
X119112500Y-67600000D02*
X119112500Y-68500000D01*
X79654853Y-76054853D02*
X79600000Y-76000000D01*
X70650000Y-79675000D02*
X70650000Y-79050000D01*
X81780000Y-61900000D02*
X82700000Y-61900000D01*
X131462500Y-100000000D02*
X131462500Y-99437500D01*
X79774853Y-86854853D02*
X80630000Y-86854853D01*
X101400000Y-62010000D02*
X101390000Y-62000000D01*
D64*
X79300000Y-66500000D02*
X79300000Y-66330366D01*
D62*
X70650000Y-92475000D02*
X70650000Y-93150000D01*
D64*
X78650000Y-65680366D02*
X78650000Y-64150000D01*
D62*
X109265000Y-61100000D02*
X110500000Y-61100000D01*
X72570000Y-82967500D02*
X72570000Y-81230000D01*
X70650000Y-75150000D02*
X70700000Y-75200000D01*
X94300000Y-67000000D02*
X91000000Y-67000000D01*
X103370000Y-78514853D02*
X104865147Y-78514853D01*
X113050000Y-83310000D02*
X112410000Y-83310000D01*
X80630000Y-76054853D02*
X79654853Y-76054853D01*
X103370000Y-86914853D02*
X104485147Y-86914853D01*
X75800000Y-67480000D02*
X75800000Y-68200000D01*
X145342500Y-91437500D02*
X145962500Y-91437500D01*
X79654853Y-79654853D02*
X79600000Y-79600000D01*
X125050000Y-82972500D02*
X124472500Y-82972500D01*
X68760000Y-81160000D02*
X68700000Y-81100000D01*
X78000000Y-100500000D02*
X78000000Y-99900000D01*
X74000000Y-55125000D02*
X74000000Y-54300000D01*
X112410000Y-83310000D02*
X112400000Y-83300000D01*
X119450000Y-72725000D02*
X120275000Y-72725000D01*
X124472500Y-82972500D02*
X124400000Y-82900000D01*
X66150000Y-93150000D02*
X66200000Y-93200000D01*
X105000000Y-78380000D02*
X105700000Y-78380000D01*
X120300000Y-81710000D02*
X120990000Y-81710000D01*
X133072500Y-81372500D02*
X133100000Y-81400000D01*
X101400000Y-62590000D02*
X101400000Y-62010000D01*
X105905000Y-78380000D02*
X106500000Y-78975000D01*
X78520000Y-86280000D02*
X78500000Y-86300000D01*
X145317500Y-92450000D02*
X145950000Y-92450000D01*
X86400000Y-64950000D02*
X86350000Y-65000000D01*
X131700000Y-82762500D02*
X132237500Y-82762500D01*
X105375000Y-92900000D02*
X106000000Y-92900000D01*
X132400000Y-81372500D02*
X133072500Y-81372500D01*
X106865000Y-64600000D02*
X106865000Y-64065000D01*
D64*
X79300000Y-66330366D02*
X78650000Y-65680366D01*
D62*
X104414853Y-83314853D02*
X104500000Y-83400000D01*
D64*
X78860000Y-66500000D02*
X78150000Y-67210000D01*
D62*
X66150000Y-92475000D02*
X66150000Y-93150000D01*
X119600000Y-83100000D02*
X120200000Y-83100000D01*
X77000000Y-55125000D02*
X77000000Y-54300000D01*
X66150000Y-74475000D02*
X66150000Y-75150000D01*
X120712500Y-70100000D02*
X126112500Y-70100000D01*
X91910000Y-99910000D02*
X91900000Y-99900000D01*
X116610000Y-74425000D02*
X116610000Y-73910000D01*
X119800000Y-71000000D02*
X119040000Y-71000000D01*
X126762500Y-99437500D02*
X126800000Y-99400000D01*
X105700000Y-78380000D02*
X105905000Y-78380000D01*
X72040000Y-91260000D02*
X72000000Y-91300000D01*
X82575000Y-62025000D02*
X82700000Y-61900000D01*
X100990000Y-97000000D02*
X100990000Y-95210000D01*
X116610000Y-73910000D02*
X116500000Y-73800000D01*
X82700000Y-100500000D02*
X82700000Y-99900000D01*
X117652500Y-99647500D02*
X117700000Y-99600000D01*
X126762500Y-100000000D02*
X126762500Y-99437500D01*
X94000000Y-97600000D02*
X94600000Y-97600000D01*
X111255000Y-72300000D02*
X111255000Y-71710000D01*
X66150000Y-79675000D02*
X66150000Y-79050000D01*
X72570000Y-81230000D02*
X72600000Y-81200000D01*
X82500000Y-65200000D02*
X81680000Y-65200000D01*
X117652500Y-100200000D02*
X117652500Y-99647500D01*
X120990000Y-81710000D02*
X121000000Y-81700000D01*
X82690000Y-60300000D02*
X82700000Y-60290000D01*
X87310000Y-99910000D02*
X87300000Y-99900000D01*
X98565147Y-88834853D02*
X98700000Y-88700000D01*
X119112500Y-68500000D02*
X120712500Y-70100000D01*
D64*
%TO.N,RESET*%
X68800000Y-90325000D02*
X70650000Y-90325000D01*
X68760000Y-85440000D02*
X69200000Y-85000000D01*
X68760000Y-88060000D02*
X68800000Y-88100000D01*
X72675000Y-90325000D02*
X72700000Y-90300000D01*
X66150000Y-90325000D02*
X70650000Y-90325000D01*
X70650000Y-90325000D02*
X72675000Y-90325000D01*
X68800000Y-88100000D02*
X68800000Y-90325000D01*
X68760000Y-87032500D02*
X68760000Y-85440000D01*
X73900000Y-90270000D02*
X72730000Y-90270000D01*
X80584853Y-80900000D02*
X80630000Y-80854853D01*
X72730000Y-90190000D02*
X72700000Y-90220000D01*
X68760000Y-87032500D02*
X68760000Y-88060000D01*
X79400000Y-80900000D02*
X80584853Y-80900000D01*
D63*
%TO.N,BUT1*%
X73300000Y-63650000D02*
X72850000Y-64100000D01*
X72850000Y-64100000D02*
X72850000Y-70550000D01*
X72964706Y-77525000D02*
X76394853Y-74094853D01*
X73750000Y-63650000D02*
X73300000Y-63650000D01*
X76394853Y-74094853D02*
X85800000Y-74094853D01*
X70650000Y-77525000D02*
X72964706Y-77525000D01*
X72850000Y-70550000D02*
X76394853Y-74094853D01*
D64*
X66150000Y-77525000D02*
X70650000Y-77525000D01*
D62*
%TO.N,VBUS*%
X80820000Y-61680000D02*
X81400000Y-61100000D01*
X86400000Y-61100000D02*
X90500000Y-57000000D01*
X80820000Y-61900000D02*
X80820000Y-61680000D01*
X86400000Y-61100000D02*
X86150000Y-61350000D01*
X86150000Y-61350000D02*
X86150000Y-63000000D01*
X90500000Y-57000000D02*
X94300000Y-57000000D01*
X81400000Y-61100000D02*
X86400000Y-61100000D01*
D63*
%TO.N,USB_D-*%
X99000000Y-64700000D02*
X99000000Y-74094853D01*
X94300000Y-63000000D02*
X97300000Y-63000000D01*
X97300000Y-63000000D02*
X99000000Y-64700000D01*
X88050000Y-63000000D02*
X94300000Y-63000000D01*
%TO.N,USB_D+*%
X97800000Y-65500000D02*
X97800000Y-74094853D01*
X94300000Y-65000000D02*
X97300000Y-65000000D01*
X88050000Y-65000000D02*
X94300000Y-65000000D01*
X97300000Y-65000000D02*
X97800000Y-65500000D01*
D64*
%TO.N,SWCLK*%
X72570000Y-87032500D02*
X72570000Y-85630000D01*
X72570000Y-85630000D02*
X73200000Y-85000000D01*
X78845147Y-82054853D02*
X80630000Y-82054853D01*
X73200000Y-85000000D02*
X75900000Y-85000000D01*
X75900000Y-85000000D02*
X78845147Y-82054853D01*
%TO.N,SWDIO*%
X73840000Y-87032500D02*
X75167500Y-87032500D01*
X78945147Y-83254853D02*
X80630000Y-83254853D01*
X75167500Y-87032500D02*
X78945147Y-83254853D01*
D63*
%TO.N,CC2*%
X80800000Y-58300000D02*
X78650000Y-60450000D01*
X85500000Y-58300000D02*
X80800000Y-58300000D01*
X89100000Y-61000000D02*
X94300000Y-61000000D01*
X78650000Y-60450000D02*
X78650000Y-60650000D01*
%TO.N,CC1*%
X79100000Y-61150000D02*
X78650000Y-61150000D01*
X79600000Y-60650000D02*
X79100000Y-61150000D01*
X87000000Y-59000000D02*
X80800000Y-59000000D01*
X80800000Y-59000000D02*
X79600000Y-60200000D01*
X79600000Y-60200000D02*
X79600000Y-60650000D01*
X91000000Y-59000000D02*
X94300000Y-59000000D01*
%TO.N,VBUS_NRF*%
X80820000Y-59980000D02*
X81100000Y-59700000D01*
X100405147Y-74300000D02*
X100200000Y-74094853D01*
X81135000Y-59665000D02*
X84965000Y-59665000D01*
X101200000Y-74300000D02*
X100405147Y-74300000D01*
X84965000Y-59665000D02*
X85400000Y-60100000D01*
X80820000Y-60300000D02*
X80820000Y-59980000D01*
X81100000Y-59700000D02*
X81135000Y-59665000D01*
%TO.N,NPM_IO2*%
X88200000Y-73100000D02*
X88200000Y-74094853D01*
X74450000Y-64850000D02*
X74450000Y-68850000D01*
X85800000Y-70700000D02*
X88200000Y-73100000D01*
X76300000Y-70700000D02*
X85800000Y-70700000D01*
X74450000Y-68850000D02*
X76300000Y-70700000D01*
D64*
%TO.N,VBOOST1*%
X104550000Y-64750000D02*
X105390000Y-65590000D01*
X103755000Y-64750000D02*
X104550000Y-64750000D01*
X106445000Y-65590000D02*
X107730000Y-65590000D01*
D62*
X107390000Y-62550000D02*
X107740000Y-62900000D01*
X112200000Y-85500000D02*
X114150000Y-85500000D01*
X107740000Y-62900000D02*
X107740000Y-65600000D01*
X107740000Y-81040000D02*
X108117500Y-81417500D01*
X108117500Y-81417500D02*
X112200000Y-85500000D01*
X107740000Y-65600000D02*
X107740000Y-81040000D01*
X105300000Y-62550000D02*
X107390000Y-62550000D01*
D64*
X105390000Y-65590000D02*
X106445000Y-65590000D01*
X107730000Y-65590000D02*
X107740000Y-65600000D01*
X114150000Y-83310000D02*
X114150000Y-85500000D01*
%TO.N,VSYS*%
X83000000Y-54200000D02*
X85900000Y-54200000D01*
X86100000Y-54400000D02*
X86100000Y-55250000D01*
D62*
X85500000Y-66500000D02*
X83200000Y-64200000D01*
X83200000Y-64200000D02*
X82900000Y-64200000D01*
X86100000Y-57350000D02*
X86100000Y-56300000D01*
X89100000Y-66500000D02*
X85500000Y-66500000D01*
D64*
X76450000Y-59128248D02*
X76450000Y-59950000D01*
X75700000Y-57800000D02*
X75450000Y-58050000D01*
X77400000Y-58178248D02*
X76450000Y-59128248D01*
D62*
X86100000Y-56300000D02*
X86100000Y-55250000D01*
D64*
X85900000Y-54200000D02*
X86100000Y-54400000D01*
X75450000Y-58050000D02*
X75450000Y-59950000D01*
X77400000Y-57900000D02*
X77400000Y-58178248D01*
D62*
%TO.N,V_RELAY*%
X118525000Y-61700000D02*
X118525000Y-58112500D01*
X69500000Y-57500000D02*
X69200000Y-57800000D01*
X107600000Y-50300000D02*
X115400000Y-58100000D01*
X69500000Y-57500000D02*
X69500000Y-53000000D01*
X118525000Y-58112500D02*
X118512500Y-58100000D01*
X115400000Y-58100000D02*
X118512500Y-58100000D01*
X118512500Y-58100000D02*
X126112500Y-58100000D01*
X72200000Y-50300000D02*
X107600000Y-50300000D01*
X69200000Y-57800000D02*
X69200000Y-58737500D01*
X116912500Y-61700000D02*
X119112500Y-61700000D01*
X69500000Y-53000000D02*
X72200000Y-50300000D01*
D64*
X73750000Y-59375000D02*
X72875000Y-58500000D01*
X73750000Y-60650000D02*
X73750000Y-59375000D01*
D63*
%TO.N,Net-(U2-SW1)*%
X73050000Y-61650000D02*
X72000000Y-60600000D01*
X69462500Y-60600000D02*
X69200000Y-60862500D01*
X73750000Y-61650000D02*
X73050000Y-61650000D01*
X72000000Y-60600000D02*
X69462500Y-60600000D01*
D64*
%TO.N,BOOST1_FB_CTRL1*%
X104440000Y-66650000D02*
X104490000Y-66700000D01*
X94200000Y-74094853D02*
X94200000Y-72500000D01*
X103390000Y-66650000D02*
X104440000Y-66650000D01*
D63*
%TO.N,Net-(U2-SW2)*%
X73750000Y-62650000D02*
X72925000Y-62650000D01*
X71975000Y-63600000D02*
X69700000Y-63600000D01*
X72925000Y-62650000D02*
X71975000Y-63600000D01*
D64*
%TO.N,VBOOST2*%
X113665000Y-74525000D02*
X114335000Y-74525000D01*
D62*
X122400000Y-82700000D02*
X124862500Y-85162500D01*
X117550000Y-72725000D02*
X117550000Y-75500000D01*
X124862500Y-85162500D02*
X126250000Y-85162500D01*
D64*
X116400000Y-75490000D02*
X117540000Y-75490000D01*
D62*
X117550000Y-75950000D02*
X122400000Y-80800000D01*
D64*
X126150000Y-85062500D02*
X126250000Y-85162500D01*
X114335000Y-74525000D02*
X115300000Y-75490000D01*
X115300000Y-75490000D02*
X116400000Y-75490000D01*
X117540000Y-75490000D02*
X117550000Y-75500000D01*
D62*
X122400000Y-80800000D02*
X122400000Y-82700000D01*
X115155000Y-72300000D02*
X117125000Y-72300000D01*
X117550000Y-75500000D02*
X117550000Y-75950000D01*
D64*
X126150000Y-82962500D02*
X126150000Y-85062500D01*
D62*
X117125000Y-72300000D02*
X117550000Y-72725000D01*
%TO.N,LDO2_OUT*%
X72000000Y-55500000D02*
X73175000Y-56675000D01*
X72000000Y-53100000D02*
X72000000Y-55500000D01*
X114800000Y-61100000D02*
X114800000Y-59600000D01*
X128550000Y-78100000D02*
X128550000Y-80225000D01*
X106900000Y-51700000D02*
X73400000Y-51700000D01*
X73400000Y-51700000D02*
X72000000Y-53100000D01*
X114800000Y-59600000D02*
X106900000Y-51700000D01*
X73175000Y-56675000D02*
X74000000Y-56675000D01*
D64*
%TO.N,D0_IN*%
X89500000Y-102200000D02*
X89500000Y-100510000D01*
X91387500Y-105887500D02*
X91387500Y-107357500D01*
X89672500Y-100337500D02*
X89510000Y-100500000D01*
X89500000Y-100510000D02*
X89510000Y-100500000D01*
X89672500Y-97600000D02*
X89672500Y-100337500D01*
X89500000Y-104000000D02*
X91387500Y-105887500D01*
X89500000Y-102200000D02*
X89500000Y-104000000D01*
D62*
%TO.N,LDO1_OUT*%
X78600000Y-56675000D02*
X82275000Y-53000000D01*
X116487500Y-80500000D02*
X116550000Y-80562500D01*
X109000000Y-77700000D02*
X111800000Y-80500000D01*
X106000000Y-53000000D02*
X112500000Y-59500000D01*
X109000000Y-66700000D02*
X109000000Y-77700000D01*
X82275000Y-53000000D02*
X106000000Y-53000000D01*
X112500000Y-59500000D02*
X112500000Y-63200000D01*
X111800000Y-80500000D02*
X116487500Y-80500000D01*
X112500000Y-63200000D02*
X109000000Y-66700000D01*
D63*
%TO.N,BOOST1_FB_CTRL2*%
X93000000Y-74094853D02*
X93000000Y-71300000D01*
X100350000Y-66650000D02*
X101390000Y-66650000D01*
X100300000Y-66600000D02*
X100350000Y-66650000D01*
%TO.N,NPM_IO1*%
X85100000Y-71400000D02*
X87000000Y-73300000D01*
X73750000Y-64150000D02*
X73750000Y-69650000D01*
X87000000Y-73300000D02*
X87000000Y-74094853D01*
X75500000Y-71400000D02*
X85100000Y-71400000D01*
X73750000Y-69650000D02*
X75500000Y-71400000D01*
D64*
%TO.N,D1_IN*%
X87577500Y-106577500D02*
X87577500Y-107357500D01*
X84900000Y-102200000D02*
X84900000Y-103900000D01*
X84910000Y-100500000D02*
X84910000Y-102190000D01*
X85072500Y-100337500D02*
X84910000Y-100500000D01*
X84910000Y-102190000D02*
X84900000Y-102200000D01*
X85072500Y-97600000D02*
X85072500Y-100337500D01*
X84900000Y-103900000D02*
X87577500Y-106577500D01*
%TO.N,D2_IN*%
X80462500Y-97600000D02*
X80462500Y-100337500D01*
X80300000Y-100500000D02*
X80300000Y-102190000D01*
X80462500Y-100337500D02*
X80300000Y-100500000D01*
X80290000Y-103190000D02*
X83767500Y-106667500D01*
X80290000Y-102200000D02*
X80290000Y-103190000D01*
X83767500Y-106667500D02*
X83767500Y-107357500D01*
X80300000Y-102190000D02*
X80290000Y-102200000D01*
%TO.N,D3_IN*%
X75590000Y-102200000D02*
X75590000Y-102690000D01*
X75590000Y-102690000D02*
X79957500Y-107057500D01*
X75600000Y-102190000D02*
X75590000Y-102200000D01*
X75762500Y-97600000D02*
X75762500Y-100337500D01*
X79957500Y-107057500D02*
X79957500Y-107357500D01*
X75600000Y-100500000D02*
X75600000Y-102190000D01*
X75762500Y-100337500D02*
X75600000Y-100500000D01*
D62*
%TO.N,V_SENSOR1*%
X86000000Y-102280000D02*
X85920000Y-102200000D01*
X117500000Y-85550000D02*
X117450000Y-85500000D01*
X91000000Y-102800000D02*
X91000000Y-102680000D01*
X117500000Y-88000000D02*
X117500000Y-85550000D01*
D64*
X118627500Y-81710000D02*
X117500000Y-82837500D01*
D62*
X91000000Y-102680000D02*
X90520000Y-102200000D01*
X117450000Y-85500000D02*
X119600000Y-85500000D01*
X77110000Y-102700000D02*
X76610000Y-102200000D01*
X117500000Y-85450000D02*
X117450000Y-85500000D01*
X117500000Y-82837500D02*
X117500000Y-85450000D01*
X111700000Y-98475000D02*
X111700000Y-93100000D01*
D64*
X118950000Y-81710000D02*
X118627500Y-81710000D01*
D62*
X82200000Y-102800000D02*
X81600000Y-102200000D01*
X116500000Y-89000000D02*
X117500000Y-88000000D01*
X119600000Y-85500000D02*
X120700000Y-85500000D01*
X81600000Y-102200000D02*
X81310000Y-102200000D01*
X77300000Y-102700000D02*
X77110000Y-102700000D01*
X86000000Y-102900000D02*
X86000000Y-102280000D01*
X102817500Y-107357500D02*
X111700000Y-98475000D01*
D64*
%TO.N,D4_IN*%
X129052500Y-101700000D02*
X129052500Y-102752500D01*
X129225000Y-97100000D02*
X129225000Y-99837500D01*
X129052500Y-102752500D02*
X131810000Y-105510000D01*
X129225000Y-99837500D02*
X129062500Y-100000000D01*
X129062500Y-101690000D02*
X129052500Y-101700000D01*
X131810000Y-105510000D02*
X131810000Y-107500000D01*
X129062500Y-100000000D02*
X129062500Y-101690000D01*
%TO.N,BOOST1_FB*%
X102195000Y-66000000D02*
X101390000Y-66000000D01*
X102735000Y-64750000D02*
X102735000Y-63555000D01*
X102390000Y-67100000D02*
X102390000Y-66195000D01*
X102680000Y-63610000D02*
X102790000Y-63500000D01*
X102590000Y-67300000D02*
X102390000Y-67100000D01*
X101390000Y-66000000D02*
X101390000Y-65200000D01*
X101400000Y-63610000D02*
X102680000Y-63610000D01*
X101840000Y-64750000D02*
X102735000Y-64750000D01*
X101390000Y-65200000D02*
X101840000Y-64750000D01*
X102390000Y-66195000D02*
X102195000Y-66000000D01*
X102735000Y-63555000D02*
X102790000Y-63500000D01*
X103390000Y-67300000D02*
X102590000Y-67300000D01*
D62*
%TO.N,V_SENSOR2*%
X121360000Y-102400000D02*
X120810000Y-101850000D01*
X126400000Y-102400000D02*
X126072500Y-102400000D01*
X143362500Y-85162500D02*
X149275000Y-91075000D01*
X144600000Y-107500000D02*
X143240000Y-107500000D01*
X149275000Y-91075000D02*
X153000000Y-91075000D01*
X129550000Y-85162500D02*
X131700000Y-85162500D01*
X130900000Y-102400000D02*
X130772500Y-102400000D01*
X117062500Y-102700000D02*
X116262500Y-101900000D01*
X129500000Y-85112500D02*
X129550000Y-85162500D01*
D64*
X131050000Y-81372500D02*
X130627500Y-81372500D01*
D62*
X121800000Y-102400000D02*
X121360000Y-102400000D01*
X149275000Y-91075000D02*
X149275000Y-102825000D01*
X117200000Y-102700000D02*
X117062500Y-102700000D01*
X149275000Y-102825000D02*
X144600000Y-107500000D01*
X130772500Y-102400000D02*
X130072500Y-101700000D01*
X129500000Y-82500000D02*
X129500000Y-85112500D01*
D64*
X130627500Y-81372500D02*
X129500000Y-82500000D01*
D62*
X126072500Y-102400000D02*
X125372500Y-101700000D01*
X131700000Y-85162500D02*
X143362500Y-85162500D01*
D64*
%TO.N,D5_IN*%
X124525000Y-99837500D02*
X124362500Y-100000000D01*
X128000000Y-106100000D02*
X128000000Y-107500000D01*
X124362500Y-100000000D02*
X124362500Y-101690000D01*
X124362500Y-101690000D02*
X124352500Y-101700000D01*
X124525000Y-97100000D02*
X124525000Y-99837500D01*
X124352500Y-101700000D02*
X124352500Y-102452500D01*
X124352500Y-102452500D02*
X128000000Y-106100000D01*
%TO.N,D6_IN*%
X119962500Y-97280000D02*
X119962500Y-99987500D01*
X119790000Y-101850000D02*
X119790000Y-102390000D01*
X119800000Y-100150000D02*
X119800000Y-101840000D01*
X124190000Y-106790000D02*
X124190000Y-107500000D01*
X119790000Y-102390000D02*
X124190000Y-106790000D01*
X119962500Y-99987500D02*
X119800000Y-100150000D01*
X119800000Y-101840000D02*
X119790000Y-101850000D01*
%TO.N,D7_IN*%
X116700000Y-104100000D02*
X115242500Y-102642500D01*
X120380000Y-106580000D02*
X117900000Y-104100000D01*
X115242500Y-102642500D02*
X115242500Y-101900000D01*
X115415000Y-100037500D02*
X115252500Y-100200000D01*
X115242500Y-101900000D02*
X115242500Y-100210000D01*
X120380000Y-107500000D02*
X120380000Y-106580000D01*
X117900000Y-104100000D02*
X116700000Y-104100000D01*
X115242500Y-100210000D02*
X115252500Y-100200000D01*
X115415000Y-97300000D02*
X115415000Y-100037500D01*
%TO.N,Net-(D9-A1)*%
X100990000Y-101000000D02*
X101700000Y-101000000D01*
X101700000Y-101000000D02*
X103900000Y-98800000D01*
X103900000Y-98800000D02*
X104390000Y-98800000D01*
X104390000Y-97112500D02*
X104390000Y-98800000D01*
D63*
%TO.N,Net-(U2-VSET2)*%
X77950000Y-65990000D02*
X78150000Y-66190000D01*
X77950000Y-64850000D02*
X77950000Y-65990000D01*
D64*
%TO.N,Net-(D10-A1)*%
X144357500Y-95562500D02*
X144357500Y-97250000D01*
X143350000Y-97250000D02*
X144357500Y-97250000D01*
X141150000Y-99450000D02*
X143350000Y-97250000D01*
X140957500Y-99450000D02*
X141150000Y-99450000D01*
D63*
%TO.N,Net-(U2-SHPHLD)*%
X71700000Y-72300000D02*
X70675000Y-72300000D01*
X77450000Y-67650000D02*
X77450000Y-64850000D01*
X80300000Y-68000000D02*
X77800000Y-68000000D01*
X77800000Y-68000000D02*
X77450000Y-67650000D01*
X80300000Y-68000000D02*
X80300000Y-67900000D01*
D64*
X66150000Y-72325000D02*
X70650000Y-72325000D01*
D63*
X70675000Y-72300000D02*
X70650000Y-72325000D01*
%TO.N,NPM_SDA*%
X76450000Y-64850000D02*
X76450000Y-68750000D01*
X86200000Y-69700000D02*
X89400000Y-72900000D01*
X89400000Y-72900000D02*
X89400000Y-74094853D01*
X76450000Y-68750000D02*
X77400000Y-69700000D01*
X77400000Y-69700000D02*
X86200000Y-69700000D01*
%TO.N,NPM_SCL*%
X77900000Y-68900000D02*
X86700000Y-68900000D01*
X86700000Y-68900000D02*
X90600000Y-72800000D01*
X90600000Y-72800000D02*
X90600000Y-74094853D01*
X76950000Y-64850000D02*
X76950000Y-67950000D01*
X76950000Y-67950000D02*
X77900000Y-68900000D01*
D64*
%TO.N,V0_IN*%
X95800000Y-106755000D02*
X95197500Y-107357500D01*
X95800000Y-100910000D02*
X94910000Y-100910000D01*
X94910000Y-100910000D02*
X94000000Y-100000000D01*
X95800000Y-100910000D02*
X95800000Y-106755000D01*
%TO.N,V1_IN*%
X134000000Y-100100000D02*
X134910000Y-101010000D01*
X135800000Y-101010000D02*
X135800000Y-107320000D01*
X135800000Y-107320000D02*
X135620000Y-107500000D01*
X134910000Y-101010000D02*
X135800000Y-101010000D01*
D63*
%TO.N,Net-(D13-KR)*%
X79450000Y-58950000D02*
X81050000Y-57350000D01*
X78950000Y-58950000D02*
X79450000Y-58950000D01*
X81050000Y-57350000D02*
X83100000Y-57350000D01*
X77950000Y-59950000D02*
X78950000Y-58950000D01*
%TO.N,Net-(D13-KG)*%
X77450000Y-59950000D02*
X77450000Y-59450000D01*
X81300000Y-56300000D02*
X83100000Y-56300000D01*
X77450000Y-59450000D02*
X78550000Y-58350000D01*
X78550000Y-58350000D02*
X79250000Y-58350000D01*
X79250000Y-58350000D02*
X81300000Y-56300000D01*
D64*
%TO.N,BOOST2_FB*%
X112300000Y-76900000D02*
X112525000Y-77125000D01*
X112525000Y-77125000D02*
X113300000Y-77125000D01*
X111300000Y-75825000D02*
X112075000Y-75825000D01*
X111300000Y-75400000D02*
X112175000Y-74525000D01*
X112575000Y-73320000D02*
X112645000Y-73250000D01*
X112075000Y-75825000D02*
X112300000Y-76050000D01*
X112645000Y-74525000D02*
X112645000Y-73250000D01*
X111300000Y-75825000D02*
X111300000Y-75400000D01*
X111255000Y-73320000D02*
X112575000Y-73320000D01*
X112300000Y-76050000D02*
X112300000Y-76900000D01*
X112175000Y-74525000D02*
X112645000Y-74525000D01*
D63*
%TO.N,Net-(D13-KB)*%
X76950000Y-59300000D02*
X78450000Y-57800000D01*
X79000000Y-57800000D02*
X81550000Y-55250000D01*
X78450000Y-57800000D02*
X79000000Y-57800000D01*
X76950000Y-59950000D02*
X76950000Y-59300000D01*
X81550000Y-55250000D02*
X83100000Y-55250000D01*
D62*
%TO.N,Net-(D18-K)*%
X116912500Y-65080000D02*
X116912500Y-62670000D01*
D64*
%TO.N,I0_IN*%
X99007500Y-107357500D02*
X99007500Y-105892500D01*
X101690000Y-104300000D02*
X104390000Y-101600000D01*
X99007500Y-105892500D02*
X100600000Y-104300000D01*
X100600000Y-104300000D02*
X101690000Y-104300000D01*
%TO.N,I1_IN*%
X144357500Y-100050000D02*
X144357500Y-101142500D01*
X144357500Y-101142500D02*
X139430000Y-106070000D01*
X139430000Y-106070000D02*
X139430000Y-107500000D01*
%TO.N,Net-(Q9-G)*%
X114150000Y-82290000D02*
X115052500Y-82290000D01*
X115052500Y-82290000D02*
X115600000Y-82837500D01*
X113050000Y-82290000D02*
X114150000Y-82290000D01*
%TO.N,Net-(Q10-G)*%
X126140000Y-81952500D02*
X126150000Y-81942500D01*
X125050000Y-81952500D02*
X126140000Y-81952500D01*
X126150000Y-81942500D02*
X127042500Y-81942500D01*
X127042500Y-81942500D02*
X127600000Y-82500000D01*
%TO.N,Net-(Q11-D2)*%
X104780000Y-66000000D02*
X105390000Y-66610000D01*
X103390000Y-66000000D02*
X104780000Y-66000000D01*
%TO.N,Net-(Q11-D1)*%
X106445000Y-67545000D02*
X106445000Y-66610000D01*
X102190000Y-68100000D02*
X105890000Y-68100000D01*
X105890000Y-68100000D02*
X106445000Y-67545000D01*
X101390000Y-67300000D02*
X102190000Y-68100000D01*
D63*
%TO.N,BOOST2_FB_CTRL2*%
X110300000Y-76500000D02*
X111275000Y-76500000D01*
X111275000Y-76500000D02*
X111300000Y-76475000D01*
X96600000Y-73000000D02*
X96800000Y-72800000D01*
X96600000Y-74094853D02*
X96600000Y-73000000D01*
%TO.N,BOOST2_FB_CTRL1*%
X96500000Y-89800000D02*
X96500000Y-88834853D01*
X113325000Y-76500000D02*
X113300000Y-76475000D01*
X96600000Y-89900000D02*
X96500000Y-89800000D01*
X114200000Y-76500000D02*
X113325000Y-76500000D01*
D64*
%TO.N,Net-(Q12-D1)*%
X111300000Y-77125000D02*
X112275000Y-78100000D01*
X115900000Y-78100000D02*
X116400000Y-77600000D01*
X112275000Y-78100000D02*
X115900000Y-78100000D01*
X116400000Y-77600000D02*
X116400000Y-76510000D01*
%TO.N,Net-(Q12-D2)*%
X114615000Y-75825000D02*
X115300000Y-76510000D01*
X113300000Y-75825000D02*
X114615000Y-75825000D01*
D63*
%TO.N,BOOST1_EN*%
X105300000Y-63500000D02*
X105300000Y-64150000D01*
X105300000Y-64150000D02*
X105300000Y-64310000D01*
X91800000Y-72600000D02*
X91800000Y-74094853D01*
X105845000Y-64600000D02*
X105590000Y-64600000D01*
X105300000Y-64310000D02*
X105590000Y-64600000D01*
X91900000Y-72500000D02*
X91800000Y-72600000D01*
%TO.N,BOOST2_EN*%
X115470000Y-74215000D02*
X115470000Y-74425000D01*
X115155000Y-73900000D02*
X115470000Y-74215000D01*
X95600000Y-71800000D02*
X95400000Y-72000000D01*
X95400000Y-72000000D02*
X95400000Y-74094853D01*
X115155000Y-73250000D02*
X115155000Y-73900000D01*
%TO.N,Net-(U2-NTC)*%
X79100000Y-63650000D02*
X78650000Y-63650000D01*
X79325000Y-63875000D02*
X79100000Y-63650000D01*
X79325000Y-65425000D02*
X79325000Y-63875000D01*
X86800000Y-67600000D02*
X81500000Y-67600000D01*
X81500000Y-67600000D02*
X79325000Y-65425000D01*
D64*
%TO.N,I0_NRF*%
X91700000Y-90300000D02*
X94300000Y-92900000D01*
X104405000Y-92900000D02*
X104405000Y-93995000D01*
X94300000Y-92900000D02*
X104405000Y-92900000D01*
X104410000Y-95267500D02*
X104390000Y-95287500D01*
X104410000Y-94000000D02*
X104410000Y-95267500D01*
X91700000Y-88834853D02*
X91700000Y-90300000D01*
X104405000Y-93995000D02*
X104410000Y-94000000D01*
%TO.N,I1_NRF*%
X144372500Y-91437500D02*
X144372500Y-92435000D01*
X104314853Y-82114853D02*
X112100000Y-89900000D01*
X144357500Y-92450000D02*
X144357500Y-93737500D01*
X143200000Y-89900000D02*
X144372500Y-91072500D01*
X112100000Y-89900000D02*
X143200000Y-89900000D01*
X144372500Y-92435000D02*
X144357500Y-92450000D01*
X103370000Y-82114853D02*
X104314853Y-82114853D01*
X144372500Y-91072500D02*
X144372500Y-91437500D01*
D63*
%TO.N,V0_NRF*%
X95800000Y-97600000D02*
X95800000Y-98700000D01*
X95800000Y-98700000D02*
X95800000Y-99890000D01*
X90500000Y-90400000D02*
X95800000Y-95700000D01*
X95800000Y-95700000D02*
X95800000Y-97600000D01*
X90500000Y-88834853D02*
X90500000Y-90400000D01*
%TO.N,V1_NRF*%
X95800000Y-90600000D02*
X130900000Y-90600000D01*
X95300000Y-88834853D02*
X95300000Y-90100000D01*
X135800000Y-95500000D02*
X135800000Y-97700000D01*
X135800000Y-98800000D02*
X135800000Y-99990000D01*
X95300000Y-90100000D02*
X95800000Y-90600000D01*
X130900000Y-90600000D02*
X135800000Y-95500000D01*
X135800000Y-97700000D02*
X135800000Y-98800000D01*
%TO.N,D0_NRF*%
X90800000Y-93500000D02*
X92110000Y-94810000D01*
X92110000Y-95300000D02*
X92110000Y-96087500D01*
X92110000Y-94810000D02*
X92110000Y-95300000D01*
X89500000Y-93500000D02*
X90800000Y-93500000D01*
X86900000Y-88834853D02*
X86900000Y-90900000D01*
X86900000Y-90900000D02*
X89500000Y-93500000D01*
X92110000Y-96087500D02*
X91547500Y-96650000D01*
%TO.N,D1_NRF*%
X85700000Y-88834853D02*
X85700000Y-91700000D01*
X85700000Y-91700000D02*
X86600000Y-92600000D01*
X87510000Y-93510000D02*
X87510000Y-95300000D01*
X87510000Y-96087500D02*
X86947500Y-96650000D01*
X87510000Y-95300000D02*
X87510000Y-96087500D01*
X86600000Y-92600000D02*
X87510000Y-93510000D01*
%TO.N,D2_NRF*%
X82910000Y-95300000D02*
X82910000Y-96077500D01*
X82910000Y-92590000D02*
X82910000Y-93500000D01*
X82910000Y-96077500D02*
X82337500Y-96650000D01*
X84500000Y-90400000D02*
X84500000Y-91000000D01*
X82910000Y-93500000D02*
X82910000Y-95300000D01*
X84500000Y-88834853D02*
X84500000Y-90400000D01*
X84500000Y-91000000D02*
X82910000Y-92590000D01*
%TO.N,D3_NRF*%
X83300000Y-88834853D02*
X83300000Y-89700000D01*
X78210000Y-95300000D02*
X78210000Y-96077500D01*
X83300000Y-89700000D02*
X82550000Y-90450000D01*
X78210000Y-94790000D02*
X78210000Y-95300000D01*
X82550000Y-90450000D02*
X78210000Y-94790000D01*
X78210000Y-96077500D02*
X77637500Y-96650000D01*
%TO.N,D4_NRF*%
X95300000Y-91300000D02*
X128832500Y-91300000D01*
X131672500Y-94800000D02*
X131672500Y-95577500D01*
X94100000Y-88834853D02*
X94100000Y-90100000D01*
X128832500Y-91300000D02*
X131672500Y-94140000D01*
X131672500Y-94140000D02*
X131672500Y-94800000D01*
X131672500Y-95577500D02*
X131100000Y-96150000D01*
X94100000Y-90100000D02*
X95300000Y-91300000D01*
%TO.N,D5_NRF*%
X94800000Y-92000000D02*
X125132500Y-92000000D01*
X126972500Y-94800000D02*
X126972500Y-95577500D01*
X92900000Y-90100000D02*
X94800000Y-92000000D01*
X125132500Y-92000000D02*
X126972500Y-93840000D01*
X92900000Y-88834853D02*
X92900000Y-90100000D01*
X126972500Y-95577500D02*
X126400000Y-96150000D01*
X126972500Y-93840000D02*
X126972500Y-94800000D01*
D64*
%TO.N,D6_NRF*%
X122400000Y-95767500D02*
X121837500Y-96330000D01*
D63*
X89300000Y-90800000D02*
X89300000Y-88834853D01*
D64*
X122400000Y-94032500D02*
X122432500Y-94000000D01*
D63*
X90200000Y-91700000D02*
X89300000Y-90800000D01*
D64*
X122400000Y-94950000D02*
X122400000Y-94032500D01*
X122400000Y-94950000D02*
X122400000Y-95767500D01*
D63*
%TO.N,D7_NRF*%
X88100000Y-88834853D02*
X88100000Y-90400000D01*
D64*
X115982500Y-96350000D02*
X115932500Y-96300000D01*
X117862500Y-95000000D02*
X117862500Y-95777500D01*
X117290000Y-96350000D02*
X115982500Y-96350000D01*
X117862500Y-95777500D02*
X117290000Y-96350000D01*
%TO.N,V_SENSOR1_READ*%
X104814853Y-79714853D02*
X108400000Y-83300000D01*
X118950000Y-80690000D02*
X119600000Y-80690000D01*
X103370000Y-79714853D02*
X104814853Y-79714853D01*
X119600000Y-80690000D02*
X120300000Y-80690000D01*
%TO.N,V_SENSOR2_READ*%
X132400000Y-80352500D02*
X131700000Y-80352500D01*
X107900000Y-84300000D02*
X104514853Y-80914853D01*
X104514853Y-80914853D02*
X103370000Y-80914853D01*
X109200000Y-84300000D02*
X107900000Y-84300000D01*
X131700000Y-80352500D02*
X131050000Y-80352500D01*
%TD*%
%TA.AperFunction,Conductor*%
%TO.N,VBAT*%
G36*
X79715677Y-63019685D02*
G01*
X79736319Y-63036319D01*
X80587717Y-63887717D01*
X80608432Y-63915178D01*
X81092062Y-64785712D01*
X81103964Y-64815858D01*
X81195798Y-65183193D01*
X81199500Y-65213266D01*
X81199500Y-65409903D01*
X81199734Y-65413458D01*
X81200000Y-65421570D01*
X81200000Y-65700000D01*
X81891381Y-65786422D01*
X81955460Y-65814269D01*
X81994313Y-65872341D01*
X82000000Y-65909464D01*
X82000000Y-66376000D01*
X81980315Y-66443039D01*
X81927511Y-66488794D01*
X81876000Y-66500000D01*
X80911689Y-66500000D01*
X80844650Y-66480315D01*
X80824008Y-66463681D01*
X80537511Y-66177184D01*
X80504894Y-66119576D01*
X80500000Y-66100002D01*
X80500000Y-66099999D01*
X79659087Y-63959493D01*
X79650500Y-63914152D01*
X79650500Y-63832149D01*
X79650500Y-63832147D01*
X79628318Y-63749362D01*
X79628318Y-63749361D01*
X79585465Y-63675138D01*
X79541008Y-63630681D01*
X79513276Y-63588340D01*
X79400001Y-63300000D01*
X79400000Y-63300000D01*
X78424000Y-63300000D01*
X78356961Y-63280315D01*
X78311206Y-63227511D01*
X78300000Y-63176000D01*
X78300000Y-63124000D01*
X78319685Y-63056961D01*
X78372489Y-63011206D01*
X78424000Y-63000000D01*
X79648638Y-63000000D01*
X79715677Y-63019685D01*
G37*
%TD.AperFunction*%
%TD*%
%TA.AperFunction,Conductor*%
%TO.N,LDO1_OUT*%
G36*
X79043039Y-56219685D02*
G01*
X79088794Y-56272489D01*
X79100000Y-56324000D01*
X79100000Y-57087781D01*
X79080315Y-57154820D01*
X79027511Y-57200575D01*
X78988338Y-57211166D01*
X77100000Y-57399999D01*
X77010120Y-57579758D01*
X76992926Y-57605503D01*
X76974624Y-57626625D01*
X76974621Y-57626629D01*
X76914833Y-57757545D01*
X76912336Y-57766052D01*
X76911891Y-57765921D01*
X76903281Y-57793435D01*
X76706827Y-58186345D01*
X76690066Y-58211589D01*
X76100001Y-58899998D01*
X76100000Y-58900001D01*
X76100000Y-59070181D01*
X76099500Y-59077811D01*
X76099500Y-60000438D01*
X76100000Y-60008068D01*
X76100000Y-60176000D01*
X76080315Y-60243039D01*
X76027511Y-60288794D01*
X75976000Y-60300000D01*
X75924000Y-60300000D01*
X75856961Y-60280315D01*
X75811206Y-60227511D01*
X75800000Y-60176000D01*
X75800000Y-60008068D01*
X75800500Y-60000438D01*
X75800500Y-58544293D01*
X75820185Y-58477254D01*
X75829236Y-58464916D01*
X76300000Y-57900000D01*
X76500000Y-57300000D01*
X76500000Y-56324000D01*
X76519685Y-56256961D01*
X76572489Y-56211206D01*
X76624000Y-56200000D01*
X78976000Y-56200000D01*
X79043039Y-56219685D01*
G37*
%TD.AperFunction*%
%TD*%
%TA.AperFunction,Conductor*%
%TO.N,VSYS*%
G36*
X81443039Y-62519685D02*
G01*
X81488794Y-62572489D01*
X81500000Y-62624000D01*
X81500000Y-63600000D01*
X81800000Y-63800000D01*
X83176000Y-63800000D01*
X83243039Y-63819685D01*
X83288794Y-63872489D01*
X83300000Y-63924000D01*
X83300000Y-64476000D01*
X83280315Y-64543039D01*
X83227511Y-64588794D01*
X83176000Y-64600000D01*
X81296933Y-64600000D01*
X81229894Y-64580315D01*
X81188539Y-64536222D01*
X81169635Y-64502193D01*
X81160399Y-64481199D01*
X81000000Y-64000000D01*
X80700000Y-63600000D01*
X79800000Y-62800000D01*
X79695760Y-62800000D01*
X79678113Y-62798738D01*
X79663996Y-62796708D01*
X79648638Y-62794500D01*
X78424000Y-62794500D01*
X78356961Y-62774815D01*
X78311206Y-62722011D01*
X78300000Y-62670500D01*
X78300000Y-62624000D01*
X78319685Y-62556961D01*
X78372489Y-62511206D01*
X78424000Y-62500000D01*
X81376000Y-62500000D01*
X81443039Y-62519685D01*
G37*
%TD.AperFunction*%
%TD*%
%TA.AperFunction,Conductor*%
%TO.N,VSYS*%
G36*
X71902478Y-61019685D02*
G01*
X71937023Y-61052890D01*
X72600000Y-62000000D01*
X73976000Y-62000000D01*
X74043039Y-62019685D01*
X74088794Y-62072489D01*
X74100000Y-62124000D01*
X74100000Y-62176000D01*
X74080315Y-62243039D01*
X74027511Y-62288794D01*
X73976000Y-62300000D01*
X72600000Y-62300000D01*
X71956380Y-63127511D01*
X71937233Y-63152129D01*
X71880536Y-63192961D01*
X71839353Y-63200000D01*
X70524000Y-63200000D01*
X70456961Y-63180315D01*
X70411206Y-63127511D01*
X70400000Y-63076000D01*
X70400000Y-61124000D01*
X70419685Y-61056961D01*
X70472489Y-61011206D01*
X70524000Y-61000000D01*
X71835439Y-61000000D01*
X71902478Y-61019685D01*
G37*
%TD.AperFunction*%
%TD*%
%TA.AperFunction,Conductor*%
%TO.N,VBUS*%
G36*
X81043039Y-61519685D02*
G01*
X81088794Y-61572489D01*
X81100000Y-61624000D01*
X81100000Y-62170500D01*
X81080315Y-62237539D01*
X81027511Y-62283294D01*
X80976000Y-62294500D01*
X78424000Y-62294500D01*
X78356961Y-62274815D01*
X78311206Y-62222011D01*
X78300000Y-62170500D01*
X78300000Y-62124000D01*
X78319685Y-62056961D01*
X78372489Y-62011206D01*
X78424000Y-62000000D01*
X79500000Y-62000000D01*
X80000000Y-61800000D01*
X80470549Y-61517670D01*
X80534345Y-61500000D01*
X80976000Y-61500000D01*
X81043039Y-61519685D01*
G37*
%TD.AperFunction*%
%TD*%
%TA.AperFunction,Conductor*%
%TO.N,LDO2_OUT*%
G36*
X75943039Y-56119685D02*
G01*
X75988794Y-56172489D01*
X76000000Y-56224000D01*
X76000000Y-56933637D01*
X75980315Y-57000676D01*
X75944783Y-57036811D01*
X75490329Y-57339780D01*
X75488586Y-57340921D01*
X75368871Y-57417857D01*
X75362171Y-57423663D01*
X75361549Y-57422945D01*
X75348985Y-57434008D01*
X75100000Y-57599999D01*
X75100000Y-57991933D01*
X75099500Y-57999563D01*
X75099500Y-60000438D01*
X75100000Y-60008068D01*
X75100000Y-60176000D01*
X75080315Y-60243039D01*
X75027511Y-60288794D01*
X74976000Y-60300000D01*
X74924000Y-60300000D01*
X74856961Y-60280315D01*
X74811206Y-60227511D01*
X74800000Y-60176000D01*
X74800000Y-60008068D01*
X74800500Y-60000438D01*
X74800500Y-58699563D01*
X74800000Y-58691933D01*
X74800000Y-58000000D01*
X74799999Y-57999999D01*
X73553418Y-57136981D01*
X73509503Y-57082637D01*
X73500000Y-57035029D01*
X73500000Y-56224000D01*
X73519685Y-56156961D01*
X73572489Y-56111206D01*
X73624000Y-56100000D01*
X75876000Y-56100000D01*
X75943039Y-56119685D01*
G37*
%TD.AperFunction*%
%TD*%
%TA.AperFunction,Conductor*%
%TO.N,VSYS*%
G36*
X116017439Y-68019685D02*
G01*
X116035917Y-68034207D01*
X118061517Y-69963350D01*
X118096487Y-70023837D01*
X118100000Y-70053142D01*
X118100000Y-71576000D01*
X118080315Y-71643039D01*
X118027511Y-71688794D01*
X117976000Y-71700000D01*
X114324000Y-71700000D01*
X114256961Y-71680315D01*
X114211206Y-71627511D01*
X114200000Y-71576000D01*
X114200000Y-68124000D01*
X114219685Y-68056961D01*
X114272489Y-68011206D01*
X114324000Y-68000000D01*
X115950400Y-68000000D01*
X116017439Y-68019685D01*
G37*
%TD.AperFunction*%
%TD*%
%TA.AperFunction,Conductor*%
%TO.N,VBUS_NRF*%
G36*
X81043039Y-60019685D02*
G01*
X81088794Y-60072489D01*
X81100000Y-60124000D01*
X81100000Y-60644315D01*
X81080315Y-60711354D01*
X81058381Y-60736994D01*
X80406018Y-61316872D01*
X80372536Y-61338144D01*
X80364820Y-61341455D01*
X80364811Y-61341459D01*
X79916910Y-61610199D01*
X79899166Y-61619001D01*
X79482596Y-61785631D01*
X79436543Y-61794500D01*
X78424000Y-61794500D01*
X78356961Y-61774815D01*
X78311206Y-61722011D01*
X78300000Y-61670500D01*
X78300000Y-61624000D01*
X78319685Y-61556961D01*
X78372489Y-61511206D01*
X78424000Y-61500000D01*
X79299998Y-61500000D01*
X79300000Y-61500000D01*
X80000000Y-60900000D01*
X80090559Y-60736994D01*
X80464568Y-60063780D01*
X80514332Y-60014737D01*
X80572963Y-60000000D01*
X80976000Y-60000000D01*
X81043039Y-60019685D01*
G37*
%TD.AperFunction*%
%TD*%
%TA.AperFunction,Conductor*%
%TO.N,VSYS*%
G36*
X108243039Y-58319685D02*
G01*
X108288794Y-58372489D01*
X108300000Y-58424000D01*
X108300000Y-61776000D01*
X108280315Y-61843039D01*
X108227511Y-61888794D01*
X108176000Y-61900000D01*
X104524000Y-61900000D01*
X104456961Y-61880315D01*
X104411206Y-61827511D01*
X104400000Y-61776000D01*
X104400000Y-58424000D01*
X104419685Y-58356961D01*
X104472489Y-58311206D01*
X104524000Y-58300000D01*
X108176000Y-58300000D01*
X108243039Y-58319685D01*
G37*
%TD.AperFunction*%
%TD*%
%TA.AperFunction,Conductor*%
%TO.N,Net-(U3-SW)*%
G36*
X103533039Y-58319685D02*
G01*
X103578794Y-58372489D01*
X103590000Y-58424000D01*
X103590000Y-61776000D01*
X103570315Y-61843039D01*
X103517511Y-61888794D01*
X103466000Y-61900000D01*
X102214000Y-61900000D01*
X102146961Y-61880315D01*
X102101206Y-61827511D01*
X102090000Y-61776000D01*
X102090000Y-58424000D01*
X102109685Y-58356961D01*
X102162489Y-58311206D01*
X102214000Y-58300000D01*
X103466000Y-58300000D01*
X103533039Y-58319685D01*
G37*
%TD.AperFunction*%
%TD*%
%TA.AperFunction,Conductor*%
%TO.N,V_RELAY*%
G36*
X72015677Y-56619685D02*
G01*
X72036319Y-56636319D01*
X73263681Y-57863681D01*
X73297166Y-57925004D01*
X73300000Y-57951362D01*
X73300000Y-58476000D01*
X73280315Y-58543039D01*
X73227511Y-58588794D01*
X73176000Y-58600000D01*
X72524000Y-58600000D01*
X72456961Y-58580315D01*
X72411206Y-58527511D01*
X72400000Y-58476000D01*
X72400000Y-57900000D01*
X71900000Y-57500000D01*
X70700000Y-57500000D01*
X69800000Y-58300000D01*
X69800000Y-58976000D01*
X69780315Y-59043039D01*
X69727511Y-59088794D01*
X69676000Y-59100000D01*
X68724000Y-59100000D01*
X68656961Y-59080315D01*
X68611206Y-59027511D01*
X68600000Y-58976000D01*
X68600000Y-57857032D01*
X68619685Y-57789993D01*
X68643302Y-57762884D01*
X69965173Y-56629852D01*
X70028884Y-56601169D01*
X70045871Y-56600000D01*
X71948638Y-56600000D01*
X72015677Y-56619685D01*
G37*
%TD.AperFunction*%
%TD*%
%TA.AperFunction,Conductor*%
%TO.N,GND*%
G36*
X73613100Y-62975655D02*
G01*
X73982194Y-62994109D01*
X74048165Y-63017116D01*
X74091226Y-63072139D01*
X74100000Y-63117954D01*
X74100000Y-63176000D01*
X74080315Y-63243039D01*
X74027511Y-63288794D01*
X73976000Y-63300000D01*
X73399999Y-63300000D01*
X73378549Y-63308231D01*
X73378105Y-63307076D01*
X73345148Y-63322884D01*
X73325194Y-63324500D01*
X73257147Y-63324500D01*
X73174359Y-63346682D01*
X73100138Y-63389535D01*
X73100135Y-63389537D01*
X72589537Y-63900135D01*
X72589533Y-63900141D01*
X72546681Y-63974361D01*
X72546681Y-63974362D01*
X72535995Y-64014246D01*
X72523134Y-64062245D01*
X72486769Y-64121905D01*
X72486311Y-64122319D01*
X72399999Y-64199999D01*
X72352649Y-64862904D01*
X72328238Y-64928370D01*
X72327371Y-64929514D01*
X71237225Y-66351445D01*
X71180815Y-66392672D01*
X71138818Y-66400000D01*
X69324000Y-66400000D01*
X69256961Y-66380315D01*
X69211206Y-66327511D01*
X69200000Y-66276000D01*
X69200000Y-65473610D01*
X69219685Y-65406571D01*
X69264620Y-65364752D01*
X70850000Y-64500000D01*
X70850000Y-64049500D01*
X70869685Y-63982461D01*
X70922489Y-63936706D01*
X70974000Y-63925500D01*
X72017851Y-63925500D01*
X72017853Y-63925500D01*
X72100639Y-63903318D01*
X72174862Y-63860465D01*
X72834624Y-63200703D01*
X72837164Y-63198234D01*
X73037159Y-63009350D01*
X73099413Y-62977630D01*
X73122300Y-62975500D01*
X73606908Y-62975500D01*
X73613100Y-62975655D01*
G37*
%TD.AperFunction*%
%TD*%
%TA.AperFunction,Conductor*%
%TO.N,Net-(U4-SW)*%
G36*
X113343039Y-68019685D02*
G01*
X113388794Y-68072489D01*
X113400000Y-68124000D01*
X113400000Y-71576000D01*
X113380315Y-71643039D01*
X113327511Y-71688794D01*
X113276000Y-71700000D01*
X112024000Y-71700000D01*
X111956961Y-71680315D01*
X111911206Y-71627511D01*
X111900000Y-71576000D01*
X111900000Y-68124000D01*
X111919685Y-68056961D01*
X111972489Y-68011206D01*
X112024000Y-68000000D01*
X113276000Y-68000000D01*
X113343039Y-68019685D01*
G37*
%TD.AperFunction*%
%TD*%
%TA.AperFunction,Conductor*%
%TO.N,VDD*%
G36*
X68043039Y-63019685D02*
G01*
X68088794Y-63072489D01*
X68100000Y-63124000D01*
X68100000Y-64200000D01*
X68670148Y-64865173D01*
X68698831Y-64928883D01*
X68700000Y-64945870D01*
X68700000Y-66476000D01*
X68680315Y-66543039D01*
X68627511Y-66588794D01*
X68576000Y-66600000D01*
X67624000Y-66600000D01*
X67556961Y-66580315D01*
X67511206Y-66527511D01*
X67500000Y-66476000D01*
X67500000Y-65399999D01*
X67120826Y-64831238D01*
X67100018Y-64764539D01*
X67100000Y-64762455D01*
X67100000Y-63124000D01*
X67119685Y-63056961D01*
X67172489Y-63011206D01*
X67224000Y-63000000D01*
X67976000Y-63000000D01*
X68043039Y-63019685D01*
G37*
%TD.AperFunction*%
%TD*%
%TA.AperFunction,Conductor*%
%TO.N,GND*%
G36*
X71933203Y-57819685D02*
G01*
X71978958Y-57872489D01*
X71990164Y-57924000D01*
X71990164Y-58800000D01*
X72290164Y-59100000D01*
X72666164Y-59100000D01*
X72733203Y-59119685D01*
X72778958Y-59172489D01*
X72790164Y-59224000D01*
X72790164Y-60399999D01*
X72790163Y-60399999D01*
X72790164Y-60400000D01*
X73290164Y-61000000D01*
X73691932Y-61000000D01*
X73699561Y-61000500D01*
X73703856Y-61000500D01*
X73800439Y-61000500D01*
X73808068Y-61000000D01*
X73966164Y-61000000D01*
X74033203Y-61019685D01*
X74078958Y-61072489D01*
X74090164Y-61124000D01*
X74090164Y-61176000D01*
X74070479Y-61243039D01*
X74017675Y-61288794D01*
X73966164Y-61300000D01*
X73211689Y-61300000D01*
X73144650Y-61280315D01*
X73124008Y-61263681D01*
X72199864Y-60339537D01*
X72199862Y-60339535D01*
X72162750Y-60318108D01*
X72125640Y-60296682D01*
X72084246Y-60285591D01*
X72042853Y-60274500D01*
X71014164Y-60274500D01*
X70947125Y-60254815D01*
X70901370Y-60202011D01*
X70890164Y-60150500D01*
X70890164Y-57924000D01*
X70909849Y-57856961D01*
X70962653Y-57811206D01*
X71014164Y-57800000D01*
X71866164Y-57800000D01*
X71933203Y-57819685D01*
G37*
%TD.AperFunction*%
%TD*%
M02*
