%TF.GenerationSoftware,KiCad,Pcbnew,8.0.8*%
%TF.CreationDate,2025-03-05T18:01:18-08:00*%
%TF.ProjectId,LoRa-BLE-Sensor,4c6f5261-2d42-44c4-952d-53656e736f72,1*%
%TF.SameCoordinates,Original*%
%TF.FileFunction,Soldermask,Top*%
%TF.FilePolarity,Negative*%
%FSLAX46Y46*%
G04 Gerber Fmt 4.6, Leading zero omitted, Abs format (unit mm)*
G04 Created by KiCad (PCBNEW 8.0.8) date 2025-03-05 18:01:18*
%MOMM*%
%LPD*%
G01*
G04 APERTURE LIST*
G04 Aperture macros list*
%AMRoundRect*
0 Rectangle with rounded corners*
0 $1 Rounding radius*
0 $2 $3 $4 $5 $6 $7 $8 $9 X,Y pos of 4 corners*
0 Add a 4 corners polygon primitive as box body*
4,1,4,$2,$3,$4,$5,$6,$7,$8,$9,$2,$3,0*
0 Add four circle primitives for the rounded corners*
1,1,$1+$1,$2,$3*
1,1,$1+$1,$4,$5*
1,1,$1+$1,$6,$7*
1,1,$1+$1,$8,$9*
0 Add four rect primitives between the rounded corners*
20,1,$1+$1,$2,$3,$4,$5,0*
20,1,$1+$1,$4,$5,$6,$7,0*
20,1,$1+$1,$6,$7,$8,$9,0*
20,1,$1+$1,$8,$9,$2,$3,0*%
G04 Aperture macros list end*
%ADD10C,3.050000*%
%ADD11RoundRect,0.140000X-0.170000X0.140000X-0.170000X-0.140000X0.170000X-0.140000X0.170000X0.140000X0*%
%ADD12RoundRect,0.150000X0.587500X0.150000X-0.587500X0.150000X-0.587500X-0.150000X0.587500X-0.150000X0*%
%ADD13R,1.100000X0.500000*%
%ADD14RoundRect,0.135000X-0.135000X-0.185000X0.135000X-0.185000X0.135000X0.185000X-0.135000X0.185000X0*%
%ADD15C,3.200000*%
%ADD16RoundRect,0.140000X-0.140000X-0.170000X0.140000X-0.170000X0.140000X0.170000X-0.140000X0.170000X0*%
%ADD17RoundRect,0.147500X0.172500X-0.147500X0.172500X0.147500X-0.172500X0.147500X-0.172500X-0.147500X0*%
%ADD18RoundRect,0.225000X0.250000X-0.225000X0.250000X0.225000X-0.250000X0.225000X-0.250000X-0.225000X0*%
%ADD19R,1.000000X0.700000*%
%ADD20RoundRect,0.225000X-0.250000X0.225000X-0.250000X-0.225000X0.250000X-0.225000X0.250000X0.225000X0*%
%ADD21RoundRect,0.250000X0.450000X-0.262500X0.450000X0.262500X-0.450000X0.262500X-0.450000X-0.262500X0*%
%ADD22RoundRect,0.250000X0.650000X1.550000X-0.650000X1.550000X-0.650000X-1.550000X0.650000X-1.550000X0*%
%ADD23O,1.800000X3.600000*%
%ADD24RoundRect,0.135000X0.135000X0.185000X-0.135000X0.185000X-0.135000X-0.185000X0.135000X-0.185000X0*%
%ADD25RoundRect,0.250000X0.375000X0.850000X-0.375000X0.850000X-0.375000X-0.850000X0.375000X-0.850000X0*%
%ADD26R,0.600000X0.700000*%
%ADD27RoundRect,0.054880X-0.652120X-0.337120X0.652120X-0.337120X0.652120X0.337120X-0.652120X0.337120X0*%
%ADD28R,0.500000X1.100000*%
%ADD29RoundRect,0.225000X-0.225000X-0.250000X0.225000X-0.250000X0.225000X0.250000X-0.225000X0.250000X0*%
%ADD30RoundRect,0.135000X0.185000X-0.135000X0.185000X0.135000X-0.185000X0.135000X-0.185000X-0.135000X0*%
%ADD31R,1.250000X0.750000*%
%ADD32RoundRect,0.225000X0.225000X0.250000X-0.225000X0.250000X-0.225000X-0.250000X0.225000X-0.250000X0*%
%ADD33R,1.600000X2.300000*%
%ADD34RoundRect,0.250000X0.650000X-1.000000X0.650000X1.000000X-0.650000X1.000000X-0.650000X-1.000000X0*%
%ADD35RoundRect,0.135000X-0.185000X0.135000X-0.185000X-0.135000X0.185000X-0.135000X0.185000X0.135000X0*%
%ADD36R,1.100000X0.450000*%
%ADD37RoundRect,0.102000X0.370000X1.397500X-0.370000X1.397500X-0.370000X-1.397500X0.370000X-1.397500X0*%
%ADD38RoundRect,0.250000X1.075000X-0.375000X1.075000X0.375000X-1.075000X0.375000X-1.075000X-0.375000X0*%
%ADD39RoundRect,0.218750X-0.218750X-0.381250X0.218750X-0.381250X0.218750X0.381250X-0.218750X0.381250X0*%
%ADD40RoundRect,0.250000X-0.250000X-0.475000X0.250000X-0.475000X0.250000X0.475000X-0.250000X0.475000X0*%
%ADD41RoundRect,0.347223X-1.702777X0.902777X-1.702777X-0.902777X1.702777X-0.902777X1.702777X0.902777X0*%
%ADD42O,4.100000X2.500000*%
%ADD43RoundRect,0.102000X-0.990000X-0.990000X0.990000X-0.990000X0.990000X0.990000X-0.990000X0.990000X0*%
%ADD44C,2.184000*%
%ADD45C,2.139000*%
%ADD46RoundRect,0.102000X-0.450000X-0.650000X0.450000X-0.650000X0.450000X0.650000X-0.450000X0.650000X0*%
%ADD47RoundRect,0.102000X0.650000X-0.450000X0.650000X0.450000X-0.650000X0.450000X-0.650000X-0.450000X0*%
%ADD48RoundRect,0.102000X0.450000X0.650000X-0.450000X0.650000X-0.450000X-0.650000X0.450000X-0.650000X0*%
%ADD49RoundRect,0.102000X-0.650000X0.450000X-0.650000X-0.450000X0.650000X-0.450000X0.650000X0.450000X0*%
%ADD50RoundRect,0.147500X-0.147500X-0.172500X0.147500X-0.172500X0.147500X0.172500X-0.147500X0.172500X0*%
%ADD51R,1.600000X0.700000*%
%ADD52RoundRect,0.250000X2.500000X-0.250000X2.500000X0.250000X-2.500000X0.250000X-2.500000X-0.250000X0*%
%ADD53RoundRect,0.250000X1.250000X-0.550000X1.250000X0.550000X-1.250000X0.550000X-1.250000X-0.550000X0*%
%ADD54C,1.400000*%
%ADD55O,1.400000X1.400000*%
%ADD56R,0.800000X0.300000*%
%ADD57R,0.300000X0.800000*%
%ADD58R,3.600000X3.600000*%
%ADD59RoundRect,0.218750X-0.381250X0.218750X-0.381250X-0.218750X0.381250X-0.218750X0.381250X0.218750X0*%
%ADD60R,1.700000X1.700000*%
%ADD61O,1.700000X1.700000*%
%ADD62RoundRect,0.150000X0.150000X-0.512500X0.150000X0.512500X-0.150000X0.512500X-0.150000X-0.512500X0*%
G04 APERTURE END LIST*
D10*
X157525000Y-34000000D02*
G75*
G02*
X154475000Y-34000000I-1525000J0D01*
G01*
X154475000Y-34000000D02*
G75*
G02*
X157525000Y-34000000I1525000J0D01*
G01*
X157525000Y-111000000D02*
G75*
G02*
X154475000Y-111000000I-1525000J0D01*
G01*
X154475000Y-111000000D02*
G75*
G02*
X157525000Y-111000000I1525000J0D01*
G01*
X69525000Y-34000000D02*
G75*
G02*
X66475000Y-34000000I-1525000J0D01*
G01*
X66475000Y-34000000D02*
G75*
G02*
X69525000Y-34000000I1525000J0D01*
G01*
X69525000Y-111000000D02*
G75*
G02*
X66475000Y-111000000I-1525000J0D01*
G01*
X66475000Y-111000000D02*
G75*
G02*
X69525000Y-111000000I1525000J0D01*
G01*
D11*
%TO.C,C11*%
X75800000Y-66520000D03*
X75800000Y-67480000D03*
%TD*%
D12*
%TO.C,Q5*%
X131100000Y-98050000D03*
X131100000Y-96150000D03*
X129225000Y-97100000D03*
%TD*%
D11*
%TO.C,C2*%
X105000000Y-77420000D03*
X105000000Y-78380000D03*
%TD*%
D12*
%TO.C,Q8*%
X117290000Y-98250000D03*
X117290000Y-96350000D03*
X115415000Y-97300000D03*
%TD*%
D13*
%TO.C,D6*%
X124362500Y-100000000D03*
X126762500Y-100000000D03*
%TD*%
D11*
%TO.C,C3*%
X79200000Y-85320000D03*
X79200000Y-86280000D03*
%TD*%
D14*
%TO.C,R4*%
X77190000Y-95300000D03*
X78210000Y-95300000D03*
%TD*%
D15*
%TO.C,REF\u002A\u002A*%
X156000000Y-111000000D03*
%TD*%
D16*
%TO.C,C7*%
X95800000Y-98700000D03*
X96760000Y-98700000D03*
%TD*%
D13*
%TO.C,D2*%
X84910000Y-100500000D03*
X87310000Y-100500000D03*
%TD*%
D17*
%TO.C,D18*%
X116912500Y-62670000D03*
X116912500Y-61700000D03*
%TD*%
D18*
%TO.C,C17*%
X74000000Y-56675000D03*
X74000000Y-55125000D03*
%TD*%
D15*
%TO.C,J2*%
X78880000Y-41000000D03*
X86500000Y-38460000D03*
X86500000Y-43540000D03*
X137500000Y-38460000D03*
X137500000Y-43540000D03*
X145120000Y-41000000D03*
%TD*%
D19*
%TO.C,SW1*%
X66150000Y-90325000D03*
X70650000Y-90325000D03*
X66150000Y-92475000D03*
X70650000Y-92475000D03*
%TD*%
D20*
%TO.C,C20*%
X71400000Y-62825000D03*
X71400000Y-64375000D03*
%TD*%
D21*
%TO.C,R20*%
X104390000Y-97112500D03*
X104390000Y-95287500D03*
%TD*%
D22*
%TO.C,J6*%
X143240000Y-107500000D03*
D23*
X139430000Y-107500000D03*
X135620000Y-107500000D03*
X131810000Y-107500000D03*
X128000000Y-107500000D03*
X124190000Y-107500000D03*
X120380000Y-107500000D03*
X116570000Y-107500000D03*
%TD*%
D14*
%TO.C,R11*%
X121380000Y-94950000D03*
X122400000Y-94950000D03*
%TD*%
D24*
%TO.C,R37*%
X103755000Y-64750000D03*
X102735000Y-64750000D03*
%TD*%
D15*
%TO.C,REF\u002A\u002A*%
X156000000Y-34000000D03*
%TD*%
D11*
%TO.C,C4*%
X72700000Y-90300000D03*
X72700000Y-91260000D03*
%TD*%
D15*
%TO.C,REF\u002A\u002A*%
X68000000Y-111000000D03*
%TD*%
D13*
%TO.C,D5*%
X129062500Y-100000000D03*
X131462500Y-100000000D03*
%TD*%
D25*
%TO.C,L3*%
X105065000Y-59500000D03*
X102915000Y-59500000D03*
%TD*%
D19*
%TO.C,D20*%
X86350000Y-65000000D03*
D26*
X88050000Y-65000000D03*
X88050000Y-63000000D03*
X86150000Y-63000000D03*
%TD*%
D27*
%TO.C,U3*%
X102790000Y-61600000D03*
X102790000Y-62550000D03*
X102790000Y-63500000D03*
X105300000Y-63500000D03*
X105300000Y-62550000D03*
X105300000Y-61600000D03*
%TD*%
D28*
%TO.C,D12*%
X134000000Y-100100000D03*
X134000000Y-97700000D03*
%TD*%
D24*
%TO.C,R14*%
X125372500Y-101700000D03*
X124352500Y-101700000D03*
%TD*%
D29*
%TO.C,C14*%
X68125000Y-65900000D03*
X69675000Y-65900000D03*
%TD*%
D30*
%TO.C,R38*%
X101400000Y-63610000D03*
X101400000Y-62590000D03*
%TD*%
D29*
%TO.C,C18*%
X107715000Y-61100000D03*
X109265000Y-61100000D03*
%TD*%
D31*
%TO.C,D15*%
X129550000Y-85162500D03*
X126250000Y-85162500D03*
%TD*%
%TO.C,D14*%
X117450000Y-85500000D03*
X114150000Y-85500000D03*
%TD*%
D16*
%TO.C,C6*%
X144357500Y-92450000D03*
X145317500Y-92450000D03*
%TD*%
D24*
%TO.C,R7*%
X81310000Y-102200000D03*
X80290000Y-102200000D03*
%TD*%
D32*
%TO.C,C13*%
X72875000Y-58300000D03*
X71325000Y-58300000D03*
%TD*%
D24*
%TO.C,R6*%
X85920000Y-102200000D03*
X84900000Y-102200000D03*
%TD*%
D12*
%TO.C,Q1*%
X91547500Y-98550000D03*
X91547500Y-96650000D03*
X89672500Y-97600000D03*
%TD*%
D33*
%TO.C,D19*%
X119112500Y-61700000D03*
X119112500Y-66100000D03*
%TD*%
D14*
%TO.C,R27*%
X135800000Y-97700000D03*
X136820000Y-97700000D03*
%TD*%
D34*
%TO.C,D9*%
X100990000Y-101000000D03*
X100990000Y-97000000D03*
%TD*%
D30*
%TO.C,R31*%
X113050000Y-83310000D03*
X113050000Y-82290000D03*
%TD*%
D19*
%TO.C,SW2*%
X66150000Y-77525000D03*
X70650000Y-77525000D03*
X66150000Y-79675000D03*
X70650000Y-79675000D03*
%TD*%
D35*
%TO.C,R42*%
X106445000Y-65590000D03*
X106445000Y-66610000D03*
%TD*%
D36*
%TO.C,Q12*%
X111300000Y-75825000D03*
X111300000Y-76475000D03*
X111300000Y-77125000D03*
X113300000Y-77125000D03*
X113300000Y-76475000D03*
X113300000Y-75825000D03*
%TD*%
D30*
%TO.C,R40*%
X111255000Y-73320000D03*
X111255000Y-72300000D03*
%TD*%
D37*
%TO.C,J1*%
X73840000Y-82967500D03*
X73840000Y-87032500D03*
X72570000Y-82967500D03*
X72570000Y-87032500D03*
X71300000Y-82967500D03*
X71300000Y-87032500D03*
X70030000Y-82967500D03*
X70030000Y-87032500D03*
X68760000Y-82967500D03*
X68760000Y-87032500D03*
%TD*%
D24*
%TO.C,R15*%
X120810000Y-101850000D03*
X119790000Y-101850000D03*
%TD*%
D30*
%TO.C,R23*%
X135800000Y-101010000D03*
X135800000Y-99990000D03*
%TD*%
D38*
%TO.C,F2*%
X144357500Y-100050000D03*
X144357500Y-97250000D03*
%TD*%
D14*
%TO.C,R9*%
X130652500Y-94800000D03*
X131672500Y-94800000D03*
%TD*%
D18*
%TO.C,C12*%
X78600000Y-56675000D03*
X78600000Y-55125000D03*
%TD*%
D30*
%TO.C,R22*%
X95800000Y-100910000D03*
X95800000Y-99890000D03*
%TD*%
D13*
%TO.C,D1*%
X89510000Y-100500000D03*
X91910000Y-100500000D03*
%TD*%
D14*
%TO.C,R2*%
X86490000Y-95300000D03*
X87510000Y-95300000D03*
%TD*%
D27*
%TO.C,U4*%
X112645000Y-71350000D03*
X112645000Y-72300000D03*
X112645000Y-73250000D03*
X115155000Y-73250000D03*
X115155000Y-72300000D03*
X115155000Y-71350000D03*
%TD*%
D24*
%TO.C,R8*%
X76610000Y-102200000D03*
X75590000Y-102200000D03*
%TD*%
D14*
%TO.C,R26*%
X95800000Y-97600000D03*
X96820000Y-97600000D03*
%TD*%
D39*
%TO.C,L2*%
X67575000Y-63600000D03*
X69700000Y-63600000D03*
%TD*%
D20*
%TO.C,C1*%
X106500000Y-77425000D03*
X106500000Y-78975000D03*
%TD*%
D36*
%TO.C,Q11*%
X101390000Y-66000000D03*
X101390000Y-66650000D03*
X101390000Y-67300000D03*
X103390000Y-67300000D03*
X103390000Y-66650000D03*
X103390000Y-66000000D03*
%TD*%
D14*
%TO.C,R12*%
X116842500Y-95000000D03*
X117862500Y-95000000D03*
%TD*%
D40*
%TO.C,C25*%
X117550000Y-72725000D03*
X119450000Y-72725000D03*
%TD*%
D41*
%TO.C,J4*%
X147112500Y-59020000D03*
D42*
X147112500Y-64100000D03*
X147112500Y-69180000D03*
%TD*%
D30*
%TO.C,R18*%
X118950000Y-81710000D03*
X118950000Y-80690000D03*
%TD*%
D28*
%TO.C,D17*%
X131700000Y-85162500D03*
X131700000Y-82762500D03*
%TD*%
D43*
%TO.C,K1*%
X126112500Y-58100000D03*
D44*
X126112500Y-70100000D03*
D45*
X124112500Y-64100000D03*
D44*
X138312500Y-58100000D03*
X138312500Y-70100000D03*
%TD*%
D22*
%TO.C,J5*%
X102817500Y-107357500D03*
D23*
X99007500Y-107357500D03*
X95197500Y-107357500D03*
X91387500Y-107357500D03*
X87577500Y-107357500D03*
X83767500Y-107357500D03*
X79957500Y-107357500D03*
X76147500Y-107357500D03*
%TD*%
D18*
%TO.C,C16*%
X71400000Y-61375000D03*
X71400000Y-59825000D03*
%TD*%
D14*
%TO.C,R1*%
X91090000Y-95300000D03*
X92110000Y-95300000D03*
%TD*%
D24*
%TO.C,R39*%
X113665000Y-74525000D03*
X112645000Y-74525000D03*
%TD*%
D35*
%TO.C,R29*%
X132400000Y-80352500D03*
X132400000Y-81372500D03*
%TD*%
D46*
%TO.C,U1*%
X100200000Y-74094853D03*
X99000000Y-74094853D03*
X97800000Y-74094853D03*
X96600000Y-74094853D03*
X95400000Y-74094853D03*
X94200000Y-74094853D03*
X93000000Y-74094853D03*
X91800000Y-74094853D03*
X90600000Y-74094853D03*
X89400000Y-74094853D03*
X88200000Y-74094853D03*
X87000000Y-74094853D03*
X85800000Y-74094853D03*
D47*
X80630000Y-76054853D03*
X80630000Y-77254853D03*
X80630000Y-79654853D03*
X80630000Y-80854853D03*
X80630000Y-82054853D03*
X80630000Y-83254853D03*
X80630000Y-84454853D03*
X80630000Y-85654853D03*
X80630000Y-86854853D03*
D48*
X83300000Y-88834853D03*
X84500000Y-88834853D03*
X85700000Y-88834853D03*
X86900000Y-88834853D03*
X88100000Y-88834853D03*
X89300000Y-88834853D03*
X90500000Y-88834853D03*
X91700000Y-88834853D03*
X92900000Y-88834853D03*
X94100000Y-88834853D03*
X95300000Y-88834853D03*
X96500000Y-88834853D03*
X97700000Y-88834853D03*
D49*
X103370000Y-86914853D03*
X103370000Y-85714853D03*
X103370000Y-83314853D03*
X103370000Y-82114853D03*
X103370000Y-80914853D03*
X103370000Y-79714853D03*
X103370000Y-78514853D03*
X103370000Y-77314853D03*
X103370000Y-76114853D03*
%TD*%
D12*
%TO.C,Q6*%
X126400000Y-98050000D03*
X126400000Y-96150000D03*
X124525000Y-97100000D03*
%TD*%
D50*
%TO.C,R24*%
X104405000Y-92900000D03*
X105375000Y-92900000D03*
%TD*%
D18*
%TO.C,C21*%
X75500000Y-56675000D03*
X75500000Y-55125000D03*
%TD*%
D16*
%TO.C,C8*%
X135800000Y-98800000D03*
X136760000Y-98800000D03*
%TD*%
D51*
%TO.C,D13*%
X86100000Y-57350000D03*
X83100000Y-57350000D03*
X86100000Y-56300000D03*
X83100000Y-56300000D03*
X86100000Y-55250000D03*
X83100000Y-55250000D03*
%TD*%
D24*
%TO.C,R5*%
X90520000Y-102200000D03*
X89500000Y-102200000D03*
%TD*%
D16*
%TO.C,C9*%
X80720000Y-65200000D03*
X81680000Y-65200000D03*
%TD*%
D15*
%TO.C,REF\u002A\u002A*%
X68000000Y-34000000D03*
%TD*%
D34*
%TO.C,D10*%
X140957500Y-99450000D03*
X140957500Y-95450000D03*
%TD*%
D14*
%TO.C,R35*%
X105845000Y-64600000D03*
X106865000Y-64600000D03*
%TD*%
%TO.C,R10*%
X125952500Y-94800000D03*
X126972500Y-94800000D03*
%TD*%
D19*
%TO.C,SW3*%
X70650000Y-74475000D03*
X66150000Y-74475000D03*
X70650000Y-72325000D03*
X66150000Y-72325000D03*
%TD*%
D50*
%TO.C,R25*%
X144372500Y-91437500D03*
X145342500Y-91437500D03*
%TD*%
D12*
%TO.C,Q3*%
X82337500Y-98550000D03*
X82337500Y-96650000D03*
X80462500Y-97600000D03*
%TD*%
D24*
%TO.C,R16*%
X116262500Y-101900000D03*
X115242500Y-101900000D03*
%TD*%
D21*
%TO.C,R21*%
X144357500Y-95562500D03*
X144357500Y-93737500D03*
%TD*%
D40*
%TO.C,C24*%
X107740000Y-62900000D03*
X109640000Y-62900000D03*
%TD*%
D12*
%TO.C,Q2*%
X86947500Y-98550000D03*
X86947500Y-96650000D03*
X85072500Y-97600000D03*
%TD*%
D28*
%TO.C,D16*%
X119600000Y-85500000D03*
X119600000Y-83100000D03*
%TD*%
D29*
%TO.C,C22*%
X81025000Y-63100000D03*
X82575000Y-63100000D03*
%TD*%
D35*
%TO.C,R19*%
X120300000Y-80690000D03*
X120300000Y-81710000D03*
%TD*%
D13*
%TO.C,D3*%
X80300000Y-100500000D03*
X82700000Y-100500000D03*
%TD*%
D52*
%TO.C,J3*%
X94300000Y-67000000D03*
X94300000Y-65000000D03*
X94300000Y-63000000D03*
X94300000Y-61000000D03*
X94300000Y-59000000D03*
X94300000Y-57000000D03*
D53*
X92050000Y-69400000D03*
X92050000Y-54600000D03*
%TD*%
D30*
%TO.C,R28*%
X131050000Y-81372500D03*
X131050000Y-80352500D03*
%TD*%
D35*
%TO.C,R34*%
X126150000Y-81942500D03*
X126150000Y-82962500D03*
%TD*%
D12*
%TO.C,Q4*%
X77637500Y-98550000D03*
X77637500Y-96650000D03*
X75762500Y-97600000D03*
%TD*%
D54*
%TO.C,TH1*%
X109395000Y-48500000D03*
D55*
X111295000Y-48500000D03*
%TD*%
D14*
%TO.C,R3*%
X81890000Y-95300000D03*
X82910000Y-95300000D03*
%TD*%
D13*
%TO.C,D4*%
X75600000Y-100500000D03*
X78000000Y-100500000D03*
%TD*%
D30*
%TO.C,R41*%
X116912500Y-66100000D03*
X116912500Y-65080000D03*
%TD*%
D28*
%TO.C,D11*%
X94000000Y-100000000D03*
X94000000Y-97600000D03*
%TD*%
D35*
%TO.C,R33*%
X114150000Y-82290000D03*
X114150000Y-83310000D03*
%TD*%
D30*
%TO.C,R32*%
X125050000Y-82972500D03*
X125050000Y-81952500D03*
%TD*%
%TO.C,R17*%
X73900000Y-91290000D03*
X73900000Y-90270000D03*
%TD*%
D56*
%TO.C,U2*%
X73750000Y-60650000D03*
X73750000Y-61150000D03*
X73750000Y-61650000D03*
X73750000Y-62150000D03*
X73750000Y-62650000D03*
X73750000Y-63150000D03*
X73750000Y-63650000D03*
X73750000Y-64150000D03*
D57*
X74450000Y-64850000D03*
X74950000Y-64850000D03*
X75450000Y-64850000D03*
X75950000Y-64850000D03*
X76450000Y-64850000D03*
X76950000Y-64850000D03*
X77450000Y-64850000D03*
X77950000Y-64850000D03*
D56*
X78650000Y-64150000D03*
X78650000Y-63650000D03*
X78650000Y-63150000D03*
X78650000Y-62650000D03*
X78650000Y-62150000D03*
X78650000Y-61650000D03*
X78650000Y-61150000D03*
X78650000Y-60650000D03*
D57*
X77950000Y-59950000D03*
X77450000Y-59950000D03*
X76950000Y-59950000D03*
X76450000Y-59950000D03*
X75950000Y-59950000D03*
X75450000Y-59950000D03*
X74950000Y-59950000D03*
X74450000Y-59950000D03*
D58*
X76200000Y-62400000D03*
%TD*%
D13*
%TO.C,D8*%
X115252500Y-100200000D03*
X117652500Y-100200000D03*
%TD*%
D38*
%TO.C,F1*%
X104390000Y-101600000D03*
X104390000Y-98800000D03*
%TD*%
D24*
%TO.C,R13*%
X130072500Y-101700000D03*
X129052500Y-101700000D03*
%TD*%
D29*
%TO.C,C19*%
X117470000Y-70900000D03*
X119020000Y-70900000D03*
%TD*%
D59*
%TO.C,L1*%
X69200000Y-58737500D03*
X69200000Y-60862500D03*
%TD*%
D35*
%TO.C,R43*%
X105390000Y-65590000D03*
X105390000Y-66610000D03*
%TD*%
D14*
%TO.C,R36*%
X115590000Y-74425000D03*
X116610000Y-74425000D03*
%TD*%
D18*
%TO.C,C15*%
X77000000Y-56675000D03*
X77000000Y-55125000D03*
%TD*%
D16*
%TO.C,C10*%
X80820000Y-61900000D03*
X81780000Y-61900000D03*
%TD*%
D13*
%TO.C,D7*%
X119800000Y-100150000D03*
X122200000Y-100150000D03*
%TD*%
D35*
%TO.C,R45*%
X115300000Y-75490000D03*
X115300000Y-76510000D03*
%TD*%
D25*
%TO.C,L4*%
X114875000Y-69200000D03*
X112725000Y-69200000D03*
%TD*%
D16*
%TO.C,C5*%
X104410000Y-94000000D03*
X105370000Y-94000000D03*
%TD*%
D60*
%TO.C,J7*%
X153000000Y-78375000D03*
D61*
X153000000Y-80915000D03*
X153000000Y-83455000D03*
X153000000Y-85995000D03*
X153000000Y-88535000D03*
X153000000Y-91075000D03*
X153000000Y-93615000D03*
X153000000Y-96155000D03*
X153000000Y-98695000D03*
X153000000Y-101235000D03*
%TD*%
D62*
%TO.C,Q9*%
X115600000Y-82837500D03*
X117500000Y-82837500D03*
X116550000Y-80562500D03*
%TD*%
D35*
%TO.C,R30*%
X78150000Y-66190000D03*
X78150000Y-67210000D03*
%TD*%
D62*
%TO.C,Q10*%
X127600000Y-82500000D03*
X129500000Y-82500000D03*
X128550000Y-80225000D03*
%TD*%
D12*
%TO.C,Q7*%
X121837500Y-98230000D03*
X121837500Y-96330000D03*
X119962500Y-97280000D03*
%TD*%
D35*
%TO.C,R44*%
X116400000Y-75490000D03*
X116400000Y-76510000D03*
%TD*%
D16*
%TO.C,C23*%
X80820000Y-60300000D03*
X81780000Y-60300000D03*
%TD*%
M02*
