M48
; DRILL file {KiCad 8.0.8} date 2025-03-05T18:01:22-0800
; FORMAT={-:-/ absolute / metric / decimal}
; #@! TF.CreationDate,2025-03-05T18:01:22-08:00
; #@! TF.GenerationSoftware,Kicad,Pcbnew,8.0.8
; #@! TF.FileFunction,MixedPlating,1,4
FMAT,2
METRIC
; #@! TA.AperFunction,Plated,PTH,ViaDrill
T1C0.300
; #@! TA.AperFunction,Plated,PTH,ComponentDrill
T2C0.700
; #@! TA.AperFunction,Plated,PTH,ComponentDrill
T3C1.000
; #@! TA.AperFunction,Plated,PTH,ComponentDrill
T4C1.200
; #@! TA.AperFunction,Plated,PTH,ComponentDrill
T5C1.290
; #@! TA.AperFunction,Plated,PTH,ComponentDrill
T6C1.320
; #@! TA.AperFunction,Plated,PTH,ComponentDrill
T7C1.700
; #@! TA.AperFunction,Plated,PTH,ComponentDrill
T8C1.830
; #@! TA.AperFunction,NonPlated,NPTH,ComponentDrill
T9C3.200
%
G90
G05
T1
X66.1Y-79.0
X66.2Y-75.2
X66.2Y-93.2
X68.0Y-64.7
X68.7Y-81.1
X69.2Y-85.0
X70.6Y-79.0
X70.6Y-93.2
X70.7Y-75.2
X70.8Y-62.1
X70.802Y-65.779
X71.3Y-81.1
X71.7Y-72.3
X72.0Y-62.1
X72.0Y-91.3
X72.3Y-59.6
X72.6Y-81.2
X74.0Y-54.3
X74.2Y-58.5
X74.6Y-91.3
X74.7Y-83.0
X75.0Y-61.4
X75.0Y-62.4
X75.0Y-63.4
X75.1Y-66.6
X75.5Y-54.3
X75.7Y-57.8
X75.7Y-68.3
X76.0Y-61.4
X76.0Y-62.4
X76.0Y-63.4
X77.0Y-54.3
X77.0Y-61.4
X77.0Y-62.4
X77.0Y-63.4
X77.2Y-94.6
X77.3Y-102.7
X77.4Y-57.9
X77.7Y-97.9
X78.0Y-99.9
X78.5Y-85.3
X78.5Y-86.3
X78.6Y-54.3
X79.3Y-66.5
X79.4Y-80.9
X79.6Y-76.0
X79.6Y-79.6
X80.3Y-67.9
X81.0Y-66.1
X81.5Y-64.2
X81.7Y-66.2
X81.9Y-94.5
X82.2Y-64.2
X82.2Y-102.8
X82.4Y-97.9
X82.5Y-65.2
X82.55Y-90.45
X82.7Y-60.29
X82.7Y-61.9
X82.7Y-99.9
X82.9Y-64.2
X83.0Y-54.2
X84.5Y-90.4
X85.4Y-60.1
X85.5Y-58.3
X86.0Y-102.9
X86.4Y-64.3
X86.4Y-94.6
X86.8Y-67.6
X87.0Y-59.0
X87.0Y-97.9
X87.3Y-99.9
X88.1Y-90.4
X89.1Y-61.0
X89.1Y-66.5
X90.2Y-91.7
X90.5Y-95.3
X91.0Y-59.0
X91.0Y-67.0
X91.0Y-102.8
X91.6Y-97.9
X91.9Y-72.5
X91.9Y-99.9
X93.0Y-71.3
X94.2Y-72.5
X94.6Y-97.6
X95.6Y-71.8
X96.6Y-89.9
X96.8Y-72.8
X97.4Y-97.6
X97.5Y-98.7
X98.7Y-88.7
X100.3Y-66.6
X101.0Y-95.2
X101.2Y-74.3
X101.39Y-62.0
X104.49Y-66.7
X104.5Y-83.4
X104.5Y-86.9
X105.3Y-64.15
X105.7Y-77.425
X105.7Y-78.38
X106.0Y-92.9
X106.0Y-94.0
X106.4Y-59.9
X106.7Y-63.9
X108.4Y-83.3
X109.2Y-84.3
X110.3Y-76.5
X110.5Y-61.1
X110.9Y-62.9
X111.17Y-71.625
X111.7Y-93.1
X112.4Y-83.3
X114.2Y-76.5
X114.8Y-61.1
X115.155Y-73.9
X115.932Y-96.3
X116.1Y-69.5
X116.2Y-95.0
X116.5Y-73.8
X116.5Y-89.0
X117.2Y-102.7
X117.3Y-97.6
X117.7Y-99.6
X119.112Y-67.6
X119.6Y-80.69
X119.8Y-71.0
X120.2Y-83.1
X120.275Y-72.725
X120.7Y-85.5
X120.8Y-94.9
X121.0Y-81.7
X121.8Y-97.6
X121.8Y-102.4
X122.2Y-99.5
X122.432Y-94.0
X124.4Y-82.9
X125.8Y-94.1
X126.4Y-97.4
X126.4Y-102.4
X126.8Y-99.4
X128.55Y-78.1
X130.5Y-94.1
X130.9Y-102.4
X131.1Y-97.4
X131.5Y-99.4
X131.7Y-80.352
X132.3Y-82.7
X133.1Y-81.4
X134.0Y-96.7
X137.4Y-97.7
X137.7Y-98.8
X140.9Y-93.8
X146.0Y-91.4
X146.0Y-92.4
T2
X109.395Y-48.5
X111.295Y-48.5
T3
X153.0Y-78.375
X153.0Y-80.915
X153.0Y-83.455
X153.0Y-85.995
X153.0Y-88.535
X153.0Y-91.075
X153.0Y-93.615
X153.0Y-96.155
X153.0Y-98.695
X153.0Y-101.235
T4
X76.147Y-107.358
X79.957Y-107.358
X83.767Y-107.358
X87.578Y-107.358
X91.388Y-107.358
X95.197Y-107.358
X99.007Y-107.358
X102.817Y-107.358
X116.57Y-107.5
X120.38Y-107.5
X124.19Y-107.5
X128.0Y-107.5
X131.81Y-107.5
X135.62Y-107.5
X139.43Y-107.5
X143.24Y-107.5
T5
X124.112Y-64.1
T6
X126.112Y-58.1
X126.112Y-70.1
X138.312Y-58.1
X138.312Y-70.1
T7
X147.112Y-59.02
X147.112Y-64.1
X147.112Y-69.18
T8
X78.88Y-41.0
X86.5Y-38.46
X86.5Y-43.54
X137.5Y-38.46
X137.5Y-43.54
X145.12Y-41.0
T9
X68.0Y-34.0
X68.0Y-111.0
X156.0Y-34.0
X156.0Y-111.0
M30
